G04*
G04 #@! TF.GenerationSoftware,Altium Limited,Altium Designer,25.8.1 (18)*
G04*
G04 Layer_Color=8388736*
%FSLAX25Y25*%
%MOIN*%
G70*
G04*
G04 #@! TF.SameCoordinates,5416C298-7F67-47E7-9347-BB7475E64482*
G04*
G04*
G04 #@! TF.FilePolarity,Positive*
G04*
G01*
G75*
%ADD10C,0.00787*%
%ADD18C,0.00394*%
D10*
X298933Y455500D02*
X328067D01*
X298933D02*
Y495500D01*
X328067D01*
Y455500D02*
Y495500D01*
X508744Y309744D02*
X529256D01*
Y345256D01*
X508744D02*
X529256D01*
X508744Y309744D02*
Y345256D01*
X256110Y386547D02*
X279732D01*
Y465287D01*
X256110D02*
X279732D01*
X256110Y386547D02*
Y465287D01*
X256689Y286630D02*
Y365370D01*
X280311D01*
Y286630D02*
Y365370D01*
X256689Y286630D02*
X280311D01*
X199433Y456110D02*
X228567D01*
X199433D02*
Y496110D01*
X228567D01*
Y456110D02*
Y496110D01*
X198933Y254500D02*
Y294500D01*
Y254500D02*
X228067D01*
Y294500D01*
X198933D02*
X228067D01*
X399400Y403195D02*
Y428805D01*
X385600D02*
X399400D01*
X385600Y403195D02*
Y428805D01*
Y403195D02*
X399400D01*
D18*
X388760Y472815D02*
G03*
X388760Y472815I-1575J0D01*
G01*
X355925Y431850D02*
Y438150D01*
X359075D01*
Y431850D02*
Y438150D01*
X355925Y431850D02*
X359075D01*
X384035Y475965D02*
X400965D01*
Y459035D02*
Y475965D01*
X384035Y459035D02*
X400965D01*
X384035D02*
Y475965D01*
M02*
