G04*
G04 #@! TF.GenerationSoftware,Altium Limited,Altium Designer,25.8.1 (18)*
G04*
G04 Layer_Color=32768*
%FSLAX25Y25*%
%MOIN*%
G70*
G04*
G04 #@! TF.SameCoordinates,5416C298-7F67-47E7-9347-BB7475E64482*
G04*
G04*
G04 #@! TF.FilePolarity,Positive*
G04*
G01*
G75*
%ADD10C,0.00787*%
%ADD18C,0.00394*%
%ADD106C,0.00197*%
D10*
X298539Y444594D02*
X328461D01*
X298539D02*
Y495894D01*
X328461D01*
Y444594D02*
Y495894D01*
X505102Y309350D02*
X532898D01*
Y345650D01*
X505102D02*
X532898D01*
X505102Y309350D02*
Y345650D01*
X255716Y386154D02*
X280126D01*
Y465681D01*
X255716D02*
X280126D01*
X255716Y386154D02*
Y465681D01*
X256295Y286236D02*
Y365764D01*
X280705D01*
Y286236D02*
Y365764D01*
X256295Y286236D02*
X280705D01*
X199039Y445205D02*
X228961D01*
X199039D02*
Y496504D01*
X228961D01*
Y445205D02*
Y496504D01*
X198539Y254106D02*
Y305405D01*
Y254106D02*
X228461D01*
Y305405D01*
X198539D02*
X228461D01*
X407843Y402801D02*
Y429199D01*
X377157D02*
X407843D01*
X377157Y402801D02*
Y429199D01*
Y402801D02*
X407843D01*
D18*
X355819Y403500D02*
X358181D01*
X357000Y402319D02*
Y404681D01*
X392500Y448524D02*
Y452264D01*
X390630Y450394D02*
X394370D01*
X358500Y343516D02*
Y345484D01*
X357516Y344500D02*
X359484D01*
X414428Y343984D02*
X416397D01*
X415412Y343000D02*
Y344969D01*
X443500Y325319D02*
Y327681D01*
X442319Y326500D02*
X444681D01*
X478827Y406819D02*
Y409181D01*
X477646Y408000D02*
X480008D01*
X508016Y405469D02*
X509984D01*
X509000Y404484D02*
Y406453D01*
X515016Y405500D02*
X516984D01*
X516000Y404516D02*
Y406484D01*
X244500Y348319D02*
Y350681D01*
X243319Y349500D02*
X245681D01*
X347500Y384516D02*
Y386484D01*
X346516Y385500D02*
X348484D01*
X353000Y306516D02*
Y308484D01*
X352016Y307500D02*
X353984D01*
X452500Y325492D02*
Y327854D01*
X451319Y326673D02*
X453681D01*
X489000Y406819D02*
Y409181D01*
X487819Y408000D02*
X490181D01*
X502000Y372016D02*
Y373984D01*
X501016Y373000D02*
X502984D01*
X433000Y320319D02*
Y322681D01*
X431819Y321500D02*
X434181D01*
X353000Y343484D02*
Y345453D01*
X352016Y344468D02*
X353984D01*
X429500Y367819D02*
Y370181D01*
X428319Y369000D02*
X430681D01*
X442016Y406500D02*
X443984D01*
X443000Y405516D02*
Y407484D01*
X431016Y406500D02*
X432984D01*
X432000Y405516D02*
Y407484D01*
X243819Y435673D02*
X246181D01*
X245000Y434492D02*
Y436854D01*
X314032Y394000D02*
X317969D01*
X316000Y392032D02*
Y395969D01*
X304031Y394000D02*
X307968D01*
X306000Y392032D02*
Y395969D01*
X314531Y321500D02*
X318468D01*
X316500Y319531D02*
Y323468D01*
X304532Y321500D02*
X308469D01*
X306500Y319531D02*
Y323468D01*
X382819Y306500D02*
X385181D01*
X384000Y305319D02*
Y307681D01*
X398500Y305819D02*
Y308181D01*
X397319Y307000D02*
X399681D01*
X364500Y378016D02*
Y379984D01*
X363516Y379000D02*
X365484D01*
X418819Y375000D02*
X421181D01*
X420000Y373819D02*
Y376181D01*
X418819Y369000D02*
X421181D01*
X420000Y367819D02*
Y370181D01*
X418819Y386500D02*
X421181D01*
X420000Y385319D02*
Y387681D01*
X406319Y386500D02*
X408681D01*
X407500Y385319D02*
Y387681D01*
X382500Y387819D02*
Y390181D01*
X381319Y389000D02*
X383681D01*
X400032Y448000D02*
X403968D01*
X402000Y446032D02*
Y449968D01*
X370500Y466016D02*
Y467984D01*
X369516Y467000D02*
X371484D01*
D106*
X353457Y401728D02*
Y405272D01*
X360543Y401728D02*
Y405272D01*
X353457D02*
X360543D01*
X353457Y401728D02*
X360543D01*
X389547Y444488D02*
X395453D01*
X389547Y456299D02*
X395453D01*
X389547Y444488D02*
Y456299D01*
X395453Y444488D02*
Y456299D01*
X354941Y429685D02*
Y440315D01*
X360059D01*
Y429685D02*
Y440315D01*
X354941Y429685D02*
X360059D01*
X356335Y340169D02*
X360665D01*
X356335Y348831D02*
X360665D01*
X356335Y340169D02*
Y348831D01*
X360665Y340169D02*
Y348831D01*
X417578Y339653D02*
Y348315D01*
X413247Y339653D02*
Y348315D01*
X417578D01*
X413247Y339653D02*
X417578D01*
X441728Y322957D02*
X445272D01*
X441728Y330043D02*
X445272D01*
X441728Y322957D02*
Y330043D01*
X445272Y322957D02*
Y330043D01*
X475283Y409772D02*
X482370D01*
X475283Y406228D02*
X482370D01*
X475283D02*
Y409772D01*
X482370Y406228D02*
Y409772D01*
X511165Y401138D02*
Y409799D01*
X506835Y401138D02*
Y409799D01*
X511165D01*
X506835Y401138D02*
X511165D01*
X518165Y401169D02*
Y409831D01*
X513835Y401169D02*
Y409831D01*
X518165D01*
X513835Y401169D02*
X518165D01*
X242728Y345957D02*
X246272D01*
X242728Y353043D02*
X246272D01*
X242728Y345957D02*
Y353043D01*
X246272Y345957D02*
Y353043D01*
X345335Y389831D02*
X349665D01*
X345335Y381169D02*
X349665D01*
Y389831D01*
X345335Y381169D02*
Y389831D01*
X348669Y309665D02*
X357331D01*
X348669Y305335D02*
X357331D01*
X348669D02*
Y309665D01*
X357331Y305335D02*
Y309665D01*
X450728Y323130D02*
X454272D01*
X450728Y330217D02*
X454272D01*
X450728Y323130D02*
Y330217D01*
X454272Y323130D02*
Y330217D01*
X485457Y406228D02*
X492543D01*
X485457Y409772D02*
X492543D01*
Y406228D02*
Y409772D01*
X485457Y406228D02*
Y409772D01*
X499835Y368669D02*
X504165D01*
X499835Y377331D02*
X504165D01*
X499835Y368669D02*
Y377331D01*
X504165Y368669D02*
Y377331D01*
X429457Y323272D02*
X436543D01*
X429457Y319728D02*
X436543D01*
X429457D02*
Y323272D01*
X436543Y319728D02*
Y323272D01*
X350835Y340138D02*
X355165D01*
X350835Y348799D02*
X355165D01*
X350835Y340138D02*
Y348799D01*
X355165Y340138D02*
Y348799D01*
X425957Y367228D02*
X433043D01*
X425957Y370772D02*
X433043D01*
Y367228D02*
Y370772D01*
X425957Y367228D02*
Y370772D01*
X447331Y404335D02*
Y408665D01*
X438669Y404335D02*
Y408665D01*
Y404335D02*
X447331D01*
X438669Y408665D02*
X447331D01*
X436331Y404335D02*
Y408665D01*
X427669Y404335D02*
Y408665D01*
Y404335D02*
X436331D01*
X427669Y408665D02*
X436331D01*
X246772Y432130D02*
Y439217D01*
X243228Y432130D02*
Y439217D01*
X246772D01*
X243228Y432130D02*
X246772D01*
X312063Y387307D02*
Y400693D01*
X319937Y387307D02*
Y400693D01*
X312063Y387307D02*
X319937D01*
X312063Y400693D02*
X319937D01*
X302063Y387307D02*
Y400693D01*
X309937Y387307D02*
Y400693D01*
X302063Y387307D02*
X309937D01*
X302063Y400693D02*
X309937D01*
X312563Y314807D02*
Y328193D01*
X320437Y314807D02*
Y328193D01*
X312563Y314807D02*
X320437D01*
X312563Y328193D02*
X320437D01*
X302563Y314807D02*
Y328193D01*
X310437Y314807D02*
Y328193D01*
X302563Y314807D02*
X310437D01*
X302563Y328193D02*
X310437D01*
X382228Y302957D02*
Y310043D01*
X385772Y302957D02*
Y310043D01*
X382228Y302957D02*
X385772D01*
X382228Y310043D02*
X385772D01*
X396728Y310543D02*
X400272D01*
X396728Y303457D02*
X400272D01*
Y310543D01*
X396728Y303457D02*
Y310543D01*
X362335Y383331D02*
X366665D01*
X362335Y374669D02*
X366665D01*
Y383331D01*
X362335Y374669D02*
Y383331D01*
X416457Y373228D02*
Y376772D01*
X423543Y373228D02*
Y376772D01*
X416457D02*
X423543D01*
X416457Y373228D02*
X423543D01*
Y367228D02*
Y370772D01*
X416457Y367228D02*
Y370772D01*
Y367228D02*
X423543D01*
X416457Y370772D02*
X423543D01*
X416457Y384728D02*
Y388272D01*
X423543Y384728D02*
Y388272D01*
X416457D02*
X423543D01*
X416457Y384728D02*
X423543D01*
X403957D02*
Y388272D01*
X411043Y384728D02*
Y388272D01*
X403957D02*
X411043D01*
X403957Y384728D02*
X411043D01*
X380728Y392543D02*
X384272D01*
X380728Y385457D02*
X384272D01*
Y392543D01*
X380728Y385457D02*
Y392543D01*
X405937Y441307D02*
Y454693D01*
X398063Y441307D02*
Y454693D01*
X405937D01*
X398063Y441307D02*
X405937Y441307D01*
X382854Y477146D02*
X402146D01*
Y457854D02*
Y477146D01*
X382854Y457854D02*
X402146D01*
X382854D02*
Y477146D01*
X366169Y469165D02*
X374831D01*
X366169Y464835D02*
X374831D01*
X366169D02*
Y469165D01*
X374831Y464835D02*
Y469165D01*
M02*
