G04*
G04 #@! TF.GenerationSoftware,Altium Limited,Altium Designer,25.8.1 (18)*
G04*
G04 Layer_Color=65535*
%FSLAX25Y25*%
%MOIN*%
G70*
G04*
G04 #@! TF.SameCoordinates,BD6C6330-6F5E-4E75-AD65-D1E33E9A6F4C*
G04*
G04*
G04 #@! TF.FilePolarity,Positive*
G04*
G01*
G75*
%ADD10C,0.00984*%
%ADD11C,0.00000*%
%ADD12C,0.00787*%
%ADD13C,0.00600*%
%ADD14C,0.00800*%
%ADD15C,0.00500*%
%ADD16C,0.01000*%
%ADD17C,0.00598*%
%ADD18C,0.00394*%
%ADD19C,0.00700*%
%ADD20C,0.00300*%
G36*
X383376Y340900D02*
X381876D01*
Y339900D01*
X383376D01*
Y340900D01*
D02*
G37*
G36*
X386526Y381100D02*
X385026D01*
Y382100D01*
X386526D01*
Y381100D01*
D02*
G37*
G36*
X410600Y360175D02*
X411600D01*
Y358675D01*
X410600D01*
Y360175D01*
D02*
G37*
D10*
X298146Y459850D02*
G03*
X298146Y459850I-492J0D01*
G01*
X534905Y312382D02*
G03*
X534905Y312382I-492J0D01*
G01*
X198646Y460461D02*
G03*
X198646Y460461I-492J0D01*
G01*
X229839Y290150D02*
G03*
X229839Y290150I-492J0D01*
G01*
X405965Y402220D02*
G03*
X405965Y402220I-492J0D01*
G01*
X382165Y472224D02*
G03*
X382165Y472224I-492J0D01*
G01*
D11*
X465975Y316435D02*
G03*
X465975Y316435I-1000J0D01*
G01*
X382925Y284307D02*
G03*
X382925Y284307I-500J0D01*
G01*
X397425D02*
G03*
X397425Y284307I-500J0D01*
G01*
D12*
X428929Y382303D02*
G03*
X428929Y382303I-394J0D01*
G01*
X361945Y457724D02*
G03*
X361945Y457724I-394J0D01*
G01*
X244894Y303866D02*
G03*
X244894Y303866I-394J0D01*
G01*
X245394Y389913D02*
G03*
X245394Y389913I-394J0D01*
G01*
X346020Y267783D02*
G03*
X346020Y268177I0J197D01*
G01*
D02*
G03*
X346020Y267783I0J-197D01*
G01*
D02*
G03*
X346020Y268177I0J197D01*
G01*
X503284Y379480D02*
G03*
X503677Y379480I197J0D01*
G01*
D02*
G03*
X503284Y379480I-197J0D01*
G01*
D02*
G03*
X503677Y379480I197J0D01*
G01*
X299020Y376969D02*
G03*
X299020Y376969I-394J0D01*
G01*
X299382Y304437D02*
G03*
X299382Y304437I-394J0D01*
G01*
X318067Y455500D02*
X328067D01*
X298933D02*
X308933D01*
X298933D02*
Y495500D01*
X328067D01*
Y455500D02*
Y495500D01*
X356000Y351819D02*
Y354181D01*
X517957Y309744D02*
X520043D01*
X517957Y345256D02*
X520043D01*
X256110Y386547D02*
X279732D01*
Y465287D01*
X256110D02*
X279732D01*
X256110Y386547D02*
Y465287D01*
X256689Y286630D02*
Y365370D01*
X280311D01*
Y286630D02*
Y365370D01*
X256689Y286630D02*
X280311D01*
X218567Y456110D02*
X228567D01*
X199433D02*
X209433D01*
X199433D02*
Y496110D01*
X228567D01*
Y456110D02*
Y496110D01*
X198933Y254500D02*
Y294500D01*
Y254500D02*
X228067D01*
Y294500D01*
X218067D02*
X228067D01*
X198933D02*
X208933D01*
X399400Y403195D02*
Y428805D01*
X385600D02*
X399400D01*
X385600Y403195D02*
Y428805D01*
Y403195D02*
X399400D01*
X383642Y476358D02*
X401358D01*
Y458642D02*
Y476358D01*
X383642Y458642D02*
X401358D01*
X383642D02*
Y476358D01*
D13*
X214300Y323250D02*
G03*
X214300Y323250I-300J0D01*
G01*
Y408250D02*
G03*
X214300Y408250I-300J0D01*
G01*
X376200Y375300D02*
X377166D01*
X376200Y346700D02*
X377166D01*
X404800D02*
Y347666D01*
X403834Y375300D02*
X404800D01*
X376200Y374334D02*
Y375300D01*
Y346700D02*
Y347666D01*
X403834Y346700D02*
X404800D01*
Y374334D02*
Y375300D01*
X227141Y393991D02*
X232859D01*
Y398053D01*
X227141Y406009D02*
X232859D01*
Y401947D02*
Y406009D01*
X227141Y398207D02*
Y401793D01*
X228641Y307991D02*
X234359D01*
Y312053D01*
X228641Y320009D02*
X234359D01*
Y315947D02*
Y320009D01*
X228641Y312207D02*
Y315793D01*
X504463Y401283D02*
Y404109D01*
X500537Y401283D02*
X504463D01*
X500537D02*
Y404109D01*
X504463Y405891D02*
Y408717D01*
X500537D02*
X504463D01*
X500537Y405891D02*
Y408717D01*
X220000Y327750D02*
Y349250D01*
X218660D02*
X220000D01*
X208000Y327750D02*
Y349250D01*
Y327750D02*
X209340D01*
X218660D02*
X220000D01*
X208000Y349250D02*
X209340D01*
X208000Y434250D02*
X209340D01*
X218660Y412750D02*
X220000D01*
X208000D02*
X209340D01*
X208000D02*
Y434250D01*
X218660D02*
X220000D01*
Y412750D02*
Y434250D01*
X526401Y397600D02*
Y398933D01*
Y398266D01*
X528400D01*
X526734Y400932D02*
X526401Y400599D01*
Y399933D01*
X526734Y399599D01*
X528067D01*
X528400Y399933D01*
Y400599D01*
X528067Y400932D01*
X527400D01*
Y400266D01*
X526401Y401599D02*
X528400D01*
Y402932D01*
Y407597D02*
X526401D01*
Y408596D01*
X526734Y408930D01*
X527400D01*
X527734Y408596D01*
Y407597D01*
Y408263D02*
X528400Y408930D01*
X526734Y410929D02*
X526401Y410596D01*
Y409929D01*
X526734Y409596D01*
X527067D01*
X527400Y409929D01*
Y410596D01*
X527734Y410929D01*
X528067D01*
X528400Y410596D01*
Y409929D01*
X528067Y409596D01*
X526401Y411595D02*
Y412928D01*
Y412262D01*
X528400D01*
X526734Y418926D02*
X526401Y418593D01*
Y417927D01*
X526734Y417593D01*
X527067D01*
X527400Y417927D01*
Y418593D01*
X527734Y418926D01*
X528067D01*
X528400Y418593D01*
Y417927D01*
X528067Y417593D01*
X526734Y420926D02*
X526401Y420592D01*
Y419926D01*
X526734Y419593D01*
X528067D01*
X528400Y419926D01*
Y420592D01*
X528067Y420926D01*
X526401Y421592D02*
X528400D01*
Y422925D01*
X526734Y428923D02*
X526401Y428590D01*
Y427923D01*
X526734Y427590D01*
X527067D01*
X527400Y427923D01*
Y428590D01*
X527734Y428923D01*
X528067D01*
X528400Y428590D01*
Y427923D01*
X528067Y427590D01*
X526401Y429590D02*
X528400D01*
Y430589D01*
X528067Y430923D01*
X526734D01*
X526401Y430589D01*
Y429590D01*
X528400Y431589D02*
X527067D01*
X526401Y432255D01*
X527067Y432922D01*
X528400D01*
X527400D01*
Y431589D01*
X435933Y375766D02*
X435600Y376099D01*
X434933D01*
X434600Y375766D01*
Y374433D01*
X434933Y374100D01*
X435600D01*
X435933Y374433D01*
Y375100D01*
X435266D01*
X436599Y374100D02*
Y376099D01*
X437932Y374100D01*
Y376099D01*
X438599D02*
Y374100D01*
X439598D01*
X439932Y374433D01*
Y375766D01*
X439598Y376099D01*
X438599D01*
X444597Y375766D02*
X444930Y376099D01*
X445596D01*
X445930Y375766D01*
Y375433D01*
X445596Y375100D01*
X445263D01*
X445596D01*
X445930Y374766D01*
Y374433D01*
X445596Y374100D01*
X444930D01*
X444597Y374433D01*
X446596Y375433D02*
X447263Y374100D01*
X447929Y375433D01*
X448595Y375766D02*
X448929Y376099D01*
X449595D01*
X449928Y375766D01*
Y375433D01*
X449595Y375100D01*
X449262D01*
X449595D01*
X449928Y374766D01*
Y374433D01*
X449595Y374100D01*
X448929D01*
X448595Y374433D01*
X455926Y375766D02*
X455593Y376099D01*
X454927D01*
X454594Y375766D01*
Y375433D01*
X454927Y375100D01*
X455593D01*
X455926Y374766D01*
Y374433D01*
X455593Y374100D01*
X454927D01*
X454594Y374433D01*
X457926Y375766D02*
X457592Y376099D01*
X456926D01*
X456593Y375766D01*
Y374433D01*
X456926Y374100D01*
X457592D01*
X457926Y374433D01*
X458592Y376099D02*
Y374100D01*
X459925D01*
X465923Y375766D02*
X465590Y376099D01*
X464923D01*
X464590Y375766D01*
Y375433D01*
X464923Y375100D01*
X465590D01*
X465923Y374766D01*
Y374433D01*
X465590Y374100D01*
X464923D01*
X464590Y374433D01*
X466590Y376099D02*
Y374100D01*
X467589D01*
X467922Y374433D01*
Y375766D01*
X467589Y376099D01*
X466590D01*
X468589Y374100D02*
Y375433D01*
X469255Y376099D01*
X469922Y375433D01*
Y374100D01*
Y375100D01*
X468589D01*
X525734Y265933D02*
X525401Y265600D01*
Y264933D01*
X525734Y264600D01*
X527067D01*
X527400Y264933D01*
Y265600D01*
X527067Y265933D01*
X526400D01*
Y265266D01*
X527400Y266599D02*
X525401D01*
X527400Y267932D01*
X525401D01*
Y268599D02*
X527400D01*
Y269598D01*
X527067Y269932D01*
X525734D01*
X525401Y269598D01*
Y268599D01*
X525734Y274597D02*
X525401Y274930D01*
Y275596D01*
X525734Y275930D01*
X526067D01*
X526400Y275596D01*
Y275263D01*
Y275596D01*
X526734Y275930D01*
X527067D01*
X527400Y275596D01*
Y274930D01*
X527067Y274597D01*
X526067Y276596D02*
X527400Y277263D01*
X526067Y277929D01*
X525734Y278595D02*
X525401Y278929D01*
Y279595D01*
X525734Y279928D01*
X526067D01*
X526400Y279595D01*
Y279262D01*
Y279595D01*
X526734Y279928D01*
X527067D01*
X527400Y279595D01*
Y278929D01*
X527067Y278595D01*
X525734Y285926D02*
X525401Y285593D01*
Y284927D01*
X525734Y284594D01*
X526067D01*
X526400Y284927D01*
Y285593D01*
X526734Y285926D01*
X527067D01*
X527400Y285593D01*
Y284927D01*
X527067Y284594D01*
X525734Y287926D02*
X525401Y287593D01*
Y286926D01*
X525734Y286593D01*
X527067D01*
X527400Y286926D01*
Y287593D01*
X527067Y287926D01*
X525401Y288592D02*
X527400D01*
Y289925D01*
X525734Y295923D02*
X525401Y295590D01*
Y294923D01*
X525734Y294590D01*
X526067D01*
X526400Y294923D01*
Y295590D01*
X526734Y295923D01*
X527067D01*
X527400Y295590D01*
Y294923D01*
X527067Y294590D01*
X525401Y296590D02*
X527400D01*
Y297589D01*
X527067Y297922D01*
X525734D01*
X525401Y297589D01*
Y296590D01*
X527400Y298589D02*
X526067D01*
X525401Y299255D01*
X526067Y299922D01*
X527400D01*
X526400D01*
Y298589D01*
X433256Y429692D02*
X433922D01*
X433589D01*
Y431691D01*
X433256Y431358D01*
X509949Y432381D02*
X510282Y432714D01*
X510949D01*
X511282Y432381D01*
Y432048D01*
X510949Y431715D01*
X510615D01*
X510949D01*
X511282Y431382D01*
Y431048D01*
X510949Y430715D01*
X510282D01*
X509949Y431048D01*
X511948Y432381D02*
X512282Y432714D01*
X512948D01*
X513281Y432381D01*
Y431048D01*
X512948Y430715D01*
X512282D01*
X511948Y431048D01*
Y432381D01*
X464606Y498095D02*
X463939D01*
X463606Y497762D01*
Y496429D01*
X463939Y496096D01*
X464606D01*
X464939Y496429D01*
Y497762D01*
X464606Y498095D01*
X465605D02*
Y496096D01*
X466938D01*
X468938Y498095D02*
X467605D01*
Y496096D01*
X468938D01*
X467605Y497096D02*
X468271D01*
X469604Y498095D02*
Y496096D01*
X470604D01*
X470937Y496429D01*
Y497762D01*
X470604Y498095D01*
X469604D01*
X471603Y495763D02*
X472936D01*
X473603Y496096D02*
X474269D01*
X473936D01*
Y498095D01*
X473603Y497762D01*
X476602Y496096D02*
X475269D01*
X476602Y497429D01*
Y497762D01*
X476269Y498095D01*
X475602D01*
X475269Y497762D01*
X477268D02*
X477601Y498095D01*
X478268D01*
X478601Y497762D01*
Y497429D01*
X478268Y497096D01*
X478601Y496762D01*
Y496429D01*
X478268Y496096D01*
X477601D01*
X477268Y496429D01*
Y496762D01*
X477601Y497096D01*
X477268Y497429D01*
Y497762D01*
X477601Y497096D02*
X478268D01*
X479268Y498095D02*
X480601Y496096D01*
Y498095D02*
X479268Y496096D01*
X482600Y498095D02*
X481933Y497762D01*
X481267Y497096D01*
Y496429D01*
X481600Y496096D01*
X482267D01*
X482600Y496429D01*
Y496762D01*
X482267Y497096D01*
X481267D01*
X484266Y496096D02*
Y498095D01*
X483266Y497096D01*
X484599D01*
D14*
X465779Y313543D02*
X474590D01*
X481134Y279095D02*
Y304685D01*
X481130Y256407D02*
X481134Y263347D01*
X422870Y256457D02*
X481130Y256407D01*
X422866Y265315D02*
X422870Y256457D01*
X422866Y279095D02*
Y304685D01*
X244006Y484737D02*
Y487403D01*
X245339Y488736D01*
X246672Y487403D01*
Y484737D01*
Y486736D01*
X244006D01*
X248005Y487403D02*
Y485403D01*
X248671Y484737D01*
X250671D01*
Y487403D01*
X252670Y488069D02*
Y487403D01*
X252004D01*
X253337D01*
X252670D01*
Y485403D01*
X253337Y484737D01*
X256002D02*
X257335D01*
X258002Y485403D01*
Y486736D01*
X257335Y487403D01*
X256002D01*
X255336Y486736D01*
Y485403D01*
X256002Y484737D01*
X259334D02*
Y487403D01*
X261334D01*
X262000Y486736D01*
Y484737D01*
X264000D02*
X265333D01*
X265999Y485403D01*
Y486736D01*
X265333Y487403D01*
X264000D01*
X263333Y486736D01*
Y485403D01*
X264000Y484737D01*
X267332D02*
Y487403D01*
X267998D01*
X268665Y486736D01*
Y484737D01*
Y486736D01*
X269331Y487403D01*
X269998Y486736D01*
Y484737D01*
X271997D02*
X273330D01*
X273996Y485403D01*
Y486736D01*
X273330Y487403D01*
X271997D01*
X271331Y486736D01*
Y485403D01*
X271997Y484737D01*
X275329Y487403D02*
Y485403D01*
X275996Y484737D01*
X277995D01*
Y487403D01*
X279328Y484737D02*
X281327D01*
X281994Y485403D01*
X281327Y486070D01*
X279995D01*
X279328Y486736D01*
X279995Y487403D01*
X281994D01*
X235009Y478019D02*
Y482017D01*
X237008D01*
X237675Y481351D01*
Y480018D01*
X237008Y479351D01*
X235009D01*
X236342D02*
X237675Y478019D01*
X239674D02*
X241007D01*
X241673Y478685D01*
Y480018D01*
X241007Y480684D01*
X239674D01*
X239008Y480018D01*
Y478685D01*
X239674Y478019D01*
X243006Y482017D02*
Y478019D01*
X245006D01*
X245672Y478685D01*
Y479351D01*
Y480018D01*
X245006Y480684D01*
X243006D01*
X247672Y478019D02*
X249005D01*
X249671Y478685D01*
Y480018D01*
X249005Y480684D01*
X247672D01*
X247005Y480018D01*
Y478685D01*
X247672Y478019D01*
X251670Y481351D02*
Y480684D01*
X251004D01*
X252337D01*
X251670D01*
Y478685D01*
X252337Y478019D01*
X254336D02*
X255669D01*
X255003D01*
Y480684D01*
X254336D01*
X260334D02*
X258335D01*
X257668Y480018D01*
Y478685D01*
X258335Y478019D01*
X260334D01*
X265666Y482017D02*
Y479351D01*
X266999Y478019D01*
X268332Y479351D01*
Y482017D01*
X271664Y478019D02*
X270331D01*
X269665Y478685D01*
Y480018D01*
X270331Y480684D01*
X271664D01*
X272330Y480018D01*
Y479351D01*
X269665D01*
X273663Y482017D02*
Y478019D01*
Y480018D01*
X274330Y480684D01*
X275663D01*
X276329Y480018D01*
Y478019D01*
X277662D02*
X278995D01*
X278328D01*
Y480684D01*
X277662D01*
X283660D02*
X281661D01*
X280994Y480018D01*
Y478685D01*
X281661Y478019D01*
X283660D01*
X284993D02*
X286326D01*
X285659D01*
Y482017D01*
X284993D01*
X290324Y478019D02*
X288992D01*
X288325Y478685D01*
Y480018D01*
X288992Y480684D01*
X290324D01*
X290991Y480018D01*
Y479351D01*
X288325D01*
X252004Y475299D02*
Y471966D01*
X252670Y471300D01*
X254003D01*
X254669Y471966D01*
Y475299D01*
X260667Y471300D02*
X262000D01*
X262667Y471966D01*
Y473299D01*
X262000Y473966D01*
X260667D01*
X260001Y473299D01*
Y471966D01*
X260667Y471300D01*
X264666D02*
Y474632D01*
Y473299D01*
X264000D01*
X265333D01*
X264666D01*
Y474632D01*
X265333Y475299D01*
X271331Y471300D02*
Y475299D01*
X272663Y473966D01*
X273996Y475299D01*
Y471300D01*
X189838Y386007D02*
Y390005D01*
X191171Y388672D01*
X192504Y390005D01*
Y386007D01*
X194503Y388672D02*
X195836D01*
X196503Y388006D01*
Y386007D01*
X194503D01*
X193837Y386673D01*
X194503Y387340D01*
X196503D01*
X197836Y388672D02*
X199168Y386007D01*
X200501Y388672D01*
X203834Y386007D02*
X202501D01*
X201834Y386673D01*
Y388006D01*
X202501Y388672D01*
X203834D01*
X204500Y388006D01*
Y387340D01*
X201834D01*
X205833Y388672D02*
Y386007D01*
Y387340D01*
X206499Y388006D01*
X207166Y388672D01*
X207832D01*
X209832Y386007D02*
X211164D01*
X210498D01*
Y388672D01*
X209832D01*
X215830D02*
X213830D01*
X213164Y388006D01*
Y386673D01*
X213830Y386007D01*
X215830D01*
X217163D02*
Y390005D01*
Y387340D02*
X219162Y388672D01*
X217163Y387340D02*
X219162Y386007D01*
X193170Y379955D02*
X195836D01*
X199835Y380621D02*
X197169Y383287D01*
X201168Y379955D02*
X203834D01*
X205167D02*
X207832D01*
X209165Y380621D02*
X211831Y383287D01*
X213164Y379955D02*
X215830D01*
X193503Y372570D02*
X192171D01*
Y376569D01*
X193503D01*
X195503Y371903D02*
X198169D01*
X200168Y372570D02*
X201501D01*
X202167Y373236D01*
Y374569D01*
X201501Y375236D01*
X200168D01*
X199502Y374569D01*
Y373236D01*
X200168Y372570D01*
Y377235D02*
X201501Y376569D01*
X203500Y371903D02*
X206166D01*
X208166Y372570D02*
X209498D01*
X210165Y373236D01*
Y374569D01*
X209498Y375236D01*
X208166D01*
X207499Y374569D01*
Y373236D01*
X208166Y372570D01*
Y377235D02*
X209498Y376569D01*
X211498Y371903D02*
X214163D01*
X215496Y372570D02*
X216829D01*
Y376569D01*
X215496D01*
X191171Y365185D02*
X193837Y367851D01*
X195170Y369184D02*
Y365185D01*
X197169Y364518D02*
X199835D01*
X201168D02*
X203834D01*
X205167D02*
X207832D01*
X209165D02*
X211831D01*
X213164Y369184D02*
Y365185D01*
X217829D02*
X215163Y367851D01*
X197502Y361799D02*
Y357800D01*
X211498Y361799D02*
Y357800D01*
X232844Y263518D02*
Y267517D01*
X234844D01*
X235510Y266851D01*
Y265518D01*
X234844Y264851D01*
X232844D01*
X237510Y263518D02*
X238843D01*
X239509Y264185D01*
Y265518D01*
X238843Y266184D01*
X237510D01*
X236843Y265518D01*
Y264185D01*
X237510Y263518D01*
X240842Y266184D02*
Y264185D01*
X241508Y263518D01*
X242175Y264185D01*
X242841Y263518D01*
X243508Y264185D01*
Y266184D01*
X246840Y263518D02*
X245507D01*
X244841Y264185D01*
Y265518D01*
X245507Y266184D01*
X246840D01*
X247506Y265518D01*
Y264851D01*
X244841D01*
X248839Y266184D02*
Y263518D01*
Y264851D01*
X249506Y265518D01*
X250172Y266184D01*
X250839D01*
X256837Y267517D02*
Y263518D01*
X258836D01*
X259503Y264185D01*
Y266851D01*
X258836Y267517D01*
X256837D01*
X260836Y263518D02*
X262168D01*
X261502D01*
Y266184D01*
X260836D01*
X264168Y263518D02*
X266167D01*
X266834Y264185D01*
X266167Y264851D01*
X264834D01*
X264168Y265518D01*
X264834Y266184D01*
X266834D01*
X268833Y266851D02*
Y266184D01*
X268166D01*
X269499D01*
X268833D01*
Y264185D01*
X269499Y263518D01*
X271499Y266184D02*
Y263518D01*
Y264851D01*
X272165Y265518D01*
X272832Y266184D01*
X273498D01*
X276164Y263518D02*
X277497D01*
X278163Y264185D01*
Y265518D01*
X277497Y266184D01*
X276164D01*
X275497Y265518D01*
Y264185D01*
X276164Y263518D01*
X283495Y267517D02*
Y263518D01*
X285494D01*
X286161Y264185D01*
Y264851D01*
X285494Y265518D01*
X283495D01*
X285494D01*
X286161Y266184D01*
Y266851D01*
X285494Y267517D01*
X283495D01*
X288160Y263518D02*
X289493D01*
X290159Y264185D01*
Y265518D01*
X289493Y266184D01*
X288160D01*
X287494Y265518D01*
Y264185D01*
X288160Y263518D01*
X292159Y266184D02*
X293492D01*
X294158Y265518D01*
Y263518D01*
X292159D01*
X291492Y264185D01*
X292159Y264851D01*
X294158D01*
X295491Y266184D02*
Y263518D01*
Y264851D01*
X296157Y265518D01*
X296824Y266184D01*
X297490D01*
X302155Y267517D02*
Y263518D01*
X300156D01*
X299490Y264185D01*
Y265518D01*
X300156Y266184D01*
X302155D01*
X260836Y260799D02*
Y258133D01*
X262168Y256800D01*
X263501Y258133D01*
Y260799D01*
X264834Y256800D02*
X266167D01*
X265501D01*
Y260799D01*
X264834Y260132D01*
X268166Y256800D02*
Y257466D01*
X268833D01*
Y256800D01*
X268166D01*
X271499Y260132D02*
X272165Y260799D01*
X273498D01*
X274165Y260132D01*
Y257466D01*
X273498Y256800D01*
X272165D01*
X271499Y257466D01*
Y260132D01*
D15*
X431016Y377500D02*
Y387500D01*
Y377500D02*
X472984D01*
Y387500D01*
X431016D02*
X472984D01*
X367850Y446839D02*
X374150D01*
X367850Y459161D02*
X374150D01*
X303095Y369094D02*
Y370197D01*
Y379803D02*
Y380906D01*
X313803Y369094D02*
X314906D01*
X303095D02*
X308134D01*
X314906D02*
Y370197D01*
Y379803D02*
Y380906D01*
X313803D02*
X314906D01*
X303095D02*
X308134D01*
X303457Y308374D02*
X308496D01*
X314165D02*
X315268D01*
Y307272D02*
Y308374D01*
Y296563D02*
Y297665D01*
X303457Y296563D02*
X308496D01*
X314165D02*
X315268D01*
X303457Y307272D02*
Y308374D01*
Y296563D02*
Y297665D01*
D16*
X422035Y468038D02*
Y543865D01*
Y468038D02*
X527153D01*
Y543865D01*
X422035D02*
X527153D01*
X453367Y439376D02*
X493525D01*
X425415Y541738D02*
X426989D01*
X424234D02*
X425415D01*
X424234D02*
X424627Y541345D01*
Y476384D02*
Y541345D01*
Y476384D02*
X524233D01*
Y541738D01*
X424627D02*
X524233D01*
X497068Y439376D02*
Y467722D01*
Y439376D02*
X515966D01*
X449430Y438982D02*
Y468116D01*
X430926Y438982D02*
X449430D01*
X515942Y418268D02*
Y439528D01*
X430902Y417874D02*
Y439134D01*
X331500Y475997D02*
X335499D01*
Y473998D01*
X334832Y473331D01*
X333499D01*
X332833Y473998D01*
Y475997D01*
X331500Y471332D02*
Y469999D01*
X332166Y469333D01*
X333499D01*
X334166Y469999D01*
Y471332D01*
X333499Y471998D01*
X332166D01*
X331500Y471332D01*
X334166Y468000D02*
X332166D01*
X331500Y467333D01*
X332166Y466667D01*
X331500Y466000D01*
X332166Y465334D01*
X334166D01*
X331500Y462002D02*
Y463335D01*
X332166Y464001D01*
X333499D01*
X334166Y463335D01*
Y462002D01*
X333499Y461335D01*
X332833D01*
Y464001D01*
X334166Y460002D02*
X331500D01*
X332833D01*
X333499Y459336D01*
X334166Y458669D01*
Y458003D01*
X292500Y494499D02*
X291167D01*
X291834D01*
Y491167D01*
X291167Y490501D01*
X290501D01*
X289834Y491167D01*
X293833Y490501D02*
X295166D01*
X294499D01*
Y494499D01*
X293833Y493833D01*
X379672Y257334D02*
Y261333D01*
X381005Y260000D01*
X382338Y261333D01*
Y257334D01*
X383671Y261333D02*
X385003D01*
X384337D01*
Y257334D01*
X383671D01*
X385003D01*
X389669Y260666D02*
X389002Y261333D01*
X387669D01*
X387003Y260666D01*
Y258000D01*
X387669Y257334D01*
X389002D01*
X389669Y258000D01*
X391002Y257334D02*
Y261333D01*
X393001D01*
X393667Y260666D01*
Y259333D01*
X393001Y258667D01*
X391002D01*
X392335D02*
X393667Y257334D01*
X397000Y261333D02*
X395667D01*
X395000Y260666D01*
Y258000D01*
X395667Y257334D01*
X397000D01*
X397666Y258000D01*
Y260666D01*
X397000Y261333D01*
X398999Y256667D02*
X401665D01*
X405663Y260666D02*
X404997Y261333D01*
X403664D01*
X402998Y260666D01*
Y260000D01*
X403664Y259333D01*
X404997D01*
X405663Y258667D01*
Y258000D01*
X404997Y257334D01*
X403664D01*
X402998Y258000D01*
X406996Y261333D02*
Y257334D01*
X408996D01*
X409662Y258000D01*
Y260666D01*
X408996Y261333D01*
X406996D01*
X410995Y257334D02*
X412328D01*
X411662D01*
Y261333D01*
X410995Y260666D01*
X347999Y436000D02*
X346000D01*
X347999Y437999D01*
Y438499D01*
X347499Y438999D01*
X346500D01*
X346000Y438499D01*
X350998Y438999D02*
X349999Y438499D01*
X348999Y437500D01*
Y436500D01*
X349499Y436000D01*
X350499D01*
X350998Y436500D01*
Y437000D01*
X350499Y437500D01*
X348999D01*
X351998Y437999D02*
X352998Y436000D01*
X353997Y437999D01*
X349499Y425000D02*
X347500D01*
X349499Y426999D01*
Y427499D01*
X349000Y427999D01*
X348000D01*
X347500Y427499D01*
X352498Y427999D02*
X351499Y427499D01*
X350499Y426500D01*
Y425500D01*
X350999Y425000D01*
X351998D01*
X352498Y425500D01*
Y426000D01*
X351998Y426500D01*
X350499D01*
X353498Y426999D02*
X354498Y425000D01*
X355497Y426999D01*
X477336Y384333D02*
X476003D01*
X476670D01*
Y381000D01*
X476003Y380334D01*
X475337D01*
X474670Y381000D01*
X478669Y379667D02*
X481335D01*
X484667Y384333D02*
X483334D01*
X482668Y383666D01*
Y381000D01*
X483334Y380334D01*
X484667D01*
X485334Y381000D01*
Y383666D01*
X484667Y384333D01*
X486666D02*
Y380334D01*
X489332D01*
X493331Y384333D02*
X490665D01*
Y380334D01*
X493331D01*
X490665Y382333D02*
X491998D01*
X494664Y384333D02*
Y380334D01*
X496663D01*
X497330Y381000D01*
Y383666D01*
X496663Y384333D01*
X494664D01*
X192171Y311334D02*
Y315333D01*
X194170D01*
X194837Y314666D01*
Y313333D01*
X194170Y312667D01*
X192171D01*
X193504D02*
X194837Y311334D01*
X196170Y310667D02*
X198836D01*
X200168Y315333D02*
Y311334D01*
X202168D01*
X202834Y312000D01*
Y312667D01*
X202168Y313333D01*
X200168D01*
X202168D01*
X202834Y314000D01*
Y314666D01*
X202168Y315333D01*
X200168D01*
X204834Y314000D02*
X206166D01*
X206833Y313333D01*
Y311334D01*
X204834D01*
X204167Y312000D01*
X204834Y312667D01*
X206833D01*
X208166Y311334D02*
X210165D01*
X210832Y312000D01*
X210165Y312667D01*
X208832D01*
X208166Y313333D01*
X208832Y314000D01*
X210832D01*
X214164Y311334D02*
X212831D01*
X212164Y312000D01*
Y313333D01*
X212831Y314000D01*
X214164D01*
X214830Y313333D01*
Y312667D01*
X212164D01*
X216163Y315333D02*
Y311334D01*
X218163D01*
X218829Y312000D01*
Y312667D01*
X218163Y313333D01*
X216163D01*
X218163D01*
X218829Y314000D01*
Y314666D01*
X218163Y315333D01*
X216163D01*
X191171Y396834D02*
Y400833D01*
X193170D01*
X193837Y400166D01*
Y398833D01*
X193170Y398167D01*
X191171D01*
X192504D02*
X193837Y396834D01*
X195170Y396167D02*
X197836D01*
X199168Y400833D02*
Y396834D01*
X201168D01*
X201834Y397500D01*
Y398167D01*
X201168Y398833D01*
X199168D01*
X201168D01*
X201834Y399500D01*
Y400166D01*
X201168Y400833D01*
X199168D01*
X203834Y399500D02*
X205166D01*
X205833Y398833D01*
Y396834D01*
X203834D01*
X203167Y397500D01*
X203834Y398167D01*
X205833D01*
X207166Y396834D02*
X209165D01*
X209832Y397500D01*
X209165Y398167D01*
X207832D01*
X207166Y398833D01*
X207832Y399500D01*
X209832D01*
X213164Y396834D02*
X211831D01*
X211164Y397500D01*
Y398833D01*
X211831Y399500D01*
X213164D01*
X213830Y398833D01*
Y398167D01*
X211164D01*
X215163Y396834D02*
Y399500D01*
X216496Y400833D01*
X217829Y399500D01*
Y396834D01*
Y398833D01*
X215163D01*
X476999Y395002D02*
X473001D01*
Y397001D01*
X473667Y397667D01*
X475000D01*
X475666Y397001D01*
Y395002D01*
Y396335D02*
X476999Y397667D01*
Y399000D02*
Y400333D01*
Y399667D01*
X473001D01*
X473667Y399000D01*
Y402333D02*
X473001Y402999D01*
Y404332D01*
X473667Y404998D01*
X476333D01*
X476999Y404332D01*
Y402999D01*
X476333Y402333D01*
X473667D01*
X295502Y285001D02*
Y288999D01*
X297502D01*
X298168Y288333D01*
Y287000D01*
X297502Y286334D01*
X295502D01*
X296835D02*
X298168Y285001D01*
X299501D02*
X300834D01*
X300167D01*
Y288999D01*
X299501Y288333D01*
X302833Y288999D02*
X305499D01*
Y288333D01*
X302833Y285667D01*
Y285001D01*
X306832Y288999D02*
Y285001D01*
X308831D01*
X309498Y285667D01*
Y286334D01*
X308831Y287000D01*
X306832D01*
X308831D01*
X309498Y287666D01*
Y288333D01*
X308831Y288999D01*
X306832D01*
X295002Y357001D02*
Y360999D01*
X297002D01*
X297668Y360333D01*
Y359000D01*
X297002Y358334D01*
X295002D01*
X296335D02*
X297668Y357001D01*
X299001D02*
X300334D01*
X299667D01*
Y360999D01*
X299001Y360333D01*
X302333Y360999D02*
X304999D01*
Y360333D01*
X302333Y357667D01*
Y357001D01*
X306332D02*
Y359666D01*
X307665Y360999D01*
X308998Y359666D01*
Y357001D01*
Y359000D01*
X306332D01*
X319168Y304499D02*
Y301167D01*
X319835Y300501D01*
X321168D01*
X321834Y301167D01*
Y304499D01*
X325833Y300501D02*
X323167D01*
X325833Y303166D01*
Y303833D01*
X325166Y304499D01*
X323834D01*
X323167Y303833D01*
X327166Y304499D02*
Y300501D01*
X329165D01*
X329832Y301167D01*
Y301834D01*
X329165Y302500D01*
X327166D01*
X329165D01*
X329832Y303166D01*
Y303833D01*
X329165Y304499D01*
X327166D01*
X319168Y376999D02*
Y373667D01*
X319835Y373001D01*
X321168D01*
X321834Y373667D01*
Y376999D01*
X325833Y373001D02*
X323167D01*
X325833Y375666D01*
Y376333D01*
X325166Y376999D01*
X323834D01*
X323167Y376333D01*
X327166Y373001D02*
Y375666D01*
X328499Y376999D01*
X329832Y375666D01*
Y373001D01*
Y375000D01*
X327166D01*
X307333Y410166D02*
X307999Y410832D01*
Y412165D01*
X307333Y412832D01*
X304667D01*
X304001Y412165D01*
Y410832D01*
X304667Y410166D01*
Y408833D02*
X304001Y408166D01*
Y406834D01*
X304667Y406167D01*
X307333D01*
X307999Y406834D01*
Y408166D01*
X307333Y408833D01*
X306666D01*
X306000Y408166D01*
Y406167D01*
X304001Y404834D02*
X306666D01*
X307999Y403501D01*
X306666Y402168D01*
X304001D01*
X306000D01*
Y404834D01*
X307833Y337666D02*
X308499Y338332D01*
Y339665D01*
X307833Y340332D01*
X305167D01*
X304501Y339665D01*
Y338332D01*
X305167Y337666D01*
Y336333D02*
X304501Y335666D01*
Y334334D01*
X305167Y333667D01*
X307833D01*
X308499Y334334D01*
Y335666D01*
X307833Y336333D01*
X307166D01*
X306500Y335666D01*
Y333667D01*
X308499Y332334D02*
X304501D01*
Y330335D01*
X305167Y329668D01*
X305834D01*
X306500Y330335D01*
Y332334D01*
Y330335D01*
X307166Y329668D01*
X307833D01*
X308499Y330335D01*
Y332334D01*
X317333Y413332D02*
X317999Y413998D01*
Y415331D01*
X317333Y415998D01*
X314667D01*
X314001Y415331D01*
Y413998D01*
X314667Y413332D01*
X314001Y411999D02*
Y410666D01*
Y411333D01*
X317999D01*
X317333Y411999D01*
Y408667D02*
X317999Y408000D01*
Y406667D01*
X317333Y406001D01*
X314667D01*
X314001Y406667D01*
Y408000D01*
X314667Y408667D01*
X317333D01*
X314001Y404668D02*
X316666D01*
X317999Y403335D01*
X316666Y402002D01*
X314001D01*
X316000D01*
Y404668D01*
X317833Y340832D02*
X318499Y341498D01*
Y342831D01*
X317833Y343498D01*
X315167D01*
X314501Y342831D01*
Y341498D01*
X315167Y340832D01*
X314501Y339499D02*
Y338166D01*
Y338833D01*
X318499D01*
X317833Y339499D01*
Y336167D02*
X318499Y335500D01*
Y334167D01*
X317833Y333501D01*
X315167D01*
X314501Y334167D01*
Y335500D01*
X315167Y336167D01*
X317833D01*
X318499Y332168D02*
X314501D01*
Y330169D01*
X315167Y329502D01*
X315833D01*
X316500Y330169D01*
Y332168D01*
Y330169D01*
X317166Y329502D01*
X317833D01*
X318499Y330169D01*
Y332168D01*
X336834Y375499D02*
X339500Y371501D01*
Y375499D02*
X336834Y371501D01*
X340833D02*
X342166D01*
X341499D01*
Y375499D01*
X340833Y374833D01*
X367168Y443499D02*
Y440167D01*
X367834Y439501D01*
X369167D01*
X369834Y440167D01*
Y443499D01*
X371166Y442833D02*
X371833Y443499D01*
X373166D01*
X373832Y442833D01*
Y442166D01*
X373166Y441500D01*
X372499D01*
X373166D01*
X373832Y440834D01*
Y440167D01*
X373166Y439501D01*
X371833D01*
X371166Y440167D01*
X387334Y338499D02*
Y335167D01*
X388001Y334501D01*
X389334D01*
X390000Y335167D01*
Y338499D01*
X391333Y334501D02*
X392666D01*
X391999D01*
Y338499D01*
X391333Y337833D01*
X236834Y366494D02*
X240833D01*
Y364495D01*
X240166Y363829D01*
X238833D01*
X238167Y364495D01*
Y366494D01*
Y365162D02*
X236834Y363829D01*
X236167Y362496D02*
Y359830D01*
X240833Y358497D02*
X236834D01*
Y356498D01*
X237500Y355831D01*
X238167D01*
X238833Y356498D01*
Y358497D01*
Y356498D01*
X239500Y355831D01*
X240166D01*
X240833Y356498D01*
Y358497D01*
Y354498D02*
X236834D01*
Y351833D01*
X240833Y348500D02*
Y349833D01*
X240166Y350500D01*
X237500D01*
X236834Y349833D01*
Y348500D01*
X237500Y347834D01*
X240166D01*
X240833Y348500D01*
Y346501D02*
X236834D01*
X238167Y345168D01*
X236834Y343835D01*
X240833D01*
X236834Y342502D02*
X240833D01*
X236834Y339837D01*
X240833D01*
X236834Y338504D02*
Y337171D01*
Y337837D01*
X240833D01*
X240166Y338504D01*
X240833Y335171D02*
X236834D01*
Y333172D01*
X237500Y332505D01*
X238167D01*
X238833Y333172D01*
Y335171D01*
Y333172D01*
X239500Y332505D01*
X240166D01*
X240833Y333172D01*
Y335171D01*
X237334Y453495D02*
X241333D01*
Y451495D01*
X240666Y450829D01*
X239333D01*
X238667Y451495D01*
Y453495D01*
Y452162D02*
X237334Y450829D01*
X236667Y449496D02*
Y446830D01*
X241333Y445497D02*
X237334D01*
Y443498D01*
X238000Y442831D01*
X238667D01*
X239333Y443498D01*
Y445497D01*
Y443498D01*
X240000Y442831D01*
X240666D01*
X241333Y443498D01*
Y445497D01*
Y441498D02*
X237334D01*
Y438833D01*
X241333Y435500D02*
Y436833D01*
X240666Y437500D01*
X238000D01*
X237334Y436833D01*
Y435500D01*
X238000Y434834D01*
X240666D01*
X241333Y435500D01*
Y433501D02*
X237334D01*
X238667Y432168D01*
X237334Y430835D01*
X241333D01*
X237334Y429502D02*
X241333D01*
X237334Y426836D01*
X241333D01*
X237334Y425503D02*
Y424171D01*
Y424837D01*
X241333D01*
X240666Y425503D01*
X237334Y422171D02*
X240000D01*
X241333Y420838D01*
X240000Y419506D01*
X237334D01*
X239333D01*
Y422171D01*
X376168Y432501D02*
Y436499D01*
X378168D01*
X378834Y435833D01*
Y434500D01*
X378168Y433834D01*
X376168D01*
X377501D02*
X378834Y432501D01*
X382833D02*
X380167D01*
X382833Y435166D01*
Y435833D01*
X382166Y436499D01*
X380834D01*
X380167Y435833D01*
X386832Y432501D02*
X384166D01*
X386832Y435166D01*
Y435833D01*
X386165Y436499D01*
X384832D01*
X384166Y435833D01*
X414335Y433501D02*
Y437499D01*
X416334D01*
X417001Y436833D01*
Y435500D01*
X416334Y434834D01*
X414335D01*
X415668D02*
X417001Y433501D01*
X420999D02*
X418334D01*
X420999Y436166D01*
Y436833D01*
X420333Y437499D01*
X419000D01*
X418334Y436833D01*
X422332Y433501D02*
X423665D01*
X422999D01*
Y437499D01*
X422332Y436833D01*
X503999Y387168D02*
X500001D01*
Y389168D01*
X500667Y389834D01*
X502000D01*
X502666Y389168D01*
Y387168D01*
Y388501D02*
X503999Y389834D01*
Y393833D02*
Y391167D01*
X501334Y393833D01*
X500667D01*
X500001Y393166D01*
Y391834D01*
X500667Y391167D01*
Y395166D02*
X500001Y395832D01*
Y397165D01*
X500667Y397832D01*
X503333D01*
X503999Y397165D01*
Y395832D01*
X503333Y395166D01*
X500667D01*
X380999Y302002D02*
X377001D01*
Y304001D01*
X377667Y304667D01*
X379000D01*
X379666Y304001D01*
Y302002D01*
Y303334D02*
X380999Y304667D01*
Y306000D02*
Y307333D01*
Y306667D01*
X377001D01*
X377667Y306000D01*
X377001Y311998D02*
X377667Y310665D01*
X379000Y309333D01*
X380333D01*
X380999Y309999D01*
Y311332D01*
X380333Y311998D01*
X379666D01*
X379000Y311332D01*
Y309333D01*
X395499Y302002D02*
X391501D01*
Y304001D01*
X392167Y304667D01*
X393500D01*
X394166Y304001D01*
Y302002D01*
Y303334D02*
X395499Y304667D01*
Y306000D02*
Y307333D01*
Y306667D01*
X391501D01*
X392167Y306000D01*
X391501Y311998D02*
Y309333D01*
X393500D01*
X392834Y310665D01*
Y311332D01*
X393500Y311998D01*
X394833D01*
X395499Y311332D01*
Y309999D01*
X394833Y309333D01*
X385502Y388501D02*
Y392499D01*
X387501D01*
X388167Y391833D01*
Y390500D01*
X387501Y389834D01*
X385502D01*
X386835D02*
X388167Y388501D01*
X389500D02*
X390833D01*
X390167D01*
Y392499D01*
X389500Y391833D01*
X394832Y388501D02*
Y392499D01*
X392833Y390500D01*
X395498D01*
X415002Y361501D02*
Y365499D01*
X417001D01*
X417667Y364833D01*
Y363500D01*
X417001Y362834D01*
X415002D01*
X416334D02*
X417667Y361501D01*
X419000D02*
X420333D01*
X419667D01*
Y365499D01*
X419000Y364833D01*
X422333D02*
X422999Y365499D01*
X424332D01*
X424998Y364833D01*
Y364166D01*
X424332Y363500D01*
X423666D01*
X424332D01*
X424998Y362834D01*
Y362167D01*
X424332Y361501D01*
X422999D01*
X422333Y362167D01*
X402002Y390001D02*
Y393999D01*
X404001D01*
X404667Y393333D01*
Y392000D01*
X404001Y391334D01*
X402002D01*
X403335D02*
X404667Y390001D01*
X406000D02*
X407333D01*
X406667D01*
Y393999D01*
X406000Y393333D01*
X411998Y390001D02*
X409333D01*
X411998Y392666D01*
Y393333D01*
X411332Y393999D01*
X409999D01*
X409333Y393333D01*
X494499Y396168D02*
X490501D01*
Y398167D01*
X491167Y398834D01*
X492500D01*
X493166Y398167D01*
Y396168D01*
Y397501D02*
X494499Y398834D01*
Y400167D02*
Y401500D01*
Y400833D01*
X490501D01*
X491167Y400167D01*
X494499Y403499D02*
Y404832D01*
Y404166D01*
X490501D01*
X491167Y403499D01*
X416668Y390001D02*
Y393999D01*
X418667D01*
X419334Y393333D01*
Y392000D01*
X418667Y391334D01*
X416668D01*
X418001D02*
X419334Y390001D01*
X420667Y390667D02*
X421333Y390001D01*
X422666D01*
X423332Y390667D01*
Y393333D01*
X422666Y393999D01*
X421333D01*
X420667Y393333D01*
Y392666D01*
X421333Y392000D01*
X423332D01*
X443499Y335668D02*
X439501D01*
Y337667D01*
X440167Y338334D01*
X441500D01*
X442166Y337667D01*
Y335668D01*
Y337001D02*
X443499Y338334D01*
X440167Y339667D02*
X439501Y340333D01*
Y341666D01*
X440167Y342332D01*
X440834D01*
X441500Y341666D01*
X442166Y342332D01*
X442833D01*
X443499Y341666D01*
Y340333D01*
X442833Y339667D01*
X442166D01*
X441500Y340333D01*
X440834Y339667D01*
X440167D01*
X441500Y340333D02*
Y341666D01*
X418668Y319501D02*
Y323499D01*
X420667D01*
X421334Y322833D01*
Y321500D01*
X420667Y320834D01*
X418668D01*
X420001D02*
X421334Y319501D01*
X422667Y323499D02*
X425332D01*
Y322833D01*
X422667Y320167D01*
Y319501D01*
X456499Y335668D02*
X452501D01*
Y337667D01*
X453167Y338334D01*
X454500D01*
X455166Y337667D01*
Y335668D01*
Y337001D02*
X456499Y338334D01*
X452501Y342332D02*
X453167Y340999D01*
X454500Y339667D01*
X455833D01*
X456499Y340333D01*
Y341666D01*
X455833Y342332D01*
X455166D01*
X454500Y341666D01*
Y339667D01*
X434668Y367001D02*
Y370999D01*
X436667D01*
X437334Y370333D01*
Y369000D01*
X436667Y368334D01*
X434668D01*
X436001D02*
X437334Y367001D01*
X441332Y370999D02*
X438666D01*
Y369000D01*
X439999Y369666D01*
X440666D01*
X441332Y369000D01*
Y367667D01*
X440666Y367001D01*
X439333D01*
X438666Y367667D01*
X418668Y378501D02*
Y382499D01*
X420667D01*
X421334Y381833D01*
Y380500D01*
X420667Y379834D01*
X418668D01*
X420001D02*
X421334Y378501D01*
X424666D02*
Y382499D01*
X422667Y380500D01*
X425332D01*
X361668Y406501D02*
Y410499D01*
X363667D01*
X364334Y409833D01*
Y408500D01*
X363667Y407834D01*
X361668D01*
X363001D02*
X364334Y406501D01*
X365667Y409833D02*
X366333Y410499D01*
X367666D01*
X368332Y409833D01*
Y409166D01*
X367666Y408500D01*
X366999D01*
X367666D01*
X368332Y407834D01*
Y407167D01*
X367666Y406501D01*
X366333D01*
X365667Y407167D01*
X361168Y413501D02*
Y417499D01*
X363167D01*
X363834Y416833D01*
Y415500D01*
X363167Y414834D01*
X361168D01*
X362501D02*
X363834Y413501D01*
X367832D02*
X365166D01*
X367832Y416166D01*
Y416833D01*
X367166Y417499D01*
X365833D01*
X365166Y416833D01*
X361334Y422501D02*
Y426499D01*
X363334D01*
X364000Y425833D01*
Y424500D01*
X363334Y423834D01*
X361334D01*
X362667D02*
X364000Y422501D01*
X365333D02*
X366666D01*
X365999D01*
Y426499D01*
X365333Y425833D01*
X228466Y323966D02*
Y326632D01*
X227799Y327299D01*
X226466D01*
X225800Y326632D01*
Y323966D01*
X226466Y323300D01*
X227799D01*
X227133Y324633D02*
X228466Y323300D01*
X227799D02*
X228466Y323966D01*
X229799Y323300D02*
X231132D01*
X230465D01*
Y327299D01*
X229799Y326632D01*
X233131Y327299D02*
Y323300D01*
X235130D01*
X235797Y323966D01*
Y324633D01*
X235130Y325299D01*
X233131D01*
X235130D01*
X235797Y325966D01*
Y326632D01*
X235130Y327299D01*
X233131D01*
X226966Y409966D02*
Y412632D01*
X226299Y413299D01*
X224966D01*
X224300Y412632D01*
Y409966D01*
X224966Y409300D01*
X226299D01*
X225633Y410633D02*
X226966Y409300D01*
X226299D02*
X226966Y409966D01*
X228299Y409300D02*
X229632D01*
X228965D01*
Y413299D01*
X228299Y412632D01*
X231631Y409300D02*
Y411966D01*
X232964Y413299D01*
X234297Y411966D01*
Y409300D01*
Y411299D01*
X231631D01*
X426835Y453499D02*
X425503D01*
X424836Y452833D01*
Y450167D01*
X425503Y449501D01*
X426835D01*
X427502Y450167D01*
Y452833D01*
X426835Y453499D01*
X428835D02*
Y449501D01*
X431501D01*
X435499Y453499D02*
X432834D01*
Y449501D01*
X435499D01*
X432834Y451500D02*
X434166D01*
X436832Y453499D02*
Y449501D01*
X438832D01*
X439498Y450167D01*
Y452833D01*
X438832Y453499D01*
X436832D01*
X440831Y449501D02*
X442164D01*
X441497D01*
Y453499D01*
X440831Y452833D01*
X409836Y418833D02*
Y414834D01*
X412502D01*
X413835Y418833D02*
Y414834D01*
X415834D01*
X416501Y415500D01*
Y418166D01*
X415834Y418833D01*
X413835D01*
X419833D02*
X418500D01*
X417834Y418166D01*
Y415500D01*
X418500Y414834D01*
X419833D01*
X420499Y415500D01*
Y418166D01*
X419833Y418833D01*
X421832Y414167D02*
X424498D01*
X425831Y414834D02*
X427164D01*
X426497D01*
Y418833D01*
X425831Y418166D01*
X395834Y482999D02*
Y479001D01*
X398500D01*
X399833D02*
X401166D01*
X400499D01*
Y482999D01*
X399833Y482333D01*
X195833Y301330D02*
Y302663D01*
Y301996D01*
X192500D01*
X191834Y302663D01*
Y303329D01*
X192500Y303996D01*
X191167Y299997D02*
Y297331D01*
X191834Y295998D02*
X195833D01*
X194500Y294666D01*
X195833Y293333D01*
X191834D01*
X195833Y292000D02*
Y289334D01*
Y290667D01*
X191834D01*
Y288001D02*
X195833D01*
Y286002D01*
X195166Y285335D01*
X193833D01*
X193167Y286002D01*
Y288001D01*
Y286668D02*
X191834Y285335D01*
Y284002D02*
Y282669D01*
Y283336D01*
X195833D01*
X195166Y284002D01*
X195833Y280670D02*
X191834D01*
Y278671D01*
X192500Y278004D01*
X193167D01*
X193833Y278671D01*
Y280670D01*
Y278671D01*
X194500Y278004D01*
X195166D01*
X195833Y278671D01*
Y280670D01*
X194333Y468830D02*
Y470163D01*
Y469496D01*
X191000D01*
X190334Y470163D01*
Y470829D01*
X191000Y471496D01*
X189667Y467497D02*
Y464831D01*
X190334Y463498D02*
X194333D01*
X193000Y462165D01*
X194333Y460833D01*
X190334D01*
X194333Y459500D02*
Y456834D01*
Y458167D01*
X190334D01*
Y455501D02*
X194333D01*
Y453502D01*
X193666Y452835D01*
X192333D01*
X191667Y453502D01*
Y455501D01*
Y454168D02*
X190334Y452835D01*
Y451502D02*
Y450169D01*
Y450836D01*
X194333D01*
X193666Y451502D01*
X190334Y448170D02*
X193000D01*
X194333Y446837D01*
X193000Y445504D01*
X190334D01*
X192333D01*
Y448170D01*
X505512Y302834D02*
Y301501D01*
Y302167D01*
X508845D01*
X509511Y301501D01*
Y300834D01*
X508845Y300168D01*
X509511Y306832D02*
Y304167D01*
X506845Y306832D01*
X506179D01*
X505512Y306166D01*
Y304833D01*
X506179Y304167D01*
X519667Y402337D02*
X523666D01*
X521667D01*
Y405003D01*
X519667D01*
X523666D01*
X524333Y406336D02*
Y409002D01*
X519667Y412334D02*
Y411001D01*
X520334Y410335D01*
X523000D01*
X523666Y411001D01*
Y412334D01*
X523000Y413001D01*
X520334D01*
X519667Y412334D01*
Y414334D02*
X523666D01*
Y416999D01*
X519667Y420998D02*
Y418332D01*
X523666D01*
Y420998D01*
X521667Y418332D02*
Y419665D01*
X519667Y422331D02*
X523666D01*
Y424330D01*
X523000Y424997D01*
X520334D01*
X519667Y424330D01*
Y422331D01*
X523666Y426330D02*
Y427663D01*
Y426996D01*
X519667D01*
X520334Y426330D01*
X518167Y274336D02*
X522166D01*
X520167D01*
Y277002D01*
X518167D01*
X522166D01*
X522833Y278335D02*
Y281001D01*
X518834Y284999D02*
X518167Y284333D01*
Y283000D01*
X518834Y282333D01*
X519500D01*
X520167Y283000D01*
Y284333D01*
X520833Y284999D01*
X521500D01*
X522166Y284333D01*
Y283000D01*
X521500Y282333D01*
X518167Y286332D02*
X522166D01*
Y288332D01*
X521500Y288998D01*
X518834D01*
X518167Y288332D01*
Y286332D01*
X522166Y290331D02*
Y291664D01*
Y290997D01*
X518167D01*
X518834Y290331D01*
X287499Y352831D02*
Y355496D01*
X285500D01*
Y354164D01*
Y355496D01*
X283501D01*
X286166Y351498D02*
X284167D01*
X283501Y350831D01*
Y348832D01*
X286166D01*
X283501Y347499D02*
Y345500D01*
X284167Y344833D01*
X284834Y345500D01*
Y346833D01*
X285500Y347499D01*
X286166Y346833D01*
Y344833D01*
X283501Y341501D02*
Y342834D01*
X284167Y343500D01*
X285500D01*
X286166Y342834D01*
Y341501D01*
X285500Y340834D01*
X284834D01*
Y343500D01*
X283501Y339502D02*
Y338169D01*
Y338835D01*
X287499D01*
X286833Y339502D01*
X287499Y336169D02*
X283501D01*
Y334170D01*
X284167Y333504D01*
X284834D01*
X285500Y334170D01*
Y336169D01*
Y334170D01*
X286166Y333504D01*
X286833D01*
X287499Y334170D01*
Y336169D01*
X286999Y452831D02*
Y455497D01*
X285000D01*
Y454164D01*
Y455497D01*
X283001D01*
X285666Y451498D02*
X283667D01*
X283001Y450831D01*
Y448832D01*
X285666D01*
X283001Y447499D02*
Y445500D01*
X283667Y444833D01*
X284334Y445500D01*
Y446833D01*
X285000Y447499D01*
X285666Y446833D01*
Y444833D01*
X283001Y441501D02*
Y442834D01*
X283667Y443500D01*
X285000D01*
X285666Y442834D01*
Y441501D01*
X285000Y440835D01*
X284334D01*
Y443500D01*
X283001Y439502D02*
Y438169D01*
Y438835D01*
X286999D01*
X286333Y439502D01*
X283001Y436169D02*
X285666D01*
X286999Y434836D01*
X285666Y433503D01*
X283001D01*
X285000D01*
Y436169D01*
X253333Y331280D02*
X249334D01*
Y329280D01*
X250000Y328614D01*
X250667D01*
X251333Y329280D01*
Y331280D01*
Y329280D01*
X252000Y328614D01*
X252666D01*
X253333Y329280D01*
Y331280D01*
Y327281D02*
X249334D01*
Y324615D01*
X253333Y321283D02*
Y322616D01*
X252666Y323282D01*
X250000D01*
X249334Y322616D01*
Y321283D01*
X250000Y320617D01*
X252666D01*
X253333Y321283D01*
Y319284D02*
X249334D01*
X250667Y317951D01*
X249334Y316618D01*
X253333D01*
X249334Y315285D02*
X253333D01*
X249334Y312619D01*
X253333D01*
X248667Y311286D02*
Y308621D01*
X253333Y307288D02*
X249334D01*
Y304622D01*
X253333Y300623D02*
Y303289D01*
X249334D01*
Y300623D01*
X251333Y303289D02*
Y301956D01*
X253333Y299290D02*
X249334D01*
Y297291D01*
X250000Y296624D01*
X252666D01*
X253333Y297291D01*
Y299290D01*
Y295291D02*
X249334D01*
Y293292D01*
X250000Y292626D01*
X250667D01*
X251333Y293292D01*
Y295291D01*
Y293292D01*
X252000Y292626D01*
X252666D01*
X253333Y293292D01*
Y295291D01*
X253833Y416827D02*
X249834D01*
Y414828D01*
X250500Y414161D01*
X251167D01*
X251833Y414828D01*
Y416827D01*
Y414828D01*
X252500Y414161D01*
X253166D01*
X253833Y414828D01*
Y416827D01*
Y412828D02*
X249834D01*
Y410163D01*
X253833Y406830D02*
Y408163D01*
X253166Y408830D01*
X250500D01*
X249834Y408163D01*
Y406830D01*
X250500Y406164D01*
X253166D01*
X253833Y406830D01*
Y404831D02*
X249834D01*
X251167Y403498D01*
X249834Y402165D01*
X253833D01*
X249834Y400832D02*
X253833D01*
X249834Y398166D01*
X253833D01*
X249167Y396833D02*
Y394168D01*
X253833Y392835D02*
X249834D01*
Y390169D01*
X253833Y386170D02*
Y388836D01*
X249834D01*
Y386170D01*
X251833Y388836D02*
Y387503D01*
X253833Y384837D02*
X249834D01*
Y382838D01*
X250500Y382172D01*
X253166D01*
X253833Y382838D01*
Y384837D01*
X249834Y380839D02*
X252500D01*
X253833Y379506D01*
X252500Y378173D01*
X249834D01*
X251833D01*
Y380839D01*
X375667Y273170D02*
X379666D01*
Y275170D01*
X379000Y275836D01*
X376334D01*
X375667Y275170D01*
Y273170D01*
X380333Y277169D02*
Y279835D01*
X375667Y281168D02*
X379666D01*
Y283834D01*
X375667Y287832D02*
Y285167D01*
X379666D01*
Y287832D01*
X377667Y285167D02*
Y286499D01*
X375667Y289165D02*
X379666D01*
Y291164D01*
X379000Y291831D01*
X376334D01*
X375667Y291164D01*
Y289165D01*
X379666Y295830D02*
Y293164D01*
X377000Y295830D01*
X376334D01*
X375667Y295163D01*
Y293830D01*
X376334Y293164D01*
X390167Y274337D02*
X394166D01*
Y276336D01*
X393500Y277003D01*
X390834D01*
X390167Y276336D01*
Y274337D01*
X394833Y278335D02*
Y281001D01*
X390167Y282334D02*
X394166D01*
Y285000D01*
X390167Y288999D02*
Y286333D01*
X394166D01*
Y288999D01*
X392167Y286333D02*
Y287666D01*
X390167Y290332D02*
X394166D01*
Y292331D01*
X393500Y292997D01*
X390834D01*
X390167Y292331D01*
Y290332D01*
X394166Y294330D02*
Y295663D01*
Y294997D01*
X390167D01*
X390834Y294330D01*
X205333Y353495D02*
X201334D01*
Y351496D01*
X202000Y350829D01*
X204666D01*
X205333Y351496D01*
Y353495D01*
X200667Y349496D02*
Y346831D01*
X205333Y345498D02*
X201334D01*
Y343498D01*
X202000Y342832D01*
X202667D01*
X203333Y343498D01*
Y345498D01*
Y343498D01*
X204000Y342832D01*
X204666D01*
X205333Y343498D01*
Y345498D01*
X204000Y340833D02*
Y339500D01*
X203333Y338833D01*
X201334D01*
Y340833D01*
X202000Y341499D01*
X202667Y340833D01*
Y338833D01*
X201334Y337500D02*
Y335501D01*
X202000Y334835D01*
X202667Y335501D01*
Y336834D01*
X203333Y337500D01*
X204000Y336834D01*
Y334835D01*
X201334Y331502D02*
Y332835D01*
X202000Y333502D01*
X203333D01*
X204000Y332835D01*
Y331502D01*
X203333Y330836D01*
X202667D01*
Y333502D01*
X201334Y329503D02*
Y328170D01*
Y328836D01*
X205333D01*
X204666Y329503D01*
X205333Y326171D02*
X201334D01*
Y324171D01*
X202000Y323505D01*
X202667D01*
X203333Y324171D01*
Y326171D01*
Y324171D01*
X204000Y323505D01*
X204666D01*
X205333Y324171D01*
Y326171D01*
X205833Y438995D02*
X201834D01*
Y436996D01*
X202500Y436329D01*
X205166D01*
X205833Y436996D01*
Y438995D01*
X201167Y434996D02*
Y432331D01*
X205833Y430998D02*
X201834D01*
Y428998D01*
X202500Y428332D01*
X203167D01*
X203833Y428998D01*
Y430998D01*
Y428998D01*
X204500Y428332D01*
X205166D01*
X205833Y428998D01*
Y430998D01*
X204500Y426333D02*
Y425000D01*
X203833Y424333D01*
X201834D01*
Y426333D01*
X202500Y426999D01*
X203167Y426333D01*
Y424333D01*
X201834Y423000D02*
Y421001D01*
X202500Y420334D01*
X203167Y421001D01*
Y422334D01*
X203833Y423000D01*
X204500Y422334D01*
Y420334D01*
X201834Y417002D02*
Y418335D01*
X202500Y419002D01*
X203833D01*
X204500Y418335D01*
Y417002D01*
X203833Y416336D01*
X203167D01*
Y419002D01*
X201834Y415003D02*
Y413670D01*
Y414336D01*
X205833D01*
X205166Y415003D01*
X201834Y411671D02*
X204500D01*
X205833Y410338D01*
X204500Y409005D01*
X201834D01*
X203833D01*
Y411671D01*
X409834Y449333D02*
X409168Y449999D01*
X407835D01*
X407168Y449333D01*
Y446667D01*
X407835Y446001D01*
X409168D01*
X409834Y446667D01*
X413833Y446001D02*
X411167D01*
X413833Y448666D01*
Y449333D01*
X413166Y449999D01*
X411834D01*
X411167Y449333D01*
X417832Y449999D02*
X415166D01*
Y448000D01*
X416499Y448666D01*
X417165D01*
X417832Y448000D01*
Y446667D01*
X417165Y446001D01*
X415832D01*
X415166Y446667D01*
X385167Y447834D02*
X384501Y447168D01*
Y445835D01*
X385167Y445168D01*
X387833D01*
X388499Y445835D01*
Y447168D01*
X387833Y447834D01*
X388499Y451833D02*
Y449167D01*
X385834Y451833D01*
X385167D01*
X384501Y451166D01*
Y449834D01*
X385167Y449167D01*
X388499Y455165D02*
X384501D01*
X386500Y453166D01*
Y455832D01*
X367834Y473833D02*
X367168Y474499D01*
X365835D01*
X365168Y473833D01*
Y471167D01*
X365835Y470501D01*
X367168D01*
X367834Y471167D01*
X371833Y470501D02*
X369167D01*
X371833Y473166D01*
Y473833D01*
X371166Y474499D01*
X369834D01*
X369167Y473833D01*
X373166D02*
X373832Y474499D01*
X375165D01*
X375832Y473833D01*
Y473166D01*
X375165Y472500D01*
X374499D01*
X375165D01*
X375832Y471834D01*
Y471167D01*
X375165Y470501D01*
X373832D01*
X373166Y471167D01*
X363834Y435880D02*
X363168Y436547D01*
X361835D01*
X361168Y435880D01*
Y433214D01*
X361835Y432548D01*
X363168D01*
X363834Y433214D01*
X367833Y432548D02*
X365167D01*
X367833Y435214D01*
Y435880D01*
X367166Y436547D01*
X365834D01*
X365167Y435880D01*
X371832Y432548D02*
X369166D01*
X371832Y435214D01*
Y435880D01*
X371165Y436547D01*
X369832D01*
X369166Y435880D01*
X515167Y391001D02*
X514501Y390334D01*
Y389001D01*
X515167Y388335D01*
X517833D01*
X518499Y389001D01*
Y390334D01*
X517833Y391001D01*
X518499Y394999D02*
Y392334D01*
X515834Y394999D01*
X515167D01*
X514501Y394333D01*
Y393000D01*
X515167Y392334D01*
X518499Y396332D02*
Y397665D01*
Y396999D01*
X514501D01*
X515167Y396332D01*
X507667Y389834D02*
X507001Y389168D01*
Y387835D01*
X507667Y387168D01*
X510333D01*
X510999Y387835D01*
Y389168D01*
X510333Y389834D01*
X510999Y393833D02*
Y391167D01*
X508333Y393833D01*
X507667D01*
X507001Y393166D01*
Y391834D01*
X507667Y391167D01*
Y395166D02*
X507001Y395832D01*
Y397165D01*
X507667Y397832D01*
X510333D01*
X510999Y397165D01*
Y395832D01*
X510333Y395166D01*
X507667D01*
X464167Y392167D02*
X463501Y391501D01*
Y390168D01*
X464167Y389502D01*
X466833D01*
X467499Y390168D01*
Y391501D01*
X466833Y392167D01*
X467499Y393500D02*
Y394833D01*
Y394167D01*
X463501D01*
X464167Y393500D01*
X466833Y396833D02*
X467499Y397499D01*
Y398832D01*
X466833Y399498D01*
X464167D01*
X463501Y398832D01*
Y397499D01*
X464167Y396833D01*
X464834D01*
X465500Y397499D01*
Y399498D01*
X453667Y392167D02*
X453001Y391501D01*
Y390168D01*
X453667Y389502D01*
X456333D01*
X456999Y390168D01*
Y391501D01*
X456333Y392167D01*
X456999Y393500D02*
Y394833D01*
Y394167D01*
X453001D01*
X453667Y393500D01*
Y396833D02*
X453001Y397499D01*
Y398832D01*
X453667Y399498D01*
X454334D01*
X455000Y398832D01*
X455666Y399498D01*
X456333D01*
X456999Y398832D01*
Y397499D01*
X456333Y396833D01*
X455666D01*
X455000Y397499D01*
X454334Y396833D01*
X453667D01*
X455000Y397499D02*
Y398832D01*
X441667Y395167D02*
X441001Y394501D01*
Y393168D01*
X441667Y392502D01*
X444333D01*
X444999Y393168D01*
Y394501D01*
X444333Y395167D01*
X444999Y396500D02*
Y397833D01*
Y397167D01*
X441001D01*
X441667Y396500D01*
X441001Y399833D02*
Y402498D01*
X441667D01*
X444333Y399833D01*
X444999D01*
X430667Y395167D02*
X430001Y394501D01*
Y393168D01*
X430667Y392502D01*
X433333D01*
X433999Y393168D01*
Y394501D01*
X433333Y395167D01*
X433999Y396500D02*
Y397833D01*
Y397167D01*
X430001D01*
X430667Y396500D01*
X430001Y402498D02*
X430667Y401165D01*
X432000Y399833D01*
X433333D01*
X433999Y400499D01*
Y401832D01*
X433333Y402498D01*
X432666D01*
X432000Y401832D01*
Y399833D01*
X446667Y338167D02*
X446001Y337501D01*
Y336168D01*
X446667Y335502D01*
X449333D01*
X449999Y336168D01*
Y337501D01*
X449333Y338167D01*
X449999Y339500D02*
Y340833D01*
Y340167D01*
X446001D01*
X446667Y339500D01*
X446001Y345498D02*
Y342833D01*
X448000D01*
X447334Y344165D01*
Y344832D01*
X448000Y345498D01*
X449333D01*
X449999Y344832D01*
Y343499D01*
X449333Y342833D01*
X494334Y374333D02*
X493667Y374999D01*
X492334D01*
X491668Y374333D01*
Y371667D01*
X492334Y371001D01*
X493667D01*
X494334Y371667D01*
X495667Y374333D02*
X496333Y374999D01*
X497666D01*
X498332Y374333D01*
Y373666D01*
X497666Y373000D01*
X498332Y372334D01*
Y371667D01*
X497666Y371001D01*
X496333D01*
X495667Y371667D01*
Y372334D01*
X496333Y373000D01*
X495667Y373666D01*
Y374333D01*
X496333Y373000D02*
X497666D01*
X364334Y387833D02*
X363667Y388499D01*
X362334D01*
X361668Y387833D01*
Y385167D01*
X362334Y384501D01*
X363667D01*
X364334Y385167D01*
X365667Y388499D02*
X368332D01*
Y387833D01*
X365667Y385167D01*
Y384501D01*
X425167Y342334D02*
X424501Y341667D01*
Y340334D01*
X425167Y339668D01*
X427833D01*
X428499Y340334D01*
Y341667D01*
X427833Y342334D01*
X424501Y346332D02*
X425167Y344999D01*
X426500Y343667D01*
X427833D01*
X428499Y344333D01*
Y345666D01*
X427833Y346332D01*
X427166D01*
X426500Y345666D01*
Y343667D01*
X408167Y342334D02*
X407501Y341667D01*
Y340334D01*
X408167Y339668D01*
X410833D01*
X411499Y340334D01*
Y341667D01*
X410833Y342334D01*
X407501Y346332D02*
Y343667D01*
X409500D01*
X408834Y344999D01*
Y345666D01*
X409500Y346332D01*
X410833D01*
X411499Y345666D01*
Y344333D01*
X410833Y343667D01*
X353333Y333666D02*
X353999Y334333D01*
Y335666D01*
X353333Y336332D01*
X350667D01*
X350001Y335666D01*
Y334333D01*
X350667Y333666D01*
X350001Y330334D02*
X353999D01*
X352000Y332333D01*
Y329668D01*
X360833Y333666D02*
X361499Y334333D01*
Y335666D01*
X360833Y336332D01*
X358167D01*
X357501Y335666D01*
Y334333D01*
X358167Y333666D01*
X360833Y332333D02*
X361499Y331667D01*
Y330334D01*
X360833Y329668D01*
X360166D01*
X359500Y330334D01*
Y331001D01*
Y330334D01*
X358834Y329668D01*
X358167D01*
X357501Y330334D01*
Y331667D01*
X358167Y332333D01*
X362334Y309833D02*
X361667Y310499D01*
X360334D01*
X359668Y309833D01*
Y307167D01*
X360334Y306501D01*
X361667D01*
X362334Y307167D01*
X366332Y306501D02*
X363667D01*
X366332Y309166D01*
Y309833D01*
X365666Y310499D01*
X364333D01*
X363667Y309833D01*
X341000Y386833D02*
X340334Y387499D01*
X339001D01*
X338334Y386833D01*
Y384167D01*
X339001Y383501D01*
X340334D01*
X341000Y384167D01*
X342333Y383501D02*
X343666D01*
X342999D01*
Y387499D01*
X342333Y386833D01*
X330836Y354999D02*
Y351001D01*
X332836D01*
X333502Y351667D01*
Y352334D01*
X332836Y353000D01*
X330836D01*
X332836D01*
X333502Y353666D01*
Y354333D01*
X332836Y354999D01*
X330836D01*
X337501D02*
X334835D01*
Y351001D01*
X337501D01*
X334835Y353000D02*
X336168D01*
X338834Y351001D02*
Y353666D01*
X340166Y354999D01*
X341499Y353666D01*
Y351001D01*
Y353000D01*
X338834D01*
X342832Y354999D02*
Y351001D01*
X344832D01*
X345498Y351667D01*
Y354333D01*
X344832Y354999D01*
X342832D01*
X346831Y351001D02*
X348164D01*
X347497D01*
Y354999D01*
X346831Y354333D01*
X342837Y261833D02*
Y257834D01*
X344836D01*
X345503Y258500D01*
Y259167D01*
X344836Y259833D01*
X342837D01*
X344836D01*
X345503Y260500D01*
Y261166D01*
X344836Y261833D01*
X342837D01*
X346835Y257167D02*
X349501D01*
X350834Y257834D02*
Y261833D01*
X352834D01*
X353500Y261166D01*
Y259833D01*
X352834Y259167D01*
X350834D01*
X352167D02*
X353500Y257834D01*
X357499Y261166D02*
X356832Y261833D01*
X355499D01*
X354833Y261166D01*
Y260500D01*
X355499Y259833D01*
X356832D01*
X357499Y259167D01*
Y258500D01*
X356832Y257834D01*
X355499D01*
X354833Y258500D01*
X358832Y261833D02*
X361497D01*
X360164D01*
Y257834D01*
X362830D02*
X364163D01*
X363497D01*
Y261833D01*
X362830Y261166D01*
X506837Y356333D02*
Y352334D01*
X508837D01*
X509503Y353000D01*
Y353667D01*
X508837Y354333D01*
X506837D01*
X508837D01*
X509503Y355000D01*
Y355666D01*
X508837Y356333D01*
X506837D01*
X510836Y351667D02*
X513502D01*
X516834Y356333D02*
X515501D01*
X514835Y355666D01*
Y353000D01*
X515501Y352334D01*
X516834D01*
X517501Y353000D01*
Y355666D01*
X516834Y356333D01*
X518834D02*
Y352334D01*
X521499D01*
X525498Y356333D02*
X522832D01*
Y352334D01*
X525498D01*
X522832Y354333D02*
X524165D01*
X526831Y356333D02*
Y352334D01*
X528830D01*
X529497Y353000D01*
Y355666D01*
X528830Y356333D01*
X526831D01*
X530830Y352334D02*
X532163D01*
X531496D01*
Y356333D01*
X530830Y355666D01*
D17*
X343679Y366836D02*
Y380222D01*
Y366836D02*
X359821D01*
Y380222D01*
X343679D02*
X359821D01*
X342669Y365946D02*
Y367946D01*
Y365946D02*
X344669D01*
D18*
X363539Y277626D02*
Y293374D01*
X343461Y277626D02*
Y293374D01*
X349563Y295539D02*
X357437D01*
X349563Y275461D02*
X357437D01*
X510961Y368063D02*
Y375937D01*
X531039Y368063D02*
Y375937D01*
X513126Y382039D02*
X528874D01*
X513126Y361961D02*
X528874D01*
D19*
X334199Y405345D02*
X332200Y407344D01*
X334199Y409344D01*
X338198Y405345D02*
X336199Y407344D01*
X338198Y409344D01*
X342863D02*
X340197D01*
Y407344D01*
X341530Y408011D01*
X342197D01*
X342863Y407344D01*
Y406011D01*
X342197Y405345D01*
X340864D01*
X340197Y406011D01*
X344196Y405345D02*
Y408011D01*
X345529Y409344D01*
X346862Y408011D01*
Y405345D01*
Y407344D01*
X344196D01*
X334199Y402199D02*
X332866D01*
X332200Y401532D01*
Y398866D01*
X332866Y398200D01*
X334199D01*
X334866Y398866D01*
Y401532D01*
X334199Y402199D01*
X336199Y398200D02*
Y402199D01*
X338864Y398200D01*
Y402199D01*
X340197D02*
Y398200D01*
X342863D01*
X344196Y402199D02*
Y401532D01*
X345529Y400199D01*
X346862Y401532D01*
Y402199D01*
X345529Y400199D02*
Y398200D01*
X348195Y399533D02*
Y402865D01*
Y398866D02*
Y398200D01*
X312200Y436989D02*
X314866D01*
X316199D02*
X318864D01*
X320197D02*
X322863D01*
X324196D02*
X326862D01*
X328195D02*
X330861D01*
X332194D02*
X334859D01*
X336192D02*
X338858D01*
X340191Y434990D02*
X342190Y436989D01*
X340191Y438988D01*
X312200Y432510D02*
Y428511D01*
X313533Y429844D01*
X314866Y428511D01*
Y432510D01*
X316199Y428511D02*
X317532D01*
X316865D01*
Y431177D01*
X316199D01*
X319531D02*
Y428511D01*
Y429844D01*
X320197Y430511D01*
X320864Y431177D01*
X321530D01*
X325529Y428511D02*
X324196D01*
X323530Y429178D01*
Y430511D01*
X324196Y431177D01*
X325529D01*
X326196Y430511D01*
Y429844D01*
X323530D01*
X332194Y428511D02*
Y431844D01*
Y430511D01*
X331527D01*
X332860D01*
X332194D01*
Y431844D01*
X332860Y432510D01*
X335526Y428511D02*
X336859D01*
X337525Y429178D01*
Y430511D01*
X336859Y431177D01*
X335526D01*
X334859Y430511D01*
Y429178D01*
X335526Y428511D01*
X338858Y431177D02*
Y428511D01*
Y429844D01*
X339525Y430511D01*
X340191Y431177D01*
X340857D01*
X312866Y425365D02*
Y424699D01*
X312200D01*
X313533D01*
X312866D01*
Y422699D01*
X313533Y422033D01*
X317532D02*
X316199D01*
X315532Y422699D01*
Y424032D01*
X316199Y424699D01*
X317532D01*
X318198Y424032D01*
Y423366D01*
X315532D01*
X319531Y422033D02*
X321530D01*
X322197Y422699D01*
X321530Y423366D01*
X320197D01*
X319531Y424032D01*
X320197Y424699D01*
X322197D01*
X324196Y425365D02*
Y424699D01*
X323530D01*
X324863D01*
X324196D01*
Y422699D01*
X324863Y422033D01*
X331527D02*
X332860D01*
X333526Y422699D01*
Y424032D01*
X332860Y424699D01*
X331527D01*
X330861Y424032D01*
Y422699D01*
X331527Y422033D01*
X334859D02*
Y424699D01*
X336859D01*
X337525Y424032D01*
Y422033D01*
X338858D02*
X340191D01*
X339525D01*
Y426032D01*
X338858D01*
X342190Y424699D02*
Y422699D01*
X342857Y422033D01*
X344856D01*
Y421366D01*
X344190Y420700D01*
X343523D01*
X344856Y422033D02*
Y424699D01*
D20*
X368500Y381665D02*
X371832Y378333D01*
X368500D02*
X371832Y381665D01*
X368500Y379999D02*
X371832D01*
X370166Y378333D02*
Y381665D01*
M02*
