G04*
G04 #@! TF.GenerationSoftware,Altium Limited,Altium Designer,25.8.1 (18)*
G04*
G04 Layer_Color=16711935*
%FSLAX25Y25*%
%MOIN*%
G70*
G04*
G04 #@! TF.SameCoordinates,BD6C6330-6F5E-4E75-AD65-D1E33E9A6F4C*
G04*
G04*
G04 #@! TF.FilePolarity,Positive*
G04*
G01*
G75*
%ADD11C,0.00000*%
%ADD12C,0.00787*%
%ADD15C,0.00500*%
%ADD18C,0.00394*%
%ADD20C,0.00300*%
%ADD105C,0.00400*%
%ADD106C,0.00100*%
%ADD109C,0.00200*%
G36*
X385772Y289620D02*
X385774D01*
Y288733D01*
X385772D01*
Y288243D01*
X385775D01*
Y287651D01*
X384983D01*
Y288243D01*
X385575D01*
Y288733D01*
X385086D01*
Y288635D01*
X384885D01*
Y288733D01*
X383018D01*
Y287652D01*
X382225D01*
Y288831D01*
X382226D01*
Y289620D01*
X385575D01*
Y289622D01*
X385772D01*
Y289620D01*
D02*
G37*
G36*
X385772Y292378D02*
X384988D01*
Y292378D01*
X382918D01*
Y292380D01*
X382229D01*
Y294348D01*
X383014D01*
Y293560D01*
X383309D01*
Y293265D01*
X384691D01*
Y293561D01*
X384988D01*
Y294351D01*
X385772D01*
Y292378D01*
D02*
G37*
G36*
X400272Y289620D02*
X400275D01*
Y288733D01*
X400272D01*
Y288243D01*
X400275D01*
Y287651D01*
X399483D01*
Y288243D01*
X400075D01*
Y288733D01*
X399586D01*
Y288635D01*
X399385D01*
Y288733D01*
X397518D01*
Y287652D01*
X396725D01*
Y288831D01*
X396726D01*
Y289620D01*
X400075D01*
Y289622D01*
X400272D01*
Y289620D01*
D02*
G37*
G36*
X400272Y292378D02*
X399488D01*
Y292378D01*
X397418D01*
Y292380D01*
X396729D01*
Y294348D01*
X397514D01*
Y293560D01*
X397809D01*
Y293265D01*
X399191D01*
Y293561D01*
X399488D01*
Y294351D01*
X400272D01*
Y292378D01*
D02*
G37*
D11*
X214300Y329250D02*
G03*
X214300Y329250I-300J0D01*
G01*
Y414250D02*
G03*
X214300Y414250I-300J0D01*
G01*
D12*
X428929Y382303D02*
G03*
X428929Y382303I-394J0D01*
G01*
X361945Y457724D02*
G03*
X361945Y457724I-394J0D01*
G01*
X244894Y303866D02*
G03*
X244894Y303866I-394J0D01*
G01*
X245394Y389913D02*
G03*
X245394Y389913I-394J0D01*
G01*
X299020Y376969D02*
G03*
X299020Y376969I-394J0D01*
G01*
X299382Y304437D02*
G03*
X299382Y304437I-394J0D01*
G01*
X422866Y256457D02*
Y313543D01*
Y256457D02*
X481134D01*
Y313543D01*
X343461Y275461D02*
X363539D01*
X343461D02*
Y295539D01*
X363539D01*
Y275461D02*
Y295539D01*
X510961Y361961D02*
X531039D01*
Y382039D01*
X510961D02*
X531039D01*
X510961Y361961D02*
Y382039D01*
D15*
X431016Y377500D02*
Y387500D01*
Y377500D02*
X472984D01*
Y387500D01*
X431016D02*
X472984D01*
X367850Y447291D02*
Y458709D01*
X374150D01*
Y447291D02*
Y458709D01*
X367850Y447291D02*
X374150D01*
X403457Y433492D02*
X410543D01*
X403457Y437508D02*
X410543D01*
Y433492D02*
Y437508D01*
X403457Y433492D02*
Y437508D01*
X242925Y307803D02*
X246075D01*
Y314102D01*
X242925D02*
X246075D01*
X242925Y307803D02*
Y314102D01*
X243425Y393850D02*
X246575D01*
Y400150D01*
X243425D02*
X246575D01*
X243425Y393850D02*
Y400150D01*
X303095Y369094D02*
Y380906D01*
Y369094D02*
X314906D01*
Y380906D01*
X303095D02*
X314906D01*
X303457Y308374D02*
X315268D01*
Y296563D02*
Y308374D01*
X303457Y296563D02*
X315268D01*
X303457D02*
Y308374D01*
X391870Y449134D02*
X393130D01*
X391870Y451653D02*
X393130D01*
X391870Y449134D02*
Y451653D01*
X393130Y449134D02*
Y451653D01*
D18*
X416500Y252520D02*
Y318000D01*
Y252520D02*
X487000D01*
Y318000D01*
X416500D02*
X487000D01*
X352850Y351425D02*
X359150D01*
X352850D02*
Y354575D01*
X359150D01*
Y351425D02*
Y354575D01*
X447016Y324532D02*
X448984D01*
Y328468D01*
X447016D02*
X448984D01*
X447016Y324532D02*
Y328468D01*
D20*
X376950Y375264D02*
X380282Y371932D01*
X376950D02*
X380282Y375264D01*
X376950Y373598D02*
X380282D01*
X378616Y371932D02*
Y375264D01*
D105*
X385181Y287851D02*
G03*
X382819Y287851I-1181J-103D01*
G01*
X399681D02*
G03*
X397319Y287851I-1181J-103D01*
G01*
X385575Y289524D02*
Y292378D01*
X382425Y289622D02*
Y292378D01*
X400075Y289524D02*
Y292378D01*
X396925Y289622D02*
Y292378D01*
D106*
X400624Y374800D02*
X402424D01*
Y378700D01*
X400624D02*
X402424D01*
X400624Y374800D02*
Y378700D01*
X397474Y374800D02*
X399274D01*
Y378700D01*
X397474D02*
X399274D01*
X397474Y374800D02*
Y378700D01*
X394324Y374800D02*
X396124D01*
Y378700D01*
X394324D02*
X396124D01*
X394324Y374800D02*
Y378700D01*
X391175Y374800D02*
X392975D01*
Y378700D01*
X391175D02*
X392975D01*
X391175Y374800D02*
Y378700D01*
X388025Y374800D02*
X389825D01*
Y378700D01*
X388025D02*
X389825D01*
X388025Y374800D02*
Y378700D01*
X384876Y374800D02*
X386676D01*
Y378700D01*
X384876D02*
X386676D01*
X384876Y374800D02*
Y378700D01*
X381726Y374800D02*
X383526D01*
Y378700D01*
X381726D02*
X383526D01*
X381726Y374800D02*
Y378700D01*
X378576Y374800D02*
X380376D01*
Y378700D01*
X378576D02*
X380376D01*
X378576Y374800D02*
Y378700D01*
X376700Y371124D02*
Y372924D01*
X372800D02*
X376700D01*
X372800Y371124D02*
Y372924D01*
Y371124D02*
X376700D01*
Y367974D02*
Y369774D01*
X372800D02*
X376700D01*
X372800Y367974D02*
Y369774D01*
Y367974D02*
X376700D01*
Y364824D02*
Y366624D01*
X372800D02*
X376700D01*
X372800Y364824D02*
Y366624D01*
Y364824D02*
X376700D01*
Y361675D02*
Y363475D01*
X372800D02*
X376700D01*
X372800Y361675D02*
Y363475D01*
Y361675D02*
X376700D01*
Y358525D02*
Y360325D01*
X372800D02*
X376700D01*
X372800Y358525D02*
Y360325D01*
Y358525D02*
X376700D01*
Y355376D02*
Y357176D01*
X372800D02*
X376700D01*
X372800Y355376D02*
Y357176D01*
Y355376D02*
X376700D01*
Y352226D02*
Y354026D01*
X372800D02*
X376700D01*
X372800Y352226D02*
Y354026D01*
Y352226D02*
X376700D01*
Y349076D02*
Y350876D01*
X372800D02*
X376700D01*
X372800Y349076D02*
Y350876D01*
Y349076D02*
X376700D01*
X378576Y347200D02*
X380376D01*
X378576Y343300D02*
Y347200D01*
Y343300D02*
X380376D01*
Y347200D01*
X381726D02*
X383526D01*
X381726Y343300D02*
Y347200D01*
Y343300D02*
X383526D01*
Y347200D01*
X384876D02*
X386676D01*
X384876Y343300D02*
Y347200D01*
Y343300D02*
X386676D01*
Y347200D01*
X388025D02*
X389825D01*
X388025Y343300D02*
Y347200D01*
Y343300D02*
X389825D01*
Y347200D01*
X391175D02*
X392975D01*
X391175Y343300D02*
Y347200D01*
Y343300D02*
X392975D01*
Y347200D01*
X394324D02*
X396124D01*
X394324Y343300D02*
Y347200D01*
Y343300D02*
X396124D01*
Y347200D01*
X397474D02*
X399274D01*
X397474Y343300D02*
Y347200D01*
Y343300D02*
X399274D01*
Y347200D01*
X400624D02*
X402424D01*
X400624Y343300D02*
Y347200D01*
Y343300D02*
X402424D01*
Y347200D01*
X404300Y349076D02*
Y350876D01*
Y349076D02*
X408200D01*
Y350876D01*
X404300D02*
X408200D01*
X404300Y352226D02*
Y354026D01*
Y352226D02*
X408200D01*
Y354026D01*
X404300D02*
X408200D01*
X404300Y355376D02*
Y357176D01*
Y355376D02*
X408200D01*
Y357176D01*
X404300D02*
X408200D01*
X404300Y358525D02*
Y360325D01*
Y358525D02*
X408200D01*
Y360325D01*
X404300D02*
X408200D01*
X404300Y361675D02*
Y363475D01*
Y361675D02*
X408200D01*
Y363475D01*
X404300D02*
X408200D01*
X404300Y364824D02*
Y366624D01*
Y364824D02*
X408200D01*
Y366624D01*
X404300D02*
X408200D01*
X404300Y367974D02*
Y369774D01*
Y367974D02*
X408200D01*
Y369774D01*
X404300D02*
X408200D01*
X404300Y371124D02*
Y372924D01*
Y371124D02*
X408200D01*
Y372924D01*
X404300D02*
X408200D01*
X376700Y369800D02*
X381700Y374800D01*
X376700Y347200D02*
X404300D01*
Y374800D01*
X376700D02*
X404300D01*
X376700Y347200D02*
Y374800D01*
X219500Y328250D02*
Y348750D01*
X208500D02*
X219500D01*
X208500Y328250D02*
Y348750D01*
Y328250D02*
X219500D01*
X208500Y413250D02*
X219500D01*
X208500D02*
Y433750D01*
X219500D01*
Y413250D02*
Y433750D01*
D109*
X385673Y288539D02*
G03*
X385673Y288539I-295J0D01*
G01*
X382917Y294248D02*
G03*
X385083Y294248I1083J0D01*
G01*
X400173Y288539D02*
G03*
X400173Y288539I-295J0D01*
G01*
X397417Y294248D02*
G03*
X399583Y294248I1083J0D01*
G01*
M02*
