G04*
G04 #@! TF.GenerationSoftware,Altium Limited,Altium Designer,25.8.1 (18)*
G04*
G04 Layer_Color=128*
%FSLAX25Y25*%
%MOIN*%
G70*
G04*
G04 #@! TF.SameCoordinates,BD6C6330-6F5E-4E75-AD65-D1E33E9A6F4C*
G04*
G04*
G04 #@! TF.FilePolarity,Positive*
G04*
G01*
G75*
%ADD15C,0.00500*%
D15*
X307594Y476898D02*
X319406D01*
X313500Y470992D02*
Y482803D01*
X311492Y459890D02*
X315508D01*
X313500Y457882D02*
Y461898D01*
X311492Y448079D02*
X315508D01*
X313500Y446071D02*
Y450087D01*
X461731Y271100D02*
X465668D01*
X463700Y269131D02*
Y273068D01*
X430332Y271100D02*
X434269D01*
X432300Y269131D02*
Y273068D01*
X531500Y287000D02*
X534500D01*
X533000Y285500D02*
Y288500D01*
X434894Y382500D02*
X439106D01*
X437000Y380394D02*
Y384606D01*
X211992Y448689D02*
X216008D01*
X214000Y446681D02*
Y450697D01*
X211492Y301921D02*
X215508D01*
X213500Y299913D02*
Y303929D01*
X444894Y382500D02*
X449106D01*
X447000Y380394D02*
Y384606D01*
X531500Y267000D02*
X534500D01*
X533000Y265500D02*
Y268500D01*
X531500Y277000D02*
X534500D01*
X533000Y275500D02*
Y278500D01*
X531500Y297000D02*
X534500D01*
X533000Y295500D02*
Y298500D01*
X531500Y420000D02*
X534500D01*
X533000Y418500D02*
Y421500D01*
X454894Y382500D02*
X459106D01*
X457000Y380394D02*
Y384606D01*
X531500Y410000D02*
X534500D01*
X533000Y408500D02*
Y411500D01*
X531500Y400000D02*
X534500D01*
X533000Y398500D02*
Y401500D01*
X464894Y382500D02*
X469106D01*
X467000Y380394D02*
Y384606D01*
X531500Y430000D02*
X534500D01*
X533000Y428500D02*
Y431500D01*
X518701Y452500D02*
X531299D01*
X525000Y446201D02*
Y458799D01*
X270087Y437335D02*
X275598D01*
X272843Y434579D02*
Y440091D01*
X270087Y451114D02*
X275598D01*
X272843Y448358D02*
Y453870D01*
X260244Y437335D02*
X265756D01*
X263000Y434579D02*
Y440091D01*
X260244Y451114D02*
X265756D01*
X263000Y448358D02*
Y453870D01*
X260244Y414500D02*
X265756D01*
X263000Y411744D02*
Y417256D01*
X260244Y400721D02*
X265756D01*
X263000Y397965D02*
Y403476D01*
X270087Y414500D02*
X275598D01*
X272843Y411744D02*
Y417256D01*
X270087Y400721D02*
X275598D01*
X272843Y397965D02*
Y403476D01*
X263197Y425917D02*
X272646D01*
X267921Y421193D02*
Y430642D01*
X263776Y326000D02*
X273224D01*
X268500Y321276D02*
Y330724D01*
X270665Y300803D02*
X276177D01*
X273421Y298047D02*
Y303559D01*
X270665Y314583D02*
X276177D01*
X273421Y311827D02*
Y317339D01*
X260823Y300803D02*
X266335D01*
X263579Y298047D02*
Y303559D01*
X260823Y314583D02*
X266335D01*
X263579Y311827D02*
Y317339D01*
X260823Y337417D02*
X266335D01*
X263579Y334661D02*
Y340173D01*
X270665Y337417D02*
X276177D01*
X273421Y334661D02*
Y340173D01*
X260823Y351197D02*
X266335D01*
X263579Y348441D02*
Y353953D01*
X270665Y351197D02*
X276177D01*
X273421Y348441D02*
Y353953D01*
X501701Y265500D02*
X514299D01*
X508000Y259201D02*
Y271799D01*
X178701Y265500D02*
X191299D01*
X185000Y259201D02*
Y271799D01*
X310201Y265500D02*
X322799D01*
X316500Y259201D02*
Y271799D01*
X337701Y485000D02*
X350299D01*
X344000Y478701D02*
Y491299D01*
X178701Y485000D02*
X191299D01*
X185000Y478701D02*
Y491299D01*
X208095Y477508D02*
X219905D01*
X214000Y471602D02*
Y483413D01*
X211992Y460500D02*
X216008D01*
X214000Y458492D02*
Y462508D01*
X207594Y273102D02*
X219406D01*
X213500Y267197D02*
Y279008D01*
X211492Y290110D02*
X215508D01*
X213500Y288102D02*
Y292118D01*
X385900Y439500D02*
X387100D01*
X386500Y438900D02*
Y440100D01*
X350800Y432000D02*
X353200D01*
X352000Y430800D02*
Y433200D01*
X366200Y400000D02*
X367800D01*
X367000Y399200D02*
Y400800D01*
X353400Y382500D02*
X354600D01*
X354000Y381900D02*
Y383100D01*
X373700Y382000D02*
X375300D01*
X374500Y381200D02*
Y382800D01*
X409900Y407000D02*
X411100D01*
X410500Y406400D02*
Y407600D01*
X381900Y394500D02*
X383100D01*
X382500Y393900D02*
Y395100D01*
X305900Y365000D02*
X307100D01*
X306500Y364400D02*
Y365600D01*
X414900Y350000D02*
X416100D01*
X415500Y349400D02*
Y350600D01*
X363400Y353000D02*
X364600D01*
X364000Y352400D02*
Y353600D01*
X446900Y320500D02*
X448100D01*
X447500Y319900D02*
Y321100D01*
X442900Y332272D02*
X444100D01*
X443500Y331672D02*
Y332872D01*
X455900Y332000D02*
X457100D01*
X456500Y331400D02*
Y332600D01*
X427400Y325000D02*
X428600D01*
X428000Y324400D02*
Y325600D01*
X460900Y343000D02*
X462100D01*
X461500Y342400D02*
Y343600D01*
X433400Y331000D02*
X434600D01*
X434000Y330400D02*
Y331600D01*
X438400Y320000D02*
X439600D01*
X439000Y319400D02*
Y320600D01*
X486800Y307000D02*
X489200D01*
X488000Y305800D02*
Y308200D01*
X511900Y414500D02*
X513100D01*
X512500Y413900D02*
Y415100D01*
X474400Y414000D02*
X475600D01*
X475000Y413400D02*
Y414600D01*
X497400Y403000D02*
X498600D01*
X498000Y402400D02*
Y403600D01*
X452400Y414500D02*
X453600D01*
X453000Y413900D02*
Y415100D01*
X464900Y414500D02*
X466100D01*
X465500Y413900D02*
Y415100D01*
X457900Y414500D02*
X459100D01*
X458500Y413900D02*
Y415100D01*
X429047Y413647D02*
X430247D01*
X429647Y413047D02*
Y414247D01*
X511900Y399500D02*
X513100D01*
X512500Y398900D02*
Y400100D01*
X500918Y364618D02*
X503318D01*
X502118Y363418D02*
Y365818D01*
X535900Y331500D02*
X537100D01*
X536500Y330900D02*
Y332100D01*
X488300Y272000D02*
X490700D01*
X489500Y270800D02*
Y273200D01*
X459900Y399969D02*
X461100D01*
X460500Y399369D02*
Y400568D01*
X447400Y332500D02*
X448600D01*
X448000Y331900D02*
Y333100D01*
X414856Y337544D02*
X416056D01*
X415456Y336944D02*
Y338144D01*
X412800Y293000D02*
X415200D01*
X414000Y291800D02*
Y294200D01*
X394900Y444500D02*
X396100D01*
X395500Y443900D02*
Y445100D01*
X365900Y462500D02*
X367100D01*
X366500Y461900D02*
Y463100D01*
X350400Y408500D02*
X351600D01*
X351000Y407900D02*
Y409100D01*
X310400Y402500D02*
X311600D01*
X311000Y401900D02*
Y403100D01*
X351900Y387500D02*
X353100D01*
X352500Y386900D02*
Y388100D01*
X220400Y396500D02*
X221600D01*
X221000Y395900D02*
Y397100D01*
X243800Y386000D02*
X246200D01*
X245000Y384800D02*
Y387200D01*
X400900Y338500D02*
X402100D01*
X401500Y337900D02*
Y339100D01*
X355400Y364500D02*
X356600D01*
X356000Y363900D02*
Y365100D01*
X355400Y338000D02*
X356600D01*
X356000Y337400D02*
Y338600D01*
X397900Y282000D02*
X399100D01*
X398500Y281400D02*
Y282600D01*
X383400Y282000D02*
X384600D01*
X384000Y281400D02*
Y282600D01*
X365800Y285500D02*
X368200D01*
X367000Y284300D02*
Y286700D01*
X310900Y330000D02*
X312100D01*
X311500Y329400D02*
Y330600D01*
X307900Y292000D02*
X309100D01*
X308500Y291400D02*
Y292600D01*
X221900Y310500D02*
X223100D01*
X222500Y309900D02*
Y311100D01*
X243300Y299500D02*
X245700D01*
X244500Y298300D02*
Y300700D01*
X494400Y408000D02*
X495600D01*
X495000Y407400D02*
Y408600D01*
X472400Y408000D02*
X473600D01*
X473000Y407400D02*
Y408600D01*
X459900Y408968D02*
X461100D01*
X460500Y408368D02*
Y409569D01*
X534900Y317500D02*
X536100D01*
X535500Y316900D02*
Y318100D01*
X431900Y365000D02*
X433100D01*
X432500Y364400D02*
Y365600D01*
X425400Y386500D02*
X426600D01*
X426000Y385900D02*
Y387100D01*
X380900Y453000D02*
X382100D01*
X381500Y452400D02*
Y453600D01*
X310400Y385500D02*
X311600D01*
X311000Y384900D02*
Y386100D01*
X331900Y383000D02*
X333100D01*
X332500Y382400D02*
Y383600D01*
X425400Y375000D02*
X426600D01*
X426000Y374400D02*
Y375600D01*
X338900Y359500D02*
X340100D01*
X339500Y358900D02*
Y360100D01*
X315900Y359500D02*
X317100D01*
X316500Y358900D02*
Y360100D01*
X328900Y297000D02*
X330100D01*
X329500Y296400D02*
Y297600D01*
X328900Y313000D02*
X330100D01*
X329500Y312400D02*
Y313600D01*
X310900Y313000D02*
X312100D01*
X311500Y312400D02*
Y313600D01*
X366900Y338000D02*
X368100D01*
X367500Y337400D02*
Y338600D01*
X426900Y349500D02*
X428100D01*
X427500Y348900D02*
Y350100D01*
X459900Y394500D02*
X461100D01*
X460500Y393900D02*
Y395100D01*
X479900Y401000D02*
X481100D01*
X480500Y400400D02*
Y401600D01*
X366200Y356500D02*
X367800D01*
X367000Y355700D02*
Y357300D01*
X394624Y385224D02*
X395824D01*
X395224Y384624D02*
Y385824D01*
X481900Y375000D02*
X483100D01*
X482500Y374400D02*
Y375600D01*
X344900Y348000D02*
X346100D01*
X345500Y347400D02*
Y348600D01*
X535900Y342500D02*
X537100D01*
X536500Y341900D02*
Y343100D01*
X499900Y337500D02*
X501100D01*
X500500Y336900D02*
Y338100D01*
X376400Y338000D02*
X377600D01*
X377000Y337400D02*
Y338600D01*
X350400Y318000D02*
X351600D01*
X351000Y317400D02*
Y318600D01*
X413400Y377000D02*
X414600D01*
X414000Y376400D02*
Y377600D01*
X477400Y359000D02*
X478600D01*
X478000Y358400D02*
Y359600D01*
X486900Y404000D02*
X488100D01*
X487500Y403400D02*
Y404600D01*
X424900Y397500D02*
X426100D01*
X425500Y396900D02*
Y398100D01*
X287900Y312000D02*
X289100D01*
X288500Y311400D02*
Y312600D01*
X291400Y312000D02*
X292600D01*
X292000Y311400D02*
Y312600D01*
X298400Y312000D02*
X299600D01*
X299000Y311400D02*
Y312600D01*
X294900Y312000D02*
X296100D01*
X295500Y311400D02*
Y312600D01*
X294900Y308500D02*
X296100D01*
X295500Y307900D02*
Y309100D01*
X298400Y308500D02*
X299600D01*
X299000Y307900D02*
Y309100D01*
X291400Y308500D02*
X292600D01*
X292000Y307900D02*
Y309100D01*
X287900Y308500D02*
X289100D01*
X288500Y307900D02*
Y309100D01*
X287900Y315500D02*
X289100D01*
X288500Y314900D02*
Y316100D01*
X291400Y315500D02*
X292600D01*
X292000Y314900D02*
Y316100D01*
X298400Y315500D02*
X299600D01*
X299000Y314900D02*
Y316100D01*
X294900Y315500D02*
X296100D01*
X295500Y314900D02*
Y316100D01*
X294900Y319000D02*
X296100D01*
X295500Y318400D02*
Y319600D01*
X298400Y319000D02*
X299600D01*
X299000Y318400D02*
Y319600D01*
X291400Y319000D02*
X292600D01*
X292000Y318400D02*
Y319600D01*
X287900Y319000D02*
X289100D01*
X288500Y318400D02*
Y319600D01*
X287900Y322500D02*
X289100D01*
X288500Y321900D02*
Y323100D01*
X291400Y322500D02*
X292600D01*
X292000Y321900D02*
Y323100D01*
X298400Y322500D02*
X299600D01*
X299000Y321900D02*
Y323100D01*
X294900Y322500D02*
X296100D01*
X295500Y321900D02*
Y323100D01*
X287400Y384500D02*
X288600D01*
X288000Y383900D02*
Y385100D01*
X290900Y384500D02*
X292100D01*
X291500Y383900D02*
Y385100D01*
X297900Y384500D02*
X299100D01*
X298500Y383900D02*
Y385100D01*
X294400Y384500D02*
X295600D01*
X295000Y383900D02*
Y385100D01*
X294400Y381000D02*
X295600D01*
X295000Y380400D02*
Y381600D01*
X297900Y381000D02*
X299100D01*
X298500Y380400D02*
Y381600D01*
X290900Y381000D02*
X292100D01*
X291500Y380400D02*
Y381600D01*
X287400Y381000D02*
X288600D01*
X288000Y380400D02*
Y381600D01*
X287400Y388000D02*
X288600D01*
X288000Y387400D02*
Y388600D01*
X290900Y388000D02*
X292100D01*
X291500Y387400D02*
Y388600D01*
X297900Y388000D02*
X299100D01*
X298500Y387400D02*
Y388600D01*
X294400Y388000D02*
X295600D01*
X295000Y387400D02*
Y388600D01*
X294400Y391500D02*
X295600D01*
X295000Y390900D02*
Y392100D01*
X297900Y391500D02*
X299100D01*
X298500Y390900D02*
Y392100D01*
X290900Y391500D02*
X292100D01*
X291500Y390900D02*
Y392100D01*
X287400Y391500D02*
X288600D01*
X288000Y390900D02*
Y392100D01*
X287400Y395000D02*
X288600D01*
X288000Y394400D02*
Y395600D01*
X290900Y395000D02*
X292100D01*
X291500Y394400D02*
Y395600D01*
X297900Y395000D02*
X299100D01*
X298500Y394400D02*
Y395600D01*
X294400Y395000D02*
X295600D01*
X295000Y394400D02*
Y395600D01*
X348400Y456000D02*
X349600D01*
X349000Y455400D02*
Y456600D01*
X351900Y456000D02*
X353100D01*
X352500Y455400D02*
Y456600D01*
X344900Y456000D02*
X346100D01*
X345500Y455400D02*
Y456600D01*
X341400Y456000D02*
X342600D01*
X342000Y455400D02*
Y456600D01*
X341400Y452500D02*
X342600D01*
X342000Y451900D02*
Y453100D01*
X344900Y452500D02*
X346100D01*
X345500Y451900D02*
Y453100D01*
X351900Y452500D02*
X353100D01*
X352500Y451900D02*
Y453100D01*
X348400Y452500D02*
X349600D01*
X349000Y451900D02*
Y453100D01*
X348400Y449000D02*
X349600D01*
X349000Y448400D02*
Y449600D01*
X351900Y449000D02*
X353100D01*
X352500Y448400D02*
Y449600D01*
X344900Y449000D02*
X346100D01*
X345500Y448400D02*
Y449600D01*
X341400Y449000D02*
X342600D01*
X342000Y448400D02*
Y449600D01*
X341400Y442000D02*
X342600D01*
X342000Y441400D02*
Y442600D01*
X344900Y442000D02*
X346100D01*
X345500Y441400D02*
Y442600D01*
X351900Y442000D02*
X353100D01*
X352500Y441400D02*
Y442600D01*
X348400Y442000D02*
X349600D01*
X349000Y441400D02*
Y442600D01*
X348400Y445500D02*
X349600D01*
X349000Y444900D02*
Y446100D01*
X351900Y445500D02*
X353100D01*
X352500Y444900D02*
Y446100D01*
X344900Y445500D02*
X346100D01*
X345500Y444900D02*
Y446100D01*
X341400Y445500D02*
X342600D01*
X342000Y444900D02*
Y446100D01*
M02*
