G04*
G04 #@! TF.GenerationSoftware,Altium Limited,Altium Designer,25.8.1 (18)*
G04*
G04 Layer_Color=255*
%FSLAX25Y25*%
%MOIN*%
G70*
G04*
G04 #@! TF.SameCoordinates,5416C298-7F67-47E7-9347-BB7475E64482*
G04*
G04*
G04 #@! TF.FilePolarity,Positive*
G04*
G01*
G75*
%ADD80C,0.19685*%
%ADD82C,0.11811*%
%ADD83R,0.06181X0.06181*%
%ADD84C,0.06181*%
%ADD88C,0.08465*%
%ADD89R,0.08465X0.08465*%
%ADD90C,0.09449*%
%ADD99C,0.03937*%
%ADD100C,0.06000*%
%ADD101R,0.06319X0.06319*%
%ADD102C,0.06319*%
D80*
X185000Y485000D02*
D03*
X344000D02*
D03*
X525000Y452500D02*
D03*
X508000Y265500D02*
D03*
X185000D02*
D03*
X316500D02*
D03*
D82*
X313500Y476898D02*
D03*
X214000Y477508D02*
D03*
X213500Y273102D02*
D03*
D83*
X313500Y459890D02*
D03*
X214000Y460500D02*
D03*
X213500Y290110D02*
D03*
D84*
X313500Y448079D02*
D03*
X214000Y448689D02*
D03*
X213500Y301921D02*
D03*
D88*
X272843Y437335D02*
D03*
Y451114D02*
D03*
X263000Y437335D02*
D03*
Y451114D02*
D03*
Y414500D02*
D03*
X272843D02*
D03*
Y400721D02*
D03*
X273421Y300803D02*
D03*
Y314583D02*
D03*
X263579D02*
D03*
Y337417D02*
D03*
X273421D02*
D03*
X263579Y351197D02*
D03*
X273421D02*
D03*
D89*
X263000Y400721D02*
D03*
X263579Y300803D02*
D03*
D90*
X267921Y425917D02*
D03*
X268500Y326000D02*
D03*
D99*
X432300Y271100D02*
D03*
X463700D02*
D03*
D100*
X533000Y287000D02*
D03*
Y267000D02*
D03*
Y277000D02*
D03*
Y297000D02*
D03*
Y420000D02*
D03*
Y410000D02*
D03*
Y400000D02*
D03*
Y430000D02*
D03*
D101*
X437000Y382500D02*
D03*
D102*
X447000D02*
D03*
X457000D02*
D03*
X467000D02*
D03*
M02*
