M48
;Layer_Color=9474304
;FILE_FORMAT=2:5
INCH,LZ
;TYPE=PLATED
T01F00S00C0.01200
T02F00S00C0.01600
T03F00S00C0.02400
T04F00S00C0.03000
T05F00S00C0.04016
T06F00S00C0.04213
T07F00S00C0.05512
;TYPE=NON_PLATED
T08F00S00C0.03937
T09F00S00C0.09449
T10F00S00C0.11811
T11F00S00C0.12598
%
T01
X03295Y0297
X0384Y0282
X03985
X03085Y0292
X0299Y03085
Y0312
X02955
X0292
X02885
Y03085
X0292
X02955
X02225Y03105
X02885Y03155
X0292
X02955
X0299
Y0319
X02955
X0292
X02885
Y03225
X0292
X02955
X0299
X03115Y033
Y0313
X03065Y0365
X02985Y0381
Y03845
X0295
X02915
X0288
Y0381
X02915
X0295
Y0388
X02915
X0288
Y03915
X02915
X0295
X02985
Y0388
Y0395
X0295
X02915
X0288
X0311Y04025
Y03855
X0221Y03965
X03325Y0383
X0354Y03825
X03525Y03875
X0351Y04085
X03525Y0442
X0349
X03455
X0342
Y04455
Y0449
Y04525
Y0456
X03455
X0349
X03525
Y04525
X0349
X03455
Y0449
X0349
X03525
Y04455
X0349
X03455
X03665Y04625
X03815Y0453
X03865Y04395
X03955Y04445
X04105Y0407
X04255Y03975
X0426Y03865
Y0375
X0414Y0377
X0395224Y0385224
X03825Y03945
X0356Y03645
X0364Y0353
X03675Y0338
X0377
X0356
X03455Y0348
X03395Y03595
X03165
X03295Y0313
X0351Y0318
X04015Y03385
X0415456Y0337544
X04155Y035
X04275Y03495
X04325Y0365
X0434Y0331
X04435Y0332272
X0448Y03325
X04565Y0332
X04615Y0343
X04475Y03205
X0439Y032
X0428Y0325
X0429647Y0413647
X0453Y04145
X04585
X04655
X04605Y0408968
Y0399969
Y03945
X0473Y0408
X0475Y0414
X04805Y0401
X04875Y0404
X0498Y0403
X0495Y0408
X05125Y04145
Y03995
X04825Y0375
X0478Y0359
X05005Y03375
X05365Y03425
Y03315
X05355Y03175
T02
X0367Y03565
X03745Y0382
X0367Y04
T03
X04895Y0272
X0488Y0307
X0414Y0293
X0367Y02855
X02445Y02995
X0245Y0386
X0352Y0432
X0502118Y0364618
T04
X0533Y0267
Y0277
Y0287
Y0297
Y04
Y041
Y042
Y043
T05
X02135Y029011
Y0301921
X0214Y0448689
Y04605
X03135Y045989
Y0448079
T06
X0437Y03825
X0447
X0457
X0467
T07
X0263579Y0300803
X0273421
Y0314583
X0263579
Y0337417
X0273421
Y0351197
X0263579
X0263Y0400721
X0272843
Y04145
X0263
Y0437335
X0272843
Y0451114
X0263
T08
X04323Y02711
X04637
T09
X02685Y0326
X0267921Y0425917
T10
X02135Y0273102
X03135Y0476898
X0214Y0477508
T11
X0508Y02655
X03165
X0185
X0525Y04525
X0344Y0485
X0185
M30
