G04*
G04 #@! TF.GenerationSoftware,Altium Limited,Altium Designer,25.8.1 (18)*
G04*
G04 Layer_Color=2752767*
%FSLAX25Y25*%
%MOIN*%
G70*
G04*
G04 #@! TF.SameCoordinates,BD6C6330-6F5E-4E75-AD65-D1E33E9A6F4C*
G04*
G04*
G04 #@! TF.FilePolarity,Positive*
G04*
G01*
G75*
%ADD15C,0.00500*%
%ADD105C,0.00400*%
%ADD110C,0.00667*%
D15*
X313500Y474898D02*
X311500Y478898D01*
X315500D01*
X313500Y474898D01*
Y457890D02*
X314500Y458890D01*
X315500D01*
X314500Y459890D01*
X315500Y460890D01*
X314500D01*
X313500Y461890D01*
X312500Y460890D01*
X311500D01*
X312500Y459890D01*
X311500Y458890D01*
X312500D01*
X313500Y457890D01*
Y446079D02*
X314500Y447079D01*
X315500D01*
X314500Y448079D01*
X315500Y449079D01*
X314500D01*
X313500Y450079D01*
X312500Y449079D01*
X311500D01*
X312500Y448079D01*
X311500Y447079D01*
X312500D01*
X313500Y446079D01*
X462700Y270100D02*
Y269100D01*
X464700D01*
Y270100D01*
X465700D01*
Y272100D01*
X464700D01*
Y273100D01*
X462700D01*
Y272100D01*
X461700D01*
Y270100D01*
X462700D01*
X431300D02*
Y269100D01*
X433300D01*
Y270100D01*
X434300D01*
Y272100D01*
X433300D01*
Y273100D01*
X431300D01*
Y272100D01*
X430300D01*
Y270100D01*
X431300D01*
X531000Y285000D02*
X532000Y287000D01*
X531000Y289000D01*
X533000Y288000D01*
X535000Y289000D01*
X534000Y287000D01*
X535000Y285000D01*
X533000Y286000D01*
X531000Y285000D01*
X435000Y382500D02*
X437000Y384500D01*
X439000Y382500D01*
X437000Y380500D01*
X435000Y382500D01*
X214000Y446689D02*
X215000Y447689D01*
X216000D01*
X215000Y448689D01*
X216000Y449689D01*
X215000D01*
X214000Y450689D01*
X213000Y449689D01*
X212000D01*
X213000Y448689D01*
X212000Y447689D01*
X213000D01*
X214000Y446689D01*
X213500Y299921D02*
X214500Y300921D01*
X215500D01*
X214500Y301921D01*
X215500Y302921D01*
X214500D01*
X213500Y303921D01*
X212500Y302921D01*
X211500D01*
X212500Y301921D01*
X211500Y300921D01*
X212500D01*
X213500Y299921D01*
X445000Y382500D02*
X447000Y384500D01*
X449000Y382500D01*
X447000Y380500D01*
X445000Y382500D01*
X531000Y265000D02*
X532000Y267000D01*
X531000Y269000D01*
X533000Y268000D01*
X535000Y269000D01*
X534000Y267000D01*
X535000Y265000D01*
X533000Y266000D01*
X531000Y265000D01*
Y275000D02*
X532000Y277000D01*
X531000Y279000D01*
X533000Y278000D01*
X535000Y279000D01*
X534000Y277000D01*
X535000Y275000D01*
X533000Y276000D01*
X531000Y275000D01*
Y295000D02*
X532000Y297000D01*
X531000Y299000D01*
X533000Y298000D01*
X535000Y299000D01*
X534000Y297000D01*
X535000Y295000D01*
X533000Y296000D01*
X531000Y295000D01*
Y418000D02*
X532000Y420000D01*
X531000Y422000D01*
X533000Y421000D01*
X535000Y422000D01*
X534000Y420000D01*
X535000Y418000D01*
X533000Y419000D01*
X531000Y418000D01*
X455000Y382500D02*
X457000Y384500D01*
X459000Y382500D01*
X457000Y380500D01*
X455000Y382500D01*
X531000Y408000D02*
X532000Y410000D01*
X531000Y412000D01*
X533000Y411000D01*
X535000Y412000D01*
X534000Y410000D01*
X535000Y408000D01*
X533000Y409000D01*
X531000Y408000D01*
Y398000D02*
X532000Y400000D01*
X531000Y402000D01*
X533000Y401000D01*
X535000Y402000D01*
X534000Y400000D01*
X535000Y398000D01*
X533000Y399000D01*
X531000Y398000D01*
X465000Y382500D02*
X467000Y384500D01*
X469000Y382500D01*
X467000Y380500D01*
X465000Y382500D01*
X531000Y428000D02*
X532000Y430000D01*
X531000Y432000D01*
X533000Y431000D01*
X535000Y432000D01*
X534000Y430000D01*
X535000Y428000D01*
X533000Y429000D01*
X531000Y428000D01*
X523000Y450500D02*
Y454500D01*
X527000D01*
Y450500D01*
X523000D01*
X523800Y451300D02*
Y453700D01*
X526200D01*
Y451300D01*
X523800D01*
X265921Y423917D02*
Y427917D01*
X269921D01*
Y423917D01*
X265921D01*
X266500Y324000D02*
Y328000D01*
X270500D01*
Y324000D01*
X266500D01*
X506000Y263500D02*
Y267500D01*
X510000D01*
Y263500D01*
X506000D01*
X506800Y264300D02*
Y266700D01*
X509200D01*
Y264300D01*
X506800D01*
X183000Y263500D02*
Y267500D01*
X187000D01*
Y263500D01*
X183000D01*
X183800Y264300D02*
Y266700D01*
X186200D01*
Y264300D01*
X183800D01*
X314500Y263500D02*
Y267500D01*
X318500D01*
Y263500D01*
X314500D01*
X315300Y264300D02*
Y266700D01*
X317700D01*
Y264300D01*
X315300D01*
X342000Y483000D02*
Y487000D01*
X346000D01*
Y483000D01*
X342000D01*
X342800Y483800D02*
Y486200D01*
X345200D01*
Y483800D01*
X342800D01*
X183000Y483000D02*
Y487000D01*
X187000D01*
Y483000D01*
X183000D01*
X183800Y483800D02*
Y486200D01*
X186200D01*
Y483800D01*
X183800D01*
X214000Y475508D02*
X212000Y479508D01*
X216000D01*
X214000Y475508D01*
Y458500D02*
X215000Y459500D01*
X216000D01*
X215000Y460500D01*
X216000Y461500D01*
X215000D01*
X214000Y462500D01*
X213000Y461500D01*
X212000D01*
X213000Y460500D01*
X212000Y459500D01*
X213000D01*
X214000Y458500D01*
X213500Y271102D02*
X211500Y275102D01*
X215500D01*
X213500Y271102D01*
Y288110D02*
X214500Y289110D01*
X215500D01*
X214500Y290110D01*
X215500Y291110D01*
X214500D01*
X213500Y292110D01*
X212500Y291110D01*
X211500D01*
X212500Y290110D01*
X211500Y289110D01*
X212500D01*
X213500Y288110D01*
X384500Y437500D02*
X385500D01*
X386500Y438500D01*
X387500Y437500D01*
X388500D01*
Y438500D01*
X387500Y439500D01*
X388500Y440500D01*
Y441500D01*
X387500D01*
X386500Y440500D01*
X385500Y441500D01*
X384500D01*
Y440500D01*
X385500Y439500D01*
X384500Y438500D01*
Y437500D01*
X367000Y398000D02*
X365000Y402000D01*
X369000D01*
X367000Y398000D01*
Y398800D02*
X365800Y401200D01*
X368200D01*
X367000Y398800D01*
X352000Y380500D02*
X353000D01*
X354000Y381500D01*
X355000Y380500D01*
X356000D01*
Y381500D01*
X355000Y382500D01*
X356000Y383500D01*
Y384500D01*
X355000D01*
X354000Y383500D01*
X353000Y384500D01*
X352000D01*
Y383500D01*
X353000Y382500D01*
X352000Y381500D01*
Y380500D01*
X374500Y380000D02*
X372500Y384000D01*
X376500D01*
X374500Y380000D01*
Y380800D02*
X373300Y383200D01*
X375700D01*
X374500Y380800D01*
X408500Y405000D02*
X409500D01*
X410500Y406000D01*
X411500Y405000D01*
X412500D01*
Y406000D01*
X411500Y407000D01*
X412500Y408000D01*
Y409000D01*
X411500D01*
X410500Y408000D01*
X409500Y409000D01*
X408500D01*
Y408000D01*
X409500Y407000D01*
X408500Y406000D01*
Y405000D01*
X380500Y392500D02*
X381500D01*
X382500Y393500D01*
X383500Y392500D01*
X384500D01*
Y393500D01*
X383500Y394500D01*
X384500Y395500D01*
Y396500D01*
X383500D01*
X382500Y395500D01*
X381500Y396500D01*
X380500D01*
Y395500D01*
X381500Y394500D01*
X380500Y393500D01*
Y392500D01*
X304500Y363000D02*
X305500D01*
X306500Y364000D01*
X307500Y363000D01*
X308500D01*
Y364000D01*
X307500Y365000D01*
X308500Y366000D01*
Y367000D01*
X307500D01*
X306500Y366000D01*
X305500Y367000D01*
X304500D01*
Y366000D01*
X305500Y365000D01*
X304500Y364000D01*
Y363000D01*
X413500Y348000D02*
X414500D01*
X415500Y349000D01*
X416500Y348000D01*
X417500D01*
Y349000D01*
X416500Y350000D01*
X417500Y351000D01*
Y352000D01*
X416500D01*
X415500Y351000D01*
X414500Y352000D01*
X413500D01*
Y351000D01*
X414500Y350000D01*
X413500Y349000D01*
Y348000D01*
X362000Y351000D02*
X363000D01*
X364000Y352000D01*
X365000Y351000D01*
X366000D01*
Y352000D01*
X365000Y353000D01*
X366000Y354000D01*
Y355000D01*
X365000D01*
X364000Y354000D01*
X363000Y355000D01*
X362000D01*
Y354000D01*
X363000Y353000D01*
X362000Y352000D01*
Y351000D01*
X445500Y318500D02*
X446500D01*
X447500Y319500D01*
X448500Y318500D01*
X449500D01*
Y319500D01*
X448500Y320500D01*
X449500Y321500D01*
Y322500D01*
X448500D01*
X447500Y321500D01*
X446500Y322500D01*
X445500D01*
Y321500D01*
X446500Y320500D01*
X445500Y319500D01*
Y318500D01*
X441500Y330272D02*
X442500D01*
X443500Y331272D01*
X444500Y330272D01*
X445500D01*
Y331272D01*
X444500Y332272D01*
X445500Y333272D01*
Y334272D01*
X444500D01*
X443500Y333272D01*
X442500Y334272D01*
X441500D01*
Y333272D01*
X442500Y332272D01*
X441500Y331272D01*
Y330272D01*
X454500Y330000D02*
X455500D01*
X456500Y331000D01*
X457500Y330000D01*
X458500D01*
Y331000D01*
X457500Y332000D01*
X458500Y333000D01*
Y334000D01*
X457500D01*
X456500Y333000D01*
X455500Y334000D01*
X454500D01*
Y333000D01*
X455500Y332000D01*
X454500Y331000D01*
Y330000D01*
X426000Y323000D02*
X427000D01*
X428000Y324000D01*
X429000Y323000D01*
X430000D01*
Y324000D01*
X429000Y325000D01*
X430000Y326000D01*
Y327000D01*
X429000D01*
X428000Y326000D01*
X427000Y327000D01*
X426000D01*
Y326000D01*
X427000Y325000D01*
X426000Y324000D01*
Y323000D01*
X459500Y341000D02*
X460500D01*
X461500Y342000D01*
X462500Y341000D01*
X463500D01*
Y342000D01*
X462500Y343000D01*
X463500Y344000D01*
Y345000D01*
X462500D01*
X461500Y344000D01*
X460500Y345000D01*
X459500D01*
Y344000D01*
X460500Y343000D01*
X459500Y342000D01*
Y341000D01*
X432000Y329000D02*
X433000D01*
X434000Y330000D01*
X435000Y329000D01*
X436000D01*
Y330000D01*
X435000Y331000D01*
X436000Y332000D01*
Y333000D01*
X435000D01*
X434000Y332000D01*
X433000Y333000D01*
X432000D01*
Y332000D01*
X433000Y331000D01*
X432000Y330000D01*
Y329000D01*
X437000Y318000D02*
X438000D01*
X439000Y319000D01*
X440000Y318000D01*
X441000D01*
Y319000D01*
X440000Y320000D01*
X441000Y321000D01*
Y322000D01*
X440000D01*
X439000Y321000D01*
X438000Y322000D01*
X437000D01*
Y321000D01*
X438000Y320000D01*
X437000Y319000D01*
Y318000D01*
X510500Y412500D02*
X511500D01*
X512500Y413500D01*
X513500Y412500D01*
X514500D01*
Y413500D01*
X513500Y414500D01*
X514500Y415500D01*
Y416500D01*
X513500D01*
X512500Y415500D01*
X511500Y416500D01*
X510500D01*
Y415500D01*
X511500Y414500D01*
X510500Y413500D01*
Y412500D01*
X473000Y412000D02*
X474000D01*
X475000Y413000D01*
X476000Y412000D01*
X477000D01*
Y413000D01*
X476000Y414000D01*
X477000Y415000D01*
Y416000D01*
X476000D01*
X475000Y415000D01*
X474000Y416000D01*
X473000D01*
Y415000D01*
X474000Y414000D01*
X473000Y413000D01*
Y412000D01*
X496000Y401000D02*
X497000D01*
X498000Y402000D01*
X499000Y401000D01*
X500000D01*
Y402000D01*
X499000Y403000D01*
X500000Y404000D01*
Y405000D01*
X499000D01*
X498000Y404000D01*
X497000Y405000D01*
X496000D01*
Y404000D01*
X497000Y403000D01*
X496000Y402000D01*
Y401000D01*
X451000Y412500D02*
X452000D01*
X453000Y413500D01*
X454000Y412500D01*
X455000D01*
Y413500D01*
X454000Y414500D01*
X455000Y415500D01*
Y416500D01*
X454000D01*
X453000Y415500D01*
X452000Y416500D01*
X451000D01*
Y415500D01*
X452000Y414500D01*
X451000Y413500D01*
Y412500D01*
X463500D02*
X464500D01*
X465500Y413500D01*
X466500Y412500D01*
X467500D01*
Y413500D01*
X466500Y414500D01*
X467500Y415500D01*
Y416500D01*
X466500D01*
X465500Y415500D01*
X464500Y416500D01*
X463500D01*
Y415500D01*
X464500Y414500D01*
X463500Y413500D01*
Y412500D01*
X456500D02*
X457500D01*
X458500Y413500D01*
X459500Y412500D01*
X460500D01*
Y413500D01*
X459500Y414500D01*
X460500Y415500D01*
Y416500D01*
X459500D01*
X458500Y415500D01*
X457500Y416500D01*
X456500D01*
Y415500D01*
X457500Y414500D01*
X456500Y413500D01*
Y412500D01*
X427647Y411647D02*
X428647D01*
X429647Y412647D01*
X430647Y411647D01*
X431647D01*
Y412647D01*
X430647Y413647D01*
X431647Y414647D01*
Y415647D01*
X430647D01*
X429647Y414647D01*
X428647Y415647D01*
X427647D01*
Y414647D01*
X428647Y413647D01*
X427647Y412647D01*
Y411647D01*
X510500Y397500D02*
X511500D01*
X512500Y398500D01*
X513500Y397500D01*
X514500D01*
Y398500D01*
X513500Y399500D01*
X514500Y400500D01*
Y401500D01*
X513500D01*
X512500Y400500D01*
X511500Y401500D01*
X510500D01*
Y400500D01*
X511500Y399500D01*
X510500Y398500D01*
Y397500D01*
X534500Y329500D02*
X535500D01*
X536500Y330500D01*
X537500Y329500D01*
X538500D01*
Y330500D01*
X537500Y331500D01*
X538500Y332500D01*
Y333500D01*
X537500D01*
X536500Y332500D01*
X535500Y333500D01*
X534500D01*
Y332500D01*
X535500Y331500D01*
X534500Y330500D01*
Y329500D01*
X458500Y397969D02*
X459500D01*
X460500Y398969D01*
X461500Y397969D01*
X462500D01*
Y398969D01*
X461500Y399969D01*
X462500Y400969D01*
Y401968D01*
X461500D01*
X460500Y400969D01*
X459500Y401968D01*
X458500D01*
Y400969D01*
X459500Y399969D01*
X458500Y398969D01*
Y397969D01*
X446000Y330500D02*
X447000D01*
X448000Y331500D01*
X449000Y330500D01*
X450000D01*
Y331500D01*
X449000Y332500D01*
X450000Y333500D01*
Y334500D01*
X449000D01*
X448000Y333500D01*
X447000Y334500D01*
X446000D01*
Y333500D01*
X447000Y332500D01*
X446000Y331500D01*
Y330500D01*
X413456Y335544D02*
X414456D01*
X415456Y336544D01*
X416456Y335544D01*
X417456D01*
Y336544D01*
X416456Y337544D01*
X417456Y338544D01*
Y339544D01*
X416456D01*
X415456Y338544D01*
X414456Y339544D01*
X413456D01*
Y338544D01*
X414456Y337544D01*
X413456Y336544D01*
Y335544D01*
X393500Y442500D02*
X394500D01*
X395500Y443500D01*
X396500Y442500D01*
X397500D01*
Y443500D01*
X396500Y444500D01*
X397500Y445500D01*
Y446500D01*
X396500D01*
X395500Y445500D01*
X394500Y446500D01*
X393500D01*
Y445500D01*
X394500Y444500D01*
X393500Y443500D01*
Y442500D01*
X364500Y460500D02*
X365500D01*
X366500Y461500D01*
X367500Y460500D01*
X368500D01*
Y461500D01*
X367500Y462500D01*
X368500Y463500D01*
Y464500D01*
X367500D01*
X366500Y463500D01*
X365500Y464500D01*
X364500D01*
Y463500D01*
X365500Y462500D01*
X364500Y461500D01*
Y460500D01*
X349000Y406500D02*
X350000D01*
X351000Y407500D01*
X352000Y406500D01*
X353000D01*
Y407500D01*
X352000Y408500D01*
X353000Y409500D01*
Y410500D01*
X352000D01*
X351000Y409500D01*
X350000Y410500D01*
X349000D01*
Y409500D01*
X350000Y408500D01*
X349000Y407500D01*
Y406500D01*
X309000Y400500D02*
X310000D01*
X311000Y401500D01*
X312000Y400500D01*
X313000D01*
Y401500D01*
X312000Y402500D01*
X313000Y403500D01*
Y404500D01*
X312000D01*
X311000Y403500D01*
X310000Y404500D01*
X309000D01*
Y403500D01*
X310000Y402500D01*
X309000Y401500D01*
Y400500D01*
X350500Y385500D02*
X351500D01*
X352500Y386500D01*
X353500Y385500D01*
X354500D01*
Y386500D01*
X353500Y387500D01*
X354500Y388500D01*
Y389500D01*
X353500D01*
X352500Y388500D01*
X351500Y389500D01*
X350500D01*
Y388500D01*
X351500Y387500D01*
X350500Y386500D01*
Y385500D01*
X219000Y394500D02*
X220000D01*
X221000Y395500D01*
X222000Y394500D01*
X223000D01*
Y395500D01*
X222000Y396500D01*
X223000Y397500D01*
Y398500D01*
X222000D01*
X221000Y397500D01*
X220000Y398500D01*
X219000D01*
Y397500D01*
X220000Y396500D01*
X219000Y395500D01*
Y394500D01*
X399500Y336500D02*
X400500D01*
X401500Y337500D01*
X402500Y336500D01*
X403500D01*
Y337500D01*
X402500Y338500D01*
X403500Y339500D01*
Y340500D01*
X402500D01*
X401500Y339500D01*
X400500Y340500D01*
X399500D01*
Y339500D01*
X400500Y338500D01*
X399500Y337500D01*
Y336500D01*
X354000Y362500D02*
X355000D01*
X356000Y363500D01*
X357000Y362500D01*
X358000D01*
Y363500D01*
X357000Y364500D01*
X358000Y365500D01*
Y366500D01*
X357000D01*
X356000Y365500D01*
X355000Y366500D01*
X354000D01*
Y365500D01*
X355000Y364500D01*
X354000Y363500D01*
Y362500D01*
Y336000D02*
X355000D01*
X356000Y337000D01*
X357000Y336000D01*
X358000D01*
Y337000D01*
X357000Y338000D01*
X358000Y339000D01*
Y340000D01*
X357000D01*
X356000Y339000D01*
X355000Y340000D01*
X354000D01*
Y339000D01*
X355000Y338000D01*
X354000Y337000D01*
Y336000D01*
X396500Y280000D02*
X397500D01*
X398500Y281000D01*
X399500Y280000D01*
X400500D01*
Y281000D01*
X399500Y282000D01*
X400500Y283000D01*
Y284000D01*
X399500D01*
X398500Y283000D01*
X397500Y284000D01*
X396500D01*
Y283000D01*
X397500Y282000D01*
X396500Y281000D01*
Y280000D01*
X382000D02*
X383000D01*
X384000Y281000D01*
X385000Y280000D01*
X386000D01*
Y281000D01*
X385000Y282000D01*
X386000Y283000D01*
Y284000D01*
X385000D01*
X384000Y283000D01*
X383000Y284000D01*
X382000D01*
Y283000D01*
X383000Y282000D01*
X382000Y281000D01*
Y280000D01*
X309500Y328000D02*
X310500D01*
X311500Y329000D01*
X312500Y328000D01*
X313500D01*
Y329000D01*
X312500Y330000D01*
X313500Y331000D01*
Y332000D01*
X312500D01*
X311500Y331000D01*
X310500Y332000D01*
X309500D01*
Y331000D01*
X310500Y330000D01*
X309500Y329000D01*
Y328000D01*
X306500Y290000D02*
X307500D01*
X308500Y291000D01*
X309500Y290000D01*
X310500D01*
Y291000D01*
X309500Y292000D01*
X310500Y293000D01*
Y294000D01*
X309500D01*
X308500Y293000D01*
X307500Y294000D01*
X306500D01*
Y293000D01*
X307500Y292000D01*
X306500Y291000D01*
Y290000D01*
X220500Y308500D02*
X221500D01*
X222500Y309500D01*
X223500Y308500D01*
X224500D01*
Y309500D01*
X223500Y310500D01*
X224500Y311500D01*
Y312500D01*
X223500D01*
X222500Y311500D01*
X221500Y312500D01*
X220500D01*
Y311500D01*
X221500Y310500D01*
X220500Y309500D01*
Y308500D01*
X493000Y406000D02*
X494000D01*
X495000Y407000D01*
X496000Y406000D01*
X497000D01*
Y407000D01*
X496000Y408000D01*
X497000Y409000D01*
Y410000D01*
X496000D01*
X495000Y409000D01*
X494000Y410000D01*
X493000D01*
Y409000D01*
X494000Y408000D01*
X493000Y407000D01*
Y406000D01*
X471000D02*
X472000D01*
X473000Y407000D01*
X474000Y406000D01*
X475000D01*
Y407000D01*
X474000Y408000D01*
X475000Y409000D01*
Y410000D01*
X474000D01*
X473000Y409000D01*
X472000Y410000D01*
X471000D01*
Y409000D01*
X472000Y408000D01*
X471000Y407000D01*
Y406000D01*
X458500Y406968D02*
X459500D01*
X460500Y407969D01*
X461500Y406968D01*
X462500D01*
Y407969D01*
X461500Y408968D01*
X462500Y409969D01*
Y410968D01*
X461500D01*
X460500Y409969D01*
X459500Y410968D01*
X458500D01*
Y409969D01*
X459500Y408968D01*
X458500Y407969D01*
Y406968D01*
X533500Y315500D02*
X534500D01*
X535500Y316500D01*
X536500Y315500D01*
X537500D01*
Y316500D01*
X536500Y317500D01*
X537500Y318500D01*
Y319500D01*
X536500D01*
X535500Y318500D01*
X534500Y319500D01*
X533500D01*
Y318500D01*
X534500Y317500D01*
X533500Y316500D01*
Y315500D01*
X430500Y363000D02*
X431500D01*
X432500Y364000D01*
X433500Y363000D01*
X434500D01*
Y364000D01*
X433500Y365000D01*
X434500Y366000D01*
Y367000D01*
X433500D01*
X432500Y366000D01*
X431500Y367000D01*
X430500D01*
Y366000D01*
X431500Y365000D01*
X430500Y364000D01*
Y363000D01*
X424000Y384500D02*
X425000D01*
X426000Y385500D01*
X427000Y384500D01*
X428000D01*
Y385500D01*
X427000Y386500D01*
X428000Y387500D01*
Y388500D01*
X427000D01*
X426000Y387500D01*
X425000Y388500D01*
X424000D01*
Y387500D01*
X425000Y386500D01*
X424000Y385500D01*
Y384500D01*
X379500Y451000D02*
X380500D01*
X381500Y452000D01*
X382500Y451000D01*
X383500D01*
Y452000D01*
X382500Y453000D01*
X383500Y454000D01*
Y455000D01*
X382500D01*
X381500Y454000D01*
X380500Y455000D01*
X379500D01*
Y454000D01*
X380500Y453000D01*
X379500Y452000D01*
Y451000D01*
X309000Y383500D02*
X310000D01*
X311000Y384500D01*
X312000Y383500D01*
X313000D01*
Y384500D01*
X312000Y385500D01*
X313000Y386500D01*
Y387500D01*
X312000D01*
X311000Y386500D01*
X310000Y387500D01*
X309000D01*
Y386500D01*
X310000Y385500D01*
X309000Y384500D01*
Y383500D01*
X330500Y381000D02*
X331500D01*
X332500Y382000D01*
X333500Y381000D01*
X334500D01*
Y382000D01*
X333500Y383000D01*
X334500Y384000D01*
Y385000D01*
X333500D01*
X332500Y384000D01*
X331500Y385000D01*
X330500D01*
Y384000D01*
X331500Y383000D01*
X330500Y382000D01*
Y381000D01*
X424000Y373000D02*
X425000D01*
X426000Y374000D01*
X427000Y373000D01*
X428000D01*
Y374000D01*
X427000Y375000D01*
X428000Y376000D01*
Y377000D01*
X427000D01*
X426000Y376000D01*
X425000Y377000D01*
X424000D01*
Y376000D01*
X425000Y375000D01*
X424000Y374000D01*
Y373000D01*
X337500Y357500D02*
X338500D01*
X339500Y358500D01*
X340500Y357500D01*
X341500D01*
Y358500D01*
X340500Y359500D01*
X341500Y360500D01*
Y361500D01*
X340500D01*
X339500Y360500D01*
X338500Y361500D01*
X337500D01*
Y360500D01*
X338500Y359500D01*
X337500Y358500D01*
Y357500D01*
X314500D02*
X315500D01*
X316500Y358500D01*
X317500Y357500D01*
X318500D01*
Y358500D01*
X317500Y359500D01*
X318500Y360500D01*
Y361500D01*
X317500D01*
X316500Y360500D01*
X315500Y361500D01*
X314500D01*
Y360500D01*
X315500Y359500D01*
X314500Y358500D01*
Y357500D01*
X327500Y295000D02*
X328500D01*
X329500Y296000D01*
X330500Y295000D01*
X331500D01*
Y296000D01*
X330500Y297000D01*
X331500Y298000D01*
Y299000D01*
X330500D01*
X329500Y298000D01*
X328500Y299000D01*
X327500D01*
Y298000D01*
X328500Y297000D01*
X327500Y296000D01*
Y295000D01*
Y311000D02*
X328500D01*
X329500Y312000D01*
X330500Y311000D01*
X331500D01*
Y312000D01*
X330500Y313000D01*
X331500Y314000D01*
Y315000D01*
X330500D01*
X329500Y314000D01*
X328500Y315000D01*
X327500D01*
Y314000D01*
X328500Y313000D01*
X327500Y312000D01*
Y311000D01*
X309500D02*
X310500D01*
X311500Y312000D01*
X312500Y311000D01*
X313500D01*
Y312000D01*
X312500Y313000D01*
X313500Y314000D01*
Y315000D01*
X312500D01*
X311500Y314000D01*
X310500Y315000D01*
X309500D01*
Y314000D01*
X310500Y313000D01*
X309500Y312000D01*
Y311000D01*
X365500Y336000D02*
X366500D01*
X367500Y337000D01*
X368500Y336000D01*
X369500D01*
Y337000D01*
X368500Y338000D01*
X369500Y339000D01*
Y340000D01*
X368500D01*
X367500Y339000D01*
X366500Y340000D01*
X365500D01*
Y339000D01*
X366500Y338000D01*
X365500Y337000D01*
Y336000D01*
X425500Y347500D02*
X426500D01*
X427500Y348500D01*
X428500Y347500D01*
X429500D01*
Y348500D01*
X428500Y349500D01*
X429500Y350500D01*
Y351500D01*
X428500D01*
X427500Y350500D01*
X426500Y351500D01*
X425500D01*
Y350500D01*
X426500Y349500D01*
X425500Y348500D01*
Y347500D01*
X458500Y392500D02*
X459500D01*
X460500Y393500D01*
X461500Y392500D01*
X462500D01*
Y393500D01*
X461500Y394500D01*
X462500Y395500D01*
Y396500D01*
X461500D01*
X460500Y395500D01*
X459500Y396500D01*
X458500D01*
Y395500D01*
X459500Y394500D01*
X458500Y393500D01*
Y392500D01*
X478500Y399000D02*
X479500D01*
X480500Y400000D01*
X481500Y399000D01*
X482500D01*
Y400000D01*
X481500Y401000D01*
X482500Y402000D01*
Y403000D01*
X481500D01*
X480500Y402000D01*
X479500Y403000D01*
X478500D01*
Y402000D01*
X479500Y401000D01*
X478500Y400000D01*
Y399000D01*
X367000Y354500D02*
X365000Y358500D01*
X369000D01*
X367000Y354500D01*
Y355300D02*
X365800Y357700D01*
X368200D01*
X367000Y355300D01*
X393224Y383224D02*
X394224D01*
X395224Y384224D01*
X396224Y383224D01*
X397224D01*
Y384224D01*
X396224Y385224D01*
X397224Y386224D01*
Y387224D01*
X396224D01*
X395224Y386224D01*
X394224Y387224D01*
X393224D01*
Y386224D01*
X394224Y385224D01*
X393224Y384224D01*
Y383224D01*
X480500Y373000D02*
X481500D01*
X482500Y374000D01*
X483500Y373000D01*
X484500D01*
Y374000D01*
X483500Y375000D01*
X484500Y376000D01*
Y377000D01*
X483500D01*
X482500Y376000D01*
X481500Y377000D01*
X480500D01*
Y376000D01*
X481500Y375000D01*
X480500Y374000D01*
Y373000D01*
X343500Y346000D02*
X344500D01*
X345500Y347000D01*
X346500Y346000D01*
X347500D01*
Y347000D01*
X346500Y348000D01*
X347500Y349000D01*
Y350000D01*
X346500D01*
X345500Y349000D01*
X344500Y350000D01*
X343500D01*
Y349000D01*
X344500Y348000D01*
X343500Y347000D01*
Y346000D01*
X534500Y340500D02*
X535500D01*
X536500Y341500D01*
X537500Y340500D01*
X538500D01*
Y341500D01*
X537500Y342500D01*
X538500Y343500D01*
Y344500D01*
X537500D01*
X536500Y343500D01*
X535500Y344500D01*
X534500D01*
Y343500D01*
X535500Y342500D01*
X534500Y341500D01*
Y340500D01*
X498500Y335500D02*
X499500D01*
X500500Y336500D01*
X501500Y335500D01*
X502500D01*
Y336500D01*
X501500Y337500D01*
X502500Y338500D01*
Y339500D01*
X501500D01*
X500500Y338500D01*
X499500Y339500D01*
X498500D01*
Y338500D01*
X499500Y337500D01*
X498500Y336500D01*
Y335500D01*
X375000Y336000D02*
X376000D01*
X377000Y337000D01*
X378000Y336000D01*
X379000D01*
Y337000D01*
X378000Y338000D01*
X379000Y339000D01*
Y340000D01*
X378000D01*
X377000Y339000D01*
X376000Y340000D01*
X375000D01*
Y339000D01*
X376000Y338000D01*
X375000Y337000D01*
Y336000D01*
X349000Y316000D02*
X350000D01*
X351000Y317000D01*
X352000Y316000D01*
X353000D01*
Y317000D01*
X352000Y318000D01*
X353000Y319000D01*
Y320000D01*
X352000D01*
X351000Y319000D01*
X350000Y320000D01*
X349000D01*
Y319000D01*
X350000Y318000D01*
X349000Y317000D01*
Y316000D01*
X412000Y375000D02*
X413000D01*
X414000Y376000D01*
X415000Y375000D01*
X416000D01*
Y376000D01*
X415000Y377000D01*
X416000Y378000D01*
Y379000D01*
X415000D01*
X414000Y378000D01*
X413000Y379000D01*
X412000D01*
Y378000D01*
X413000Y377000D01*
X412000Y376000D01*
Y375000D01*
X476000Y357000D02*
X477000D01*
X478000Y358000D01*
X479000Y357000D01*
X480000D01*
Y358000D01*
X479000Y359000D01*
X480000Y360000D01*
Y361000D01*
X479000D01*
X478000Y360000D01*
X477000Y361000D01*
X476000D01*
Y360000D01*
X477000Y359000D01*
X476000Y358000D01*
Y357000D01*
X485500Y402000D02*
X486500D01*
X487500Y403000D01*
X488500Y402000D01*
X489500D01*
Y403000D01*
X488500Y404000D01*
X489500Y405000D01*
Y406000D01*
X488500D01*
X487500Y405000D01*
X486500Y406000D01*
X485500D01*
Y405000D01*
X486500Y404000D01*
X485500Y403000D01*
Y402000D01*
X423500Y395500D02*
X424500D01*
X425500Y396500D01*
X426500Y395500D01*
X427500D01*
Y396500D01*
X426500Y397500D01*
X427500Y398500D01*
Y399500D01*
X426500D01*
X425500Y398500D01*
X424500Y399500D01*
X423500D01*
Y398500D01*
X424500Y397500D01*
X423500Y396500D01*
Y395500D01*
X286500Y310000D02*
X287500D01*
X288500Y311000D01*
X289500Y310000D01*
X290500D01*
Y311000D01*
X289500Y312000D01*
X290500Y313000D01*
Y314000D01*
X289500D01*
X288500Y313000D01*
X287500Y314000D01*
X286500D01*
Y313000D01*
X287500Y312000D01*
X286500Y311000D01*
Y310000D01*
X290000D02*
X291000D01*
X292000Y311000D01*
X293000Y310000D01*
X294000D01*
Y311000D01*
X293000Y312000D01*
X294000Y313000D01*
Y314000D01*
X293000D01*
X292000Y313000D01*
X291000Y314000D01*
X290000D01*
Y313000D01*
X291000Y312000D01*
X290000Y311000D01*
Y310000D01*
X297000D02*
X298000D01*
X299000Y311000D01*
X300000Y310000D01*
X301000D01*
Y311000D01*
X300000Y312000D01*
X301000Y313000D01*
Y314000D01*
X300000D01*
X299000Y313000D01*
X298000Y314000D01*
X297000D01*
Y313000D01*
X298000Y312000D01*
X297000Y311000D01*
Y310000D01*
X293500D02*
X294500D01*
X295500Y311000D01*
X296500Y310000D01*
X297500D01*
Y311000D01*
X296500Y312000D01*
X297500Y313000D01*
Y314000D01*
X296500D01*
X295500Y313000D01*
X294500Y314000D01*
X293500D01*
Y313000D01*
X294500Y312000D01*
X293500Y311000D01*
Y310000D01*
Y306500D02*
X294500D01*
X295500Y307500D01*
X296500Y306500D01*
X297500D01*
Y307500D01*
X296500Y308500D01*
X297500Y309500D01*
Y310500D01*
X296500D01*
X295500Y309500D01*
X294500Y310500D01*
X293500D01*
Y309500D01*
X294500Y308500D01*
X293500Y307500D01*
Y306500D01*
X297000D02*
X298000D01*
X299000Y307500D01*
X300000Y306500D01*
X301000D01*
Y307500D01*
X300000Y308500D01*
X301000Y309500D01*
Y310500D01*
X300000D01*
X299000Y309500D01*
X298000Y310500D01*
X297000D01*
Y309500D01*
X298000Y308500D01*
X297000Y307500D01*
Y306500D01*
X290000D02*
X291000D01*
X292000Y307500D01*
X293000Y306500D01*
X294000D01*
Y307500D01*
X293000Y308500D01*
X294000Y309500D01*
Y310500D01*
X293000D01*
X292000Y309500D01*
X291000Y310500D01*
X290000D01*
Y309500D01*
X291000Y308500D01*
X290000Y307500D01*
Y306500D01*
X286500D02*
X287500D01*
X288500Y307500D01*
X289500Y306500D01*
X290500D01*
Y307500D01*
X289500Y308500D01*
X290500Y309500D01*
Y310500D01*
X289500D01*
X288500Y309500D01*
X287500Y310500D01*
X286500D01*
Y309500D01*
X287500Y308500D01*
X286500Y307500D01*
Y306500D01*
Y313500D02*
X287500D01*
X288500Y314500D01*
X289500Y313500D01*
X290500D01*
Y314500D01*
X289500Y315500D01*
X290500Y316500D01*
Y317500D01*
X289500D01*
X288500Y316500D01*
X287500Y317500D01*
X286500D01*
Y316500D01*
X287500Y315500D01*
X286500Y314500D01*
Y313500D01*
X290000D02*
X291000D01*
X292000Y314500D01*
X293000Y313500D01*
X294000D01*
Y314500D01*
X293000Y315500D01*
X294000Y316500D01*
Y317500D01*
X293000D01*
X292000Y316500D01*
X291000Y317500D01*
X290000D01*
Y316500D01*
X291000Y315500D01*
X290000Y314500D01*
Y313500D01*
X297000D02*
X298000D01*
X299000Y314500D01*
X300000Y313500D01*
X301000D01*
Y314500D01*
X300000Y315500D01*
X301000Y316500D01*
Y317500D01*
X300000D01*
X299000Y316500D01*
X298000Y317500D01*
X297000D01*
Y316500D01*
X298000Y315500D01*
X297000Y314500D01*
Y313500D01*
X293500D02*
X294500D01*
X295500Y314500D01*
X296500Y313500D01*
X297500D01*
Y314500D01*
X296500Y315500D01*
X297500Y316500D01*
Y317500D01*
X296500D01*
X295500Y316500D01*
X294500Y317500D01*
X293500D01*
Y316500D01*
X294500Y315500D01*
X293500Y314500D01*
Y313500D01*
Y317000D02*
X294500D01*
X295500Y318000D01*
X296500Y317000D01*
X297500D01*
Y318000D01*
X296500Y319000D01*
X297500Y320000D01*
Y321000D01*
X296500D01*
X295500Y320000D01*
X294500Y321000D01*
X293500D01*
Y320000D01*
X294500Y319000D01*
X293500Y318000D01*
Y317000D01*
X297000D02*
X298000D01*
X299000Y318000D01*
X300000Y317000D01*
X301000D01*
Y318000D01*
X300000Y319000D01*
X301000Y320000D01*
Y321000D01*
X300000D01*
X299000Y320000D01*
X298000Y321000D01*
X297000D01*
Y320000D01*
X298000Y319000D01*
X297000Y318000D01*
Y317000D01*
X290000D02*
X291000D01*
X292000Y318000D01*
X293000Y317000D01*
X294000D01*
Y318000D01*
X293000Y319000D01*
X294000Y320000D01*
Y321000D01*
X293000D01*
X292000Y320000D01*
X291000Y321000D01*
X290000D01*
Y320000D01*
X291000Y319000D01*
X290000Y318000D01*
Y317000D01*
X286500D02*
X287500D01*
X288500Y318000D01*
X289500Y317000D01*
X290500D01*
Y318000D01*
X289500Y319000D01*
X290500Y320000D01*
Y321000D01*
X289500D01*
X288500Y320000D01*
X287500Y321000D01*
X286500D01*
Y320000D01*
X287500Y319000D01*
X286500Y318000D01*
Y317000D01*
Y320500D02*
X287500D01*
X288500Y321500D01*
X289500Y320500D01*
X290500D01*
Y321500D01*
X289500Y322500D01*
X290500Y323500D01*
Y324500D01*
X289500D01*
X288500Y323500D01*
X287500Y324500D01*
X286500D01*
Y323500D01*
X287500Y322500D01*
X286500Y321500D01*
Y320500D01*
X290000D02*
X291000D01*
X292000Y321500D01*
X293000Y320500D01*
X294000D01*
Y321500D01*
X293000Y322500D01*
X294000Y323500D01*
Y324500D01*
X293000D01*
X292000Y323500D01*
X291000Y324500D01*
X290000D01*
Y323500D01*
X291000Y322500D01*
X290000Y321500D01*
Y320500D01*
X297000D02*
X298000D01*
X299000Y321500D01*
X300000Y320500D01*
X301000D01*
Y321500D01*
X300000Y322500D01*
X301000Y323500D01*
Y324500D01*
X300000D01*
X299000Y323500D01*
X298000Y324500D01*
X297000D01*
Y323500D01*
X298000Y322500D01*
X297000Y321500D01*
Y320500D01*
X293500D02*
X294500D01*
X295500Y321500D01*
X296500Y320500D01*
X297500D01*
Y321500D01*
X296500Y322500D01*
X297500Y323500D01*
Y324500D01*
X296500D01*
X295500Y323500D01*
X294500Y324500D01*
X293500D01*
Y323500D01*
X294500Y322500D01*
X293500Y321500D01*
Y320500D01*
X286000Y382500D02*
X287000D01*
X288000Y383500D01*
X289000Y382500D01*
X290000D01*
Y383500D01*
X289000Y384500D01*
X290000Y385500D01*
Y386500D01*
X289000D01*
X288000Y385500D01*
X287000Y386500D01*
X286000D01*
Y385500D01*
X287000Y384500D01*
X286000Y383500D01*
Y382500D01*
X289500D02*
X290500D01*
X291500Y383500D01*
X292500Y382500D01*
X293500D01*
Y383500D01*
X292500Y384500D01*
X293500Y385500D01*
Y386500D01*
X292500D01*
X291500Y385500D01*
X290500Y386500D01*
X289500D01*
Y385500D01*
X290500Y384500D01*
X289500Y383500D01*
Y382500D01*
X296500D02*
X297500D01*
X298500Y383500D01*
X299500Y382500D01*
X300500D01*
Y383500D01*
X299500Y384500D01*
X300500Y385500D01*
Y386500D01*
X299500D01*
X298500Y385500D01*
X297500Y386500D01*
X296500D01*
Y385500D01*
X297500Y384500D01*
X296500Y383500D01*
Y382500D01*
X293000D02*
X294000D01*
X295000Y383500D01*
X296000Y382500D01*
X297000D01*
Y383500D01*
X296000Y384500D01*
X297000Y385500D01*
Y386500D01*
X296000D01*
X295000Y385500D01*
X294000Y386500D01*
X293000D01*
Y385500D01*
X294000Y384500D01*
X293000Y383500D01*
Y382500D01*
Y379000D02*
X294000D01*
X295000Y380000D01*
X296000Y379000D01*
X297000D01*
Y380000D01*
X296000Y381000D01*
X297000Y382000D01*
Y383000D01*
X296000D01*
X295000Y382000D01*
X294000Y383000D01*
X293000D01*
Y382000D01*
X294000Y381000D01*
X293000Y380000D01*
Y379000D01*
X296500D02*
X297500D01*
X298500Y380000D01*
X299500Y379000D01*
X300500D01*
Y380000D01*
X299500Y381000D01*
X300500Y382000D01*
Y383000D01*
X299500D01*
X298500Y382000D01*
X297500Y383000D01*
X296500D01*
Y382000D01*
X297500Y381000D01*
X296500Y380000D01*
Y379000D01*
X289500D02*
X290500D01*
X291500Y380000D01*
X292500Y379000D01*
X293500D01*
Y380000D01*
X292500Y381000D01*
X293500Y382000D01*
Y383000D01*
X292500D01*
X291500Y382000D01*
X290500Y383000D01*
X289500D01*
Y382000D01*
X290500Y381000D01*
X289500Y380000D01*
Y379000D01*
X286000D02*
X287000D01*
X288000Y380000D01*
X289000Y379000D01*
X290000D01*
Y380000D01*
X289000Y381000D01*
X290000Y382000D01*
Y383000D01*
X289000D01*
X288000Y382000D01*
X287000Y383000D01*
X286000D01*
Y382000D01*
X287000Y381000D01*
X286000Y380000D01*
Y379000D01*
Y386000D02*
X287000D01*
X288000Y387000D01*
X289000Y386000D01*
X290000D01*
Y387000D01*
X289000Y388000D01*
X290000Y389000D01*
Y390000D01*
X289000D01*
X288000Y389000D01*
X287000Y390000D01*
X286000D01*
Y389000D01*
X287000Y388000D01*
X286000Y387000D01*
Y386000D01*
X289500D02*
X290500D01*
X291500Y387000D01*
X292500Y386000D01*
X293500D01*
Y387000D01*
X292500Y388000D01*
X293500Y389000D01*
Y390000D01*
X292500D01*
X291500Y389000D01*
X290500Y390000D01*
X289500D01*
Y389000D01*
X290500Y388000D01*
X289500Y387000D01*
Y386000D01*
X296500D02*
X297500D01*
X298500Y387000D01*
X299500Y386000D01*
X300500D01*
Y387000D01*
X299500Y388000D01*
X300500Y389000D01*
Y390000D01*
X299500D01*
X298500Y389000D01*
X297500Y390000D01*
X296500D01*
Y389000D01*
X297500Y388000D01*
X296500Y387000D01*
Y386000D01*
X293000D02*
X294000D01*
X295000Y387000D01*
X296000Y386000D01*
X297000D01*
Y387000D01*
X296000Y388000D01*
X297000Y389000D01*
Y390000D01*
X296000D01*
X295000Y389000D01*
X294000Y390000D01*
X293000D01*
Y389000D01*
X294000Y388000D01*
X293000Y387000D01*
Y386000D01*
Y389500D02*
X294000D01*
X295000Y390500D01*
X296000Y389500D01*
X297000D01*
Y390500D01*
X296000Y391500D01*
X297000Y392500D01*
Y393500D01*
X296000D01*
X295000Y392500D01*
X294000Y393500D01*
X293000D01*
Y392500D01*
X294000Y391500D01*
X293000Y390500D01*
Y389500D01*
X296500D02*
X297500D01*
X298500Y390500D01*
X299500Y389500D01*
X300500D01*
Y390500D01*
X299500Y391500D01*
X300500Y392500D01*
Y393500D01*
X299500D01*
X298500Y392500D01*
X297500Y393500D01*
X296500D01*
Y392500D01*
X297500Y391500D01*
X296500Y390500D01*
Y389500D01*
X289500D02*
X290500D01*
X291500Y390500D01*
X292500Y389500D01*
X293500D01*
Y390500D01*
X292500Y391500D01*
X293500Y392500D01*
Y393500D01*
X292500D01*
X291500Y392500D01*
X290500Y393500D01*
X289500D01*
Y392500D01*
X290500Y391500D01*
X289500Y390500D01*
Y389500D01*
X286000D02*
X287000D01*
X288000Y390500D01*
X289000Y389500D01*
X290000D01*
Y390500D01*
X289000Y391500D01*
X290000Y392500D01*
Y393500D01*
X289000D01*
X288000Y392500D01*
X287000Y393500D01*
X286000D01*
Y392500D01*
X287000Y391500D01*
X286000Y390500D01*
Y389500D01*
Y393000D02*
X287000D01*
X288000Y394000D01*
X289000Y393000D01*
X290000D01*
Y394000D01*
X289000Y395000D01*
X290000Y396000D01*
Y397000D01*
X289000D01*
X288000Y396000D01*
X287000Y397000D01*
X286000D01*
Y396000D01*
X287000Y395000D01*
X286000Y394000D01*
Y393000D01*
X289500D02*
X290500D01*
X291500Y394000D01*
X292500Y393000D01*
X293500D01*
Y394000D01*
X292500Y395000D01*
X293500Y396000D01*
Y397000D01*
X292500D01*
X291500Y396000D01*
X290500Y397000D01*
X289500D01*
Y396000D01*
X290500Y395000D01*
X289500Y394000D01*
Y393000D01*
X296500D02*
X297500D01*
X298500Y394000D01*
X299500Y393000D01*
X300500D01*
Y394000D01*
X299500Y395000D01*
X300500Y396000D01*
Y397000D01*
X299500D01*
X298500Y396000D01*
X297500Y397000D01*
X296500D01*
Y396000D01*
X297500Y395000D01*
X296500Y394000D01*
Y393000D01*
X293000D02*
X294000D01*
X295000Y394000D01*
X296000Y393000D01*
X297000D01*
Y394000D01*
X296000Y395000D01*
X297000Y396000D01*
Y397000D01*
X296000D01*
X295000Y396000D01*
X294000Y397000D01*
X293000D01*
Y396000D01*
X294000Y395000D01*
X293000Y394000D01*
Y393000D01*
X347000Y454000D02*
X348000D01*
X349000Y455000D01*
X350000Y454000D01*
X351000D01*
Y455000D01*
X350000Y456000D01*
X351000Y457000D01*
Y458000D01*
X350000D01*
X349000Y457000D01*
X348000Y458000D01*
X347000D01*
Y457000D01*
X348000Y456000D01*
X347000Y455000D01*
Y454000D01*
X350500D02*
X351500D01*
X352500Y455000D01*
X353500Y454000D01*
X354500D01*
Y455000D01*
X353500Y456000D01*
X354500Y457000D01*
Y458000D01*
X353500D01*
X352500Y457000D01*
X351500Y458000D01*
X350500D01*
Y457000D01*
X351500Y456000D01*
X350500Y455000D01*
Y454000D01*
X343500D02*
X344500D01*
X345500Y455000D01*
X346500Y454000D01*
X347500D01*
Y455000D01*
X346500Y456000D01*
X347500Y457000D01*
Y458000D01*
X346500D01*
X345500Y457000D01*
X344500Y458000D01*
X343500D01*
Y457000D01*
X344500Y456000D01*
X343500Y455000D01*
Y454000D01*
X340000D02*
X341000D01*
X342000Y455000D01*
X343000Y454000D01*
X344000D01*
Y455000D01*
X343000Y456000D01*
X344000Y457000D01*
Y458000D01*
X343000D01*
X342000Y457000D01*
X341000Y458000D01*
X340000D01*
Y457000D01*
X341000Y456000D01*
X340000Y455000D01*
Y454000D01*
Y450500D02*
X341000D01*
X342000Y451500D01*
X343000Y450500D01*
X344000D01*
Y451500D01*
X343000Y452500D01*
X344000Y453500D01*
Y454500D01*
X343000D01*
X342000Y453500D01*
X341000Y454500D01*
X340000D01*
Y453500D01*
X341000Y452500D01*
X340000Y451500D01*
Y450500D01*
X343500D02*
X344500D01*
X345500Y451500D01*
X346500Y450500D01*
X347500D01*
Y451500D01*
X346500Y452500D01*
X347500Y453500D01*
Y454500D01*
X346500D01*
X345500Y453500D01*
X344500Y454500D01*
X343500D01*
Y453500D01*
X344500Y452500D01*
X343500Y451500D01*
Y450500D01*
X350500D02*
X351500D01*
X352500Y451500D01*
X353500Y450500D01*
X354500D01*
Y451500D01*
X353500Y452500D01*
X354500Y453500D01*
Y454500D01*
X353500D01*
X352500Y453500D01*
X351500Y454500D01*
X350500D01*
Y453500D01*
X351500Y452500D01*
X350500Y451500D01*
Y450500D01*
X347000D02*
X348000D01*
X349000Y451500D01*
X350000Y450500D01*
X351000D01*
Y451500D01*
X350000Y452500D01*
X351000Y453500D01*
Y454500D01*
X350000D01*
X349000Y453500D01*
X348000Y454500D01*
X347000D01*
Y453500D01*
X348000Y452500D01*
X347000Y451500D01*
Y450500D01*
Y447000D02*
X348000D01*
X349000Y448000D01*
X350000Y447000D01*
X351000D01*
Y448000D01*
X350000Y449000D01*
X351000Y450000D01*
Y451000D01*
X350000D01*
X349000Y450000D01*
X348000Y451000D01*
X347000D01*
Y450000D01*
X348000Y449000D01*
X347000Y448000D01*
Y447000D01*
X350500D02*
X351500D01*
X352500Y448000D01*
X353500Y447000D01*
X354500D01*
Y448000D01*
X353500Y449000D01*
X354500Y450000D01*
Y451000D01*
X353500D01*
X352500Y450000D01*
X351500Y451000D01*
X350500D01*
Y450000D01*
X351500Y449000D01*
X350500Y448000D01*
Y447000D01*
X343500D02*
X344500D01*
X345500Y448000D01*
X346500Y447000D01*
X347500D01*
Y448000D01*
X346500Y449000D01*
X347500Y450000D01*
Y451000D01*
X346500D01*
X345500Y450000D01*
X344500Y451000D01*
X343500D01*
Y450000D01*
X344500Y449000D01*
X343500Y448000D01*
Y447000D01*
X340000D02*
X341000D01*
X342000Y448000D01*
X343000Y447000D01*
X344000D01*
Y448000D01*
X343000Y449000D01*
X344000Y450000D01*
Y451000D01*
X343000D01*
X342000Y450000D01*
X341000Y451000D01*
X340000D01*
Y450000D01*
X341000Y449000D01*
X340000Y448000D01*
Y447000D01*
Y440000D02*
X341000D01*
X342000Y441000D01*
X343000Y440000D01*
X344000D01*
Y441000D01*
X343000Y442000D01*
X344000Y443000D01*
Y444000D01*
X343000D01*
X342000Y443000D01*
X341000Y444000D01*
X340000D01*
Y443000D01*
X341000Y442000D01*
X340000Y441000D01*
Y440000D01*
X343500D02*
X344500D01*
X345500Y441000D01*
X346500Y440000D01*
X347500D01*
Y441000D01*
X346500Y442000D01*
X347500Y443000D01*
Y444000D01*
X346500D01*
X345500Y443000D01*
X344500Y444000D01*
X343500D01*
Y443000D01*
X344500Y442000D01*
X343500Y441000D01*
Y440000D01*
X350500D02*
X351500D01*
X352500Y441000D01*
X353500Y440000D01*
X354500D01*
Y441000D01*
X353500Y442000D01*
X354500Y443000D01*
Y444000D01*
X353500D01*
X352500Y443000D01*
X351500Y444000D01*
X350500D01*
Y443000D01*
X351500Y442000D01*
X350500Y441000D01*
Y440000D01*
X347000D02*
X348000D01*
X349000Y441000D01*
X350000Y440000D01*
X351000D01*
Y441000D01*
X350000Y442000D01*
X351000Y443000D01*
Y444000D01*
X350000D01*
X349000Y443000D01*
X348000Y444000D01*
X347000D01*
Y443000D01*
X348000Y442000D01*
X347000Y441000D01*
Y440000D01*
Y443500D02*
X348000D01*
X349000Y444500D01*
X350000Y443500D01*
X351000D01*
Y444500D01*
X350000Y445500D01*
X351000Y446500D01*
Y447500D01*
X350000D01*
X349000Y446500D01*
X348000Y447500D01*
X347000D01*
Y446500D01*
X348000Y445500D01*
X347000Y444500D01*
Y443500D01*
X350500D02*
X351500D01*
X352500Y444500D01*
X353500Y443500D01*
X354500D01*
Y444500D01*
X353500Y445500D01*
X354500Y446500D01*
Y447500D01*
X353500D01*
X352500Y446500D01*
X351500Y447500D01*
X350500D01*
Y446500D01*
X351500Y445500D01*
X350500Y444500D01*
Y443500D01*
X343500D02*
X344500D01*
X345500Y444500D01*
X346500Y443500D01*
X347500D01*
Y444500D01*
X346500Y445500D01*
X347500Y446500D01*
Y447500D01*
X346500D01*
X345500Y446500D01*
X344500Y447500D01*
X343500D01*
Y446500D01*
X344500Y445500D01*
X343500Y444500D01*
Y443500D01*
X340000D02*
X341000D01*
X342000Y444500D01*
X343000Y443500D01*
X344000D01*
Y444500D01*
X343000Y445500D01*
X344000Y446500D01*
Y447500D01*
X343000D01*
X342000Y446500D01*
X341000Y447500D01*
X340000D01*
Y446500D01*
X341000Y445500D01*
X340000Y444500D01*
Y443500D01*
D105*
X353200Y432000D02*
G03*
X353200Y432000I-1200J0D01*
G01*
X489200Y307000D02*
G03*
X489200Y307000I-1200J0D01*
G01*
X503318Y364618D02*
G03*
X503318Y364618I-1200J0D01*
G01*
X490700Y272000D02*
G03*
X490700Y272000I-1200J0D01*
G01*
X415200Y293000D02*
G03*
X415200Y293000I-1200J0D01*
G01*
X246200Y386000D02*
G03*
X246200Y386000I-1200J0D01*
G01*
X368200Y285500D02*
G03*
X368200Y285500I-1200J0D01*
G01*
X245700Y299500D02*
G03*
X245700Y299500I-1200J0D01*
G01*
D110*
X274843Y437335D02*
G03*
X274843Y437335I-2000J0D01*
G01*
Y451114D02*
G03*
X274843Y451114I-2000J0D01*
G01*
X265000Y437335D02*
G03*
X265000Y437335I-2000J0D01*
G01*
Y451114D02*
G03*
X265000Y451114I-2000J0D01*
G01*
Y414500D02*
G03*
X265000Y414500I-2000J0D01*
G01*
Y400721D02*
G03*
X265000Y400721I-2000J0D01*
G01*
X274843Y414500D02*
G03*
X274843Y414500I-2000J0D01*
G01*
Y400721D02*
G03*
X274843Y400721I-2000J0D01*
G01*
X275421Y300803D02*
G03*
X275421Y300803I-2000J0D01*
G01*
Y314583D02*
G03*
X275421Y314583I-2000J0D01*
G01*
X265579Y300803D02*
G03*
X265579Y300803I-2000J0D01*
G01*
Y314583D02*
G03*
X265579Y314583I-2000J0D01*
G01*
Y337417D02*
G03*
X265579Y337417I-2000J0D01*
G01*
X275421D02*
G03*
X275421Y337417I-2000J0D01*
G01*
X265579Y351197D02*
G03*
X265579Y351197I-2000J0D01*
G01*
X275421D02*
G03*
X275421Y351197I-2000J0D01*
G01*
X354000Y432000D02*
G03*
X354000Y432000I-2000J0D01*
G01*
X490000Y307000D02*
G03*
X490000Y307000I-2000J0D01*
G01*
X504118Y364618D02*
G03*
X504118Y364618I-2000J0D01*
G01*
X491500Y272000D02*
G03*
X491500Y272000I-2000J0D01*
G01*
X416000Y293000D02*
G03*
X416000Y293000I-2000J0D01*
G01*
X247000Y386000D02*
G03*
X247000Y386000I-2000J0D01*
G01*
X369000Y285500D02*
G03*
X369000Y285500I-2000J0D01*
G01*
X246500Y299500D02*
G03*
X246500Y299500I-2000J0D01*
G01*
M02*
