G04*
G04 #@! TF.GenerationSoftware,Altium Limited,Altium Designer,25.8.1 (18)*
G04*
G04 Layer_Physical_Order=1*
G04 Layer_Color=255*
%FSLAX25Y25*%
%MOIN*%
G70*
G04*
G04 #@! TF.SameCoordinates,BD6C6330-6F5E-4E75-AD65-D1E33E9A6F4C*
G04*
G04*
G04 #@! TF.FilePolarity,Positive*
G04*
G01*
G75*
%ADD14C,0.00800*%
%ADD16C,0.01000*%
%ADD21R,0.02756X0.02362*%
%ADD22R,0.05800X0.02000*%
G04:AMPARAMS|DCode=23|XSize=39.54mil|YSize=34.34mil|CornerRadius=17.17mil|HoleSize=0mil|Usage=FLASHONLY|Rotation=180.000|XOffset=0mil|YOffset=0mil|HoleType=Round|Shape=RoundedRectangle|*
%AMROUNDEDRECTD23*
21,1,0.03954,0.00000,0,0,180.0*
21,1,0.00520,0.03434,0,0,180.0*
1,1,0.03434,-0.00260,0.00000*
1,1,0.03434,0.00260,0.00000*
1,1,0.03434,0.00260,0.00000*
1,1,0.03434,-0.00260,0.00000*
%
%ADD23ROUNDEDRECTD23*%
G04:AMPARAMS|DCode=24|XSize=39.54mil|YSize=125.28mil|CornerRadius=17.2mil|HoleSize=0mil|Usage=FLASHONLY|Rotation=180.000|XOffset=0mil|YOffset=0mil|HoleType=Round|Shape=RoundedRectangle|*
%AMROUNDEDRECTD24*
21,1,0.03954,0.09088,0,0,180.0*
21,1,0.00514,0.12528,0,0,180.0*
1,1,0.03440,-0.00257,0.04544*
1,1,0.03440,0.00257,0.04544*
1,1,0.03440,0.00257,-0.04544*
1,1,0.03440,-0.00257,-0.04544*
%
%ADD24ROUNDEDRECTD24*%
%ADD25R,0.03543X0.03937*%
%ADD26R,0.02362X0.02559*%
%ADD27R,0.02000X0.05800*%
%ADD28R,0.07300X0.06500*%
%ADD29R,0.05700X0.09600*%
%ADD30R,0.05700X0.06500*%
%ADD31R,0.02756X0.05118*%
%ADD32R,0.01380X0.11811*%
%ADD33R,0.03937X0.02953*%
%ADD34R,0.10984X0.02913*%
%ADD35R,0.02441X0.02362*%
%ADD36R,0.05709X0.04331*%
%ADD37R,0.03954X0.03434*%
%ADD38R,0.00984X0.01378*%
G04:AMPARAMS|DCode=39|XSize=57.09mil|YSize=23.23mil|CornerRadius=2.9mil|HoleSize=0mil|Usage=FLASHONLY|Rotation=0.000|XOffset=0mil|YOffset=0mil|HoleType=Round|Shape=RoundedRectangle|*
%AMROUNDEDRECTD39*
21,1,0.05709,0.01742,0,0,0.0*
21,1,0.05128,0.02323,0,0,0.0*
1,1,0.00581,0.02564,-0.00871*
1,1,0.00581,-0.02564,-0.00871*
1,1,0.00581,-0.02564,0.00871*
1,1,0.00581,0.02564,0.00871*
%
%ADD39ROUNDEDRECTD39*%
%ADD40R,0.03150X0.03150*%
%ADD41R,0.02559X0.02362*%
%ADD42R,0.05512X0.04724*%
%ADD43R,0.01181X0.03347*%
%ADD44R,0.04921X0.02756*%
%ADD45R,0.02362X0.02756*%
%ADD46R,0.02953X0.03937*%
%ADD47R,0.01378X0.00984*%
%ADD48R,0.04095X0.04016*%
%ADD49R,0.06700X0.08500*%
%ADD50R,0.03347X0.01181*%
%ADD51R,0.05000X0.03150*%
%ADD52R,0.01575X0.01496*%
%ADD53R,0.14961X0.04724*%
%ADD80C,0.11811*%
%ADD81R,0.06181X0.06181*%
%ADD82C,0.06181*%
%ADD87C,0.08465*%
%ADD88R,0.08465X0.08465*%
%ADD89C,0.09449*%
%ADD93C,0.03937*%
%ADD94R,0.02126X0.02227*%
%ADD95C,0.01200*%
%ADD96C,0.02500*%
%ADD97C,0.02000*%
%ADD98C,0.03937*%
%ADD99C,0.06000*%
%ADD100R,0.06319X0.06319*%
%ADD101C,0.06319*%
%ADD102C,0.02400*%
%ADD103C,0.03600*%
%ADD104C,0.02800*%
G36*
X278500Y332000D02*
X258500D01*
Y356500D01*
X278500D01*
Y332000D01*
D02*
G37*
G36*
X301000Y306500D02*
X286500D01*
Y324500D01*
X301000D01*
Y306500D01*
D02*
G37*
G36*
X278500Y308000D02*
X284500Y302000D01*
X299791D01*
X300260Y301352D01*
X297528Y293000D01*
X288400Y293000D01*
X258500Y293000D01*
Y320000D01*
X278500D01*
Y308000D01*
D02*
G37*
G36*
X360000Y450500D02*
Y448000D01*
X355143Y443143D01*
X354444Y440000D01*
X340000D01*
Y458000D01*
X353968D01*
X360000Y450500D01*
D02*
G37*
G36*
X278000Y432000D02*
X258000D01*
Y456500D01*
X278000D01*
Y432000D01*
D02*
G37*
G36*
X300500Y379000D02*
X286000D01*
Y397000D01*
X300500D01*
Y379000D01*
D02*
G37*
G36*
X278000Y382500D02*
X286000Y374500D01*
X299720D01*
X300130Y373813D01*
X296462Y367000D01*
X273654D01*
X257500Y381000D01*
Y420000D01*
X278000D01*
Y382500D01*
D02*
G37*
D14*
X515500Y395500D02*
X521500Y401500D01*
Y425000D01*
X526500Y430000D01*
X356000Y376890D02*
X357377Y375513D01*
X366126Y368874D02*
X374300D01*
X357377Y375513D02*
X359487D01*
X366126Y368874D01*
X516000Y284000D02*
X526000D01*
X533000Y277000D01*
X352551Y383516D02*
X353567Y382500D01*
X347516Y383516D02*
X352551D01*
X353567Y382500D02*
X354000D01*
X415215Y345953D02*
X415500Y346237D01*
X405488Y407000D02*
X410500D01*
X405472Y406984D02*
X405488Y407000D01*
X394500Y391500D02*
X481500D01*
X392000Y389000D02*
X394500Y391500D01*
X382500Y390673D02*
Y394500D01*
X392000Y389000D02*
X392037Y388963D01*
X388963Y391463D02*
X392000Y394500D01*
X460500D01*
X385638Y393638D02*
X389500Y397500D01*
X381131Y394194D02*
X382194D01*
X382500Y394500D01*
X392037Y377237D02*
Y388963D01*
X389500Y397500D02*
X425500D01*
X385638Y377338D02*
Y393638D01*
X379500Y392563D02*
X381131Y394194D01*
X388963Y377237D02*
Y391463D01*
X379500Y377224D02*
Y392563D01*
X360000Y359500D02*
X363037Y362537D01*
X345500Y355500D02*
X349500Y359500D01*
X360000D01*
X363037Y362537D02*
X374263D01*
X364425Y359425D02*
X374300D01*
X354500Y357500D02*
X362500D01*
X364425Y359425D01*
X312000Y361500D02*
Y369244D01*
X306806Y365306D02*
X308806D01*
X309984Y366484D01*
X306500Y365000D02*
X306806Y365306D01*
X409894Y435500D02*
X410000Y435606D01*
X382500Y377326D02*
X382626Y377200D01*
X382500Y377326D02*
Y387327D01*
X405472Y425016D02*
X405593Y425137D01*
X415488Y349988D02*
X415500Y350000D01*
X406712Y349988D02*
X415488D01*
X415412Y345953D02*
X420912D01*
X415500Y346237D02*
Y350000D01*
X406700Y349976D02*
X406712Y349988D01*
X364500Y375000D02*
X367476Y372024D01*
X374300D01*
X364500Y375000D02*
Y377031D01*
X359150Y353000D02*
X364000D01*
X447500Y313530D02*
X447787Y313243D01*
X447500Y324189D02*
X448000Y324689D01*
X447500Y313530D02*
Y324189D01*
X443500Y328173D02*
Y332272D01*
X452500Y328346D02*
X452857Y328704D01*
Y330357D01*
X454500Y332000D01*
X456500D01*
X416224Y356276D02*
X425000Y347500D01*
Y319133D02*
Y347500D01*
X406700Y356276D02*
X416224D01*
X425000Y319133D02*
X426133Y318000D01*
X428000Y324728D02*
X431228Y321500D01*
X431327D01*
X428000Y324728D02*
Y325000D01*
X461500D02*
Y343000D01*
X456448Y319948D02*
X461500Y325000D01*
X434000Y331000D02*
X440000Y325000D01*
X443239D01*
X452117Y308769D02*
Y314424D01*
X450969Y315402D02*
X451139D01*
X452500Y324902D02*
Y325000D01*
X450500Y315871D02*
Y323000D01*
Y315871D02*
X450969Y315402D01*
X451620Y324120D02*
X451719D01*
X451139Y315402D02*
X452117Y314424D01*
X451719Y324120D02*
X452500Y324902D01*
X450500Y323000D02*
X451620Y324120D01*
X459000Y329000D02*
Y338000D01*
X438500Y358500D02*
X459000Y338000D01*
X426500Y358500D02*
X438500D01*
X452500Y324902D02*
X454902D01*
X459000Y329000D01*
X443239Y325000D02*
X443456Y324783D01*
X428154Y330847D02*
Y342653D01*
Y330847D02*
X434673Y324327D01*
Y321500D02*
Y324327D01*
Y321500D02*
X434795Y321379D01*
X443456Y313243D02*
Y324783D01*
Y309044D02*
Y313243D01*
X474500Y317500D02*
X486500D01*
X452117Y308769D02*
X453486Y307400D01*
X486500Y317500D02*
X517000Y287000D01*
X533000D01*
X464400Y307400D02*
X474500Y317500D01*
X453486Y307400D02*
X464400D01*
X419388Y365612D02*
X426500Y358500D01*
X406812Y365612D02*
X419388D01*
X406700Y365724D02*
X406812Y365612D01*
X439000Y313369D02*
X439125Y313243D01*
X439000Y313369D02*
Y320000D01*
X484803Y310197D02*
X488000Y307000D01*
X479800Y310197D02*
X484803D01*
X477526Y422782D02*
X477744Y423000D01*
X513571Y415884D02*
Y422990D01*
X510815Y416185D02*
X512500Y414500D01*
X510815Y416185D02*
Y422990D01*
X477526Y416526D02*
Y422782D01*
X474988Y423000D02*
X474994Y422994D01*
X472232Y423000D02*
X472462Y422770D01*
X474994Y414006D02*
Y422994D01*
X475000Y414000D02*
X477526Y416526D01*
X472462Y416538D02*
Y422770D01*
Y416538D02*
X474994Y414006D01*
X512500Y414814D02*
X513571Y415884D01*
X512500Y414500D02*
Y414814D01*
X516000Y401000D02*
Y403532D01*
X509000Y401000D02*
X510500Y399500D01*
X509000Y401000D02*
Y403500D01*
X502352Y403148D02*
X502500Y403296D01*
X498148Y403148D02*
X502352D01*
X474994Y414006D02*
X475000Y414000D01*
X498000Y403000D02*
X498148Y403148D01*
X458453Y423000D02*
X458476Y422976D01*
X463964Y416036D02*
Y423000D01*
X466720Y415895D02*
Y423000D01*
X465500Y414675D02*
X466720Y415895D01*
X458476Y414524D02*
Y422976D01*
X463964Y416036D02*
X465500Y414500D01*
X452941Y423000D02*
X452971Y422970D01*
Y414530D02*
Y422970D01*
X433649Y416149D02*
Y423008D01*
X431147Y413647D02*
X433649Y416149D01*
X465500Y414500D02*
Y414675D01*
X458476Y414524D02*
X458500Y414500D01*
X462532Y403500D02*
X465000D01*
X460500Y401469D02*
X462532Y403500D01*
X458437Y403532D02*
X460500Y401469D01*
Y399969D02*
Y401469D01*
X452971Y414530D02*
X453000Y414500D01*
X429647Y413647D02*
X431147D01*
X455689Y403532D02*
X458437D01*
X514500Y399500D02*
X516000Y401000D01*
X532811Y364618D02*
X533000D01*
X512500Y399500D02*
X514500D01*
X534000Y337500D02*
X536500Y335000D01*
X527012Y337500D02*
X534000D01*
X510500Y399500D02*
X512500D01*
X502000Y371031D02*
X502118Y370913D01*
Y364618D02*
Y370913D01*
X509189Y364618D02*
X532811D01*
X502118D02*
X509189D01*
X536500Y329500D02*
Y331500D01*
Y335000D01*
X527012Y327500D02*
X534500D01*
X536500Y324500D02*
Y329500D01*
X534500Y322500D02*
X536500Y324500D01*
X534500Y327500D02*
X536500Y329500D01*
X527012Y322500D02*
X534500D01*
X482859Y272000D02*
X489500D01*
X448000Y328311D02*
Y332500D01*
X420603Y341707D02*
X420912Y342016D01*
X420603Y340103D02*
Y341707D01*
X419188Y338688D02*
X420603Y340103D01*
X416725Y338688D02*
X419188D01*
X415580Y337544D02*
X416725Y338688D01*
X415456Y337544D02*
Y341972D01*
Y337544D02*
X415580D01*
X414000Y303248D02*
X420849Y310097D01*
X420549Y272008D02*
Y278951D01*
X414000Y293000D02*
Y303248D01*
Y285500D02*
X420549Y278951D01*
X414000Y285500D02*
Y293000D01*
X401957Y444500D02*
X402000Y444457D01*
X379476Y377200D02*
X379500Y377224D01*
X352500Y387500D02*
X360500D01*
X364500Y383500D01*
Y380968D02*
Y383500D01*
X316000Y397543D02*
Y401000D01*
X311000Y402500D02*
X314500D01*
X316000Y401000D01*
X308994Y402506D02*
X309000Y402500D01*
X311000D01*
X307506Y402506D02*
X308994D01*
X306000Y401000D02*
X307506Y402506D01*
X306000Y397543D02*
Y401000D01*
X352484Y387484D02*
X352500Y387500D01*
X347516Y387484D02*
X352484D01*
X347500Y387469D02*
X347516Y387484D01*
X225823Y396500D02*
X226063Y396260D01*
X221000Y396500D02*
X225823D01*
X401512Y344788D02*
X401524Y344800D01*
X401512Y338512D02*
Y344788D01*
X358500Y339500D02*
Y342531D01*
X401500Y338500D02*
X401512Y338512D01*
X357306Y338306D02*
X358500Y339500D01*
X360882Y297311D02*
Y301390D01*
X356306Y338306D02*
X357306D01*
X355853Y338147D02*
X356000Y338000D01*
X354969Y307303D02*
X360882Y301390D01*
X356000Y338000D02*
X356306Y338306D01*
X367000Y285500D02*
Y296500D01*
X384000Y282000D02*
Y286374D01*
X398500Y282000D02*
Y286374D01*
X367000Y275000D02*
Y285500D01*
X366189Y297311D02*
X367000Y296500D01*
X360882Y297311D02*
X366189D01*
X365689Y273689D02*
X367000Y275000D01*
X360882Y273689D02*
X365689D01*
X356000Y364500D02*
Y370000D01*
X353000Y339500D02*
X354353Y338147D01*
X353000Y339500D02*
Y342500D01*
X354353Y338147D02*
X355853D01*
X316500Y325043D02*
Y329000D01*
X311500Y330000D02*
X315500D01*
X316500Y329000D01*
X307500Y330000D02*
X311500D01*
X309984Y366484D02*
Y369291D01*
X306500Y329000D02*
X307500Y330000D01*
X306500Y325043D02*
Y329000D01*
X354969Y307303D02*
Y307500D01*
X308500Y292000D02*
X310347Y293847D01*
Y296760D01*
X225563Y310561D02*
Y310760D01*
X225502Y310500D02*
X225563Y310561D01*
X222500Y310500D02*
X225502D01*
X461208Y413141D02*
Y423000D01*
X460500Y412433D02*
X461208Y413141D01*
X473000Y408000D02*
X477153D01*
X490673D02*
X495000D01*
X462378Y407453D02*
X464984D01*
X460863Y408968D02*
X462378Y407453D01*
X464984D02*
X465000Y407437D01*
X460500Y408968D02*
Y412433D01*
X460106Y408968D02*
X460500D01*
X458606Y407469D02*
X460106Y408968D01*
X455697Y407477D02*
Y423000D01*
X447429Y412071D02*
X452032Y407469D01*
X447429Y412071D02*
Y423000D01*
X460500Y408968D02*
X460863D01*
X452032Y407469D02*
X455689D01*
X458606D01*
X429000Y389500D02*
X444531D01*
X447000Y382500D02*
Y387031D01*
X444531Y389500D02*
X447000Y387031D01*
X527012Y317500D02*
X535500D01*
X432500Y365000D02*
Y365292D01*
X431173Y366619D02*
Y369000D01*
Y366619D02*
X432500Y365292D01*
X426000Y386500D02*
X429000Y389500D01*
X421673Y386500D02*
X426000D01*
X421673Y375000D02*
X426000D01*
X347338Y376890D02*
X347500Y377052D01*
X310694Y385806D02*
Y386452D01*
X306689Y390457D02*
X310694Y386452D01*
Y385806D02*
X311000Y385500D01*
X306000Y390457D02*
X306689D01*
X306000Y385776D02*
X309984Y381791D01*
X306000Y385776D02*
Y390457D01*
X347500Y377052D02*
Y383531D01*
X309984Y380709D02*
Y381791D01*
X320417Y287917D02*
X329500Y297000D01*
X312500Y287917D02*
X320417D01*
X316417Y359417D02*
X316500Y359500D01*
X312083Y359417D02*
X316417D01*
X312000Y359335D02*
X312083Y359417D01*
X306500Y317957D02*
X307189D01*
X311194Y313952D01*
X306500Y313106D02*
Y317957D01*
X311194Y313306D02*
X311500Y313000D01*
X311194Y313306D02*
Y313952D01*
X310347Y308177D02*
Y309260D01*
X306500Y313106D02*
X310347Y309260D01*
X434795Y306705D02*
X438000Y303500D01*
X434795Y306705D02*
Y313243D01*
X438000Y303500D02*
X482000D01*
X434795Y313243D02*
Y321379D01*
X519000Y281000D02*
X533000Y267000D01*
X482000Y303500D02*
X504500Y281000D01*
X519000D01*
X431000Y345500D02*
Y350500D01*
X418925Y362575D02*
X431000Y350500D01*
X428154Y342653D02*
X431000Y345500D01*
X406700Y362575D02*
X418925D01*
X475763Y315000D02*
X485000D01*
X443456Y309044D02*
X447000Y305500D01*
X485000Y315000D02*
X516000Y284000D01*
X466263Y305500D02*
X475763Y315000D01*
X447000Y305500D02*
X466263D01*
X374237Y353063D02*
X374300Y353126D01*
X369563Y353063D02*
X374237D01*
X367433Y350933D02*
X369563Y353063D01*
X367433Y338067D02*
Y350933D01*
Y338067D02*
X367500Y338000D01*
X473737Y320000D02*
X487737D01*
X456448Y309469D02*
Y313243D01*
X487737Y320000D02*
X510737Y297000D01*
X533000D01*
X462737Y309000D02*
X473737Y320000D01*
X456917Y309000D02*
X462737D01*
X406700Y359425D02*
X417575D01*
X427500Y349500D01*
X456448Y309469D02*
X456917Y309000D01*
X456448Y313243D02*
Y319948D01*
X426133Y313243D02*
Y318000D01*
X501984Y374984D02*
X502000Y374969D01*
X482516Y374984D02*
X501984D01*
X502000Y374969D02*
X504284D01*
X388925Y377200D02*
X388963Y377237D01*
X480500Y408000D02*
Y423000D01*
X528000Y420000D02*
X533000D01*
X523500Y400500D02*
Y415500D01*
X528000Y420000D01*
X480500Y401000D02*
Y408000D01*
X488000Y393500D02*
X516500D01*
X480500Y401000D02*
X488000Y393500D01*
X516500D02*
X523500Y400500D01*
X374188Y356388D02*
X374300Y356276D01*
X469488Y403512D02*
Y422988D01*
X469476Y423000D02*
X469488Y422988D01*
X392037Y377237D02*
X392075Y377200D01*
X520000Y391500D02*
X525500Y397000D01*
Y408000D01*
X527500Y410000D02*
X533000D01*
X525500Y408000D02*
X527500Y410000D01*
X481500Y391500D02*
X520000D01*
X469488Y403512D02*
X481500Y391500D01*
X352850Y353000D02*
Y355850D01*
X354500Y357500D01*
X352850Y346587D02*
Y353000D01*
Y346587D02*
X353000Y346437D01*
X353016Y346453D01*
X358484D01*
X358500Y346468D01*
X504284Y374969D02*
X508697Y379382D01*
X509189D01*
X395224Y377200D02*
Y385224D01*
X509189Y379382D02*
X532811D01*
X533000Y379571D02*
Y400000D01*
X532811Y379382D02*
X533000Y379571D01*
X347338Y365913D02*
Y370000D01*
Y365913D02*
X351751Y361500D01*
X357500D02*
X361724Y365724D01*
X351751Y361500D02*
X357500D01*
X361724Y365724D02*
X374300D01*
X395224Y324776D02*
X395250Y324750D01*
X395224Y324776D02*
Y344800D01*
X384000Y308173D02*
Y313500D01*
X395250Y324750D01*
X334500Y310500D02*
X354500Y330500D01*
X319445Y310500D02*
X334500D01*
X316500Y313445D02*
X319445Y310500D01*
X316500Y313445D02*
Y317957D01*
X380500Y330500D02*
X385776Y335776D01*
X354500Y330500D02*
X380500D01*
X385776Y335776D02*
Y344800D01*
X312315Y308177D02*
Y309260D01*
X316500Y313445D01*
X323000Y342000D02*
Y378839D01*
Y342000D02*
X331500Y333500D01*
X316000Y385839D02*
X323000Y378839D01*
X380500Y333500D02*
X382626Y335626D01*
X331500Y333500D02*
X380500D01*
X311953Y380709D02*
Y381791D01*
X316000Y385839D01*
Y390457D01*
X382626Y335626D02*
Y344800D01*
X398374D02*
X398500Y344674D01*
Y308673D02*
Y344674D01*
X345500Y348000D02*
Y355500D01*
X418228Y375000D02*
X418413Y374816D01*
X491000Y327500D02*
X510988D01*
X500500Y337500D02*
X510988D01*
X494500Y342500D02*
X510988D01*
X527012D02*
X536500D01*
X492500Y322500D02*
X510988D01*
X494000Y317500D02*
X510988D01*
X464500Y354000D02*
X491000Y327500D01*
X464500Y350500D02*
X492500Y322500D01*
X463500Y348000D02*
X494000Y317500D01*
X398374Y377200D02*
Y383874D01*
X401000Y386500D01*
X405827D01*
X418327D02*
X418412Y386414D01*
X409173Y386500D02*
X418327D01*
X418412Y384588D02*
Y386414D01*
Y384588D02*
X424500Y378500D01*
X426500D01*
X431000Y374000D01*
X434500D01*
X454500Y354000D01*
X464500D01*
X369033Y345879D02*
X376912Y338000D01*
X369033Y345879D02*
Y348533D01*
X370476Y349976D01*
X374300D01*
X376912Y338000D02*
X377000D01*
X427827Y365173D02*
Y369000D01*
Y365173D02*
X431500Y361500D01*
X406700Y368874D02*
X418201D01*
X418327Y369000D01*
X421673D02*
X427827D01*
X431500Y361500D02*
X441000D01*
X454500Y348000D01*
X463500D01*
X346118Y273689D02*
Y297311D01*
Y302390D01*
X351031Y307303D01*
X351016Y307516D02*
X351031Y307500D01*
X351000Y318000D02*
X351016Y317984D01*
Y307516D02*
Y317984D01*
X374263Y362537D02*
X374300Y362575D01*
X418413Y373087D02*
X419500Y372000D01*
X418413Y373087D02*
Y374816D01*
X406700Y372024D02*
X412524D01*
X415500Y375000D01*
X418228D01*
X418327D01*
X433500Y372000D02*
X455000Y350500D01*
X464500D01*
X419500Y372000D02*
X433500D01*
X401524Y381024D02*
X403000Y382500D01*
X401524Y377200D02*
Y381024D01*
X403000Y382500D02*
X412000D01*
X414000Y380500D01*
Y377000D02*
Y380500D01*
X478000Y359000D02*
X494500Y342500D01*
X398500Y293953D02*
Y305327D01*
X384000Y293953D02*
Y304827D01*
X491500Y395500D02*
X515500D01*
X487500Y399500D02*
X491500Y395500D01*
X487500Y399500D02*
Y404000D01*
Y407827D01*
X487327Y408000D02*
X487500Y407827D01*
X526500Y430000D02*
X533000D01*
X486012Y413012D02*
Y423000D01*
X486000Y413000D02*
X487327Y411673D01*
X486000Y413000D02*
X486012Y413012D01*
X487327Y408000D02*
Y411673D01*
X484500Y408000D02*
X487327D01*
X483256Y409244D02*
X484500Y408000D01*
X483256Y409244D02*
Y423000D01*
X385638Y377338D02*
X385776Y377200D01*
X390823Y474000D02*
X392500Y472323D01*
X430031Y409031D02*
X436405Y415405D01*
Y423000D01*
X430031Y406500D02*
Y409031D01*
X439161Y414889D02*
Y423000D01*
X433968Y406500D02*
Y409697D01*
X439161Y414889D01*
X444673Y412910D02*
Y423000D01*
X443413Y411650D02*
X444673Y412910D01*
X443413Y408056D02*
Y411650D01*
X444969Y406500D02*
Y406697D01*
X443413Y408056D02*
X443991Y407478D01*
X444187D01*
X444969Y406697D01*
X441917Y423000D02*
X441959Y422959D01*
Y412459D02*
Y422959D01*
X441032Y411531D02*
X441959Y412459D01*
X441032Y406500D02*
Y411531D01*
X509000Y407437D02*
Y409500D01*
X505303Y413197D02*
X509000Y409500D01*
X505303Y413197D02*
Y423000D01*
X510000Y411000D02*
X514500D01*
X508059Y412941D02*
X510000Y411000D01*
X508059Y412941D02*
Y422994D01*
X514500Y411000D02*
X516000Y409500D01*
Y407469D02*
Y409500D01*
X509016Y407453D02*
X515787D01*
X509000Y407437D02*
X509016Y407453D01*
X502547Y406704D02*
Y423000D01*
X392541Y435541D02*
X392583Y435500D01*
X392500Y449287D02*
X392541Y449246D01*
X244953Y400000D02*
X245000Y399953D01*
X216175Y403740D02*
X226063D01*
X216083Y403648D02*
X216175Y403740D01*
X216083Y403500D02*
Y403648D01*
X216372Y318211D02*
X216843Y317740D01*
X216175Y318211D02*
X216372D01*
X216843Y317740D02*
X227563D01*
X216083Y318303D02*
Y318500D01*
Y318303D02*
X216175Y318211D01*
X304106Y373000D02*
X304138Y373031D01*
X212500Y330400D02*
X214000Y331900D01*
X213825Y318789D02*
X213917Y318697D01*
X213628Y318789D02*
X213825D01*
X212500Y319917D02*
X213628Y318789D01*
X212500Y319917D02*
Y330400D01*
X213917Y318500D02*
Y318697D01*
X212500Y415400D02*
X214000Y416900D01*
X213917Y403500D02*
Y403697D01*
X212500Y404917D02*
Y415400D01*
X213825Y403789D02*
X213917Y403697D01*
X213628Y403789D02*
X213825D01*
X212500Y404917D02*
X213628Y403789D01*
X312407Y290083D02*
X312500D01*
X312315Y290175D02*
X312407Y290083D01*
X312315Y290175D02*
Y296760D01*
D16*
X390417Y435500D02*
Y435681D01*
X366453Y456740D02*
X366500Y456787D01*
D21*
X415412Y345953D02*
D03*
X420912D02*
D03*
X364500Y377031D02*
D03*
X516000Y403532D02*
D03*
X509000Y403500D02*
D03*
X465000D02*
D03*
X455689Y403532D02*
D03*
X502000Y371031D02*
D03*
X420912Y342016D02*
D03*
X415412D02*
D03*
X364500Y380968D02*
D03*
X347500Y387469D02*
D03*
X358500Y342531D02*
D03*
X353000Y342500D02*
D03*
X465000Y407437D02*
D03*
X455689Y407469D02*
D03*
X347500Y383531D02*
D03*
X358500Y404000D02*
D03*
Y400000D02*
D03*
X353000Y346437D02*
D03*
X358500Y346468D02*
D03*
X502000Y374969D02*
D03*
X516000Y407469D02*
D03*
X509000Y407437D02*
D03*
D22*
X406700Y349976D02*
D03*
X374300Y372024D02*
D03*
X406700Y365724D02*
D03*
Y362575D02*
D03*
X374300Y353126D02*
D03*
X406700Y359425D02*
D03*
Y356276D02*
D03*
X374300Y362575D02*
D03*
Y365724D02*
D03*
Y356276D02*
D03*
Y368874D02*
D03*
Y349976D02*
D03*
X406700Y353126D02*
D03*
Y372024D02*
D03*
Y368874D02*
D03*
X374300Y359425D02*
D03*
D23*
X405472Y416000D02*
D03*
Y425016D02*
D03*
D24*
X379528Y416000D02*
D03*
D25*
X359150Y353000D02*
D03*
X352850D02*
D03*
D26*
X382500Y387327D02*
D03*
X452500Y325000D02*
D03*
X382500Y390673D02*
D03*
X452500Y328346D02*
D03*
X443500Y328173D02*
D03*
Y324827D02*
D03*
X384000Y308173D02*
D03*
X245000Y434000D02*
D03*
X244500Y351173D02*
D03*
Y347827D02*
D03*
X398500Y308673D02*
D03*
X245000Y437347D02*
D03*
X384000Y304827D02*
D03*
X398500Y305327D02*
D03*
D27*
X382626Y377200D02*
D03*
X379476D02*
D03*
X401524Y344800D02*
D03*
X395224Y377200D02*
D03*
Y344800D02*
D03*
X398374D02*
D03*
X382626D02*
D03*
X385776D02*
D03*
X379476D02*
D03*
X388925D02*
D03*
X392075D02*
D03*
X401524Y377200D02*
D03*
X398374D02*
D03*
X392075D02*
D03*
X388925D02*
D03*
X385776D02*
D03*
D28*
X479800Y310197D02*
D03*
D29*
X482851Y272008D02*
D03*
X420549D02*
D03*
D30*
Y310197D02*
D03*
D31*
X426133Y313243D02*
D03*
X430464D02*
D03*
X434795D02*
D03*
X439125D02*
D03*
X443456D02*
D03*
X447787D02*
D03*
X452117D02*
D03*
X456448D02*
D03*
X460779D02*
D03*
D32*
X510815Y422990D02*
D03*
X513571D02*
D03*
X477744Y423000D02*
D03*
X474988D02*
D03*
X472232D02*
D03*
X463964D02*
D03*
X466720D02*
D03*
X452941D02*
D03*
X458453D02*
D03*
X433649Y423008D02*
D03*
X461208Y423000D02*
D03*
X455697D02*
D03*
X447429D02*
D03*
X480500D02*
D03*
X469476D02*
D03*
X486012D02*
D03*
X483256D02*
D03*
X502547D02*
D03*
X499791D02*
D03*
X497035D02*
D03*
X494279D02*
D03*
X491523D02*
D03*
X488768D02*
D03*
X450185D02*
D03*
X505303D02*
D03*
X508059Y422994D02*
D03*
X441917Y423000D02*
D03*
X444673D02*
D03*
X436405D02*
D03*
X439161D02*
D03*
D33*
X532811Y364618D02*
D03*
X509189D02*
D03*
Y379382D02*
D03*
X532811D02*
D03*
D34*
X527012Y337500D02*
D03*
Y327500D02*
D03*
Y322500D02*
D03*
Y317500D02*
D03*
X510988Y332500D02*
D03*
X527012D02*
D03*
X510988Y312500D02*
D03*
X527012D02*
D03*
X510988Y322500D02*
D03*
Y327500D02*
D03*
X527012Y342500D02*
D03*
X510988Y317500D02*
D03*
Y342500D02*
D03*
Y337500D02*
D03*
D35*
X448000Y328311D02*
D03*
Y324689D02*
D03*
D36*
X402000Y444457D02*
D03*
X306000Y397543D02*
D03*
X316000D02*
D03*
X306500Y325043D02*
D03*
X316500D02*
D03*
X306000Y390457D02*
D03*
X306500Y317957D02*
D03*
X316500D02*
D03*
X316000Y390457D02*
D03*
X402000Y451543D02*
D03*
D37*
X405472Y406984D02*
D03*
D38*
X390417Y435500D02*
D03*
X216083Y403500D02*
D03*
X392583Y435500D02*
D03*
X216083Y318500D02*
D03*
X213917D02*
D03*
Y403500D02*
D03*
D39*
X366453Y456740D02*
D03*
X375547Y453000D02*
D03*
Y456740D02*
D03*
Y449260D02*
D03*
X366453D02*
D03*
Y453000D02*
D03*
D40*
X357500Y432047D02*
D03*
X245000Y394047D02*
D03*
X384000Y288047D02*
D03*
X398500D02*
D03*
X244500Y308000D02*
D03*
X384000Y293953D02*
D03*
X398500D02*
D03*
X245000Y399953D02*
D03*
X244500Y313906D02*
D03*
X357500Y437953D02*
D03*
D41*
X355153Y408500D02*
D03*
X490673Y408000D02*
D03*
X477153D02*
D03*
X431173Y369000D02*
D03*
X431327Y321500D02*
D03*
X421673Y386500D02*
D03*
Y375000D02*
D03*
X434673Y321500D02*
D03*
X480500Y408000D02*
D03*
X358500Y408500D02*
D03*
X409173Y386500D02*
D03*
X405827D02*
D03*
X418327D02*
D03*
Y369000D02*
D03*
X421673D02*
D03*
X427827D02*
D03*
X418327Y375000D02*
D03*
X487327Y408000D02*
D03*
D42*
X356000Y370000D02*
D03*
X347338Y376890D02*
D03*
X356000D02*
D03*
X347338Y370000D02*
D03*
D43*
X309984Y369291D02*
D03*
X310347Y296760D02*
D03*
X309984Y380709D02*
D03*
X310347Y308177D02*
D03*
X312315D02*
D03*
X311953Y380709D02*
D03*
Y369291D02*
D03*
X312315Y296760D02*
D03*
D44*
X226063Y396260D02*
D03*
X227563Y310260D02*
D03*
X233937Y400000D02*
D03*
X226063Y403740D02*
D03*
X235437Y314000D02*
D03*
X227563Y317740D02*
D03*
D45*
X354969Y307500D02*
D03*
X351031D02*
D03*
X430031Y406500D02*
D03*
X444969D02*
D03*
X441032D02*
D03*
X433968D02*
D03*
X368531Y467000D02*
D03*
X372468D02*
D03*
D46*
X360882Y297311D02*
D03*
Y273689D02*
D03*
X346118Y297311D02*
D03*
Y273689D02*
D03*
D47*
X312000Y359335D02*
D03*
X312500Y287917D02*
D03*
X358500Y414500D02*
D03*
X312500Y290083D02*
D03*
X312000Y361500D02*
D03*
X358500Y416665D02*
D03*
Y423500D02*
D03*
Y425665D02*
D03*
D48*
X404106Y435500D02*
D03*
X409894D02*
D03*
D49*
X214000Y345100D02*
D03*
Y331900D02*
D03*
Y416900D02*
D03*
Y430100D02*
D03*
D50*
X314709Y372047D02*
D03*
Y374016D02*
D03*
Y375984D02*
D03*
Y377953D02*
D03*
X315071Y305421D02*
D03*
Y303453D02*
D03*
Y301484D02*
D03*
Y299516D02*
D03*
D51*
X304138Y373031D02*
D03*
Y376969D02*
D03*
X304500Y300500D02*
D03*
Y304437D02*
D03*
D52*
X392500Y449287D02*
D03*
Y451500D02*
D03*
D53*
Y462677D02*
D03*
Y472323D02*
D03*
D80*
X313500Y476898D02*
D03*
X525000Y452500D02*
D03*
X508000Y265500D02*
D03*
X185000D02*
D03*
X316500D02*
D03*
X344000Y485000D02*
D03*
X185000D02*
D03*
X214000Y477508D02*
D03*
X213500Y273102D02*
D03*
D81*
X313500Y459890D02*
D03*
X214000Y460500D02*
D03*
X213500Y290110D02*
D03*
D82*
X313500Y448079D02*
D03*
X214000Y448689D02*
D03*
X213500Y301921D02*
D03*
D87*
X272843Y437335D02*
D03*
Y451114D02*
D03*
X263000Y437335D02*
D03*
Y451114D02*
D03*
Y414500D02*
D03*
X272843D02*
D03*
Y400721D02*
D03*
X273421Y300803D02*
D03*
Y314583D02*
D03*
X263579D02*
D03*
Y337417D02*
D03*
X273421D02*
D03*
X263579Y351197D02*
D03*
X273421D02*
D03*
D88*
X263000Y400721D02*
D03*
X263579Y300803D02*
D03*
D89*
X267921Y425917D02*
D03*
X268500Y326000D02*
D03*
D93*
X324374Y265500D02*
G03*
X324374Y265500I-7874J0D01*
G01*
X192874D02*
G03*
X192874Y265500I-7874J0D01*
G01*
X515874D02*
G03*
X515874Y265500I-7874J0D01*
G01*
X532874Y452500D02*
G03*
X532874Y452500I-7874J0D01*
G01*
X351874Y485000D02*
G03*
X351874Y485000I-7874J0D01*
G01*
X192874D02*
G03*
X192874Y485000I-7874J0D01*
G01*
D94*
X502500Y403296D02*
D03*
Y406704D02*
D03*
D95*
X390319Y435681D02*
X390417D01*
X386500Y439500D02*
X390319Y435681D01*
X375547Y449260D02*
X392472D01*
X358500Y400000D02*
X367000D01*
X374500Y382000D02*
Y393500D01*
Y414500D01*
Y393500D02*
X381000Y400000D01*
X411000D01*
X413500Y402500D01*
Y412500D01*
X374500Y414500D02*
X376000Y416000D01*
X379528D01*
X405472D02*
X410000D01*
X413500Y412500D01*
X392500Y451500D02*
X402000D01*
X409894Y426394D02*
Y435500D01*
X410000Y435606D02*
Y447500D01*
X408637Y425137D02*
X409894Y426394D01*
X405593Y425137D02*
X408637D01*
X395500Y444500D02*
X401957D01*
X366500Y456787D02*
Y462500D01*
X351000Y408500D02*
X355153D01*
X375547Y453000D02*
X381500D01*
X358500Y404000D02*
Y408500D01*
Y414500D01*
X367112Y356388D02*
X374188D01*
X367000Y356500D02*
X367112Y356388D01*
X405957Y451543D02*
X410000Y447500D01*
X402000Y451543D02*
X405957D01*
X392583Y435500D02*
X404106D01*
X392500Y451500D02*
Y462677D01*
X372000Y474000D02*
X390823D01*
X375547Y463453D02*
Y465953D01*
X374500Y467000D02*
X375547Y465953D01*
X372468Y467000D02*
X374500D01*
X368531Y470532D02*
X372000Y474000D01*
X368531Y467000D02*
Y470532D01*
X360000Y463742D02*
X363258Y467000D01*
X360000Y455500D02*
Y463742D01*
Y455500D02*
X362500Y453000D01*
X366453D01*
X363258Y467000D02*
X368531D01*
X375547Y456740D02*
Y463453D01*
X392541Y435541D02*
Y449246D01*
X233937Y400000D02*
X244953D01*
X244500Y313906D02*
Y347827D01*
X245000Y399953D02*
Y434000D01*
X235437Y314000D02*
X244406D01*
X358500Y416665D02*
Y423500D01*
D96*
X352000Y432000D02*
X352024Y432024D01*
X357476D02*
X357500Y432047D01*
X352024Y432024D02*
X357476D01*
X295294Y307706D02*
X298563Y304437D01*
X304500D01*
X299000Y300500D02*
X304500D01*
X298000Y373000D02*
X304106D01*
X296000Y379500D02*
X298532Y376969D01*
X304138D01*
D97*
X245000Y386000D02*
Y394047D01*
X244500Y299500D02*
Y308000D01*
X245012Y437335D02*
X263000D01*
X217628Y351173D02*
X263555D01*
X214000Y430100D02*
X215750Y431850D01*
Y434296D02*
X218801Y437347D01*
X215750Y431850D02*
Y434296D01*
X218801Y437347D02*
X245000D01*
X214000Y345100D02*
X215750Y346850D01*
Y349296D01*
X217628Y351173D01*
X355500Y444047D02*
X357500Y442047D01*
Y437953D02*
Y442047D01*
X359000Y449260D02*
X366471D01*
D98*
X463700Y271100D02*
D03*
X432300D02*
D03*
D99*
X533000Y287000D02*
D03*
Y267000D02*
D03*
Y277000D02*
D03*
Y297000D02*
D03*
Y420000D02*
D03*
Y410000D02*
D03*
Y400000D02*
D03*
Y430000D02*
D03*
D100*
X437000Y382500D02*
D03*
D101*
X447000D02*
D03*
X457000D02*
D03*
X467000D02*
D03*
D102*
X386500Y439500D02*
D03*
X354000Y382500D02*
D03*
X410500Y407000D02*
D03*
X382500Y394500D02*
D03*
X306500Y365000D02*
D03*
X415500Y350000D02*
D03*
X364000Y353000D02*
D03*
X447500Y320500D02*
D03*
X443500Y332272D02*
D03*
X456500Y332000D02*
D03*
X428000Y325000D02*
D03*
X461500Y343000D02*
D03*
X434000Y331000D02*
D03*
X439000Y320000D02*
D03*
X512500Y414500D02*
D03*
X475000Y414000D02*
D03*
X498000Y403000D02*
D03*
X453000Y414500D02*
D03*
X465500D02*
D03*
X458500D02*
D03*
X429647Y413647D02*
D03*
X512500Y399500D02*
D03*
X536500Y331500D02*
D03*
X460500Y399969D02*
D03*
X448000Y332500D02*
D03*
X415456Y337544D02*
D03*
X395500Y444500D02*
D03*
X366500Y462500D02*
D03*
X351000Y408500D02*
D03*
X311000Y402500D02*
D03*
X352500Y387500D02*
D03*
X221000Y396500D02*
D03*
X401500Y338500D02*
D03*
X356000Y364500D02*
D03*
Y338000D02*
D03*
X398500Y282000D02*
D03*
X384000D02*
D03*
X311500Y330000D02*
D03*
X308500Y292000D02*
D03*
X222500Y310500D02*
D03*
X495000Y408000D02*
D03*
X473000D02*
D03*
X460500Y408968D02*
D03*
X535500Y317500D02*
D03*
X432500Y365000D02*
D03*
X426000Y386500D02*
D03*
X381500Y453000D02*
D03*
X311000Y385500D02*
D03*
X332500Y383000D02*
D03*
X426000Y375000D02*
D03*
X339500Y359500D02*
D03*
X316500D02*
D03*
X329500Y297000D02*
D03*
Y313000D02*
D03*
X311500D02*
D03*
X367500Y338000D02*
D03*
X427500Y349500D02*
D03*
X460500Y394500D02*
D03*
X480500Y401000D02*
D03*
X395224Y385224D02*
D03*
X482500Y375000D02*
D03*
X345500Y348000D02*
D03*
X536500Y342500D02*
D03*
X500500Y337500D02*
D03*
X377000Y338000D02*
D03*
X351000Y318000D02*
D03*
X414000Y377000D02*
D03*
X478000Y359000D02*
D03*
X487500Y404000D02*
D03*
X425500Y397500D02*
D03*
X288500Y312000D02*
D03*
X292000D02*
D03*
X299000D02*
D03*
X295500D02*
D03*
Y308500D02*
D03*
X299000D02*
D03*
X292000D02*
D03*
X288500D02*
D03*
Y315500D02*
D03*
X292000D02*
D03*
X299000D02*
D03*
X295500D02*
D03*
Y319000D02*
D03*
X299000D02*
D03*
X292000D02*
D03*
X288500D02*
D03*
Y322500D02*
D03*
X292000D02*
D03*
X299000D02*
D03*
X295500D02*
D03*
X288000Y384500D02*
D03*
X291500D02*
D03*
X298500D02*
D03*
X295000D02*
D03*
Y381000D02*
D03*
X298500D02*
D03*
X291500D02*
D03*
X288000D02*
D03*
Y388000D02*
D03*
X291500D02*
D03*
X298500D02*
D03*
X295000D02*
D03*
Y391500D02*
D03*
X298500D02*
D03*
X291500D02*
D03*
X288000D02*
D03*
Y395000D02*
D03*
X291500D02*
D03*
X298500D02*
D03*
X295000D02*
D03*
X349000Y456000D02*
D03*
X352500D02*
D03*
X345500D02*
D03*
X342000D02*
D03*
Y452500D02*
D03*
X345500D02*
D03*
X352500D02*
D03*
X349000D02*
D03*
Y449000D02*
D03*
X352500D02*
D03*
X345500D02*
D03*
X342000D02*
D03*
Y442000D02*
D03*
X345500D02*
D03*
X352500D02*
D03*
X349000D02*
D03*
Y445500D02*
D03*
X352500D02*
D03*
X345500D02*
D03*
X342000D02*
D03*
D103*
X352000Y432000D02*
D03*
X488000Y307000D02*
D03*
X502118Y364618D02*
D03*
X489500Y272000D02*
D03*
X414000Y293000D02*
D03*
X245000Y386000D02*
D03*
X367000Y285500D02*
D03*
X244500Y299500D02*
D03*
D104*
X367000Y400000D02*
D03*
X374500Y382000D02*
D03*
X367000Y356500D02*
D03*
M02*
