G04*
G04 #@! TF.GenerationSoftware,Altium Limited,Altium Designer,25.8.1 (18)*
G04*
G04 Layer_Physical_Order=4*
G04 Layer_Color=16711680*
%FSLAX25Y25*%
%MOIN*%
G70*
G04*
G04 #@! TF.SameCoordinates,BD6C6330-6F5E-4E75-AD65-D1E33E9A6F4C*
G04*
G04*
G04 #@! TF.FilePolarity,Positive*
G04*
G01*
G75*
%ADD14C,0.00800*%
%ADD80C,0.11811*%
%ADD81R,0.06181X0.06181*%
%ADD82C,0.06181*%
%ADD87C,0.08465*%
%ADD88R,0.08465X0.08465*%
%ADD89C,0.09449*%
%ADD93C,0.03937*%
%ADD95C,0.01200*%
%ADD98C,0.03937*%
%ADD99C,0.06000*%
%ADD100R,0.06319X0.06319*%
%ADD101C,0.06319*%
%ADD102C,0.02400*%
%ADD103C,0.03600*%
%ADD104C,0.02800*%
D14*
X485500Y332000D02*
X500000Y317500D01*
X456500Y332000D02*
X485500D01*
X427500Y349500D02*
X431500Y345500D01*
X459000D01*
X461500Y343000D01*
X374500Y331000D02*
X434000D01*
X367500Y338000D02*
X374500Y331000D01*
X500000Y317500D02*
X535500D01*
X332500Y383000D02*
Y383106D01*
X330106Y385500D02*
X332500Y383106D01*
X311000Y385500D02*
X330106D01*
X316500Y359500D02*
X339500D01*
X311500Y313000D02*
X329500D01*
X457000Y382500D02*
X460500Y386000D01*
Y394500D01*
X474000D01*
X480500Y401000D01*
X395224Y385224D02*
X396949Y383500D01*
X422000D01*
X435500Y370000D01*
X474500D02*
X479500Y375000D01*
X482500D01*
X435500Y370000D02*
X474500D01*
X409500Y355000D02*
X475000D01*
X376500Y333500D02*
X388000D01*
X409500Y355000D01*
X384100Y336100D02*
X405000Y357000D01*
X378900Y336100D02*
X384100D01*
X405000Y357000D02*
X476000D01*
X421000Y359000D02*
X478000D01*
X414000Y366000D02*
X421000Y359000D01*
X362000Y348000D02*
X376500Y333500D01*
X345500Y348000D02*
X362000D01*
X345500Y323500D02*
Y348000D01*
Y323500D02*
X351000Y318000D01*
X484500Y348500D02*
X534000D01*
X536500Y346000D01*
Y342500D02*
Y346000D01*
X377000Y338000D02*
X378900Y336100D01*
X476000Y357000D02*
X484500Y348500D01*
X492500Y337500D02*
X500500D01*
X475000Y355000D02*
X492500Y337500D01*
X414000Y366000D02*
Y377000D01*
X474000Y382500D02*
X487500Y396000D01*
Y404000D01*
X472000D02*
X487194D01*
X487500D01*
X467000Y382500D02*
X474000D01*
X465500Y397500D02*
X472000Y404000D01*
X425500Y397500D02*
X465500D01*
D80*
X313500Y476898D02*
D03*
X525000Y452500D02*
D03*
X508000Y265500D02*
D03*
X185000D02*
D03*
X316500D02*
D03*
X344000Y485000D02*
D03*
X185000D02*
D03*
X214000Y477508D02*
D03*
X213500Y273102D02*
D03*
D81*
X313500Y459890D02*
D03*
X214000Y460500D02*
D03*
X213500Y290110D02*
D03*
D82*
X313500Y448079D02*
D03*
X214000Y448689D02*
D03*
X213500Y301921D02*
D03*
D87*
X272843Y437335D02*
D03*
Y451114D02*
D03*
X263000Y437335D02*
D03*
Y451114D02*
D03*
Y414500D02*
D03*
X272843D02*
D03*
Y400721D02*
D03*
X273421Y300803D02*
D03*
Y314583D02*
D03*
X263579D02*
D03*
Y337417D02*
D03*
X273421D02*
D03*
X263579Y351197D02*
D03*
X273421D02*
D03*
D88*
X263000Y400721D02*
D03*
X263579Y300803D02*
D03*
D89*
X267921Y425917D02*
D03*
X268500Y326000D02*
D03*
D93*
X324374Y265500D02*
G03*
X324374Y265500I-7874J0D01*
G01*
X515874D02*
G03*
X515874Y265500I-7874J0D01*
G01*
X532874Y452500D02*
G03*
X532874Y452500I-7874J0D01*
G01*
X351874Y485000D02*
G03*
X351874Y485000I-7874J0D01*
G01*
X192874D02*
G03*
X192874Y485000I-7874J0D01*
G01*
Y265500D02*
G03*
X192874Y265500I-7874J0D01*
G01*
D95*
X367000Y356500D02*
Y400000D01*
D98*
X463700Y271100D02*
D03*
X432300D02*
D03*
D99*
X533000Y287000D02*
D03*
Y267000D02*
D03*
Y277000D02*
D03*
Y297000D02*
D03*
Y420000D02*
D03*
Y410000D02*
D03*
Y400000D02*
D03*
Y430000D02*
D03*
D100*
X437000Y382500D02*
D03*
D101*
X447000D02*
D03*
X457000D02*
D03*
X467000D02*
D03*
D102*
X386500Y439500D02*
D03*
X354000Y382500D02*
D03*
X410500Y407000D02*
D03*
X382500Y394500D02*
D03*
X306500Y365000D02*
D03*
X415500Y350000D02*
D03*
X364000Y353000D02*
D03*
X447500Y320500D02*
D03*
X443500Y332272D02*
D03*
X456500Y332000D02*
D03*
X428000Y325000D02*
D03*
X461500Y343000D02*
D03*
X434000Y331000D02*
D03*
X439000Y320000D02*
D03*
X512500Y414500D02*
D03*
X475000Y414000D02*
D03*
X498000Y403000D02*
D03*
X453000Y414500D02*
D03*
X465500D02*
D03*
X458500D02*
D03*
X429647Y413647D02*
D03*
X512500Y399500D02*
D03*
X536500Y331500D02*
D03*
X460500Y399969D02*
D03*
X448000Y332500D02*
D03*
X415456Y337544D02*
D03*
X395500Y444500D02*
D03*
X366500Y462500D02*
D03*
X351000Y408500D02*
D03*
X311000Y402500D02*
D03*
X352500Y387500D02*
D03*
X221000Y396500D02*
D03*
X401500Y338500D02*
D03*
X356000Y364500D02*
D03*
Y338000D02*
D03*
X398500Y282000D02*
D03*
X384000D02*
D03*
X311500Y330000D02*
D03*
X308500Y292000D02*
D03*
X222500Y310500D02*
D03*
X495000Y408000D02*
D03*
X473000D02*
D03*
X460500Y408968D02*
D03*
X535500Y317500D02*
D03*
X432500Y365000D02*
D03*
X426000Y386500D02*
D03*
X381500Y453000D02*
D03*
X311000Y385500D02*
D03*
X332500Y383000D02*
D03*
X426000Y375000D02*
D03*
X339500Y359500D02*
D03*
X316500D02*
D03*
X329500Y297000D02*
D03*
Y313000D02*
D03*
X311500D02*
D03*
X367500Y338000D02*
D03*
X427500Y349500D02*
D03*
X460500Y394500D02*
D03*
X480500Y401000D02*
D03*
X395224Y385224D02*
D03*
X482500Y375000D02*
D03*
X345500Y348000D02*
D03*
X536500Y342500D02*
D03*
X500500Y337500D02*
D03*
X377000Y338000D02*
D03*
X351000Y318000D02*
D03*
X414000Y377000D02*
D03*
X478000Y359000D02*
D03*
X487500Y404000D02*
D03*
X425500Y397500D02*
D03*
X288500Y312000D02*
D03*
X292000D02*
D03*
X299000D02*
D03*
X295500D02*
D03*
Y308500D02*
D03*
X299000D02*
D03*
X292000D02*
D03*
X288500D02*
D03*
Y315500D02*
D03*
X292000D02*
D03*
X299000D02*
D03*
X295500D02*
D03*
Y319000D02*
D03*
X299000D02*
D03*
X292000D02*
D03*
X288500D02*
D03*
Y322500D02*
D03*
X292000D02*
D03*
X299000D02*
D03*
X295500D02*
D03*
X288000Y384500D02*
D03*
X291500D02*
D03*
X298500D02*
D03*
X295000D02*
D03*
Y381000D02*
D03*
X298500D02*
D03*
X291500D02*
D03*
X288000D02*
D03*
Y388000D02*
D03*
X291500D02*
D03*
X298500D02*
D03*
X295000D02*
D03*
Y391500D02*
D03*
X298500D02*
D03*
X291500D02*
D03*
X288000D02*
D03*
Y395000D02*
D03*
X291500D02*
D03*
X298500D02*
D03*
X295000D02*
D03*
X349000Y456000D02*
D03*
X352500D02*
D03*
X345500D02*
D03*
X342000D02*
D03*
Y452500D02*
D03*
X345500D02*
D03*
X352500D02*
D03*
X349000D02*
D03*
Y449000D02*
D03*
X352500D02*
D03*
X345500D02*
D03*
X342000D02*
D03*
Y442000D02*
D03*
X345500D02*
D03*
X352500D02*
D03*
X349000D02*
D03*
Y445500D02*
D03*
X352500D02*
D03*
X345500D02*
D03*
X342000D02*
D03*
D103*
X352000Y432000D02*
D03*
X488000Y307000D02*
D03*
X502118Y364618D02*
D03*
X489500Y272000D02*
D03*
X414000Y293000D02*
D03*
X245000Y386000D02*
D03*
X367000Y285500D02*
D03*
X244500Y299500D02*
D03*
D104*
X367000Y400000D02*
D03*
X374500Y382000D02*
D03*
X367000Y356500D02*
D03*
M02*
