M48
;Layer_Color=9474304
;FILE_FORMAT=2:5
INCH
;TYPE=PLATED
T01F00S00C0.01200
T02F00S00C0.01600
T03F00S00C0.02400
T04F00S00C0.03000
T05F00S00C0.04016
T06F00S00C0.04213
T07F00S00C0.05512
%
T01
X0329500Y0297600
X0384000Y0282000
X0398500
X0307500Y0292500
X0298500Y0308000
Y0312000
X0294500
X0290500
X0286500
Y0308000
X0290500
X0294500
X0222500Y0310500
X0286500Y0316000
X0290500
X0294500
Y0320000
X0290500
X0286500
Y0324000
X0290500
X0294500
X0298500
Y0320000
Y0316000
X0311500Y0313000
Y0330000
X0306500Y0365000
X0298500Y0382000
X0294500
X0290500
X0286500
Y0386000
X0290500
X0294500
X0298500
Y0390000
Y0394000
Y0398000
X0294500
X0290500
X0286500
Y0394000
X0290500
X0294500
Y0390000
X0290500
X0286500
X0311000Y0385500
Y0402500
X0221000Y0396500
X0332500Y0383000
X0354000Y0382500
X0352500Y0387500
X0351173Y0403500
X0382500Y0395500
X0395224Y0385224
X0414000Y0378500
X0426000Y0375000
Y0386500
X0425500Y0397500
X0429647Y0413647
X0453000Y0414500
X0458500
X0465500
X0460500Y0408968
Y0400500
Y0394500
X0461500Y0343000
X0455500Y0332000
X0448000Y0332500
X0443500Y0332272
X0434000Y0331000
X0428000Y0325000
X0439000Y0320000
X0447500Y0320500
X0427500Y0349500
X0415500Y0350000
X0415456Y0337544
X0401500Y0338500
X0377000Y0338000
X0367500
X0356000
X0345500Y0348000
X0339500Y0359500
X0319500
X0356000Y0364500
X0364000Y0353000
X0351000Y0318000
X0329500Y0313000
X0341000Y0443500
Y0447500
Y0451500
X0345000
X0349000
Y0455500
X0345000
X0341000
Y0459500
X0345000
X0349000
X0353000
Y0455500
Y0451500
Y0447500
X0349000
X0345000
Y0443500
X0349000
X0353000
X0366500Y0462500
X0381500Y0453000
X0380000Y0435500
X0399000Y0438500
X0410500Y0407000
X0432500Y0365000
X0478000Y0359000
X0482500Y0375000
X0480500Y0401000
X0487500Y0404000
X0498000Y0403000
X0495000Y0408000
X0473000
X0475000Y0414000
X0512500Y0414500
Y0399500
X0500500Y0337500
X0536500Y0342500
Y0331500
X0535500Y0317500
T02
X0367000Y0356500
X0374500Y0382000
X0367000Y0393500
T03
X0489500Y0272000
X0488000Y0307000
X0414000Y0293000
X0367000Y0285500
X0244500Y0299500
X0245000Y0386000
X0352000Y0432000
X0502118Y0364618
T04
X0533000Y0267000
Y0277000
Y0287000
Y0297000
Y0400000
Y0410000
Y0420000
Y0430000
T05
X0213500Y0290110
Y0301921
X0214000Y0448689
Y0460500
X0313500Y0459890
Y0448079
T06
X0437000Y0382500
X0447000
X0457000
X0467000
T07
X0263579Y0300803
X0273421
Y0314583
X0263579
Y0337417
X0273421
Y0351197
X0263579
X0263000Y0400721
X0272843
Y0414500
X0263000
Y0437335
X0272843
Y0451114
X0263000
M30
