G04*
G04 #@! TF.GenerationSoftware,Altium Limited,Altium Designer,25.8.1 (18)*
G04*
G04 Layer_Color=8388736*
%FSLAX25Y25*%
%MOIN*%
G70*
G04*
G04 #@! TF.SameCoordinates,BD6C6330-6F5E-4E75-AD65-D1E33E9A6F4C*
G04*
G04*
G04 #@! TF.FilePolarity,Positive*
G04*
G01*
G75*
%ADD12C,0.00787*%
%ADD16C,0.01000*%
%ADD107C,0.01575*%
G36*
X473178Y543550D02*
Y542723D01*
X421485Y542881D01*
X421327Y468432D01*
X449674Y468314D01*
X450068Y468353D01*
X449910Y447645D01*
Y447369D01*
X440225Y441345D01*
X440737Y442448D01*
X439831Y442054D01*
X449044Y447684D01*
X449319Y467802D01*
X420540Y467723D01*
X420697Y543629D01*
X473178Y543550D01*
D02*
G37*
G36*
X526326Y467999D02*
X497547Y468078D01*
X497823Y447960D01*
X507035Y442330D01*
X506130Y442723D01*
X506641Y441621D01*
X496956Y447645D01*
Y447920D01*
X496799Y468629D01*
X497193Y468589D01*
X525539Y468708D01*
X525382Y543156D01*
X473689Y542999D01*
Y543825D01*
X526169Y543904D01*
X526326Y467999D01*
D02*
G37*
G36*
X512783Y431975D02*
X513019Y431857D01*
X513256Y431542D01*
X513413Y430991D01*
X513374Y430519D01*
X513295Y430086D01*
X513059Y429771D01*
X512665Y429534D01*
X512271D01*
X511917Y429692D01*
X511641Y430007D01*
X511563Y430479D01*
Y431070D01*
X511641Y431463D01*
X511917Y431897D01*
X512429Y432054D01*
X512389Y431424D01*
X512271Y431345D01*
X512192Y431227D01*
X512114Y430912D01*
Y430676D01*
X512192Y430322D01*
X512311Y430164D01*
X512468Y430125D01*
X512626Y430164D01*
X512704Y430282D01*
X512783Y430676D01*
Y430873D01*
X512704Y431227D01*
X512626Y431385D01*
X512429Y431463D01*
X512468Y432054D01*
X512783Y431975D01*
D02*
G37*
G36*
X511366Y431936D02*
X511445Y431739D01*
X511366Y431542D01*
X511130Y431227D01*
X511208Y431148D01*
X511405Y430991D01*
X511523Y430637D01*
X511484Y430243D01*
X511405Y429928D01*
X511130Y429653D01*
X510736Y429534D01*
X510342D01*
X510027Y429653D01*
X509752Y429889D01*
X509633Y430243D01*
X509712Y430401D01*
X509988Y430479D01*
X510185Y430401D01*
X510263Y430164D01*
X510421Y430125D01*
X510618Y430086D01*
X510736Y430164D01*
X510854Y430243D01*
X510933Y430401D01*
Y430519D01*
X510854Y430676D01*
X510775D01*
X510460Y430716D01*
X510303Y430873D01*
Y431070D01*
X510539Y431463D01*
X509988D01*
X509830Y431660D01*
Y431857D01*
X510027Y432054D01*
X511208D01*
X511366Y431936D01*
D02*
G37*
G36*
X434043D02*
Y429889D01*
X433768Y429613D01*
X433453Y429889D01*
X433492Y431227D01*
X433335Y431188D01*
X433138D01*
X432980Y431385D01*
X433020Y431660D01*
X433295Y431818D01*
X433571Y432093D01*
X433846Y432133D01*
X434043Y431936D01*
D02*
G37*
G36*
X347419Y377172D02*
X348391D01*
Y376672D01*
X347419D01*
Y375695D01*
X346919D01*
Y376672D01*
X345891D01*
Y377172D01*
X346919D01*
Y378195D01*
X347419D01*
Y377172D01*
D02*
G37*
G36*
X345960Y369493D02*
X345393D01*
Y371194D01*
X345251D01*
Y371052D01*
X344826D01*
Y371336D01*
X345110D01*
Y371477D01*
X345251D01*
Y371619D01*
X345535D01*
Y371761D01*
X345960D01*
Y369493D01*
D02*
G37*
D12*
X224646Y404331D02*
G03*
X224646Y404331I-394J0D01*
G01*
X226146Y318331D02*
G03*
X226146Y318331I-394J0D01*
G01*
D16*
X347886Y367276D02*
G03*
X347886Y367276I-500J0D01*
G01*
D107*
X442901Y439456D02*
G03*
X442901Y439456I-787J0D01*
G01*
X505893D02*
G03*
X505893Y439456I-787J0D01*
G01*
M02*
