G04*
G04 #@! TF.GenerationSoftware,Altium Limited,Altium Designer,25.8.1 (18)*
G04*
G04 Layer_Color=32768*
%FSLAX25Y25*%
%MOIN*%
G70*
G04*
G04 #@! TF.SameCoordinates,BD6C6330-6F5E-4E75-AD65-D1E33E9A6F4C*
G04*
G04*
G04 #@! TF.FilePolarity,Positive*
G04*
G01*
G75*
%ADD18C,0.00394*%
D18*
X356469Y432788D02*
X356094Y432601D01*
X355719Y432226D01*
X355532Y431851D01*
Y431101D01*
X355719Y430726D01*
X356094Y430352D01*
X356469Y430164D01*
X357031Y429977D01*
X357969D01*
X358531Y430164D01*
X358906Y430352D01*
X359281Y430726D01*
X359468Y431101D01*
Y431851D01*
X359281Y432226D01*
X358906Y432601D01*
X358531Y432788D01*
X356469Y434082D02*
X356282D01*
X355907Y434269D01*
X355719Y434456D01*
X355532Y434831D01*
Y435581D01*
X355719Y435956D01*
X355907Y436143D01*
X356282Y436331D01*
X356657D01*
X357031Y436143D01*
X357594Y435769D01*
X359468Y433894D01*
Y436518D01*
X356469Y437587D02*
X356282D01*
X355907Y437774D01*
X355719Y437961D01*
X355532Y438336D01*
Y439086D01*
X355719Y439461D01*
X355907Y439648D01*
X356282Y439836D01*
X356657D01*
X357031Y439648D01*
X357594Y439274D01*
X359468Y437399D01*
Y440023D01*
X390691Y469468D02*
Y465532D01*
X392940D01*
X393372Y468718D02*
X393746Y468906D01*
X394309Y469468D01*
Y465532D01*
M02*
