G04*
G04 #@! TF.GenerationSoftware,Altium Limited,Altium Designer,25.8.1 (18)*
G04*
G04 Layer_Physical_Order=3*
G04 Layer_Color=16440176*
%FSLAX25Y25*%
%MOIN*%
G70*
G04*
G04 #@! TF.SameCoordinates,BD6C6330-6F5E-4E75-AD65-D1E33E9A6F4C*
G04*
G04*
G04 #@! TF.FilePolarity,Positive*
G04*
G01*
G75*
%ADD80C,0.11811*%
%ADD81R,0.06181X0.06181*%
%ADD82C,0.06181*%
%ADD87C,0.08465*%
%ADD88R,0.08465X0.08465*%
%ADD89C,0.09449*%
%ADD95C,0.01200*%
%ADD98C,0.03937*%
%ADD99C,0.06000*%
%ADD101C,0.06319*%
%ADD102C,0.02400*%
%ADD103C,0.03600*%
%ADD104C,0.02800*%
%ADD105C,0.00400*%
G36*
X278500Y332000D02*
X239500D01*
X219000Y316000D01*
Y285500D01*
X208000D01*
Y328000D01*
X217347Y336350D01*
X217550D01*
Y336531D01*
X226750Y344750D01*
X250696Y356500D01*
X278500D01*
Y332000D01*
D02*
G37*
G36*
X219500Y450500D02*
X223500Y447000D01*
X245000D01*
X256673Y456500D01*
X278000Y456500D01*
X278042Y432379D01*
X277759Y432096D01*
X258096D01*
X258000Y432000D01*
X253000Y434500D01*
X217000Y435000D01*
X208500Y443500D01*
Y465000D01*
X219500D01*
Y450500D01*
D02*
G37*
G36*
X497500Y404633D02*
X497037Y404441D01*
X496559Y403963D01*
X496300Y403338D01*
Y402662D01*
X496559Y402037D01*
X497037Y401559D01*
X497500Y401367D01*
Y392000D01*
X459000Y371500D01*
Y317500D01*
X421500D01*
Y344500D01*
X345000D01*
X345000Y336000D01*
X336000D01*
Y375500D01*
X330000Y379000D01*
Y385500D01*
X378412D01*
X381000Y382401D01*
Y367000D01*
X386000Y361000D01*
X412141D01*
X423151Y390500D01*
X455000D01*
Y412500D01*
X474179D01*
X474662Y412300D01*
X475338D01*
X475821Y412500D01*
X497500D01*
Y404633D01*
D02*
G37*
G36*
X354500Y458000D02*
Y440000D01*
X327500D01*
X322500Y435000D01*
X322000Y317500D01*
X309000Y306000D01*
X286500D01*
Y324500D01*
X302500D01*
X309000Y329500D01*
Y358500D01*
Y367000D01*
Y379000D01*
X286000D01*
Y397000D01*
X303500D01*
X306588Y399088D01*
Y464500D01*
X325250D01*
X354500Y458000D01*
D02*
G37*
%LPC*%
G36*
X213960Y305412D02*
X213040D01*
X212153Y305174D01*
X211357Y304714D01*
X210707Y304064D01*
X210247Y303269D01*
X210010Y302381D01*
Y301462D01*
X210247Y300574D01*
X210707Y299778D01*
X211357Y299128D01*
X212153Y298669D01*
X213040Y298431D01*
X213960D01*
X214847Y298669D01*
X215643Y299128D01*
X216293Y299778D01*
X216753Y300574D01*
X216990Y301462D01*
Y302381D01*
X216753Y303269D01*
X216293Y304064D01*
X215643Y304714D01*
X214847Y305174D01*
X213960Y305412D01*
D02*
G37*
G36*
X214459Y452179D02*
X213541D01*
X212653Y451942D01*
X211857Y451482D01*
X211207Y450832D01*
X210747Y450036D01*
X210509Y449149D01*
Y448229D01*
X210747Y447342D01*
X211207Y446546D01*
X211857Y445896D01*
X212653Y445436D01*
X213541Y445198D01*
X214459D01*
X215347Y445436D01*
X216143Y445896D01*
X216793Y446546D01*
X217253Y447342D01*
X217491Y448229D01*
Y449149D01*
X217253Y450036D01*
X216793Y450832D01*
X216143Y451482D01*
X215347Y451942D01*
X214459Y452179D01*
D02*
G37*
G36*
X461000Y410060D02*
Y409469D01*
X461592D01*
X461517Y409648D01*
X461180Y409986D01*
X461000Y410060D01*
D02*
G37*
G36*
X460000D02*
X459820Y409986D01*
X459483Y409648D01*
X459408Y409469D01*
X460000D01*
Y410060D01*
D02*
G37*
G36*
X495500Y409092D02*
Y408500D01*
X496092D01*
X496017Y408680D01*
X495680Y409017D01*
X495500Y409092D01*
D02*
G37*
G36*
X494500D02*
X494320Y409017D01*
X493983Y408680D01*
X493908Y408500D01*
X494500D01*
Y409092D01*
D02*
G37*
G36*
X473500D02*
Y408500D01*
X474092D01*
X474017Y408680D01*
X473680Y409017D01*
X473500Y409092D01*
D02*
G37*
G36*
X472500D02*
X472320Y409017D01*
X471983Y408680D01*
X471908Y408500D01*
X472500D01*
Y409092D01*
D02*
G37*
G36*
X461592Y408468D02*
X461000D01*
Y407877D01*
X461180Y407951D01*
X461517Y408289D01*
X461592Y408468D01*
D02*
G37*
G36*
X460000D02*
X459408D01*
X459483Y408289D01*
X459820Y407951D01*
X460000Y407877D01*
Y408468D01*
D02*
G37*
G36*
X496092Y407500D02*
X495500D01*
Y406908D01*
X495680Y406983D01*
X496017Y407320D01*
X496092Y407500D01*
D02*
G37*
G36*
X494500D02*
X493908D01*
X493983Y407320D01*
X494320Y406983D01*
X494500Y406908D01*
Y407500D01*
D02*
G37*
G36*
X474092D02*
X473500D01*
Y406908D01*
X473680Y406983D01*
X474017Y407320D01*
X474092Y407500D01*
D02*
G37*
G36*
X472500D02*
X471908D01*
X471983Y407320D01*
X472320Y406983D01*
X472500Y406908D01*
Y407500D01*
D02*
G37*
G36*
X487838Y405700D02*
X487162D01*
X486537Y405441D01*
X486059Y404963D01*
X485800Y404338D01*
Y403662D01*
X486059Y403037D01*
X486537Y402559D01*
X487162Y402300D01*
X487838D01*
X488463Y402559D01*
X488941Y403037D01*
X489200Y403662D01*
Y404338D01*
X488941Y404963D01*
X488463Y405441D01*
X487838Y405700D01*
D02*
G37*
G36*
X480838Y402700D02*
X480162D01*
X479537Y402441D01*
X479059Y401963D01*
X478800Y401338D01*
Y400662D01*
X479059Y400037D01*
X479537Y399559D01*
X480162Y399300D01*
X480838D01*
X481463Y399559D01*
X481941Y400037D01*
X482200Y400662D01*
Y401338D01*
X481941Y401963D01*
X481463Y402441D01*
X480838Y402700D01*
D02*
G37*
G36*
X460838Y401669D02*
X460162D01*
X459537Y401410D01*
X459059Y400932D01*
X458800Y400307D01*
Y399630D01*
X459059Y399006D01*
X459537Y398527D01*
X460162Y398269D01*
X460838D01*
X461463Y398527D01*
X461941Y399006D01*
X462200Y399630D01*
Y400307D01*
X461941Y400932D01*
X461463Y401410D01*
X460838Y401669D01*
D02*
G37*
G36*
Y396200D02*
X460162D01*
X459537Y395941D01*
X459059Y395463D01*
X458800Y394838D01*
Y394162D01*
X459059Y393537D01*
X459537Y393059D01*
X460162Y392800D01*
X460838D01*
X461463Y393059D01*
X461941Y393537D01*
X462200Y394162D01*
Y394838D01*
X461941Y395463D01*
X461463Y395941D01*
X460838Y396200D01*
D02*
G37*
G36*
X426500Y387592D02*
Y387000D01*
X427092D01*
X427017Y387180D01*
X426680Y387517D01*
X426500Y387592D01*
D02*
G37*
G36*
X425500D02*
X425320Y387517D01*
X424983Y387180D01*
X424908Y387000D01*
X425500D01*
Y387592D01*
D02*
G37*
G36*
X427092Y386000D02*
X426500D01*
Y385408D01*
X426680Y385483D01*
X427017Y385820D01*
X427092Y386000D01*
D02*
G37*
G36*
X425500D02*
X424908D01*
X424983Y385820D01*
X425320Y385483D01*
X425500Y385408D01*
Y386000D01*
D02*
G37*
G36*
X333000Y384092D02*
Y383500D01*
X333592D01*
X333517Y383680D01*
X333180Y384017D01*
X333000Y384092D01*
D02*
G37*
G36*
X332000D02*
X331820Y384017D01*
X331483Y383680D01*
X331408Y383500D01*
X332000D01*
Y384092D01*
D02*
G37*
G36*
X447500Y385637D02*
Y383000D01*
X450137D01*
X449944Y383719D01*
X449528Y384440D01*
X448940Y385028D01*
X448219Y385444D01*
X447500Y385637D01*
D02*
G37*
G36*
X446500D02*
X445781Y385444D01*
X445060Y385028D01*
X444472Y384440D01*
X444056Y383719D01*
X443863Y383000D01*
X446500D01*
Y385637D01*
D02*
G37*
G36*
X354500Y383592D02*
Y383000D01*
X355092D01*
X355017Y383180D01*
X354680Y383517D01*
X354500Y383592D01*
D02*
G37*
G36*
X353500D02*
X353320Y383517D01*
X352983Y383180D01*
X352908Y383000D01*
X353500D01*
Y383592D01*
D02*
G37*
G36*
X333592Y382500D02*
X333000D01*
Y381908D01*
X333180Y381983D01*
X333517Y382320D01*
X333592Y382500D01*
D02*
G37*
G36*
X332000D02*
X331408D01*
X331483Y382320D01*
X331820Y381983D01*
X332000Y381908D01*
Y382500D01*
D02*
G37*
G36*
X355092Y382000D02*
X354500D01*
Y381408D01*
X354680Y381483D01*
X355017Y381820D01*
X355092Y382000D01*
D02*
G37*
G36*
X353500D02*
X352908D01*
X352983Y381820D01*
X353320Y381483D01*
X353500Y381408D01*
Y382000D01*
D02*
G37*
G36*
X450137D02*
X447500D01*
Y379363D01*
X448219Y379556D01*
X448940Y379972D01*
X449528Y380560D01*
X449944Y381280D01*
X450137Y382000D01*
D02*
G37*
G36*
X446500D02*
X443863D01*
X444056Y381280D01*
X444472Y380560D01*
X445060Y379972D01*
X445781Y379556D01*
X446500Y379363D01*
Y382000D01*
D02*
G37*
G36*
X467469Y386059D02*
X466531D01*
X465626Y385817D01*
X464815Y385348D01*
X464152Y384686D01*
X463683Y383874D01*
X463441Y382969D01*
Y382031D01*
X463683Y381126D01*
X464152Y380314D01*
X464815Y379652D01*
X465626Y379183D01*
X466531Y378941D01*
X467469D01*
X468374Y379183D01*
X469185Y379652D01*
X469848Y380314D01*
X470317Y381126D01*
X470560Y382031D01*
Y382969D01*
X470317Y383874D01*
X469848Y384686D01*
X469185Y385348D01*
X468374Y385817D01*
X467469Y386059D01*
D02*
G37*
G36*
X457469D02*
X456531D01*
X455626Y385817D01*
X454814Y385348D01*
X454152Y384686D01*
X453683Y383874D01*
X453441Y382969D01*
Y382031D01*
X453683Y381126D01*
X454152Y380314D01*
X454814Y379652D01*
X455626Y379183D01*
X456531Y378941D01*
X457469D01*
X458374Y379183D01*
X459186Y379652D01*
X459848Y380314D01*
X460317Y381126D01*
X460560Y382031D01*
Y382969D01*
X460317Y383874D01*
X459848Y384686D01*
X459186Y385348D01*
X458374Y385817D01*
X457469Y386059D01*
D02*
G37*
G36*
X437469D02*
X436531D01*
X435626Y385817D01*
X434815Y385348D01*
X434152Y384686D01*
X433683Y383874D01*
X433440Y382969D01*
Y382031D01*
X433683Y381126D01*
X434152Y380314D01*
X434815Y379652D01*
X435626Y379183D01*
X436531Y378941D01*
X437469D01*
X438374Y379183D01*
X439185Y379652D01*
X439848Y380314D01*
X440317Y381126D01*
X440559Y382031D01*
Y382969D01*
X440317Y383874D01*
X439848Y384686D01*
X439185Y385348D01*
X438374Y385817D01*
X437469Y386059D01*
D02*
G37*
G36*
X426500Y376092D02*
Y375500D01*
X427092D01*
X427017Y375680D01*
X426680Y376017D01*
X426500Y376092D01*
D02*
G37*
G36*
X425500D02*
X425320Y376017D01*
X424983Y375680D01*
X424908Y375500D01*
X425500D01*
Y376092D01*
D02*
G37*
G36*
X427092Y374500D02*
X426500D01*
Y373908D01*
X426680Y373983D01*
X427017Y374320D01*
X427092Y374500D01*
D02*
G37*
G36*
X425500D02*
X424908D01*
X424983Y374320D01*
X425320Y373983D01*
X425500Y373908D01*
Y374500D01*
D02*
G37*
G36*
X433000Y366092D02*
Y365500D01*
X433592D01*
X433517Y365680D01*
X433180Y366017D01*
X433000Y366092D01*
D02*
G37*
G36*
X432000D02*
X431820Y366017D01*
X431483Y365680D01*
X431408Y365500D01*
X432000D01*
Y366092D01*
D02*
G37*
G36*
X433592Y364500D02*
X433000D01*
Y363908D01*
X433180Y363983D01*
X433517Y364320D01*
X433592Y364500D01*
D02*
G37*
G36*
X432000D02*
X431408D01*
X431483Y364320D01*
X431820Y363983D01*
X432000Y363908D01*
Y364500D01*
D02*
G37*
G36*
X356338Y366200D02*
X355662D01*
X355037Y365941D01*
X354559Y365463D01*
X354300Y364838D01*
Y364162D01*
X354559Y363537D01*
X355037Y363059D01*
X355662Y362800D01*
X356338D01*
X356963Y363059D01*
X357441Y363537D01*
X357700Y364162D01*
Y364838D01*
X357441Y365463D01*
X356963Y365941D01*
X356338Y366200D01*
D02*
G37*
G36*
X340000Y360592D02*
Y360000D01*
X340592D01*
X340517Y360180D01*
X340180Y360517D01*
X340000Y360592D01*
D02*
G37*
G36*
X339000D02*
X338820Y360517D01*
X338483Y360180D01*
X338408Y360000D01*
X339000D01*
Y360592D01*
D02*
G37*
G36*
X340592Y359000D02*
X340000D01*
Y358408D01*
X340180Y358483D01*
X340517Y358820D01*
X340592Y359000D01*
D02*
G37*
G36*
X339000D02*
X338408D01*
X338483Y358820D01*
X338820Y358483D01*
X339000Y358408D01*
Y359000D01*
D02*
G37*
G36*
X367378Y358400D02*
X366622D01*
X365924Y358111D01*
X365389Y357576D01*
X365100Y356878D01*
Y356122D01*
X365389Y355424D01*
X365924Y354889D01*
X366622Y354600D01*
X367378D01*
X368076Y354889D01*
X368611Y355424D01*
X368900Y356122D01*
Y356878D01*
X368611Y357576D01*
X368076Y358111D01*
X367378Y358400D01*
D02*
G37*
G36*
X374878Y383900D02*
X374122D01*
X373424Y383611D01*
X372889Y383076D01*
X372600Y382378D01*
Y381622D01*
X372889Y380924D01*
X373424Y380389D01*
X373480Y380366D01*
Y359422D01*
X368078Y354020D01*
X365385D01*
X364963Y354441D01*
X364338Y354700D01*
X363662D01*
X363037Y354441D01*
X362559Y353963D01*
X362300Y353338D01*
Y352662D01*
X362559Y352037D01*
X363037Y351559D01*
X363662Y351300D01*
X364338D01*
X364963Y351559D01*
X365385Y351980D01*
X368500D01*
X368890Y352058D01*
X369221Y352279D01*
X374500Y357558D01*
X379779Y352279D01*
X380110Y352058D01*
X380500Y351980D01*
X412078D01*
X413800Y350258D01*
Y349662D01*
X414059Y349037D01*
X414537Y348559D01*
X415162Y348300D01*
X415838D01*
X416463Y348559D01*
X416941Y349037D01*
X417200Y349662D01*
Y350338D01*
X416941Y350963D01*
X416463Y351441D01*
X415838Y351700D01*
X415242D01*
X413221Y353721D01*
X412890Y353942D01*
X412500Y354020D01*
X380922D01*
X375520Y359422D01*
Y380366D01*
X375576Y380389D01*
X376111Y380924D01*
X376400Y381622D01*
Y382378D01*
X376111Y383076D01*
X375576Y383611D01*
X374878Y383900D01*
D02*
G37*
G36*
X427838Y351200D02*
X427162D01*
X426537Y350941D01*
X426059Y350463D01*
X425800Y349838D01*
Y349162D01*
X426059Y348537D01*
X426537Y348059D01*
X427162Y347800D01*
X427838D01*
X428463Y348059D01*
X428941Y348537D01*
X429200Y349162D01*
Y349838D01*
X428941Y350463D01*
X428463Y350941D01*
X427838Y351200D01*
D02*
G37*
G36*
X345838Y349700D02*
X345162D01*
X344537Y349441D01*
X344059Y348963D01*
X343800Y348338D01*
Y347662D01*
X344059Y347037D01*
X344537Y346559D01*
X345162Y346300D01*
X345838D01*
X346463Y346559D01*
X346941Y347037D01*
X347200Y347662D01*
Y348338D01*
X346941Y348963D01*
X346463Y349441D01*
X345838Y349700D01*
D02*
G37*
G36*
X444000Y333363D02*
Y332772D01*
X444592D01*
X444517Y332951D01*
X444180Y333289D01*
X444000Y333363D01*
D02*
G37*
G36*
X443000D02*
X442820Y333289D01*
X442483Y332951D01*
X442408Y332772D01*
X443000D01*
Y333363D01*
D02*
G37*
G36*
X457000Y333092D02*
Y332500D01*
X457592D01*
X457517Y332680D01*
X457180Y333017D01*
X457000Y333092D01*
D02*
G37*
G36*
X456000D02*
X455820Y333017D01*
X455483Y332680D01*
X455408Y332500D01*
X456000D01*
Y333092D01*
D02*
G37*
G36*
X444592Y331772D02*
X444000D01*
Y331180D01*
X444180Y331254D01*
X444517Y331592D01*
X444592Y331772D01*
D02*
G37*
G36*
X443000D02*
X442408D01*
X442483Y331592D01*
X442820Y331254D01*
X443000Y331180D01*
Y331772D01*
D02*
G37*
G36*
X457592Y331500D02*
X457000D01*
Y330908D01*
X457180Y330983D01*
X457517Y331320D01*
X457592Y331500D01*
D02*
G37*
G36*
X456000D02*
X455408D01*
X455483Y331320D01*
X455820Y330983D01*
X456000Y330908D01*
Y331500D01*
D02*
G37*
G36*
X448338Y334200D02*
X447662D01*
X447037Y333941D01*
X446559Y333463D01*
X446300Y332838D01*
Y332162D01*
X446559Y331537D01*
X447037Y331059D01*
X447662Y330800D01*
X448338D01*
X448963Y331059D01*
X449441Y331537D01*
X449700Y332162D01*
Y332838D01*
X449441Y333463D01*
X448963Y333941D01*
X448338Y334200D01*
D02*
G37*
G36*
X434338Y332700D02*
X433662D01*
X433037Y332441D01*
X432559Y331963D01*
X432300Y331338D01*
Y330662D01*
X432559Y330037D01*
X433037Y329559D01*
X433662Y329300D01*
X434338D01*
X434963Y329559D01*
X435441Y330037D01*
X435700Y330662D01*
Y331338D01*
X435441Y331963D01*
X434963Y332441D01*
X434338Y332700D01*
D02*
G37*
G36*
X428500Y326092D02*
Y325500D01*
X429092D01*
X429017Y325680D01*
X428680Y326017D01*
X428500Y326092D01*
D02*
G37*
G36*
X427500D02*
X427320Y326017D01*
X426983Y325680D01*
X426908Y325500D01*
X427500D01*
Y326092D01*
D02*
G37*
G36*
X429092Y324500D02*
X428500D01*
Y323908D01*
X428680Y323983D01*
X429017Y324320D01*
X429092Y324500D01*
D02*
G37*
G36*
X427500D02*
X426908D01*
X426983Y324320D01*
X427320Y323983D01*
X427500Y323908D01*
Y324500D01*
D02*
G37*
G36*
X448000Y321592D02*
Y321000D01*
X448592D01*
X448517Y321180D01*
X448180Y321517D01*
X448000Y321592D01*
D02*
G37*
G36*
X447000D02*
X446820Y321517D01*
X446483Y321180D01*
X446408Y321000D01*
X447000D01*
Y321592D01*
D02*
G37*
G36*
X448592Y320000D02*
X448000D01*
Y319408D01*
X448180Y319483D01*
X448517Y319820D01*
X448592Y320000D01*
D02*
G37*
G36*
X447000D02*
X446408D01*
X446483Y319820D01*
X446820Y319483D01*
X447000Y319408D01*
Y320000D01*
D02*
G37*
G36*
X439338Y321700D02*
X438662D01*
X438037Y321441D01*
X437559Y320963D01*
X437300Y320338D01*
Y319662D01*
X437559Y319037D01*
X438037Y318559D01*
X438662Y318300D01*
X439338D01*
X439963Y318559D01*
X440441Y319037D01*
X440700Y319662D01*
Y320338D01*
X440441Y320963D01*
X439963Y321441D01*
X439338Y321700D01*
D02*
G37*
G36*
X313960Y451569D02*
X313040D01*
X312153Y451331D01*
X311357Y450872D01*
X310707Y450222D01*
X310247Y449426D01*
X310010Y448538D01*
Y447619D01*
X310247Y446731D01*
X310707Y445935D01*
X311357Y445286D01*
X312153Y444826D01*
X313040Y444588D01*
X313960D01*
X314847Y444826D01*
X315643Y445286D01*
X316293Y445935D01*
X316753Y446731D01*
X316990Y447619D01*
Y448538D01*
X316753Y449426D01*
X316293Y450222D01*
X315643Y450872D01*
X314847Y451331D01*
X313960Y451569D01*
D02*
G37*
G36*
X311338Y404200D02*
X310662D01*
X310037Y403941D01*
X309559Y403463D01*
X309300Y402838D01*
Y402162D01*
X309559Y401537D01*
X310037Y401059D01*
X310662Y400800D01*
X311338D01*
X311963Y401059D01*
X312441Y401537D01*
X312700Y402162D01*
Y402838D01*
X312441Y403463D01*
X311963Y403941D01*
X311338Y404200D01*
D02*
G37*
G36*
Y387200D02*
X310662D01*
X310037Y386941D01*
X309559Y386463D01*
X309300Y385838D01*
Y385162D01*
X309559Y384537D01*
X310037Y384059D01*
X310662Y383800D01*
X311338D01*
X311963Y384059D01*
X312441Y384537D01*
X312700Y385162D01*
Y385838D01*
X312441Y386463D01*
X311963Y386941D01*
X311338Y387200D01*
D02*
G37*
G36*
X316838Y361200D02*
X316162D01*
X315537Y360941D01*
X315059Y360463D01*
X314800Y359838D01*
Y359162D01*
X315059Y358537D01*
X315537Y358059D01*
X316162Y357800D01*
X316838D01*
X317463Y358059D01*
X317941Y358537D01*
X318200Y359162D01*
Y359838D01*
X317941Y360463D01*
X317463Y360941D01*
X316838Y361200D01*
D02*
G37*
G36*
X311838Y331700D02*
X311162D01*
X310537Y331441D01*
X310059Y330963D01*
X309800Y330338D01*
Y329662D01*
X310059Y329037D01*
X310537Y328559D01*
X311162Y328300D01*
X311838D01*
X312463Y328559D01*
X312941Y329037D01*
X313200Y329662D01*
Y330338D01*
X312941Y330963D01*
X312463Y331441D01*
X311838Y331700D01*
D02*
G37*
G36*
Y314700D02*
X311162D01*
X310537Y314441D01*
X310059Y313963D01*
X309800Y313338D01*
Y312662D01*
X310059Y312037D01*
X310537Y311559D01*
X311162Y311300D01*
X311838D01*
X312463Y311559D01*
X312941Y312037D01*
X313200Y312662D01*
Y313338D01*
X312941Y313963D01*
X312463Y314441D01*
X311838Y314700D01*
D02*
G37*
%LPD*%
D80*
X313500Y476898D02*
D03*
X525000Y452500D02*
D03*
X508000Y265500D02*
D03*
X185000D02*
D03*
X316500D02*
D03*
X344000Y485000D02*
D03*
X185000D02*
D03*
X214000Y477508D02*
D03*
X213500Y273102D02*
D03*
D81*
X313500Y459890D02*
D03*
X214000Y460500D02*
D03*
X213500Y290110D02*
D03*
D82*
X313500Y448079D02*
D03*
X214000Y448689D02*
D03*
X213500Y301921D02*
D03*
D87*
X272843Y437335D02*
D03*
Y451114D02*
D03*
X263000Y437335D02*
D03*
Y451114D02*
D03*
Y414500D02*
D03*
X272843D02*
D03*
Y400721D02*
D03*
X273421Y300803D02*
D03*
Y314583D02*
D03*
X263579D02*
D03*
Y337417D02*
D03*
X273421D02*
D03*
X263579Y351197D02*
D03*
X273421D02*
D03*
D88*
X263000Y400721D02*
D03*
X263579Y300803D02*
D03*
D89*
X267921Y425917D02*
D03*
X268500Y326000D02*
D03*
D95*
X329500Y329500D02*
X337084Y337084D01*
X329500Y313000D02*
Y329500D01*
Y297000D02*
Y313000D01*
X372500Y385000D02*
Y414229D01*
X381500Y423229D01*
Y453000D01*
X374500Y359000D02*
Y382000D01*
Y359000D02*
X380500Y353000D01*
X412500D01*
X364000D02*
X368500D01*
X374500Y359000D01*
X412500Y353000D02*
X415500Y350000D01*
D98*
X463700Y271100D02*
D03*
X432300D02*
D03*
D99*
X533000Y287000D02*
D03*
Y267000D02*
D03*
Y277000D02*
D03*
Y297000D02*
D03*
Y420000D02*
D03*
Y410000D02*
D03*
Y400000D02*
D03*
Y430000D02*
D03*
D101*
X437000Y382500D02*
D03*
X447000D02*
D03*
X457000D02*
D03*
X467000D02*
D03*
D102*
X386500Y439500D02*
D03*
X354000Y382500D02*
D03*
X410500Y407000D02*
D03*
X382500Y394500D02*
D03*
X306500Y365000D02*
D03*
X415500Y350000D02*
D03*
X364000Y353000D02*
D03*
X447500Y320500D02*
D03*
X443500Y332272D02*
D03*
X456500Y332000D02*
D03*
X428000Y325000D02*
D03*
X461500Y343000D02*
D03*
X434000Y331000D02*
D03*
X439000Y320000D02*
D03*
X512500Y414500D02*
D03*
X475000Y414000D02*
D03*
X498000Y403000D02*
D03*
X453000Y414500D02*
D03*
X465500D02*
D03*
X458500D02*
D03*
X429647Y413647D02*
D03*
X512500Y399500D02*
D03*
X536500Y331500D02*
D03*
X460500Y399969D02*
D03*
X448000Y332500D02*
D03*
X415456Y337544D02*
D03*
X395500Y444500D02*
D03*
X366500Y462500D02*
D03*
X351000Y408500D02*
D03*
X311000Y402500D02*
D03*
X352500Y387500D02*
D03*
X221000Y396500D02*
D03*
X401500Y338500D02*
D03*
X356000Y364500D02*
D03*
Y338000D02*
D03*
X398500Y282000D02*
D03*
X384000D02*
D03*
X311500Y330000D02*
D03*
X308500Y292000D02*
D03*
X222500Y310500D02*
D03*
X495000Y408000D02*
D03*
X473000D02*
D03*
X460500Y408968D02*
D03*
X535500Y317500D02*
D03*
X432500Y365000D02*
D03*
X426000Y386500D02*
D03*
X381500Y453000D02*
D03*
X311000Y385500D02*
D03*
X332500Y383000D02*
D03*
X426000Y375000D02*
D03*
X339500Y359500D02*
D03*
X316500D02*
D03*
X329500Y297000D02*
D03*
Y313000D02*
D03*
X311500D02*
D03*
X367500Y338000D02*
D03*
X427500Y349500D02*
D03*
X460500Y394500D02*
D03*
X480500Y401000D02*
D03*
X395224Y385224D02*
D03*
X482500Y375000D02*
D03*
X345500Y348000D02*
D03*
X536500Y342500D02*
D03*
X500500Y337500D02*
D03*
X377000Y338000D02*
D03*
X351000Y318000D02*
D03*
X414000Y377000D02*
D03*
X478000Y359000D02*
D03*
X487500Y404000D02*
D03*
X425500Y397500D02*
D03*
X288500Y312000D02*
D03*
X292000D02*
D03*
X299000D02*
D03*
X295500D02*
D03*
Y308500D02*
D03*
X299000D02*
D03*
X292000D02*
D03*
X288500D02*
D03*
Y315500D02*
D03*
X292000D02*
D03*
X299000D02*
D03*
X295500D02*
D03*
Y319000D02*
D03*
X299000D02*
D03*
X292000D02*
D03*
X288500D02*
D03*
Y322500D02*
D03*
X292000D02*
D03*
X299000D02*
D03*
X295500D02*
D03*
X288000Y384500D02*
D03*
X291500D02*
D03*
X298500D02*
D03*
X295000D02*
D03*
Y381000D02*
D03*
X298500D02*
D03*
X291500D02*
D03*
X288000D02*
D03*
Y388000D02*
D03*
X291500D02*
D03*
X298500D02*
D03*
X295000D02*
D03*
Y391500D02*
D03*
X298500D02*
D03*
X291500D02*
D03*
X288000D02*
D03*
Y395000D02*
D03*
X291500D02*
D03*
X298500D02*
D03*
X295000D02*
D03*
X349000Y456000D02*
D03*
X352500D02*
D03*
X345500D02*
D03*
X342000D02*
D03*
Y452500D02*
D03*
X345500D02*
D03*
X352500D02*
D03*
X349000D02*
D03*
Y449000D02*
D03*
X352500D02*
D03*
X345500D02*
D03*
X342000D02*
D03*
Y442000D02*
D03*
X345500D02*
D03*
X352500D02*
D03*
X349000D02*
D03*
Y445500D02*
D03*
X352500D02*
D03*
X345500D02*
D03*
X342000D02*
D03*
D103*
X352000Y432000D02*
D03*
X488000Y307000D02*
D03*
X502118Y364618D02*
D03*
X489500Y272000D02*
D03*
X414000Y293000D02*
D03*
X245000Y386000D02*
D03*
X367000Y285500D02*
D03*
X244500Y299500D02*
D03*
D104*
X367000Y400000D02*
D03*
X374500Y382000D02*
D03*
X367000Y356500D02*
D03*
D105*
X337416Y337084D02*
X337500Y337000D01*
X337084Y337084D02*
X337416D01*
M02*
