G04*
G04 #@! TF.GenerationSoftware,Altium Limited,Altium Designer,25.8.1 (18)*
G04*
G04 Layer_Color=8388736*
%FSLAX25Y25*%
%MOIN*%
G70*
G04*
G04 #@! TF.SameCoordinates,BD6C6330-6F5E-4E75-AD65-D1E33E9A6F4C*
G04*
G04*
G04 #@! TF.FilePolarity,Negative*
G04*
G01*
G75*
%ADD22R,0.05800X0.02000*%
G04:AMPARAMS|DCode=23|XSize=39.54mil|YSize=34.34mil|CornerRadius=17.17mil|HoleSize=0mil|Usage=FLASHONLY|Rotation=180.000|XOffset=0mil|YOffset=0mil|HoleType=Round|Shape=RoundedRectangle|*
%AMROUNDEDRECTD23*
21,1,0.03954,0.00000,0,0,180.0*
21,1,0.00520,0.03434,0,0,180.0*
1,1,0.03434,-0.00260,0.00000*
1,1,0.03434,0.00260,0.00000*
1,1,0.03434,0.00260,0.00000*
1,1,0.03434,-0.00260,0.00000*
%
%ADD23ROUNDEDRECTD23*%
G04:AMPARAMS|DCode=24|XSize=39.54mil|YSize=125.28mil|CornerRadius=17.2mil|HoleSize=0mil|Usage=FLASHONLY|Rotation=180.000|XOffset=0mil|YOffset=0mil|HoleType=Round|Shape=RoundedRectangle|*
%AMROUNDEDRECTD24*
21,1,0.03954,0.09088,0,0,180.0*
21,1,0.00514,0.12528,0,0,180.0*
1,1,0.03440,-0.00257,0.04544*
1,1,0.03440,0.00257,0.04544*
1,1,0.03440,0.00257,-0.04544*
1,1,0.03440,-0.00257,-0.04544*
%
%ADD24ROUNDEDRECTD24*%
%ADD27R,0.02000X0.05800*%
%ADD34R,0.10984X0.02913*%
%ADD37R,0.03954X0.03434*%
%ADD49R,0.06700X0.08500*%
%ADD54R,0.03347X0.02953*%
%ADD55R,0.04134X0.04528*%
%ADD56R,0.02953X0.03150*%
%ADD57R,0.07891X0.07091*%
%ADD58R,0.06291X0.10191*%
%ADD59R,0.06291X0.07091*%
%ADD60R,0.03347X0.05709*%
%ADD61R,0.01971X0.12402*%
%ADD62R,0.02526X0.02627*%
%ADD63R,0.04528X0.03543*%
%ADD64R,0.03032X0.02953*%
%ADD65R,0.06299X0.04921*%
%ADD66R,0.01575X0.01968*%
G04:AMPARAMS|DCode=67|XSize=65.12mil|YSize=31.26mil|CornerRadius=6.92mil|HoleSize=0mil|Usage=FLASHONLY|Rotation=0.000|XOffset=0mil|YOffset=0mil|HoleType=Round|Shape=RoundedRectangle|*
%AMROUNDEDRECTD67*
21,1,0.06512,0.01742,0,0,0.0*
21,1,0.05128,0.03126,0,0,0.0*
1,1,0.01384,0.02564,-0.00871*
1,1,0.01384,-0.02564,-0.00871*
1,1,0.01384,-0.02564,0.00871*
1,1,0.01384,0.02564,0.00871*
%
%ADD67ROUNDEDRECTD67*%
%ADD68R,0.03740X0.03740*%
%ADD69R,0.03150X0.02953*%
%ADD70R,0.06102X0.05315*%
%ADD71R,0.01575X0.03740*%
%ADD72R,0.05512X0.03347*%
%ADD73R,0.02953X0.03347*%
%ADD74R,0.03543X0.04528*%
%ADD75R,0.01968X0.01575*%
%ADD76R,0.04685X0.04606*%
%ADD77R,0.03740X0.01575*%
%ADD78R,0.02165X0.02087*%
%ADD79R,0.15551X0.05315*%
%ADD80C,0.11811*%
%ADD81R,0.06181X0.06181*%
%ADD82C,0.06181*%
%ADD83C,0.04528*%
%ADD84C,0.06591*%
%ADD85R,0.06910X0.06910*%
%ADD86C,0.06910*%
%ADD87C,0.08465*%
%ADD88R,0.08465X0.08465*%
%ADD89C,0.09449*%
%ADD90C,0.02991*%
%ADD91C,0.04191*%
%ADD92C,0.03391*%
G36*
X307138Y298728D02*
X301744D01*
Y302272D01*
X307138D01*
Y298728D01*
D02*
G37*
G36*
Y302665D02*
X301744D01*
Y306209D01*
X307138D01*
Y302665D01*
D02*
G37*
G36*
X306776Y371260D02*
X301382D01*
Y374803D01*
X306776D01*
Y371260D01*
D02*
G37*
G36*
Y375197D02*
X301382D01*
Y378740D01*
X306776D01*
Y375197D01*
D02*
G37*
D22*
X406700Y349976D02*
D03*
X374300Y372024D02*
D03*
X406700Y365724D02*
D03*
Y362575D02*
D03*
X374300Y353126D02*
D03*
X406700Y359425D02*
D03*
Y356276D02*
D03*
X374300Y362575D02*
D03*
Y365724D02*
D03*
Y356276D02*
D03*
Y368874D02*
D03*
Y349976D02*
D03*
X406700Y353126D02*
D03*
Y372024D02*
D03*
Y368874D02*
D03*
X374300Y359425D02*
D03*
D23*
X405472Y416000D02*
D03*
Y425016D02*
D03*
D24*
X379528Y416000D02*
D03*
D27*
X382626Y377200D02*
D03*
X379476D02*
D03*
X401524Y344800D02*
D03*
X395224Y377200D02*
D03*
Y344800D02*
D03*
X398374D02*
D03*
X382626D02*
D03*
X385776D02*
D03*
X379476D02*
D03*
X388925D02*
D03*
X392075D02*
D03*
X401524Y377200D02*
D03*
X398374D02*
D03*
X392075D02*
D03*
X388925D02*
D03*
X385776D02*
D03*
D34*
X527012Y337500D02*
D03*
Y327500D02*
D03*
Y322500D02*
D03*
Y317500D02*
D03*
X510988Y332500D02*
D03*
X527012D02*
D03*
X510988Y312500D02*
D03*
X527012D02*
D03*
X510988Y322500D02*
D03*
Y327500D02*
D03*
X527012Y342500D02*
D03*
X510988Y317500D02*
D03*
Y342500D02*
D03*
Y337500D02*
D03*
D37*
X405472Y406984D02*
D03*
D49*
X214000Y345100D02*
D03*
Y331900D02*
D03*
Y416900D02*
D03*
Y430100D02*
D03*
D54*
X415412Y345953D02*
D03*
X420912D02*
D03*
X364500Y377031D02*
D03*
X516000Y403532D02*
D03*
X509000Y403500D02*
D03*
X465000D02*
D03*
X455689Y403532D02*
D03*
X502000Y371031D02*
D03*
X420912Y342016D02*
D03*
X415412D02*
D03*
X364500Y380968D02*
D03*
X347500Y387469D02*
D03*
X358500Y342531D02*
D03*
X353000Y342500D02*
D03*
X465000Y407437D02*
D03*
X455689Y407469D02*
D03*
X347500Y383531D02*
D03*
X358500Y404000D02*
D03*
Y400000D02*
D03*
X353000Y346437D02*
D03*
X358500Y346468D02*
D03*
X502000Y374969D02*
D03*
X516000Y407469D02*
D03*
X509000Y407437D02*
D03*
D55*
X359150Y353000D02*
D03*
X352850D02*
D03*
D56*
X382500Y387327D02*
D03*
X452500Y325000D02*
D03*
X382500Y390673D02*
D03*
X452500Y328346D02*
D03*
X443500Y328173D02*
D03*
Y324827D02*
D03*
X384000Y308173D02*
D03*
X245000Y434000D02*
D03*
X244500Y351173D02*
D03*
Y347827D02*
D03*
X398500Y308673D02*
D03*
X245000Y437347D02*
D03*
X384000Y304827D02*
D03*
X398500Y305327D02*
D03*
D57*
X479800Y310197D02*
D03*
D58*
X482851Y272008D02*
D03*
X420549D02*
D03*
D59*
Y310197D02*
D03*
D60*
X426133Y313243D02*
D03*
X430464D02*
D03*
X434795D02*
D03*
X439125D02*
D03*
X443456D02*
D03*
X447787D02*
D03*
X452117D02*
D03*
X456448D02*
D03*
X460779D02*
D03*
D61*
X510815Y422990D02*
D03*
X513571D02*
D03*
X477744Y423000D02*
D03*
X474988D02*
D03*
X472232D02*
D03*
X463964D02*
D03*
X466720D02*
D03*
X452941D02*
D03*
X458453D02*
D03*
X433649Y423008D02*
D03*
X461208Y423000D02*
D03*
X455697D02*
D03*
X447429D02*
D03*
X480500D02*
D03*
X469476D02*
D03*
X486012D02*
D03*
X483256D02*
D03*
X502547D02*
D03*
X499791D02*
D03*
X497035D02*
D03*
X494279D02*
D03*
X491523D02*
D03*
X488768D02*
D03*
X450185D02*
D03*
X505303D02*
D03*
X508059Y422994D02*
D03*
X441917Y423000D02*
D03*
X444673D02*
D03*
X436405D02*
D03*
X439161D02*
D03*
D62*
X502500Y403296D02*
D03*
Y406704D02*
D03*
D63*
X532811Y364618D02*
D03*
X509189D02*
D03*
Y379382D02*
D03*
X532811D02*
D03*
D64*
X448000Y328311D02*
D03*
Y324689D02*
D03*
D65*
X402000Y444457D02*
D03*
X306000Y397543D02*
D03*
X316000D02*
D03*
X306500Y325043D02*
D03*
X316500D02*
D03*
X306000Y390457D02*
D03*
X306500Y317957D02*
D03*
X316500D02*
D03*
X316000Y390457D02*
D03*
X402000Y451543D02*
D03*
D66*
X390417Y435500D02*
D03*
X216083Y403500D02*
D03*
X392583Y435500D02*
D03*
X216083Y318500D02*
D03*
X213917D02*
D03*
Y403500D02*
D03*
D67*
X366453Y456740D02*
D03*
X375547Y453000D02*
D03*
Y456740D02*
D03*
Y449260D02*
D03*
X366453D02*
D03*
Y453000D02*
D03*
D68*
X357500Y432047D02*
D03*
X245000Y394047D02*
D03*
X384000Y288047D02*
D03*
X398500D02*
D03*
X244500Y308000D02*
D03*
X384000Y293953D02*
D03*
X398500D02*
D03*
X245000Y399953D02*
D03*
X244500Y313906D02*
D03*
X357500Y437953D02*
D03*
D69*
X355153Y408500D02*
D03*
X490673Y408000D02*
D03*
X477153D02*
D03*
X431173Y369000D02*
D03*
X431327Y321500D02*
D03*
X421673Y386500D02*
D03*
Y375000D02*
D03*
X434673Y321500D02*
D03*
X480500Y408000D02*
D03*
X358500Y408500D02*
D03*
X409173Y386500D02*
D03*
X405827D02*
D03*
X418327D02*
D03*
Y369000D02*
D03*
X421673D02*
D03*
X427827D02*
D03*
X418327Y375000D02*
D03*
X487327Y408000D02*
D03*
D70*
X356000Y370000D02*
D03*
X347338Y376890D02*
D03*
X356000D02*
D03*
X347338Y370000D02*
D03*
D71*
X309984Y369291D02*
D03*
X310347Y296760D02*
D03*
X309984Y380709D02*
D03*
X310347Y308177D02*
D03*
X312315D02*
D03*
X311953Y380709D02*
D03*
Y369291D02*
D03*
X312315Y296760D02*
D03*
D72*
X226063Y396260D02*
D03*
X227563Y310260D02*
D03*
X233937Y400000D02*
D03*
X226063Y403740D02*
D03*
X235437Y314000D02*
D03*
X227563Y317740D02*
D03*
D73*
X354969Y307500D02*
D03*
X351031D02*
D03*
X430031Y406500D02*
D03*
X444969D02*
D03*
X441032D02*
D03*
X433968D02*
D03*
X368531Y467000D02*
D03*
X372468D02*
D03*
D74*
X360882Y297311D02*
D03*
Y273689D02*
D03*
X346118Y297311D02*
D03*
Y273689D02*
D03*
D75*
X312000Y359335D02*
D03*
X312500Y287917D02*
D03*
X358500Y414500D02*
D03*
X312500Y290083D02*
D03*
X312000Y361500D02*
D03*
X358500Y416665D02*
D03*
Y423500D02*
D03*
Y425665D02*
D03*
D76*
X404106Y435500D02*
D03*
X409894D02*
D03*
D77*
X314709Y372047D02*
D03*
Y374016D02*
D03*
Y375984D02*
D03*
Y377953D02*
D03*
X315071Y305421D02*
D03*
Y303453D02*
D03*
Y301484D02*
D03*
Y299516D02*
D03*
D78*
X392500Y449287D02*
D03*
Y451500D02*
D03*
D79*
Y462677D02*
D03*
Y472323D02*
D03*
D80*
X313500Y476898D02*
D03*
X525000Y452500D02*
D03*
X508000Y265500D02*
D03*
X185000D02*
D03*
X316500D02*
D03*
X344000Y485000D02*
D03*
X185000D02*
D03*
X214000Y477508D02*
D03*
X213500Y273102D02*
D03*
D81*
X313500Y459890D02*
D03*
X214000Y460500D02*
D03*
X213500Y290110D02*
D03*
D82*
X313500Y448079D02*
D03*
X214000Y448689D02*
D03*
X213500Y301921D02*
D03*
D83*
X463700Y271100D02*
D03*
X432300D02*
D03*
D84*
X533000Y287000D02*
D03*
Y267000D02*
D03*
Y277000D02*
D03*
Y297000D02*
D03*
Y420000D02*
D03*
Y410000D02*
D03*
Y400000D02*
D03*
Y430000D02*
D03*
D85*
X437000Y382500D02*
D03*
D86*
X447000D02*
D03*
X457000D02*
D03*
X467000D02*
D03*
D87*
X272843Y437335D02*
D03*
Y451114D02*
D03*
X263000Y437335D02*
D03*
Y451114D02*
D03*
Y414500D02*
D03*
X272843D02*
D03*
Y400721D02*
D03*
X273421Y300803D02*
D03*
Y314583D02*
D03*
X263579D02*
D03*
Y337417D02*
D03*
X273421D02*
D03*
X263579Y351197D02*
D03*
X273421D02*
D03*
D88*
X263000Y400721D02*
D03*
X263579Y300803D02*
D03*
D89*
X267921Y425917D02*
D03*
X268500Y326000D02*
D03*
D90*
X386500Y439500D02*
D03*
X354000Y382500D02*
D03*
X410500Y407000D02*
D03*
X382500Y394500D02*
D03*
X306500Y365000D02*
D03*
X415500Y350000D02*
D03*
X364000Y353000D02*
D03*
X447500Y320500D02*
D03*
X443500Y332272D02*
D03*
X456500Y332000D02*
D03*
X428000Y325000D02*
D03*
X461500Y343000D02*
D03*
X434000Y331000D02*
D03*
X439000Y320000D02*
D03*
X512500Y414500D02*
D03*
X475000Y414000D02*
D03*
X498000Y403000D02*
D03*
X453000Y414500D02*
D03*
X465500D02*
D03*
X458500D02*
D03*
X429647Y413647D02*
D03*
X512500Y399500D02*
D03*
X536500Y331500D02*
D03*
X460500Y399969D02*
D03*
X448000Y332500D02*
D03*
X415456Y337544D02*
D03*
X395500Y444500D02*
D03*
X366500Y462500D02*
D03*
X351000Y408500D02*
D03*
X311000Y402500D02*
D03*
X352500Y387500D02*
D03*
X221000Y396500D02*
D03*
X401500Y338500D02*
D03*
X356000Y364500D02*
D03*
Y338000D02*
D03*
X398500Y282000D02*
D03*
X384000D02*
D03*
X311500Y330000D02*
D03*
X308500Y292000D02*
D03*
X222500Y310500D02*
D03*
X495000Y408000D02*
D03*
X473000D02*
D03*
X460500Y408968D02*
D03*
X535500Y317500D02*
D03*
X432500Y365000D02*
D03*
X426000Y386500D02*
D03*
X381500Y453000D02*
D03*
X311000Y385500D02*
D03*
X332500Y383000D02*
D03*
X426000Y375000D02*
D03*
X339500Y359500D02*
D03*
X316500D02*
D03*
X329500Y297000D02*
D03*
Y313000D02*
D03*
X311500D02*
D03*
X367500Y338000D02*
D03*
X427500Y349500D02*
D03*
X460500Y394500D02*
D03*
X480500Y401000D02*
D03*
X395224Y385224D02*
D03*
X482500Y375000D02*
D03*
X345500Y348000D02*
D03*
X536500Y342500D02*
D03*
X500500Y337500D02*
D03*
X377000Y338000D02*
D03*
X351000Y318000D02*
D03*
X414000Y377000D02*
D03*
X478000Y359000D02*
D03*
X487500Y404000D02*
D03*
X425500Y397500D02*
D03*
X288500Y312000D02*
D03*
X292000D02*
D03*
X299000D02*
D03*
X295500D02*
D03*
Y308500D02*
D03*
X299000D02*
D03*
X292000D02*
D03*
X288500D02*
D03*
Y315500D02*
D03*
X292000D02*
D03*
X299000D02*
D03*
X295500D02*
D03*
Y319000D02*
D03*
X299000D02*
D03*
X292000D02*
D03*
X288500D02*
D03*
Y322500D02*
D03*
X292000D02*
D03*
X299000D02*
D03*
X295500D02*
D03*
X288000Y384500D02*
D03*
X291500D02*
D03*
X298500D02*
D03*
X295000D02*
D03*
Y381000D02*
D03*
X298500D02*
D03*
X291500D02*
D03*
X288000D02*
D03*
Y388000D02*
D03*
X291500D02*
D03*
X298500D02*
D03*
X295000D02*
D03*
Y391500D02*
D03*
X298500D02*
D03*
X291500D02*
D03*
X288000D02*
D03*
Y395000D02*
D03*
X291500D02*
D03*
X298500D02*
D03*
X295000D02*
D03*
X349000Y456000D02*
D03*
X352500D02*
D03*
X345500D02*
D03*
X342000D02*
D03*
Y452500D02*
D03*
X345500D02*
D03*
X352500D02*
D03*
X349000D02*
D03*
Y449000D02*
D03*
X352500D02*
D03*
X345500D02*
D03*
X342000D02*
D03*
Y442000D02*
D03*
X345500D02*
D03*
X352500D02*
D03*
X349000D02*
D03*
Y445500D02*
D03*
X352500D02*
D03*
X345500D02*
D03*
X342000D02*
D03*
D91*
X352000Y432000D02*
D03*
X488000Y307000D02*
D03*
X502118Y364618D02*
D03*
X489500Y272000D02*
D03*
X414000Y293000D02*
D03*
X245000Y386000D02*
D03*
X367000Y285500D02*
D03*
X244500Y299500D02*
D03*
D92*
X367000Y400000D02*
D03*
X374500Y382000D02*
D03*
X367000Y356500D02*
D03*
M02*
