G04*
G04 #@! TF.GenerationSoftware,Altium Limited,Altium Designer,25.8.1 (18)*
G04*
G04 Layer_Color=255*
%FSLAX25Y25*%
%MOIN*%
G70*
G04*
G04 #@! TF.SameCoordinates,BD6C6330-6F5E-4E75-AD65-D1E33E9A6F4C*
G04*
G04*
G04 #@! TF.FilePolarity,Positive*
G04*
G01*
G75*
%ADD80C,0.11811*%
%ADD81R,0.06181X0.06181*%
%ADD82C,0.06181*%
%ADD87C,0.08465*%
%ADD88R,0.08465X0.08465*%
%ADD89C,0.09449*%
%ADD98C,0.03937*%
%ADD99C,0.06000*%
%ADD100R,0.06319X0.06319*%
%ADD101C,0.06319*%
D80*
X313500Y476898D02*
D03*
X525000Y452500D02*
D03*
X508000Y265500D02*
D03*
X185000D02*
D03*
X316500D02*
D03*
X344000Y485000D02*
D03*
X185000D02*
D03*
X214000Y477508D02*
D03*
X213500Y273102D02*
D03*
D81*
X313500Y459890D02*
D03*
X214000Y460500D02*
D03*
X213500Y290110D02*
D03*
D82*
X313500Y448079D02*
D03*
X214000Y448689D02*
D03*
X213500Y301921D02*
D03*
D87*
X272843Y437335D02*
D03*
Y451114D02*
D03*
X263000Y437335D02*
D03*
Y451114D02*
D03*
Y414500D02*
D03*
X272843D02*
D03*
Y400721D02*
D03*
X273421Y300803D02*
D03*
Y314583D02*
D03*
X263579D02*
D03*
Y337417D02*
D03*
X273421D02*
D03*
X263579Y351197D02*
D03*
X273421D02*
D03*
D88*
X263000Y400721D02*
D03*
X263579Y300803D02*
D03*
D89*
X267921Y425917D02*
D03*
X268500Y326000D02*
D03*
D98*
X463700Y271100D02*
D03*
X432300D02*
D03*
D99*
X533000Y287000D02*
D03*
Y267000D02*
D03*
Y277000D02*
D03*
Y297000D02*
D03*
Y420000D02*
D03*
Y410000D02*
D03*
Y400000D02*
D03*
Y430000D02*
D03*
D100*
X437000Y382500D02*
D03*
D101*
X447000D02*
D03*
X457000D02*
D03*
X467000D02*
D03*
M02*
