G04*
G04 #@! TF.GenerationSoftware,Altium Limited,Altium Designer,25.8.1 (18)*
G04*
G04 Layer_Physical_Order=3*
G04 Layer_Color=16440176*
%FSLAX25Y25*%
%MOIN*%
G70*
G04*
G04 #@! TF.SameCoordinates,5416C298-7F67-47E7-9347-BB7475E64482*
G04*
G04*
G04 #@! TF.FilePolarity,Positive*
G04*
G01*
G75*
%ADD80C,0.19685*%
%ADD82C,0.11811*%
%ADD83R,0.06181X0.06181*%
%ADD84C,0.06181*%
%ADD88C,0.08465*%
%ADD89R,0.08465X0.08465*%
%ADD90C,0.09449*%
%ADD92C,0.03600*%
%ADD96C,0.01200*%
%ADD99C,0.03937*%
%ADD100C,0.06000*%
%ADD102C,0.06319*%
%ADD103C,0.02400*%
%ADD104C,0.02800*%
G36*
X280500Y329000D02*
X273031D01*
X272841Y329331D01*
X271831Y330341D01*
X270594Y331055D01*
X269214Y331424D01*
X267786D01*
X266406Y331055D01*
X265169Y330341D01*
X264159Y329331D01*
X263968Y329000D01*
X235656D01*
X220500Y317171D01*
Y283500D01*
X206500D01*
Y326660D01*
X226750Y344750D01*
X254771Y358500D01*
X280500D01*
Y329000D01*
D02*
G37*
G36*
X220500Y449625D02*
X223500Y447000D01*
X245000D01*
X259745Y459000D01*
X279475Y459000D01*
X279526Y429748D01*
X279278Y429500D01*
X272010D01*
X271252Y430258D01*
X270015Y430972D01*
X268635Y431342D01*
X267207D01*
X265827Y430972D01*
X264591Y430258D01*
X263833Y429500D01*
X260750D01*
X250686Y434532D01*
X217000Y435000D01*
X207500Y444500D01*
Y466500D01*
X220500D01*
Y449625D01*
D02*
G37*
G36*
X355500Y461050D02*
Y441000D01*
X328500D01*
X322500Y435000D01*
X322000Y317500D01*
X308435Y305500D01*
X284000D01*
Y327000D01*
X302400D01*
X309000Y332077D01*
Y358500D01*
Y367000D01*
Y379000D01*
X283500D01*
Y401000D01*
X301303Y401000D01*
X306588Y404574D01*
Y465000D01*
X348411D01*
X355500Y461050D01*
D02*
G37*
G36*
X498500Y404895D02*
X498358Y404800D01*
X497642D01*
X496980Y404526D01*
X496474Y404020D01*
X496200Y403358D01*
Y402642D01*
X496474Y401980D01*
X496980Y401474D01*
X497642Y401200D01*
X498358D01*
X498500Y401105D01*
Y390117D01*
X460000Y369617D01*
Y344046D01*
X459974Y344020D01*
X459700Y343358D01*
Y342642D01*
X459974Y341980D01*
X460000Y341954D01*
Y316500D01*
X423338D01*
X422000Y344000D01*
X345000Y344500D01*
X345000Y336000D01*
X336000D01*
Y376167D01*
X329000Y380250D01*
Y386500D01*
X350966D01*
X350974Y386480D01*
X351480Y385974D01*
X352142Y385700D01*
X352858D01*
X353520Y385974D01*
X354026Y386480D01*
X354034Y386500D01*
X377577D01*
X381000Y382401D01*
Y367000D01*
X386000Y361000D01*
X416500D01*
X423338Y391000D01*
X456500D01*
Y412000D01*
X498500D01*
Y404895D01*
D02*
G37*
%LPC*%
G36*
X213986Y305612D02*
X213014D01*
X212075Y305360D01*
X211234Y304874D01*
X210547Y304187D01*
X210061Y303346D01*
X209809Y302407D01*
Y301435D01*
X210061Y300497D01*
X210547Y299655D01*
X211234Y298968D01*
X212075Y298482D01*
X213014Y298231D01*
X213986D01*
X214925Y298482D01*
X215766Y298968D01*
X216453Y299655D01*
X216939Y300497D01*
X217191Y301435D01*
Y302407D01*
X216939Y303346D01*
X216453Y304187D01*
X215766Y304874D01*
X214925Y305360D01*
X213986Y305612D01*
D02*
G37*
G36*
X214486Y452380D02*
X213514D01*
X212576Y452128D01*
X211734Y451642D01*
X211047Y450955D01*
X210561Y450113D01*
X210310Y449175D01*
Y448203D01*
X210561Y447264D01*
X211047Y446423D01*
X211734Y445736D01*
X212576Y445250D01*
X213514Y444998D01*
X214486D01*
X215424Y445250D01*
X216266Y445736D01*
X216953Y446423D01*
X217439Y447264D01*
X217690Y448203D01*
Y449175D01*
X217439Y450113D01*
X216953Y450955D01*
X216266Y451642D01*
X215424Y452128D01*
X214486Y452380D01*
D02*
G37*
G36*
X313986Y451769D02*
X313014D01*
X312075Y451518D01*
X311234Y451032D01*
X310547Y450345D01*
X310061Y449503D01*
X309809Y448565D01*
Y447593D01*
X310061Y446654D01*
X310547Y445813D01*
X311234Y445126D01*
X312075Y444640D01*
X313014Y444388D01*
X313986D01*
X314925Y444640D01*
X315766Y445126D01*
X316453Y445813D01*
X316939Y446654D01*
X317191Y447593D01*
Y448565D01*
X316939Y449503D01*
X316453Y450345D01*
X315766Y451032D01*
X314925Y451518D01*
X313986Y451769D01*
D02*
G37*
G36*
X311358Y404300D02*
X310642D01*
X309980Y404026D01*
X309474Y403520D01*
X309200Y402858D01*
Y402142D01*
X309474Y401480D01*
X309980Y400974D01*
X310642Y400700D01*
X311358D01*
X312020Y400974D01*
X312526Y401480D01*
X312800Y402142D01*
Y402858D01*
X312526Y403520D01*
X312020Y404026D01*
X311358Y404300D01*
D02*
G37*
G36*
Y387300D02*
X310642D01*
X309980Y387026D01*
X309474Y386520D01*
X309200Y385858D01*
Y385142D01*
X309474Y384480D01*
X309980Y383974D01*
X310642Y383700D01*
X311358D01*
X312020Y383974D01*
X312526Y384480D01*
X312800Y385142D01*
Y385858D01*
X312526Y386520D01*
X312020Y387026D01*
X311358Y387300D01*
D02*
G37*
G36*
X319858Y361300D02*
X319142D01*
X318480Y361026D01*
X317974Y360520D01*
X317700Y359858D01*
Y359142D01*
X317974Y358480D01*
X318480Y357974D01*
X319142Y357700D01*
X319858D01*
X320520Y357974D01*
X321026Y358480D01*
X321300Y359142D01*
Y359858D01*
X321026Y360520D01*
X320520Y361026D01*
X319858Y361300D01*
D02*
G37*
G36*
X311858Y331800D02*
X311142D01*
X310480Y331526D01*
X309974Y331020D01*
X309700Y330358D01*
Y329642D01*
X309974Y328980D01*
X310480Y328474D01*
X311142Y328200D01*
X311858D01*
X312520Y328474D01*
X313026Y328980D01*
X313300Y329642D01*
Y330358D01*
X313026Y331020D01*
X312520Y331526D01*
X311858Y331800D01*
D02*
G37*
G36*
Y314800D02*
X311142D01*
X310480Y314526D01*
X309974Y314020D01*
X309700Y313358D01*
Y312642D01*
X309974Y311980D01*
X310480Y311474D01*
X311142Y311200D01*
X311858D01*
X312520Y311474D01*
X313026Y311980D01*
X313300Y312642D01*
Y313358D01*
X313026Y314020D01*
X312520Y314526D01*
X311858Y314800D01*
D02*
G37*
G36*
X461000Y411143D02*
Y409469D01*
X462674D01*
X462365Y410215D01*
X461746Y410834D01*
X461000Y411143D01*
D02*
G37*
G36*
X460000D02*
X459254Y410834D01*
X458635Y410215D01*
X458326Y409469D01*
X460000D01*
Y411143D01*
D02*
G37*
G36*
X495500Y410174D02*
Y408500D01*
X497174D01*
X496865Y409246D01*
X496246Y409865D01*
X495500Y410174D01*
D02*
G37*
G36*
X494500D02*
X493754Y409865D01*
X493135Y409246D01*
X492826Y408500D01*
X494500D01*
Y410174D01*
D02*
G37*
G36*
X473500D02*
Y408500D01*
X475174D01*
X474865Y409246D01*
X474246Y409865D01*
X473500Y410174D01*
D02*
G37*
G36*
X472500D02*
X471754Y409865D01*
X471135Y409246D01*
X470826Y408500D01*
X472500D01*
Y410174D01*
D02*
G37*
G36*
X462674Y408468D02*
X461000D01*
Y406794D01*
X461746Y407103D01*
X462365Y407722D01*
X462674Y408468D01*
D02*
G37*
G36*
X460000D02*
X458326D01*
X458635Y407722D01*
X459254Y407103D01*
X460000Y406794D01*
Y408468D01*
D02*
G37*
G36*
X497174Y407500D02*
X495500D01*
Y405826D01*
X496246Y406135D01*
X496865Y406754D01*
X497174Y407500D01*
D02*
G37*
G36*
X494500D02*
X492826D01*
X493135Y406754D01*
X493754Y406135D01*
X494500Y405826D01*
Y407500D01*
D02*
G37*
G36*
X475174D02*
X473500D01*
Y405826D01*
X474246Y406135D01*
X474865Y406754D01*
X475174Y407500D01*
D02*
G37*
G36*
X472500D02*
X470826D01*
X471135Y406754D01*
X471754Y406135D01*
X472500Y405826D01*
Y407500D01*
D02*
G37*
G36*
X487858Y405800D02*
X487142D01*
X486480Y405526D01*
X485974Y405020D01*
X485700Y404358D01*
Y403642D01*
X485974Y402980D01*
X486480Y402474D01*
X487142Y402200D01*
X487858D01*
X488520Y402474D01*
X489026Y402980D01*
X489300Y403642D01*
Y404358D01*
X489026Y405020D01*
X488520Y405526D01*
X487858Y405800D01*
D02*
G37*
G36*
X480858Y402800D02*
X480142D01*
X479480Y402526D01*
X478974Y402020D01*
X478700Y401358D01*
Y400642D01*
X478974Y399980D01*
X479480Y399474D01*
X480142Y399200D01*
X480858D01*
X481520Y399474D01*
X482026Y399980D01*
X482300Y400642D01*
Y401358D01*
X482026Y402020D01*
X481520Y402526D01*
X480858Y402800D01*
D02*
G37*
G36*
X460858Y402300D02*
X460142D01*
X459480Y402026D01*
X458974Y401520D01*
X458700Y400858D01*
Y400142D01*
X458974Y399480D01*
X459480Y398974D01*
X460142Y398700D01*
X460858D01*
X461520Y398974D01*
X462026Y399480D01*
X462300Y400142D01*
Y400858D01*
X462026Y401520D01*
X461520Y402026D01*
X460858Y402300D01*
D02*
G37*
G36*
Y396300D02*
X460142D01*
X459480Y396026D01*
X458974Y395520D01*
X458700Y394858D01*
Y394142D01*
X458974Y393480D01*
X459480Y392974D01*
X460142Y392700D01*
X460858D01*
X461520Y392974D01*
X462026Y393480D01*
X462300Y394142D01*
Y394858D01*
X462026Y395520D01*
X461520Y396026D01*
X460858Y396300D01*
D02*
G37*
G36*
X426500Y388674D02*
Y387000D01*
X428174D01*
X427865Y387746D01*
X427246Y388365D01*
X426500Y388674D01*
D02*
G37*
G36*
X425500D02*
X424754Y388365D01*
X424135Y387746D01*
X423826Y387000D01*
X425500D01*
Y388674D01*
D02*
G37*
G36*
X428174Y386000D02*
X426500D01*
Y384326D01*
X427246Y384635D01*
X427865Y385254D01*
X428174Y386000D01*
D02*
G37*
G36*
X425500D02*
X423826D01*
X424135Y385254D01*
X424754Y384635D01*
X425500Y384326D01*
Y386000D01*
D02*
G37*
G36*
X333000Y385174D02*
Y383500D01*
X334674D01*
X334365Y384246D01*
X333746Y384865D01*
X333000Y385174D01*
D02*
G37*
G36*
X332000D02*
X331254Y384865D01*
X330635Y384246D01*
X330326Y383500D01*
X332000D01*
Y385174D01*
D02*
G37*
G36*
X447548Y386660D02*
X447500D01*
Y383000D01*
X451159D01*
Y383048D01*
X450876Y384105D01*
X450328Y385054D01*
X449554Y385828D01*
X448605Y386376D01*
X447548Y386660D01*
D02*
G37*
G36*
X446500D02*
X446452D01*
X445395Y386376D01*
X444446Y385828D01*
X443672Y385054D01*
X443124Y384105D01*
X442840Y383048D01*
Y383000D01*
X446500D01*
Y386660D01*
D02*
G37*
G36*
X354500Y384674D02*
Y383000D01*
X356174D01*
X355865Y383746D01*
X355246Y384365D01*
X354500Y384674D01*
D02*
G37*
G36*
X353500D02*
X352754Y384365D01*
X352135Y383746D01*
X351826Y383000D01*
X353500D01*
Y384674D01*
D02*
G37*
G36*
X334674Y382500D02*
X333000D01*
Y380826D01*
X333746Y381135D01*
X334365Y381754D01*
X334674Y382500D01*
D02*
G37*
G36*
X332000D02*
X330326D01*
X330635Y381754D01*
X331254Y381135D01*
X332000Y380826D01*
Y382500D01*
D02*
G37*
G36*
X356174Y382000D02*
X354500D01*
Y380326D01*
X355246Y380635D01*
X355865Y381254D01*
X356174Y382000D01*
D02*
G37*
G36*
X353500D02*
X351826D01*
X352135Y381254D01*
X352754Y380635D01*
X353500Y380326D01*
Y382000D01*
D02*
G37*
G36*
X467495Y386260D02*
X466505D01*
X465549Y386003D01*
X464692Y385508D01*
X463992Y384808D01*
X463497Y383951D01*
X463240Y382995D01*
Y382005D01*
X463497Y381049D01*
X463992Y380192D01*
X464692Y379492D01*
X465549Y378997D01*
X466505Y378741D01*
X467495D01*
X468451Y378997D01*
X469308Y379492D01*
X470008Y380192D01*
X470503Y381049D01*
X470759Y382005D01*
Y382995D01*
X470503Y383951D01*
X470008Y384808D01*
X469308Y385508D01*
X468451Y386003D01*
X467495Y386260D01*
D02*
G37*
G36*
X457495D02*
X456505D01*
X455549Y386003D01*
X454692Y385508D01*
X453992Y384808D01*
X453497Y383951D01*
X453240Y382995D01*
Y382005D01*
X453497Y381049D01*
X453992Y380192D01*
X454692Y379492D01*
X455549Y378997D01*
X456505Y378741D01*
X457495D01*
X458451Y378997D01*
X459308Y379492D01*
X460008Y380192D01*
X460503Y381049D01*
X460759Y382005D01*
Y382995D01*
X460503Y383951D01*
X460008Y384808D01*
X459308Y385508D01*
X458451Y386003D01*
X457495Y386260D01*
D02*
G37*
G36*
X437495D02*
X436505D01*
X435549Y386003D01*
X434692Y385508D01*
X433992Y384808D01*
X433497Y383951D01*
X433241Y382995D01*
Y382005D01*
X433497Y381049D01*
X433992Y380192D01*
X434692Y379492D01*
X435549Y378997D01*
X436505Y378741D01*
X437495D01*
X438451Y378997D01*
X439308Y379492D01*
X440008Y380192D01*
X440503Y381049D01*
X440760Y382005D01*
Y382995D01*
X440503Y383951D01*
X440008Y384808D01*
X439308Y385508D01*
X438451Y386003D01*
X437495Y386260D01*
D02*
G37*
G36*
X451159Y382000D02*
X447500D01*
Y378341D01*
X447548D01*
X448605Y378624D01*
X449554Y379172D01*
X450328Y379946D01*
X450876Y380894D01*
X451159Y381952D01*
Y382000D01*
D02*
G37*
G36*
X446500D02*
X442840D01*
Y381952D01*
X443124Y380894D01*
X443672Y379946D01*
X444446Y379172D01*
X445395Y378624D01*
X446452Y378341D01*
X446500D01*
Y382000D01*
D02*
G37*
G36*
X426500Y377174D02*
Y375500D01*
X428174D01*
X427865Y376246D01*
X427246Y376865D01*
X426500Y377174D01*
D02*
G37*
G36*
X425500D02*
X424754Y376865D01*
X424135Y376246D01*
X423826Y375500D01*
X425500D01*
Y377174D01*
D02*
G37*
G36*
X428174Y374500D02*
X426500D01*
Y372826D01*
X427246Y373135D01*
X427865Y373754D01*
X428174Y374500D01*
D02*
G37*
G36*
X425500D02*
X423826D01*
X424135Y373754D01*
X424754Y373135D01*
X425500Y372826D01*
Y374500D01*
D02*
G37*
G36*
X433000Y367174D02*
Y365500D01*
X434674D01*
X434365Y366246D01*
X433746Y366865D01*
X433000Y367174D01*
D02*
G37*
G36*
X432000D02*
X431254Y366865D01*
X430635Y366246D01*
X430326Y365500D01*
X432000D01*
Y367174D01*
D02*
G37*
G36*
X434674Y364500D02*
X433000D01*
Y362826D01*
X433746Y363135D01*
X434365Y363754D01*
X434674Y364500D01*
D02*
G37*
G36*
X432000D02*
X430326D01*
X430635Y363754D01*
X431254Y363135D01*
X432000Y362826D01*
Y364500D01*
D02*
G37*
G36*
X356358Y366300D02*
X355642D01*
X354980Y366026D01*
X354474Y365520D01*
X354200Y364858D01*
Y364142D01*
X354474Y363480D01*
X354980Y362974D01*
X355642Y362700D01*
X356358D01*
X357020Y362974D01*
X357526Y363480D01*
X357800Y364142D01*
Y364858D01*
X357526Y365520D01*
X357020Y366026D01*
X356358Y366300D01*
D02*
G37*
G36*
X340000Y361674D02*
Y360000D01*
X341674D01*
X341365Y360746D01*
X340746Y361365D01*
X340000Y361674D01*
D02*
G37*
G36*
X339000D02*
X338254Y361365D01*
X337635Y360746D01*
X337326Y360000D01*
X339000D01*
Y361674D01*
D02*
G37*
G36*
X341674Y359000D02*
X340000D01*
Y357326D01*
X340746Y357635D01*
X341365Y358254D01*
X341674Y359000D01*
D02*
G37*
G36*
X339000D02*
X337326D01*
X337635Y358254D01*
X338254Y357635D01*
X339000Y357326D01*
Y359000D01*
D02*
G37*
G36*
X374898Y384000D02*
X374102D01*
X373367Y383696D01*
X372804Y383133D01*
X372500Y382398D01*
Y381602D01*
X372804Y380867D01*
X373276Y380395D01*
Y359507D01*
X369030Y355260D01*
X368734Y355459D01*
X369000Y356102D01*
Y356898D01*
X368695Y357633D01*
X368133Y358195D01*
X367398Y358500D01*
X366602D01*
X365867Y358195D01*
X365304Y357633D01*
X365000Y356898D01*
Y356102D01*
X365304Y355367D01*
X365867Y354804D01*
X366425Y354573D01*
X366355Y354223D01*
X365322D01*
X365020Y354526D01*
X364358Y354800D01*
X363642D01*
X362980Y354526D01*
X362474Y354020D01*
X362200Y353358D01*
Y352642D01*
X362474Y351980D01*
X362980Y351474D01*
X363642Y351200D01*
X364358D01*
X365020Y351474D01*
X365322Y351777D01*
X368500D01*
X368968Y351870D01*
X369365Y352135D01*
X374500Y357270D01*
X379635Y352135D01*
X380032Y351870D01*
X380500Y351777D01*
X411993D01*
X413700Y350070D01*
Y349642D01*
X413974Y348980D01*
X414480Y348474D01*
X415142Y348200D01*
X415858D01*
X416520Y348474D01*
X417026Y348980D01*
X417300Y349642D01*
Y350358D01*
X417026Y351020D01*
X416520Y351526D01*
X415858Y351800D01*
X415430D01*
X413365Y353865D01*
X412968Y354130D01*
X412500Y354223D01*
X381007D01*
X375724Y359507D01*
Y380395D01*
X376196Y380867D01*
X376500Y381602D01*
Y382398D01*
X376196Y383133D01*
X375633Y383696D01*
X374898Y384000D01*
D02*
G37*
G36*
X427858Y351300D02*
X427142D01*
X426480Y351026D01*
X425974Y350520D01*
X425700Y349858D01*
Y349142D01*
X425974Y348480D01*
X426480Y347974D01*
X427142Y347700D01*
X427858D01*
X428520Y347974D01*
X429026Y348480D01*
X429300Y349142D01*
Y349858D01*
X429026Y350520D01*
X428520Y351026D01*
X427858Y351300D01*
D02*
G37*
G36*
X345858Y349800D02*
X345142D01*
X344480Y349526D01*
X343974Y349020D01*
X343700Y348358D01*
Y347642D01*
X343974Y346980D01*
X344480Y346474D01*
X345142Y346200D01*
X345858D01*
X346520Y346474D01*
X347026Y346980D01*
X347300Y347642D01*
Y348358D01*
X347026Y349020D01*
X346520Y349526D01*
X345858Y349800D01*
D02*
G37*
G36*
X444000Y334446D02*
Y332772D01*
X445674D01*
X445365Y333518D01*
X444746Y334137D01*
X444000Y334446D01*
D02*
G37*
G36*
X443000D02*
X442254Y334137D01*
X441635Y333518D01*
X441326Y332772D01*
X443000D01*
Y334446D01*
D02*
G37*
G36*
X456000Y334174D02*
Y332500D01*
X457674D01*
X457365Y333246D01*
X456746Y333865D01*
X456000Y334174D01*
D02*
G37*
G36*
X455000D02*
X454254Y333865D01*
X453635Y333246D01*
X453326Y332500D01*
X455000D01*
Y334174D01*
D02*
G37*
G36*
X448358Y334300D02*
X447642D01*
X446980Y334026D01*
X446474Y333520D01*
X446200Y332858D01*
Y332142D01*
X446474Y331480D01*
X446980Y330974D01*
X447642Y330700D01*
X448358D01*
X449020Y330974D01*
X449526Y331480D01*
X449800Y332142D01*
Y332858D01*
X449526Y333520D01*
X449020Y334026D01*
X448358Y334300D01*
D02*
G37*
G36*
X445674Y331772D02*
X444000D01*
Y330098D01*
X444746Y330407D01*
X445365Y331026D01*
X445674Y331772D01*
D02*
G37*
G36*
X443000D02*
X441326D01*
X441635Y331026D01*
X442254Y330407D01*
X443000Y330098D01*
Y331772D01*
D02*
G37*
G36*
X457674Y331500D02*
X456000D01*
Y329826D01*
X456746Y330135D01*
X457365Y330754D01*
X457674Y331500D01*
D02*
G37*
G36*
X455000D02*
X453326D01*
X453635Y330754D01*
X454254Y330135D01*
X455000Y329826D01*
Y331500D01*
D02*
G37*
G36*
X434358Y332800D02*
X433642D01*
X432980Y332526D01*
X432474Y332020D01*
X432200Y331358D01*
Y330642D01*
X432474Y329980D01*
X432980Y329474D01*
X433642Y329200D01*
X434358D01*
X435020Y329474D01*
X435526Y329980D01*
X435800Y330642D01*
Y331358D01*
X435526Y332020D01*
X435020Y332526D01*
X434358Y332800D01*
D02*
G37*
G36*
X428500Y327174D02*
Y325500D01*
X430174D01*
X429865Y326246D01*
X429246Y326865D01*
X428500Y327174D01*
D02*
G37*
G36*
X427500D02*
X426754Y326865D01*
X426135Y326246D01*
X425826Y325500D01*
X427500D01*
Y327174D01*
D02*
G37*
G36*
X430174Y324500D02*
X428500D01*
Y322826D01*
X429246Y323135D01*
X429865Y323754D01*
X430174Y324500D01*
D02*
G37*
G36*
X427500D02*
X425826D01*
X426135Y323754D01*
X426754Y323135D01*
X427500Y322826D01*
Y324500D01*
D02*
G37*
G36*
X448000Y322674D02*
Y321000D01*
X449674D01*
X449365Y321746D01*
X448746Y322365D01*
X448000Y322674D01*
D02*
G37*
G36*
X447000D02*
X446254Y322365D01*
X445635Y321746D01*
X445326Y321000D01*
X447000D01*
Y322674D01*
D02*
G37*
G36*
X449674Y320000D02*
X448000D01*
Y318326D01*
X448746Y318635D01*
X449365Y319254D01*
X449674Y320000D01*
D02*
G37*
G36*
X447000D02*
X445326D01*
X445635Y319254D01*
X446254Y318635D01*
X447000Y318326D01*
Y320000D01*
D02*
G37*
G36*
X439358Y321800D02*
X438642D01*
X437980Y321526D01*
X437474Y321020D01*
X437200Y320358D01*
Y319642D01*
X437474Y318980D01*
X437980Y318474D01*
X438642Y318200D01*
X439358D01*
X440020Y318474D01*
X440526Y318980D01*
X440800Y319642D01*
Y320358D01*
X440526Y321020D01*
X440020Y321526D01*
X439358Y321800D01*
D02*
G37*
%LPD*%
D80*
X185000Y485000D02*
D03*
X344000D02*
D03*
X525000Y452500D02*
D03*
X508000Y265500D02*
D03*
X185000D02*
D03*
X316500D02*
D03*
D82*
X313500Y476898D02*
D03*
X214000Y477508D02*
D03*
X213500Y273102D02*
D03*
D83*
X313500Y459890D02*
D03*
X214000Y460500D02*
D03*
X213500Y290110D02*
D03*
D84*
X313500Y448079D02*
D03*
X214000Y448689D02*
D03*
X213500Y301921D02*
D03*
D88*
X272843Y437335D02*
D03*
Y451114D02*
D03*
X263000Y437335D02*
D03*
Y451114D02*
D03*
Y414500D02*
D03*
X272843D02*
D03*
Y400721D02*
D03*
X273421Y300803D02*
D03*
Y314583D02*
D03*
X263579D02*
D03*
Y337417D02*
D03*
X273421D02*
D03*
X263579Y351197D02*
D03*
X273421D02*
D03*
D89*
X263000Y400721D02*
D03*
X263579Y300803D02*
D03*
D90*
X267921Y425917D02*
D03*
X268500Y326000D02*
D03*
D92*
X352000Y432000D02*
D03*
X488000Y307000D02*
D03*
X502118Y364618D02*
D03*
X489500Y272000D02*
D03*
X414000Y293000D02*
D03*
X245000Y386000D02*
D03*
X367000Y285500D02*
D03*
X244500Y299500D02*
D03*
D96*
X329500Y297600D02*
Y313000D01*
X372500Y414229D02*
X382900Y424629D01*
X381500Y437952D02*
X382900Y436552D01*
Y424629D02*
Y436552D01*
X381500Y437952D02*
Y453000D01*
X329500Y329500D02*
X337084Y337084D01*
X329500Y313000D02*
Y329500D01*
X372500Y385000D02*
Y414229D01*
X374500Y359000D02*
Y382000D01*
Y359000D02*
X380500Y353000D01*
X412500D01*
X364000D02*
X368500D01*
X374500Y359000D01*
X412500Y353000D02*
X415500Y350000D01*
D99*
X432300Y271100D02*
D03*
X463700D02*
D03*
D100*
X533000Y287000D02*
D03*
Y267000D02*
D03*
Y277000D02*
D03*
Y297000D02*
D03*
Y420000D02*
D03*
Y410000D02*
D03*
Y400000D02*
D03*
Y430000D02*
D03*
D102*
X437000Y382500D02*
D03*
X447000D02*
D03*
X457000D02*
D03*
X467000D02*
D03*
D103*
X353000Y447500D02*
D03*
X341000Y451500D02*
D03*
X345000D02*
D03*
X349000D02*
D03*
X341000Y455500D02*
D03*
X345000D02*
D03*
X349000D02*
D03*
X353000D02*
D03*
Y451500D02*
D03*
X341000Y447500D02*
D03*
X345000D02*
D03*
X349000D02*
D03*
X341000Y459500D02*
D03*
X345000D02*
D03*
X349000D02*
D03*
X353000D02*
D03*
X341000Y443500D02*
D03*
X345000D02*
D03*
X349000D02*
D03*
X353000D02*
D03*
X329500Y297600D02*
D03*
X307500Y292500D02*
D03*
X319500Y359500D02*
D03*
X351173Y403500D02*
D03*
X380000Y435500D02*
D03*
X399000Y438500D02*
D03*
X298500Y382000D02*
D03*
X294500D02*
D03*
X290500D02*
D03*
X286500D02*
D03*
X298500Y398000D02*
D03*
X294500D02*
D03*
X290500D02*
D03*
X286500D02*
D03*
X298500Y386000D02*
D03*
X294500D02*
D03*
X290500D02*
D03*
X286500D02*
D03*
X298500Y390000D02*
D03*
Y394000D02*
D03*
X294500D02*
D03*
X290500D02*
D03*
X286500D02*
D03*
X294500Y390000D02*
D03*
X290500D02*
D03*
X286500D02*
D03*
X298500Y308000D02*
D03*
X286500Y316000D02*
D03*
X290500D02*
D03*
X294500D02*
D03*
X286500Y320000D02*
D03*
X290500D02*
D03*
X294500D02*
D03*
X298500D02*
D03*
Y316000D02*
D03*
X286500Y312000D02*
D03*
X290500D02*
D03*
X294500D02*
D03*
X298500D02*
D03*
X286500Y324000D02*
D03*
X290500D02*
D03*
X294500D02*
D03*
X298500D02*
D03*
X286500Y308000D02*
D03*
X290500D02*
D03*
X294500D02*
D03*
X356000Y338000D02*
D03*
X398500Y282000D02*
D03*
X382500Y395500D02*
D03*
X460500Y400500D02*
D03*
Y394500D02*
D03*
X455500Y332000D02*
D03*
X414000Y378500D02*
D03*
X354000Y382500D02*
D03*
X410500Y407000D02*
D03*
X306500Y365000D02*
D03*
X415500Y350000D02*
D03*
X364000Y353000D02*
D03*
X447500Y320500D02*
D03*
X443500Y332272D02*
D03*
X428000Y325000D02*
D03*
X461500Y343000D02*
D03*
X434000Y331000D02*
D03*
X439000Y320000D02*
D03*
X512500Y414500D02*
D03*
X475000Y414000D02*
D03*
X498000Y403000D02*
D03*
X453000Y414500D02*
D03*
X465500D02*
D03*
X458500D02*
D03*
X429647Y413647D02*
D03*
X512500Y399500D02*
D03*
X536500Y331500D02*
D03*
X448000Y332500D02*
D03*
X415456Y337544D02*
D03*
X366500Y462500D02*
D03*
X311000Y402500D02*
D03*
X352500Y387500D02*
D03*
X221000Y396500D02*
D03*
X401500Y338500D02*
D03*
X356000Y364500D02*
D03*
X384000Y282000D02*
D03*
X311500Y330000D02*
D03*
X222500Y310500D02*
D03*
X495000Y408000D02*
D03*
X473000D02*
D03*
X460500Y408968D02*
D03*
X535500Y317500D02*
D03*
X432500Y365000D02*
D03*
X426000Y386500D02*
D03*
X381500Y453000D02*
D03*
X311000Y385500D02*
D03*
X332500Y383000D02*
D03*
X426000Y375000D02*
D03*
X339500Y359500D02*
D03*
X329500Y313000D02*
D03*
X311500D02*
D03*
X367500Y338000D02*
D03*
X427500Y349500D02*
D03*
X480500Y401000D02*
D03*
X395224Y385224D02*
D03*
X482500Y375000D02*
D03*
X345500Y348000D02*
D03*
X536500Y342500D02*
D03*
X500500Y337500D02*
D03*
X377000Y338000D02*
D03*
X351000Y318000D02*
D03*
X478000Y359000D02*
D03*
X487500Y404000D02*
D03*
X425500Y397500D02*
D03*
D104*
X367000Y393500D02*
D03*
X374500Y382000D02*
D03*
X367000Y356500D02*
D03*
M02*
