G04*
G04 #@! TF.GenerationSoftware,Altium Limited,Altium Designer,25.8.1 (18)*
G04*
G04 Layer_Color=255*
%FSLAX25Y25*%
%MOIN*%
G70*
G04*
G04 #@! TF.SameCoordinates,5416C298-7F67-47E7-9347-BB7475E64482*
G04*
G04*
G04 #@! TF.FilePolarity,Positive*
G04*
G01*
G75*
%ADD21R,0.01181X0.03347*%
%ADD22R,0.05000X0.03150*%
%ADD23R,0.03347X0.01181*%
G04:AMPARAMS|DCode=24|XSize=22.05mil|YSize=24.8mil|CornerRadius=2.76mil|HoleSize=0mil|Usage=FLASHONLY|Rotation=90.000|XOffset=0mil|YOffset=0mil|HoleType=Round|Shape=RoundedRectangle|*
%AMROUNDEDRECTD24*
21,1,0.02205,0.01929,0,0,90.0*
21,1,0.01654,0.02480,0,0,90.0*
1,1,0.00551,0.00965,0.00827*
1,1,0.00551,0.00965,-0.00827*
1,1,0.00551,-0.00965,-0.00827*
1,1,0.00551,-0.00965,0.00827*
%
%ADD24ROUNDEDRECTD24*%
%ADD25R,0.04016X0.04095*%
%ADD26R,0.04095X0.04016*%
%ADD27R,0.02559X0.02362*%
%ADD28R,0.02756X0.02362*%
%ADD29R,0.03937X0.04134*%
%ADD30R,0.03150X0.03150*%
%ADD31R,0.04921X0.02756*%
%ADD32R,0.06700X0.08500*%
%ADD33R,0.02756X0.05118*%
%ADD34R,0.05700X0.06500*%
%ADD35R,0.05700X0.09600*%
%ADD36R,0.07300X0.06500*%
%ADD37R,0.01380X0.11811*%
%ADD38R,0.02000X0.05800*%
%ADD39R,0.05800X0.02000*%
G04:AMPARAMS|DCode=40|XSize=39.54mil|YSize=34.34mil|CornerRadius=17.17mil|HoleSize=0mil|Usage=FLASHONLY|Rotation=180.000|XOffset=0mil|YOffset=0mil|HoleType=Round|Shape=RoundedRectangle|*
%AMROUNDEDRECTD40*
21,1,0.03954,0.00000,0,0,180.0*
21,1,0.00520,0.03434,0,0,180.0*
1,1,0.03434,-0.00260,0.00000*
1,1,0.03434,0.00260,0.00000*
1,1,0.03434,0.00260,0.00000*
1,1,0.03434,-0.00260,0.00000*
%
%ADD40ROUNDEDRECTD40*%
G04:AMPARAMS|DCode=41|XSize=39.54mil|YSize=125.28mil|CornerRadius=17.2mil|HoleSize=0mil|Usage=FLASHONLY|Rotation=180.000|XOffset=0mil|YOffset=0mil|HoleType=Round|Shape=RoundedRectangle|*
%AMROUNDEDRECTD41*
21,1,0.03954,0.09088,0,0,180.0*
21,1,0.00514,0.12528,0,0,180.0*
1,1,0.03440,-0.00257,0.04544*
1,1,0.03440,0.00257,0.04544*
1,1,0.03440,0.00257,-0.04544*
1,1,0.03440,-0.00257,-0.04544*
%
%ADD41ROUNDEDRECTD41*%
%ADD42R,0.03543X0.03937*%
%ADD43R,0.02362X0.02559*%
%ADD44R,0.03937X0.02953*%
%ADD45R,0.10984X0.02913*%
%ADD46R,0.02441X0.02362*%
%ADD47R,0.05709X0.04331*%
%ADD48R,0.03954X0.03434*%
G04:AMPARAMS|DCode=49|XSize=57.09mil|YSize=23.23mil|CornerRadius=2.9mil|HoleSize=0mil|Usage=FLASHONLY|Rotation=0.000|XOffset=0mil|YOffset=0mil|HoleType=Round|Shape=RoundedRectangle|*
%AMROUNDEDRECTD49*
21,1,0.05709,0.01742,0,0,0.0*
21,1,0.05128,0.02323,0,0,0.0*
1,1,0.00581,0.02564,-0.00871*
1,1,0.00581,-0.02564,-0.00871*
1,1,0.00581,-0.02564,0.00871*
1,1,0.00581,0.02564,0.00871*
%
%ADD49ROUNDEDRECTD49*%
%ADD50R,0.05512X0.04724*%
%ADD51R,0.02362X0.02756*%
%ADD52R,0.02953X0.03937*%
%ADD53R,0.14961X0.04724*%
%ADD80C,0.19685*%
%ADD82C,0.11811*%
%ADD83R,0.06181X0.06181*%
%ADD84C,0.06181*%
%ADD88C,0.08465*%
%ADD89R,0.08465X0.08465*%
%ADD90C,0.09449*%
%ADD94R,0.02126X0.02227*%
%ADD99C,0.03937*%
%ADD100C,0.06000*%
%ADD101R,0.06319X0.06319*%
%ADD102C,0.06319*%
D21*
X310347Y308177D02*
D03*
Y296760D02*
D03*
X312315D02*
D03*
Y308177D02*
D03*
X309984Y380709D02*
D03*
Y369291D02*
D03*
X311953D02*
D03*
Y380709D02*
D03*
D22*
X304500Y300500D02*
D03*
Y304437D02*
D03*
X304138Y373031D02*
D03*
Y376969D02*
D03*
D23*
X315071Y299516D02*
D03*
Y301484D02*
D03*
Y303453D02*
D03*
Y305421D02*
D03*
X314709Y372047D02*
D03*
Y374016D02*
D03*
Y375984D02*
D03*
Y377953D02*
D03*
D24*
X420912Y345697D02*
D03*
Y342272D02*
D03*
X455689Y407213D02*
D03*
Y403787D02*
D03*
X465000Y407181D02*
D03*
Y403756D02*
D03*
D25*
X312500Y282106D02*
D03*
Y287894D02*
D03*
X312000Y354606D02*
D03*
Y360394D02*
D03*
X358500Y415787D02*
D03*
Y410000D02*
D03*
D26*
X212106Y403500D02*
D03*
X217894D02*
D03*
X212106Y317500D02*
D03*
X217894D02*
D03*
X364394Y424000D02*
D03*
X358606D02*
D03*
X392394Y435500D02*
D03*
X386606D02*
D03*
X404106D02*
D03*
X409894D02*
D03*
D27*
X358673Y403500D02*
D03*
X355327D02*
D03*
X490673Y408000D02*
D03*
X477153D02*
D03*
X431173Y369000D02*
D03*
X431327Y321500D02*
D03*
X421673Y386500D02*
D03*
Y375000D02*
D03*
X434673Y321500D02*
D03*
X480500Y408000D02*
D03*
X409173Y386500D02*
D03*
X405827D02*
D03*
X418327D02*
D03*
X421673Y369000D02*
D03*
X418327D02*
D03*
X427827D02*
D03*
X418327Y375000D02*
D03*
X487327Y408000D02*
D03*
D28*
X358500Y398500D02*
D03*
Y346468D02*
D03*
Y342531D02*
D03*
X415412Y345953D02*
D03*
X364500Y377031D02*
D03*
X516000Y403532D02*
D03*
X509000Y403500D02*
D03*
X502000Y371031D02*
D03*
X415412Y342016D02*
D03*
X364500Y380968D02*
D03*
X347500Y387469D02*
D03*
X353000Y342500D02*
D03*
X347500Y383531D02*
D03*
X358500Y393500D02*
D03*
X353000Y346437D02*
D03*
X502000Y374969D02*
D03*
X516000Y407469D02*
D03*
X509000Y407437D02*
D03*
D29*
X392500Y447441D02*
D03*
Y453346D02*
D03*
D30*
X357500Y437953D02*
D03*
Y432047D02*
D03*
X245000Y394047D02*
D03*
X384000Y288047D02*
D03*
X398500D02*
D03*
X244500Y308000D02*
D03*
X384000Y293953D02*
D03*
X398500D02*
D03*
X245000Y399953D02*
D03*
X244500Y313906D02*
D03*
D31*
X227563Y317740D02*
D03*
Y310260D02*
D03*
X235437Y314000D02*
D03*
X226063Y403740D02*
D03*
Y396260D02*
D03*
X233937Y400000D02*
D03*
D32*
X214000Y331900D02*
D03*
Y345100D02*
D03*
Y416900D02*
D03*
Y430100D02*
D03*
D33*
X460779Y313243D02*
D03*
X456448D02*
D03*
X452117D02*
D03*
X447787D02*
D03*
X443456D02*
D03*
X439125D02*
D03*
X434795D02*
D03*
X430464D02*
D03*
X426133D02*
D03*
D34*
X420549Y310197D02*
D03*
D35*
Y272008D02*
D03*
X482851D02*
D03*
D36*
X479800Y310197D02*
D03*
D37*
X433649Y423008D02*
D03*
X436405Y423000D02*
D03*
X439161D02*
D03*
X441917D02*
D03*
X444673D02*
D03*
X447429D02*
D03*
X450185D02*
D03*
X452941D02*
D03*
X455697D02*
D03*
X458453D02*
D03*
X461208D02*
D03*
X463964D02*
D03*
X466720D02*
D03*
X469476D02*
D03*
X472232D02*
D03*
X474988D02*
D03*
X477744D02*
D03*
X480500D02*
D03*
X483256D02*
D03*
X486012D02*
D03*
X488768D02*
D03*
X491523D02*
D03*
X494279D02*
D03*
X497035D02*
D03*
X499791D02*
D03*
X502547D02*
D03*
X505303D02*
D03*
X508059Y422994D02*
D03*
X510815Y422990D02*
D03*
X513571D02*
D03*
D38*
X385776Y377200D02*
D03*
X388925D02*
D03*
X392075D02*
D03*
X398374D02*
D03*
X401524D02*
D03*
X392075Y344800D02*
D03*
X388925D02*
D03*
X379476D02*
D03*
X385776D02*
D03*
X382626D02*
D03*
X398374D02*
D03*
X395224D02*
D03*
Y377200D02*
D03*
X401524Y344800D02*
D03*
X379476Y377200D02*
D03*
X382626D02*
D03*
D39*
X374300Y359425D02*
D03*
X406700Y368874D02*
D03*
Y372024D02*
D03*
Y353126D02*
D03*
X374300Y349976D02*
D03*
Y368874D02*
D03*
Y356276D02*
D03*
Y365724D02*
D03*
Y362575D02*
D03*
X406700Y356276D02*
D03*
Y359425D02*
D03*
X374300Y353126D02*
D03*
X406700Y362575D02*
D03*
Y365724D02*
D03*
X374300Y372024D02*
D03*
X406700Y349976D02*
D03*
D40*
X405472Y416000D02*
D03*
Y425016D02*
D03*
D41*
X379528Y416000D02*
D03*
D42*
X359150Y353000D02*
D03*
X352850D02*
D03*
D43*
X382500Y387327D02*
D03*
X452500Y325000D02*
D03*
X382500Y390673D02*
D03*
X452500Y328346D02*
D03*
X443500Y328173D02*
D03*
Y324827D02*
D03*
X384000Y308173D02*
D03*
X245000Y434000D02*
D03*
X244500Y351173D02*
D03*
Y347827D02*
D03*
X398500Y308673D02*
D03*
X245000Y437347D02*
D03*
X384000Y304827D02*
D03*
X398500Y305327D02*
D03*
D44*
X532811Y364618D02*
D03*
X509189D02*
D03*
Y379382D02*
D03*
X532811D02*
D03*
D45*
X527012Y337500D02*
D03*
Y327500D02*
D03*
Y322500D02*
D03*
Y317500D02*
D03*
X510988Y332500D02*
D03*
X527012D02*
D03*
X510988Y312500D02*
D03*
X527012D02*
D03*
X510988Y322500D02*
D03*
Y327500D02*
D03*
X527012Y342500D02*
D03*
X510988Y317500D02*
D03*
Y342500D02*
D03*
Y337500D02*
D03*
D46*
X448000Y328311D02*
D03*
Y324689D02*
D03*
D47*
X402000Y444457D02*
D03*
X306000Y397543D02*
D03*
X316000D02*
D03*
X306500Y325043D02*
D03*
X316500D02*
D03*
X306000Y390457D02*
D03*
X306500Y317957D02*
D03*
X316500D02*
D03*
X316000Y390457D02*
D03*
X402000Y451543D02*
D03*
D48*
X405472Y406984D02*
D03*
D49*
X366453Y456740D02*
D03*
X375547Y453000D02*
D03*
Y456740D02*
D03*
Y449260D02*
D03*
X366453D02*
D03*
Y453000D02*
D03*
D50*
X356000Y370000D02*
D03*
X347338Y376890D02*
D03*
X356000D02*
D03*
X347338Y370000D02*
D03*
D51*
X354969Y307500D02*
D03*
X351031D02*
D03*
X430031Y406500D02*
D03*
X444969D02*
D03*
X441032D02*
D03*
X433968D02*
D03*
X368531Y467000D02*
D03*
X372468D02*
D03*
D52*
X360882Y297311D02*
D03*
Y273689D02*
D03*
X346118Y297311D02*
D03*
Y273689D02*
D03*
D53*
X392500Y462677D02*
D03*
Y472323D02*
D03*
D80*
X185000Y485000D02*
D03*
X344000D02*
D03*
X525000Y452500D02*
D03*
X508000Y265500D02*
D03*
X185000D02*
D03*
X316500D02*
D03*
D82*
X313500Y476898D02*
D03*
X214000Y477508D02*
D03*
X213500Y273102D02*
D03*
D83*
X313500Y459890D02*
D03*
X214000Y460500D02*
D03*
X213500Y290110D02*
D03*
D84*
X313500Y448079D02*
D03*
X214000Y448689D02*
D03*
X213500Y301921D02*
D03*
D88*
X272843Y437335D02*
D03*
Y451114D02*
D03*
X263000Y437335D02*
D03*
Y451114D02*
D03*
Y414500D02*
D03*
X272843D02*
D03*
Y400721D02*
D03*
X273421Y300803D02*
D03*
Y314583D02*
D03*
X263579D02*
D03*
Y337417D02*
D03*
X273421D02*
D03*
X263579Y351197D02*
D03*
X273421D02*
D03*
D89*
X263000Y400721D02*
D03*
X263579Y300803D02*
D03*
D90*
X267921Y425917D02*
D03*
X268500Y326000D02*
D03*
D94*
X502500Y403296D02*
D03*
Y406704D02*
D03*
D99*
X432300Y271100D02*
D03*
X463700D02*
D03*
D100*
X533000Y287000D02*
D03*
Y267000D02*
D03*
Y277000D02*
D03*
Y297000D02*
D03*
Y420000D02*
D03*
Y410000D02*
D03*
Y400000D02*
D03*
Y430000D02*
D03*
D101*
X437000Y382500D02*
D03*
D102*
X447000D02*
D03*
X457000D02*
D03*
X467000D02*
D03*
M02*
