G04*
G04 #@! TF.GenerationSoftware,Altium Limited,Altium Designer,25.8.1 (18)*
G04*
G04 Layer_Physical_Order=1*
G04 Layer_Color=255*
%FSLAX25Y25*%
%MOIN*%
G70*
G04*
G04 #@! TF.SameCoordinates,5416C298-7F67-47E7-9347-BB7475E64482*
G04*
G04*
G04 #@! TF.FilePolarity,Positive*
G04*
G01*
G75*
%ADD15C,0.00800*%
%ADD16C,0.01000*%
%ADD21R,0.01181X0.03347*%
%ADD22R,0.05000X0.03150*%
%ADD23R,0.03347X0.01181*%
G04:AMPARAMS|DCode=24|XSize=22.05mil|YSize=24.8mil|CornerRadius=2.76mil|HoleSize=0mil|Usage=FLASHONLY|Rotation=90.000|XOffset=0mil|YOffset=0mil|HoleType=Round|Shape=RoundedRectangle|*
%AMROUNDEDRECTD24*
21,1,0.02205,0.01929,0,0,90.0*
21,1,0.01654,0.02480,0,0,90.0*
1,1,0.00551,0.00965,0.00827*
1,1,0.00551,0.00965,-0.00827*
1,1,0.00551,-0.00965,-0.00827*
1,1,0.00551,-0.00965,0.00827*
%
%ADD24ROUNDEDRECTD24*%
%ADD25R,0.04016X0.04095*%
%ADD26R,0.04095X0.04016*%
%ADD27R,0.02559X0.02362*%
%ADD28R,0.02756X0.02362*%
%ADD29R,0.03937X0.04134*%
%ADD30R,0.03150X0.03150*%
%ADD31R,0.04921X0.02756*%
%ADD32R,0.06700X0.08500*%
%ADD33R,0.02756X0.05118*%
%ADD34R,0.05700X0.06500*%
%ADD35R,0.05700X0.09600*%
%ADD36R,0.07300X0.06500*%
%ADD37R,0.01380X0.11811*%
%ADD38R,0.02000X0.05800*%
%ADD39R,0.05800X0.02000*%
G04:AMPARAMS|DCode=40|XSize=39.54mil|YSize=34.34mil|CornerRadius=17.17mil|HoleSize=0mil|Usage=FLASHONLY|Rotation=180.000|XOffset=0mil|YOffset=0mil|HoleType=Round|Shape=RoundedRectangle|*
%AMROUNDEDRECTD40*
21,1,0.03954,0.00000,0,0,180.0*
21,1,0.00520,0.03434,0,0,180.0*
1,1,0.03434,-0.00260,0.00000*
1,1,0.03434,0.00260,0.00000*
1,1,0.03434,0.00260,0.00000*
1,1,0.03434,-0.00260,0.00000*
%
%ADD40ROUNDEDRECTD40*%
G04:AMPARAMS|DCode=41|XSize=39.54mil|YSize=125.28mil|CornerRadius=17.2mil|HoleSize=0mil|Usage=FLASHONLY|Rotation=180.000|XOffset=0mil|YOffset=0mil|HoleType=Round|Shape=RoundedRectangle|*
%AMROUNDEDRECTD41*
21,1,0.03954,0.09088,0,0,180.0*
21,1,0.00514,0.12528,0,0,180.0*
1,1,0.03440,-0.00257,0.04544*
1,1,0.03440,0.00257,0.04544*
1,1,0.03440,0.00257,-0.04544*
1,1,0.03440,-0.00257,-0.04544*
%
%ADD41ROUNDEDRECTD41*%
%ADD42R,0.03543X0.03937*%
%ADD43R,0.02362X0.02559*%
%ADD44R,0.03937X0.02953*%
%ADD45R,0.10984X0.02913*%
%ADD46R,0.02441X0.02362*%
%ADD47R,0.05709X0.04331*%
%ADD48R,0.03954X0.03434*%
G04:AMPARAMS|DCode=49|XSize=57.09mil|YSize=23.23mil|CornerRadius=2.9mil|HoleSize=0mil|Usage=FLASHONLY|Rotation=0.000|XOffset=0mil|YOffset=0mil|HoleType=Round|Shape=RoundedRectangle|*
%AMROUNDEDRECTD49*
21,1,0.05709,0.01742,0,0,0.0*
21,1,0.05128,0.02323,0,0,0.0*
1,1,0.00581,0.02564,-0.00871*
1,1,0.00581,-0.02564,-0.00871*
1,1,0.00581,-0.02564,0.00871*
1,1,0.00581,0.02564,0.00871*
%
%ADD49ROUNDEDRECTD49*%
%ADD50R,0.05512X0.04724*%
%ADD51R,0.02362X0.02756*%
%ADD52R,0.02953X0.03937*%
%ADD53R,0.14961X0.04724*%
%ADD80C,0.19685*%
%ADD82C,0.11811*%
%ADD83R,0.06181X0.06181*%
%ADD84C,0.06181*%
%ADD88C,0.08465*%
%ADD89R,0.08465X0.08465*%
%ADD90C,0.09449*%
%ADD92C,0.03600*%
%ADD94R,0.02126X0.02227*%
%ADD95C,0.02000*%
%ADD96C,0.01200*%
%ADD97C,0.01500*%
%ADD98C,0.02500*%
%ADD99C,0.03937*%
%ADD100C,0.06000*%
%ADD101R,0.06319X0.06319*%
%ADD102C,0.06319*%
%ADD103C,0.02400*%
%ADD104C,0.02800*%
G36*
X280500Y329000D02*
X273031D01*
X272841Y329331D01*
X271831Y330341D01*
X270594Y331055D01*
X269214Y331424D01*
X267786D01*
X266406Y331055D01*
X265169Y330341D01*
X264159Y329331D01*
X263968Y329000D01*
X256500D01*
Y359000D01*
X280500D01*
Y329000D01*
D02*
G37*
G36*
Y306000D02*
X284500Y302000D01*
X300174D01*
X300379Y301717D01*
X297364Y292500D01*
X256500Y292500D01*
Y323500D01*
X263680D01*
X264159Y322669D01*
X265169Y321659D01*
X266406Y320945D01*
X267786Y320576D01*
X269214D01*
X270594Y320945D01*
X271831Y321659D01*
X272841Y322669D01*
X273320Y323500D01*
X280500D01*
Y306000D01*
D02*
G37*
G36*
X301000D02*
X284000D01*
Y326000D01*
X301000D01*
Y306000D01*
D02*
G37*
G36*
X356758Y452771D02*
X360000Y450500D01*
Y448000D01*
X355139Y441000D01*
X338500D01*
Y462000D01*
X355103D01*
X356758Y452771D01*
D02*
G37*
G36*
X280000Y429000D02*
X272405D01*
X272262Y429248D01*
X271252Y430258D01*
X270015Y430972D01*
X268635Y431342D01*
X267207D01*
X265827Y430972D01*
X264591Y430258D01*
X263581Y429248D01*
X263438Y429000D01*
X256000D01*
Y459000D01*
X280000D01*
Y429000D01*
D02*
G37*
G36*
Y380500D02*
X286000Y374500D01*
X300159D01*
X300338Y374200D01*
X296462Y367000D01*
X273654D01*
X256000Y382300D01*
Y423000D01*
X263342D01*
X263581Y422587D01*
X264591Y421577D01*
X265827Y420863D01*
X267207Y420493D01*
X268635D01*
X270015Y420863D01*
X271252Y421577D01*
X272262Y422587D01*
X272500Y423000D01*
X280000D01*
Y380500D01*
D02*
G37*
G36*
X301000Y379543D02*
X300638D01*
Y379000D01*
X283500D01*
Y400500D01*
X301000D01*
Y379543D01*
D02*
G37*
D15*
X313421Y281921D02*
X316421D01*
X329500Y295000D01*
Y297600D01*
X312315Y287894D02*
Y296760D01*
X307500Y292500D02*
X307806Y292806D01*
X309306D02*
X310347Y293847D01*
X307806Y292806D02*
X309306D01*
X212500Y403500D02*
Y415400D01*
X217894Y403740D02*
X226063D01*
X212500Y317500D02*
Y330400D01*
X217894Y317740D02*
X227563D01*
X310347Y308177D02*
Y309260D01*
X312315Y308177D02*
Y309260D01*
X444673Y406796D02*
X444969Y406500D01*
X444673Y406796D02*
Y423000D01*
X456448Y309469D02*
X457417Y308500D01*
X462237D01*
X473737Y320000D01*
X456448Y309469D02*
Y313243D01*
X454386Y306500D02*
X463500D01*
X474500Y317500D01*
X452117Y308769D02*
X454386Y306500D01*
X452117Y313243D02*
Y324617D01*
Y308769D02*
Y313243D01*
Y324617D02*
X452500Y325000D01*
X443456Y309044D02*
X448000Y304500D01*
X465263D02*
X474750Y313987D01*
X448000Y304500D02*
X465263D01*
X474750Y314027D02*
X475570Y314847D01*
X474750Y313987D02*
Y314027D01*
X475610Y314847D02*
X475763Y315000D01*
X475570Y314847D02*
X475610D01*
X434795Y306705D02*
X439000Y302500D01*
X483000D01*
X504500Y281000D01*
X358500Y340500D02*
Y342531D01*
X356000Y338000D02*
X358500Y340500D01*
X354000Y338000D02*
X356000D01*
X353000Y339000D02*
X354000Y338000D01*
X414000Y303248D02*
X420849Y310097D01*
X353000Y339000D02*
Y342500D01*
X331500Y333500D02*
X380500D01*
X382626Y335626D01*
X323000Y342000D02*
X331500Y333500D01*
X398500Y282000D02*
Y288047D01*
X320445Y309500D02*
X333500D01*
X316500Y313445D02*
X320445Y309500D01*
X333500D02*
X354500Y330500D01*
X380946Y395446D02*
X382446D01*
X379500Y377224D02*
Y394000D01*
X382446Y395446D02*
X382500Y395500D01*
X379500Y394000D02*
X380946Y395446D01*
X382500Y390673D02*
Y395500D01*
X379476Y377200D02*
X379500Y377224D01*
X457480Y403520D02*
X460500Y400500D01*
X455689Y403532D02*
X455701Y403520D01*
X457480D01*
X460500Y400500D02*
X463209Y403209D01*
X464709D01*
X465000Y403500D01*
X392000Y394500D02*
X460500D01*
X452500Y328346D02*
Y331000D01*
X453500Y332000D02*
X455500D01*
X452500Y331000D02*
X453500Y332000D01*
X412000Y382500D02*
X414000Y380500D01*
Y378500D02*
Y380500D01*
X415500Y375000D02*
X418228D01*
X406700Y372024D02*
X412524D01*
X415500Y375000D01*
X418228D02*
X418327D01*
X406700Y368874D02*
X406763Y368937D01*
X418264D01*
X418327Y369000D01*
X406812Y365612D02*
X419388D01*
X426500Y358500D01*
X421673Y369000D02*
X427827D01*
X418413Y373087D02*
X419500Y372000D01*
X433500D01*
X418228Y375000D02*
X418413Y374816D01*
Y373087D02*
Y374816D01*
X374300Y372024D02*
X374500Y372224D01*
X415215Y345953D02*
X415500Y346237D01*
X515500Y395500D02*
X521500Y401500D01*
Y425000D01*
X526500Y430000D01*
X356000Y376890D02*
X357377Y375513D01*
X366126Y368874D02*
X374300D01*
X357377Y375513D02*
X359487D01*
X366126Y368874D01*
X516000Y284000D02*
X526000D01*
X533000Y277000D01*
X352551Y383516D02*
X353567Y382500D01*
X347516Y383516D02*
X352551D01*
X353567Y382500D02*
X354000D01*
X405488Y407000D02*
X410500D01*
X405472Y406984D02*
X405488Y407000D01*
X394500Y391500D02*
X481500D01*
X392000Y389000D02*
X394500Y391500D01*
X392000Y389000D02*
X392037Y388963D01*
X388963Y391463D02*
X392000Y394500D01*
X385638Y393638D02*
X389500Y397500D01*
X392037Y377237D02*
Y388963D01*
X389500Y397500D02*
X425500D01*
X385638Y377338D02*
Y393638D01*
X388963Y377237D02*
Y391463D01*
X360000Y359500D02*
X363037Y362537D01*
X345500Y355500D02*
X349500Y359500D01*
X360000D01*
X363037Y362537D02*
X374263D01*
X364425Y359425D02*
X374300D01*
X354500Y357500D02*
X362500D01*
X364425Y359425D01*
X312000Y360394D02*
Y369244D01*
X306806Y365306D02*
X308806D01*
X309984Y366484D01*
X306500Y365000D02*
X306806Y365306D01*
X409894Y435500D02*
X410000Y435606D01*
X382500Y377326D02*
X382626Y377200D01*
X382500Y377326D02*
Y387327D01*
X405472Y425016D02*
X405593Y425137D01*
X415488Y349988D02*
X415500Y350000D01*
X406712Y349988D02*
X415488D01*
X415412Y345953D02*
X420912D01*
X415500Y346237D02*
Y350000D01*
X406700Y349976D02*
X406712Y349988D01*
X364500Y375000D02*
X367476Y372024D01*
X374300D01*
X364500Y375000D02*
Y377031D01*
X359150Y353000D02*
X364000D01*
X447500Y313530D02*
X447787Y313243D01*
X447500Y324189D02*
X448000Y324689D01*
X447500Y313530D02*
Y324189D01*
X443500Y328173D02*
Y332272D01*
X416224Y356276D02*
X425000Y347500D01*
Y319133D02*
Y347500D01*
X406700Y356276D02*
X416224D01*
X425000Y319133D02*
X426133Y318000D01*
X428000Y324728D02*
X431228Y321500D01*
X431327D01*
X428000Y324728D02*
Y325000D01*
X461500D02*
Y343000D01*
X456448Y319948D02*
X461500Y325000D01*
X434000Y331000D02*
X440000Y325000D01*
X443239D01*
X459000Y329000D02*
Y338000D01*
X438500Y358500D02*
X459000Y338000D01*
X426500Y358500D02*
X438500D01*
X452500Y324902D02*
X454902D01*
X459000Y329000D01*
X443239Y325000D02*
X443456Y324783D01*
X428154Y330847D02*
Y342653D01*
Y330847D02*
X434673Y324327D01*
Y321500D02*
Y324327D01*
Y321500D02*
X434795Y321379D01*
X443456Y313243D02*
Y324783D01*
Y309044D02*
Y313243D01*
X474500Y317500D02*
X486500D01*
X517000Y287000D01*
X533000D01*
X406700Y365724D02*
X406812Y365612D01*
X439000Y313369D02*
X439125Y313243D01*
X439000Y313369D02*
Y320000D01*
X484803Y310197D02*
X488000Y307000D01*
X479800Y310197D02*
X484803D01*
X477526Y422782D02*
X477744Y423000D01*
X513571Y415884D02*
Y422990D01*
X510815Y416185D02*
X512500Y414500D01*
X510815Y416185D02*
Y422990D01*
X477526Y416526D02*
Y422782D01*
X474988Y423000D02*
X474994Y422994D01*
X472232Y423000D02*
X472462Y422770D01*
X474994Y414006D02*
Y422994D01*
X475000Y414000D02*
X477526Y416526D01*
X472462Y416538D02*
Y422770D01*
Y416538D02*
X474994Y414006D01*
X512500Y414814D02*
X513571Y415884D01*
X512500Y414500D02*
Y414814D01*
X516000Y401000D02*
Y403532D01*
X509000Y401000D02*
X510500Y399500D01*
X509000Y401000D02*
Y403500D01*
X502352Y403148D02*
X502500Y403296D01*
X498148Y403148D02*
X502352D01*
X474994Y414006D02*
X475000Y414000D01*
X498000Y403000D02*
X498148Y403148D01*
X458453Y423000D02*
X458476Y422976D01*
X463964Y416036D02*
Y423000D01*
X466720Y415895D02*
Y423000D01*
X465500Y414675D02*
X466720Y415895D01*
X458476Y414524D02*
Y422976D01*
X463964Y416036D02*
X465500Y414500D01*
X452941Y423000D02*
X452971Y422970D01*
Y414530D02*
Y422970D01*
X433649Y416149D02*
Y423008D01*
X431147Y413647D02*
X433649Y416149D01*
X465500Y414500D02*
Y414675D01*
X458476Y414524D02*
X458500Y414500D01*
X452971Y414530D02*
X453000Y414500D01*
X429647Y413647D02*
X431147D01*
X514500Y399500D02*
X516000Y401000D01*
X532811Y364618D02*
X533000D01*
X512500Y399500D02*
X514500D01*
X534000Y337500D02*
X536500Y335000D01*
X527012Y337500D02*
X534000D01*
X510500Y399500D02*
X512500D01*
X502000Y371031D02*
X502118Y370913D01*
Y364618D02*
Y370913D01*
X509189Y364618D02*
X532811D01*
X502118D02*
X509189D01*
X536500Y329500D02*
Y331500D01*
Y335000D01*
X527012Y327500D02*
X534500D01*
X536500Y324500D02*
Y329500D01*
X534500Y322500D02*
X536500Y324500D01*
X534500Y327500D02*
X536500Y329500D01*
X527012Y322500D02*
X534500D01*
X482859Y272000D02*
X489500D01*
X448000Y328311D02*
Y332500D01*
X420603Y341707D02*
X420912Y342016D01*
X420603Y340103D02*
Y341707D01*
X419188Y338688D02*
X420603Y340103D01*
X416725Y338688D02*
X419188D01*
X415580Y337544D02*
X416725Y338688D01*
X415456Y337544D02*
Y341972D01*
Y337544D02*
X415580D01*
X420549Y272008D02*
Y278951D01*
X414000Y293000D02*
Y303248D01*
Y285500D02*
X420549Y278951D01*
X414000Y285500D02*
Y293000D01*
X401957Y444500D02*
X402000Y444457D01*
X352500Y387500D02*
X360500D01*
X364500Y383500D01*
Y380968D02*
Y383500D01*
X316000Y397543D02*
Y401000D01*
X311000Y402500D02*
X314500D01*
X316000Y401000D01*
X308994Y402506D02*
X309000Y402500D01*
X311000D01*
X307506Y402506D02*
X308994D01*
X306000Y401000D02*
X307506Y402506D01*
X306000Y397543D02*
Y401000D01*
X352484Y387484D02*
X352500Y387500D01*
X347516Y387484D02*
X352484D01*
X347500Y387469D02*
X347516Y387484D01*
X225823Y396500D02*
X226063Y396260D01*
X221000Y396500D02*
X225823D01*
X401512Y344788D02*
X401524Y344800D01*
X401512Y338512D02*
Y344788D01*
X401500Y338500D02*
X401512Y338512D01*
X360882Y297311D02*
Y301390D01*
X354969Y307303D02*
X360882Y301390D01*
X367000Y285500D02*
Y296500D01*
X384000Y282000D02*
Y288047D01*
X367000Y275000D02*
Y285500D01*
X366189Y297311D02*
X367000Y296500D01*
X360882Y297311D02*
X366189D01*
X365689Y273689D02*
X367000Y275000D01*
X360882Y273689D02*
X365689D01*
X356000Y364500D02*
Y370000D01*
X316500Y325043D02*
Y329000D01*
X311500Y330000D02*
X315500D01*
X316500Y329000D01*
X307500Y330000D02*
X311500D01*
X309984Y366484D02*
Y369291D01*
X306500Y329000D02*
X307500Y330000D01*
X306500Y325043D02*
Y329000D01*
X354969Y307303D02*
Y307500D01*
X310347Y293847D02*
Y296760D01*
X225563Y310561D02*
Y310760D01*
X225502Y310500D02*
X225563Y310561D01*
X222500Y310500D02*
X225502D01*
X461208Y413141D02*
Y423000D01*
X460500Y412433D02*
X461208Y413141D01*
X473000Y408000D02*
X477153D01*
X490673D02*
X495000D01*
X462378Y407453D02*
X464984D01*
X460863Y408968D02*
X462378Y407453D01*
X464984D02*
X465000Y407437D01*
X460500Y408968D02*
Y412433D01*
X460106Y408968D02*
X460500D01*
X458606Y407469D02*
X460106Y408968D01*
X455697Y407477D02*
Y423000D01*
X447429Y412071D02*
X452032Y407469D01*
X447429Y412071D02*
Y423000D01*
X460500Y408968D02*
X460863D01*
X452032Y407469D02*
X455689D01*
X458606D01*
X429000Y389500D02*
X444531D01*
X447000Y382500D02*
Y387031D01*
X444531Y389500D02*
X447000Y387031D01*
X527012Y317500D02*
X535500D01*
X432500Y365000D02*
Y365292D01*
X431173Y366619D02*
Y369000D01*
Y366619D02*
X432500Y365292D01*
X426000Y386500D02*
X429000Y389500D01*
X421673Y386500D02*
X426000D01*
X421673Y375000D02*
X426000D01*
X347338Y376890D02*
X347500Y377052D01*
X310694Y385806D02*
Y386452D01*
X306689Y390457D02*
X310694Y386452D01*
Y385806D02*
X311000Y385500D01*
X306000Y390457D02*
X306689D01*
X306000Y385776D02*
X309984Y381791D01*
X306000Y385776D02*
Y390457D01*
X347500Y377052D02*
Y383531D01*
X309984Y380709D02*
Y381791D01*
X306500Y317957D02*
X307189D01*
X311194Y313952D01*
X306500Y313106D02*
Y317957D01*
X311194Y313306D02*
X311500Y313000D01*
X311194Y313306D02*
Y313952D01*
X306500Y313106D02*
X310347Y309260D01*
X434795Y306705D02*
Y313243D01*
Y321379D01*
X519000Y281000D02*
X533000Y267000D01*
X504500Y281000D02*
X519000D01*
X431000Y345500D02*
Y350500D01*
X418925Y362575D02*
X431000Y350500D01*
X428154Y342653D02*
X431000Y345500D01*
X406700Y362575D02*
X418925D01*
X475763Y315000D02*
X485000D01*
X516000Y284000D01*
X374237Y353063D02*
X374300Y353126D01*
X369563Y353063D02*
X374237D01*
X367433Y350933D02*
X369563Y353063D01*
X367433Y338067D02*
Y350933D01*
Y338067D02*
X367500Y338000D01*
X473737Y320000D02*
X487737D01*
X510737Y297000D01*
X533000D01*
X406700Y359425D02*
X417575D01*
X427500Y349500D01*
X456448Y313243D02*
Y319948D01*
X426133Y313243D02*
Y318000D01*
X501984Y374984D02*
X502000Y374969D01*
X482516Y374984D02*
X501984D01*
X502000Y374969D02*
X504284D01*
X388925Y377200D02*
X388963Y377237D01*
X480500Y408000D02*
Y423000D01*
X528000Y420000D02*
X533000D01*
X523500Y400500D02*
Y415500D01*
X528000Y420000D01*
X480500Y401000D02*
Y408000D01*
X488000Y393500D02*
X516500D01*
X480500Y401000D02*
X488000Y393500D01*
X516500D02*
X523500Y400500D01*
X374188Y356388D02*
X374300Y356276D01*
X469488Y403512D02*
Y422988D01*
X469476Y423000D02*
X469488Y422988D01*
X392037Y377237D02*
X392075Y377200D01*
X520000Y391500D02*
X525500Y397000D01*
Y408000D01*
X527500Y410000D02*
X533000D01*
X525500Y408000D02*
X527500Y410000D01*
X481500Y391500D02*
X520000D01*
X469488Y403512D02*
X481500Y391500D01*
X352850Y353000D02*
Y355850D01*
X354500Y357500D01*
X352850Y346587D02*
Y353000D01*
Y346587D02*
X353000Y346437D01*
X353016Y346453D01*
X358484D01*
X358500Y346468D01*
X504284Y374969D02*
X508697Y379382D01*
X509189D01*
X395224Y377200D02*
Y385224D01*
X509189Y379382D02*
X532811D01*
X533000Y379571D02*
Y400000D01*
X532811Y379382D02*
X533000Y379571D01*
X347338Y365913D02*
Y370000D01*
Y365913D02*
X351751Y361500D01*
X357500D02*
X361724Y365724D01*
X351751Y361500D02*
X357500D01*
X361724Y365724D02*
X374300D01*
X395224Y324776D02*
X395250Y324750D01*
X395224Y324776D02*
Y344800D01*
X384000Y308173D02*
Y313500D01*
X395250Y324750D01*
X316500Y313445D02*
Y317957D01*
X380500Y330500D02*
X385776Y335776D01*
X354500Y330500D02*
X380500D01*
X385776Y335776D02*
Y344800D01*
X312315Y309260D02*
X316500Y313445D01*
X323000Y342000D02*
Y378839D01*
X316000Y385839D02*
X323000Y378839D01*
X311953Y380709D02*
Y381791D01*
X316000Y385839D01*
Y390457D01*
X382626Y335626D02*
Y344800D01*
X398374D02*
X398500Y344674D01*
Y308673D02*
Y344674D01*
X345500Y348000D02*
Y355500D01*
X491000Y327500D02*
X510988D01*
X500500Y337500D02*
X510988D01*
X494500Y342500D02*
X510988D01*
X527012D02*
X536500D01*
X492500Y322500D02*
X510988D01*
X494000Y317500D02*
X510988D01*
X464500Y354000D02*
X491000Y327500D01*
X464500Y350500D02*
X492500Y322500D01*
X463500Y348000D02*
X494000Y317500D01*
X398374Y377200D02*
Y383874D01*
X401000Y386500D01*
X405827D01*
X418327D02*
X418412Y386414D01*
X409173Y386500D02*
X418327D01*
X418412Y384588D02*
Y386414D01*
Y384588D02*
X424500Y378500D01*
X426500D01*
X431000Y374000D01*
X434500D01*
X454500Y354000D01*
X464500D01*
X369033Y345879D02*
X376912Y338000D01*
X369033Y345879D02*
Y348533D01*
X370476Y349976D01*
X374300D01*
X376912Y338000D02*
X377000D01*
X427827Y365173D02*
Y369000D01*
Y365173D02*
X431500Y361500D01*
X441000D01*
X454500Y348000D01*
X463500D01*
X346118Y273689D02*
Y297311D01*
Y302390D01*
X351031Y307303D01*
X351016Y307516D02*
X351031Y307500D01*
X351000Y318000D02*
X351016Y317984D01*
Y307516D02*
Y317984D01*
X374263Y362537D02*
X374300Y362575D01*
X433500Y372000D02*
X455000Y350500D01*
X464500D01*
X401524Y381024D02*
X403000Y382500D01*
X401524Y377200D02*
Y381024D01*
X403000Y382500D02*
X412000D01*
X478000Y359000D02*
X494500Y342500D01*
X398500Y293953D02*
Y305327D01*
X384000Y293953D02*
Y304827D01*
X491500Y395500D02*
X515500D01*
X487500Y399500D02*
X491500Y395500D01*
X487500Y399500D02*
Y404000D01*
Y407827D01*
X487327Y408000D02*
X487500Y407827D01*
X526500Y430000D02*
X533000D01*
X486012Y413012D02*
Y423000D01*
X486000Y413000D02*
X487327Y411673D01*
X486000Y413000D02*
X486012Y413012D01*
X487327Y408000D02*
Y411673D01*
X484500Y408000D02*
X487327D01*
X483256Y409244D02*
X484500Y408000D01*
X483256Y409244D02*
Y423000D01*
X385638Y377338D02*
X385776Y377200D01*
X390823Y474000D02*
X392500Y472323D01*
X430031Y409031D02*
X436405Y415405D01*
Y423000D01*
X430031Y406500D02*
Y409031D01*
X439161Y414889D02*
Y423000D01*
X433968Y406500D02*
Y409697D01*
X439161Y414889D01*
X441917Y423000D02*
X441959Y422959D01*
Y412459D02*
Y422959D01*
X441032Y411531D02*
X441959Y412459D01*
X441032Y406500D02*
Y411531D01*
X509000Y407437D02*
Y409500D01*
X505303Y413197D02*
X509000Y409500D01*
X505303Y413197D02*
Y423000D01*
X510000Y411000D02*
X514500D01*
X508059Y412941D02*
X510000Y411000D01*
X508059Y412941D02*
Y422994D01*
X514500Y411000D02*
X516000Y409500D01*
Y407469D02*
Y409500D01*
X509016Y407453D02*
X515787D01*
X509000Y407437D02*
X509016Y407453D01*
X502547Y406704D02*
Y423000D01*
X244953Y400000D02*
X245000Y399953D01*
X304106Y373000D02*
X304138Y373031D01*
X212500Y330400D02*
X214000Y331900D01*
X212500Y415400D02*
X214000Y416900D01*
D16*
X314606Y354606D02*
X319500Y359500D01*
X312000Y354606D02*
X314606D01*
X366453Y456740D02*
X366500Y456787D01*
D21*
X310347Y308177D02*
D03*
Y296760D02*
D03*
X312315D02*
D03*
Y308177D02*
D03*
X309984Y380709D02*
D03*
Y369291D02*
D03*
X311953D02*
D03*
Y380709D02*
D03*
D22*
X304500Y300500D02*
D03*
Y304437D02*
D03*
X304138Y373031D02*
D03*
Y376969D02*
D03*
D23*
X315071Y299516D02*
D03*
Y301484D02*
D03*
Y303453D02*
D03*
Y305421D02*
D03*
X314709Y372047D02*
D03*
Y374016D02*
D03*
Y375984D02*
D03*
Y377953D02*
D03*
D24*
X420912Y345697D02*
D03*
Y342272D02*
D03*
X455689Y407213D02*
D03*
Y403787D02*
D03*
X465000Y407181D02*
D03*
Y403756D02*
D03*
D25*
X312500Y282106D02*
D03*
Y287894D02*
D03*
X312000Y354606D02*
D03*
Y360394D02*
D03*
X358500Y415787D02*
D03*
Y410000D02*
D03*
D26*
X212106Y403500D02*
D03*
X217894D02*
D03*
X212106Y317500D02*
D03*
X217894D02*
D03*
X364394Y424000D02*
D03*
X358606D02*
D03*
X392394Y435500D02*
D03*
X386606D02*
D03*
X404106D02*
D03*
X409894D02*
D03*
D27*
X358673Y403500D02*
D03*
X355327D02*
D03*
X490673Y408000D02*
D03*
X477153D02*
D03*
X431173Y369000D02*
D03*
X431327Y321500D02*
D03*
X421673Y386500D02*
D03*
Y375000D02*
D03*
X434673Y321500D02*
D03*
X480500Y408000D02*
D03*
X409173Y386500D02*
D03*
X405827D02*
D03*
X418327D02*
D03*
X421673Y369000D02*
D03*
X418327D02*
D03*
X427827D02*
D03*
X418327Y375000D02*
D03*
X487327Y408000D02*
D03*
D28*
X358500Y398500D02*
D03*
Y346468D02*
D03*
Y342531D02*
D03*
X415412Y345953D02*
D03*
X364500Y377031D02*
D03*
X516000Y403532D02*
D03*
X509000Y403500D02*
D03*
X502000Y371031D02*
D03*
X415412Y342016D02*
D03*
X364500Y380968D02*
D03*
X347500Y387469D02*
D03*
X353000Y342500D02*
D03*
X347500Y383531D02*
D03*
X358500Y393500D02*
D03*
X353000Y346437D02*
D03*
X502000Y374969D02*
D03*
X516000Y407469D02*
D03*
X509000Y407437D02*
D03*
D29*
X392500Y447441D02*
D03*
Y453346D02*
D03*
D30*
X357500Y437953D02*
D03*
Y432047D02*
D03*
X245000Y394047D02*
D03*
X384000Y288047D02*
D03*
X398500D02*
D03*
X244500Y308000D02*
D03*
X384000Y293953D02*
D03*
X398500D02*
D03*
X245000Y399953D02*
D03*
X244500Y313906D02*
D03*
D31*
X227563Y317740D02*
D03*
Y310260D02*
D03*
X235437Y314000D02*
D03*
X226063Y403740D02*
D03*
Y396260D02*
D03*
X233937Y400000D02*
D03*
D32*
X214000Y331900D02*
D03*
Y345100D02*
D03*
Y416900D02*
D03*
Y430100D02*
D03*
D33*
X460779Y313243D02*
D03*
X456448D02*
D03*
X452117D02*
D03*
X447787D02*
D03*
X443456D02*
D03*
X439125D02*
D03*
X434795D02*
D03*
X430464D02*
D03*
X426133D02*
D03*
D34*
X420549Y310197D02*
D03*
D35*
Y272008D02*
D03*
X482851D02*
D03*
D36*
X479800Y310197D02*
D03*
D37*
X433649Y423008D02*
D03*
X436405Y423000D02*
D03*
X439161D02*
D03*
X441917D02*
D03*
X444673D02*
D03*
X447429D02*
D03*
X450185D02*
D03*
X452941D02*
D03*
X455697D02*
D03*
X458453D02*
D03*
X461208D02*
D03*
X463964D02*
D03*
X466720D02*
D03*
X469476D02*
D03*
X472232D02*
D03*
X474988D02*
D03*
X477744D02*
D03*
X480500D02*
D03*
X483256D02*
D03*
X486012D02*
D03*
X488768D02*
D03*
X491523D02*
D03*
X494279D02*
D03*
X497035D02*
D03*
X499791D02*
D03*
X502547D02*
D03*
X505303D02*
D03*
X508059Y422994D02*
D03*
X510815Y422990D02*
D03*
X513571D02*
D03*
D38*
X385776Y377200D02*
D03*
X388925D02*
D03*
X392075D02*
D03*
X398374D02*
D03*
X401524D02*
D03*
X392075Y344800D02*
D03*
X388925D02*
D03*
X379476D02*
D03*
X385776D02*
D03*
X382626D02*
D03*
X398374D02*
D03*
X395224D02*
D03*
Y377200D02*
D03*
X401524Y344800D02*
D03*
X379476Y377200D02*
D03*
X382626D02*
D03*
D39*
X374300Y359425D02*
D03*
X406700Y368874D02*
D03*
Y372024D02*
D03*
Y353126D02*
D03*
X374300Y349976D02*
D03*
Y368874D02*
D03*
Y356276D02*
D03*
Y365724D02*
D03*
Y362575D02*
D03*
X406700Y356276D02*
D03*
Y359425D02*
D03*
X374300Y353126D02*
D03*
X406700Y362575D02*
D03*
Y365724D02*
D03*
X374300Y372024D02*
D03*
X406700Y349976D02*
D03*
D40*
X405472Y416000D02*
D03*
Y425016D02*
D03*
D41*
X379528Y416000D02*
D03*
D42*
X359150Y353000D02*
D03*
X352850D02*
D03*
D43*
X382500Y387327D02*
D03*
X452500Y325000D02*
D03*
X382500Y390673D02*
D03*
X452500Y328346D02*
D03*
X443500Y328173D02*
D03*
Y324827D02*
D03*
X384000Y308173D02*
D03*
X245000Y434000D02*
D03*
X244500Y351173D02*
D03*
Y347827D02*
D03*
X398500Y308673D02*
D03*
X245000Y437347D02*
D03*
X384000Y304827D02*
D03*
X398500Y305327D02*
D03*
D44*
X532811Y364618D02*
D03*
X509189D02*
D03*
Y379382D02*
D03*
X532811D02*
D03*
D45*
X527012Y337500D02*
D03*
Y327500D02*
D03*
Y322500D02*
D03*
Y317500D02*
D03*
X510988Y332500D02*
D03*
X527012D02*
D03*
X510988Y312500D02*
D03*
X527012D02*
D03*
X510988Y322500D02*
D03*
Y327500D02*
D03*
X527012Y342500D02*
D03*
X510988Y317500D02*
D03*
Y342500D02*
D03*
Y337500D02*
D03*
D46*
X448000Y328311D02*
D03*
Y324689D02*
D03*
D47*
X402000Y444457D02*
D03*
X306000Y397543D02*
D03*
X316000D02*
D03*
X306500Y325043D02*
D03*
X316500D02*
D03*
X306000Y390457D02*
D03*
X306500Y317957D02*
D03*
X316500D02*
D03*
X316000Y390457D02*
D03*
X402000Y451543D02*
D03*
D48*
X405472Y406984D02*
D03*
D49*
X366453Y456740D02*
D03*
X375547Y453000D02*
D03*
Y456740D02*
D03*
Y449260D02*
D03*
X366453D02*
D03*
Y453000D02*
D03*
D50*
X356000Y370000D02*
D03*
X347338Y376890D02*
D03*
X356000D02*
D03*
X347338Y370000D02*
D03*
D51*
X354969Y307500D02*
D03*
X351031D02*
D03*
X430031Y406500D02*
D03*
X444969D02*
D03*
X441032D02*
D03*
X433968D02*
D03*
X368531Y467000D02*
D03*
X372468D02*
D03*
D52*
X360882Y297311D02*
D03*
Y273689D02*
D03*
X346118Y297311D02*
D03*
Y273689D02*
D03*
D53*
X392500Y462677D02*
D03*
Y472323D02*
D03*
D80*
X185000Y485000D02*
D03*
X344000D02*
D03*
X525000Y452500D02*
D03*
X508000Y265500D02*
D03*
X185000D02*
D03*
X316500D02*
D03*
D82*
X313500Y476898D02*
D03*
X214000Y477508D02*
D03*
X213500Y273102D02*
D03*
D83*
X313500Y459890D02*
D03*
X214000Y460500D02*
D03*
X213500Y290110D02*
D03*
D84*
X313500Y448079D02*
D03*
X214000Y448689D02*
D03*
X213500Y301921D02*
D03*
D88*
X272843Y437335D02*
D03*
Y451114D02*
D03*
X263000Y437335D02*
D03*
Y451114D02*
D03*
Y414500D02*
D03*
X272843D02*
D03*
Y400721D02*
D03*
X273421Y300803D02*
D03*
Y314583D02*
D03*
X263579D02*
D03*
Y337417D02*
D03*
X273421D02*
D03*
X263579Y351197D02*
D03*
X273421D02*
D03*
D89*
X263000Y400721D02*
D03*
X263579Y300803D02*
D03*
D90*
X267921Y425917D02*
D03*
X268500Y326000D02*
D03*
D92*
X352000Y432000D02*
D03*
X488000Y307000D02*
D03*
X502118Y364618D02*
D03*
X489500Y272000D02*
D03*
X414000Y293000D02*
D03*
X245000Y386000D02*
D03*
X367000Y285500D02*
D03*
X244500Y299500D02*
D03*
D94*
X502500Y403296D02*
D03*
Y406704D02*
D03*
D95*
X355500Y443500D02*
X357500Y441500D01*
Y437953D02*
Y441500D01*
X353000Y443500D02*
X355500D01*
X215750Y346850D02*
Y349296D01*
X217628Y351173D02*
X263555D01*
X214000Y345100D02*
X215750Y346850D01*
Y349296D02*
X217628Y351173D01*
X366453Y449260D02*
X366471D01*
X359000D02*
X366453D01*
X245000Y386000D02*
Y394047D01*
X244500Y299500D02*
Y308000D01*
X245012Y437335D02*
X263000D01*
X214000Y430100D02*
X215750Y431850D01*
Y434296D02*
X218801Y437347D01*
X215750Y431850D02*
Y434296D01*
X218801Y437347D02*
X245000D01*
D96*
X364500Y424000D02*
Y433500D01*
X360172Y437828D02*
X364500Y433500D01*
X358500Y398500D02*
X358673Y398673D01*
X351173Y403500D02*
X355327D01*
X358500Y393500D02*
X367000D01*
X390779Y449260D02*
X392500Y447539D01*
X375547Y449260D02*
X390779D01*
X392500Y453248D02*
X393868Y451880D01*
X393967D01*
X392500Y453248D02*
Y462677D01*
X393967Y451880D02*
X394346Y451500D01*
X402000D01*
X392500Y435500D02*
Y447441D01*
Y435500D02*
X404106D01*
X392394D02*
X392500D01*
X380000D02*
X386606D01*
X399000Y438500D02*
X401957Y441457D01*
Y444500D01*
X374500Y393500D02*
X381000Y400000D01*
X411000D01*
X357500Y437953D02*
X357625Y437828D01*
X360172D01*
X374500Y372224D02*
Y382000D01*
Y393500D01*
Y414500D01*
X411000Y400000D02*
X413500Y402500D01*
Y412500D01*
X374500Y414500D02*
X376000Y416000D01*
X379528D01*
X405472D02*
X410000D01*
X413500Y412500D01*
X409894Y426394D02*
Y435500D01*
X410000Y435606D02*
Y447500D01*
X408637Y425137D02*
X409894Y426394D01*
X405593Y425137D02*
X408637D01*
X366500Y456787D02*
Y462500D01*
X375547Y453000D02*
X381500D01*
X367112Y356388D02*
X374188D01*
X367000Y356500D02*
X367112Y356388D01*
X405957Y451543D02*
X410000Y447500D01*
X402000Y451543D02*
X405957D01*
X372000Y474000D02*
X390823D01*
X375547Y463453D02*
Y465953D01*
X374500Y467000D02*
X375547Y465953D01*
X372468Y467000D02*
X374500D01*
X368531Y470532D02*
X372000Y474000D01*
X368531Y467000D02*
Y470532D01*
X360000Y463742D02*
X363258Y467000D01*
X360000Y455500D02*
Y463742D01*
Y455500D02*
X362500Y453000D01*
X366453D01*
X363258Y467000D02*
X368531D01*
X375547Y456740D02*
Y463453D01*
X233937Y400000D02*
X244953D01*
X244500Y313906D02*
Y347827D01*
X245000Y399953D02*
Y434000D01*
X235437Y314000D02*
X244406D01*
D97*
X358606Y422894D02*
X358713Y423000D01*
X358606Y415894D02*
Y422894D01*
X358500Y415787D02*
X358606Y415894D01*
X358587Y403587D02*
X358673Y403500D01*
X358587Y403587D02*
Y409913D01*
X358500Y410000D02*
X358587Y409913D01*
X358673Y398673D02*
Y403500D01*
X392500Y447441D02*
Y447539D01*
D98*
X298500Y307000D02*
X301063Y304437D01*
X304500D01*
X298500Y307000D02*
Y308000D01*
Y381138D02*
Y382000D01*
Y381138D02*
X302344Y377293D01*
X303813D02*
X304138Y376969D01*
X302344Y377293D02*
X303813D01*
X352000Y432000D02*
X352024Y432024D01*
X357476D02*
X357500Y432047D01*
X352024Y432024D02*
X357476D01*
X299000Y300500D02*
X304500D01*
X298000Y373000D02*
X304106D01*
D99*
X432300Y271100D02*
D03*
X463700D02*
D03*
D100*
X533000Y287000D02*
D03*
Y267000D02*
D03*
Y277000D02*
D03*
Y297000D02*
D03*
Y420000D02*
D03*
Y410000D02*
D03*
Y400000D02*
D03*
Y430000D02*
D03*
D101*
X437000Y382500D02*
D03*
D102*
X447000D02*
D03*
X457000D02*
D03*
X467000D02*
D03*
D103*
X353000Y447500D02*
D03*
X341000Y451500D02*
D03*
X345000D02*
D03*
X349000D02*
D03*
X341000Y455500D02*
D03*
X345000D02*
D03*
X349000D02*
D03*
X353000D02*
D03*
Y451500D02*
D03*
X341000Y447500D02*
D03*
X345000D02*
D03*
X349000D02*
D03*
X341000Y459500D02*
D03*
X345000D02*
D03*
X349000D02*
D03*
X353000D02*
D03*
X341000Y443500D02*
D03*
X345000D02*
D03*
X349000D02*
D03*
X353000D02*
D03*
X329500Y297600D02*
D03*
X307500Y292500D02*
D03*
X319500Y359500D02*
D03*
X351173Y403500D02*
D03*
X380000Y435500D02*
D03*
X399000Y438500D02*
D03*
X298500Y382000D02*
D03*
X294500D02*
D03*
X290500D02*
D03*
X286500D02*
D03*
X298500Y398000D02*
D03*
X294500D02*
D03*
X290500D02*
D03*
X286500D02*
D03*
X298500Y386000D02*
D03*
X294500D02*
D03*
X290500D02*
D03*
X286500D02*
D03*
X298500Y390000D02*
D03*
Y394000D02*
D03*
X294500D02*
D03*
X290500D02*
D03*
X286500D02*
D03*
X294500Y390000D02*
D03*
X290500D02*
D03*
X286500D02*
D03*
X298500Y308000D02*
D03*
X286500Y316000D02*
D03*
X290500D02*
D03*
X294500D02*
D03*
X286500Y320000D02*
D03*
X290500D02*
D03*
X294500D02*
D03*
X298500D02*
D03*
Y316000D02*
D03*
X286500Y312000D02*
D03*
X290500D02*
D03*
X294500D02*
D03*
X298500D02*
D03*
X286500Y324000D02*
D03*
X290500D02*
D03*
X294500D02*
D03*
X298500D02*
D03*
X286500Y308000D02*
D03*
X290500D02*
D03*
X294500D02*
D03*
X356000Y338000D02*
D03*
X398500Y282000D02*
D03*
X382500Y395500D02*
D03*
X460500Y400500D02*
D03*
Y394500D02*
D03*
X455500Y332000D02*
D03*
X414000Y378500D02*
D03*
X354000Y382500D02*
D03*
X410500Y407000D02*
D03*
X306500Y365000D02*
D03*
X415500Y350000D02*
D03*
X364000Y353000D02*
D03*
X447500Y320500D02*
D03*
X443500Y332272D02*
D03*
X428000Y325000D02*
D03*
X461500Y343000D02*
D03*
X434000Y331000D02*
D03*
X439000Y320000D02*
D03*
X512500Y414500D02*
D03*
X475000Y414000D02*
D03*
X498000Y403000D02*
D03*
X453000Y414500D02*
D03*
X465500D02*
D03*
X458500D02*
D03*
X429647Y413647D02*
D03*
X512500Y399500D02*
D03*
X536500Y331500D02*
D03*
X448000Y332500D02*
D03*
X415456Y337544D02*
D03*
X366500Y462500D02*
D03*
X311000Y402500D02*
D03*
X352500Y387500D02*
D03*
X221000Y396500D02*
D03*
X401500Y338500D02*
D03*
X356000Y364500D02*
D03*
X384000Y282000D02*
D03*
X311500Y330000D02*
D03*
X222500Y310500D02*
D03*
X495000Y408000D02*
D03*
X473000D02*
D03*
X460500Y408968D02*
D03*
X535500Y317500D02*
D03*
X432500Y365000D02*
D03*
X426000Y386500D02*
D03*
X381500Y453000D02*
D03*
X311000Y385500D02*
D03*
X332500Y383000D02*
D03*
X426000Y375000D02*
D03*
X339500Y359500D02*
D03*
X329500Y313000D02*
D03*
X311500D02*
D03*
X367500Y338000D02*
D03*
X427500Y349500D02*
D03*
X480500Y401000D02*
D03*
X395224Y385224D02*
D03*
X482500Y375000D02*
D03*
X345500Y348000D02*
D03*
X536500Y342500D02*
D03*
X500500Y337500D02*
D03*
X377000Y338000D02*
D03*
X351000Y318000D02*
D03*
X478000Y359000D02*
D03*
X487500Y404000D02*
D03*
X425500Y397500D02*
D03*
D104*
X367000Y393500D02*
D03*
X374500Y382000D02*
D03*
X367000Y356500D02*
D03*
M02*
