M48
;Layer_Color=9474304
;FILE_FORMAT=4:2
METRIC,LZ
;TYPE=PLATED
T01F00S00C0.65
T02F00S00C0.71
T03F00S00C0.80
T04F00S00C1.00
T05F00S00C1.02
T06F00S00C1.04
T07F00S00C3.18
%
T01
X011053Y00696
X011553
T02
X011872Y007247
X011357Y008842
X011214Y009233
X009867Y009706
X011811Y010732
X012154Y008623
T03
X012129Y00696
X011875
T04
X011996Y007458
Y007908
X011346
Y007458
T05
X016929Y010503
T06
X017043Y007277
Y007531
Y007785
X014503Y007785
Y007531
Y007277
Y007023
Y006769
Y006515
Y006261
Y006007
X01077Y006172
Y006426
Y00668
Y006934
Y007188
Y007442
Y007696
X008484
Y007442
Y007188
Y006934
Y00668
Y006426
Y006172
Y00795
Y008204
Y008458
Y008712
Y008966
Y00922
Y009474
Y009728
Y009982
Y010236
Y01049
Y010744
Y010998
X01077
Y010744
Y01049
Y010236
Y009982
Y009728
Y009474
Y00922
Y008966
Y008712
Y008458
Y008204
Y00795
X014503Y008039
Y008293
X017043Y008293
Y008039
T07
X016929Y006096
X013119Y011239
X016929
M30
