G04*
G04 #@! TF.GenerationSoftware,Altium Limited,Altium Designer,23.7.1 (13)*
G04*
G04 Layer_Color=128*
%FSLAX44Y44*%
%MOMM*%
G71*
G04*
G04 #@! TF.SameCoordinates,CE8F035A-CAA1-46AD-B9C8-9F5C44ABE2B8*
G04*
G04*
G04 #@! TF.FilePolarity,Positive*
G04*
G01*
G75*
%ADD34C,0.1270*%
D34*
X1677035Y609600D02*
X1708785D01*
X1692910Y593725D02*
Y625475D01*
X1296035Y1123950D02*
X1327785D01*
X1311910Y1108075D02*
Y1139825D01*
X1687830Y1050290D02*
X1697990D01*
X1692910Y1045210D02*
Y1055370D01*
X1677035Y1123950D02*
X1708785D01*
X1692910Y1108075D02*
Y1139825D01*
X1699140Y829310D02*
X1709540D01*
X1704340Y824110D02*
Y834510D01*
X1699140Y778510D02*
X1709540D01*
X1704340Y773310D02*
Y783710D01*
X1699140Y753110D02*
X1709540D01*
X1704340Y747910D02*
Y758310D01*
X1699140Y727710D02*
X1709540D01*
X1704340Y722510D02*
Y732910D01*
X1699140Y803910D02*
X1709540D01*
X1704340Y798710D02*
Y809110D01*
X1071760Y617220D02*
X1082160D01*
X1076960Y612020D02*
Y622420D01*
X1071760Y642620D02*
X1082160D01*
X1076960Y637420D02*
Y647820D01*
X1071760Y668020D02*
X1082160D01*
X1076960Y662820D02*
Y673220D01*
X1071760Y693420D02*
X1082160D01*
X1076960Y688220D02*
Y698620D01*
X1071760Y718820D02*
X1082160D01*
X1076960Y713620D02*
Y724020D01*
X1071760Y744220D02*
X1082160D01*
X1076960Y739020D02*
Y749420D01*
X1071760Y769620D02*
X1082160D01*
X1076960Y764420D02*
Y774820D01*
X1071760Y795020D02*
X1082160D01*
X1076960Y789820D02*
Y800220D01*
X1071760Y845820D02*
X1082160D01*
X1076960Y840620D02*
Y851020D01*
X1071760Y871220D02*
X1082160D01*
X1076960Y866020D02*
Y876420D01*
X1071760Y947420D02*
X1082160D01*
X1076960Y942220D02*
Y952620D01*
X1071760Y972820D02*
X1082160D01*
X1076960Y967620D02*
Y978020D01*
X1071760Y998220D02*
X1082160D01*
X1076960Y993020D02*
Y1003420D01*
X1071760Y1023620D02*
X1082160D01*
X1076960Y1018420D02*
Y1028820D01*
X1071760Y1049020D02*
X1082160D01*
X1076960Y1043820D02*
Y1054220D01*
X1071760Y820420D02*
X1082160D01*
X1076960Y815220D02*
Y825620D01*
X1071760Y896620D02*
X1082160D01*
X1076960Y891420D02*
Y901820D01*
X1071760Y922020D02*
X1082160D01*
X1076960Y916820D02*
Y927220D01*
X1071760Y1074420D02*
X1082160D01*
X1076960Y1069220D02*
Y1079620D01*
X1071760Y1099820D02*
X1082160D01*
X1076960Y1094620D02*
Y1105020D01*
X1445102Y651510D02*
X1455502D01*
X1450302Y646310D02*
Y656710D01*
X1445102Y829310D02*
X1455502D01*
X1450302Y824110D02*
Y834510D01*
X1445102Y803910D02*
X1455502D01*
X1450302Y798710D02*
Y809110D01*
X1445102Y778510D02*
X1455502D01*
X1450302Y773310D02*
Y783710D01*
X1445102Y753110D02*
X1455502D01*
X1450302Y747910D02*
Y758310D01*
X1445102Y727710D02*
X1455502D01*
X1450302Y722510D02*
Y732910D01*
X1445102Y702310D02*
X1455502D01*
X1450302Y697110D02*
Y707510D01*
X1445102Y676910D02*
X1455502D01*
X1450302Y671710D02*
Y682110D01*
X1445102Y626110D02*
X1455502D01*
X1450302Y620910D02*
Y631310D01*
X1445102Y600710D02*
X1455502D01*
X1450302Y595510D02*
Y605910D01*
X1194630Y790850D02*
X1204630D01*
X1199630Y785850D02*
Y795850D01*
X1129630Y790850D02*
X1139630D01*
X1134630Y785850D02*
Y795850D01*
X1129630Y745850D02*
X1139630D01*
X1134630Y740850D02*
Y750850D01*
X1194630Y745850D02*
X1204630D01*
X1199630Y740850D02*
Y750850D01*
X1183450Y695960D02*
X1191450D01*
X1187450Y691960D02*
Y699960D01*
X1152050Y695960D02*
X1158550D01*
X1155300Y692710D02*
Y699210D01*
X1102050Y695960D02*
X1108550D01*
X1105300Y692710D02*
Y699210D01*
X843160Y871220D02*
X853560D01*
X848360Y866020D02*
Y876420D01*
X843160Y845820D02*
X853560D01*
X848360Y840620D02*
Y851020D01*
X843160Y1099820D02*
X853560D01*
X848360Y1094620D02*
Y1105020D01*
X1208850Y695960D02*
X1216850D01*
X1212850Y691960D02*
Y699960D01*
X843160Y617220D02*
X853560D01*
X848360Y612020D02*
Y622420D01*
X843160Y642620D02*
X853560D01*
X848360Y637420D02*
Y647820D01*
X843160Y668020D02*
X853560D01*
X848360Y662820D02*
Y673220D01*
X843160Y693420D02*
X853560D01*
X848360Y688220D02*
Y698620D01*
X843160Y718820D02*
X853560D01*
X848360Y713620D02*
Y724020D01*
X843160Y744220D02*
X853560D01*
X848360Y739020D02*
Y749420D01*
X843160Y769620D02*
X853560D01*
X848360Y764420D02*
Y774820D01*
X843160Y795020D02*
X853560D01*
X848360Y789820D02*
Y800220D01*
X843160Y820420D02*
X853560D01*
X848360Y815220D02*
Y825620D01*
X843160Y896620D02*
X853560D01*
X848360Y891420D02*
Y901820D01*
X843160Y922020D02*
X853560D01*
X848360Y916820D02*
Y927220D01*
X843160Y947420D02*
X853560D01*
X848360Y942220D02*
Y952620D01*
X843160Y972820D02*
X853560D01*
X848360Y967620D02*
Y978020D01*
X843160Y998220D02*
X853560D01*
X848360Y993020D02*
Y1003420D01*
X843160Y1023620D02*
X853560D01*
X848360Y1018420D02*
Y1028820D01*
X843160Y1049020D02*
X853560D01*
X848360Y1043820D02*
Y1054220D01*
X843160Y1074420D02*
X853560D01*
X848360Y1069220D02*
Y1079620D01*
X1211834Y862330D02*
X1218946D01*
X1215390Y858774D02*
Y865886D01*
X1117854Y923290D02*
X1124966D01*
X1121410Y919734D02*
Y926846D01*
X1132149Y884202D02*
X1139261D01*
X1135705Y880646D02*
Y887758D01*
X1177544Y1073150D02*
X1184656D01*
X1181100Y1069594D02*
Y1076706D01*
X1183678Y724741D02*
X1190790D01*
X1187234Y721185D02*
Y728297D01*
X983126Y970604D02*
X990238D01*
X986682Y967048D02*
Y974160D01*
M02*
