G04*
G04 #@! TF.GenerationSoftware,Altium Limited,Altium Designer,23.7.1 (13)*
G04*
G04 Layer_Physical_Order=2*
G04 Layer_Color=16711680*
%FSLAX44Y44*%
%MOMM*%
G71*
G04*
G04 #@! TF.SameCoordinates,CE8F035A-CAA1-46AD-B9C8-9F5C44ABE2B8*
G04*
G04*
G04 #@! TF.FilePolarity,Positive*
G04*
G01*
G75*
%ADD14C,0.2540*%
%ADD17R,1.5900X1.5900*%
%ADD18C,1.5900*%
%ADD21R,1.3000X1.3000*%
%ADD22C,1.1500*%
%ADD23R,1.1500X1.1500*%
%ADD24C,1.3000*%
%ADD27C,3.2000*%
%ADD28C,1.0000*%
%ADD29C,1.5000*%
%ADD30R,1.5000X1.5000*%
%ADD31C,1.2700*%
G36*
X1613485Y1164304D02*
X1723426Y1163022D01*
X1723650Y1162918D01*
X1728625Y1106123D01*
X1737227Y1007920D01*
Y1005887D01*
X1541780Y982102D01*
Y564364D01*
X1540870Y563479D01*
X1480820Y565150D01*
X820936D01*
X819618Y563832D01*
X819286Y563922D01*
X797668Y585540D01*
X797339Y586625D01*
X796730Y589689D01*
X796443Y592600D01*
X796656Y984250D01*
X845580D01*
X845747Y982980D01*
X844311Y982595D01*
X841919Y981214D01*
X839966Y979261D01*
X838585Y976869D01*
X837870Y974201D01*
Y971439D01*
X838585Y968771D01*
X839966Y966379D01*
X841919Y964426D01*
X844311Y963045D01*
X846979Y962330D01*
X849741D01*
X852409Y963045D01*
X854801Y964426D01*
X856754Y966379D01*
X858135Y968771D01*
X858850Y971439D01*
Y974201D01*
X858135Y976869D01*
X856754Y979261D01*
X854801Y981214D01*
X852409Y982595D01*
X850973Y982980D01*
X851140Y984250D01*
X1074180D01*
X1074347Y982980D01*
X1072911Y982595D01*
X1070519Y981214D01*
X1068566Y979261D01*
X1067185Y976869D01*
X1066470Y974201D01*
Y971439D01*
X1067185Y968771D01*
X1068566Y966379D01*
X1070519Y964426D01*
X1072911Y963045D01*
X1075579Y962330D01*
X1078341D01*
X1081009Y963045D01*
X1083401Y964426D01*
X1085354Y966379D01*
X1086735Y968771D01*
X1087450Y971439D01*
Y974201D01*
X1086735Y976869D01*
X1085354Y979261D01*
X1083401Y981214D01*
X1081009Y982595D01*
X1079573Y982980D01*
X1079740Y984250D01*
X1211505D01*
Y870352D01*
X1209931Y869444D01*
X1208276Y867789D01*
X1207106Y865761D01*
X1206500Y863500D01*
Y861160D01*
X1207106Y858899D01*
X1208276Y856871D01*
X1209931Y855216D01*
X1211959Y854046D01*
X1214220Y853440D01*
X1216560D01*
X1218821Y854046D01*
X1220849Y855216D01*
X1222504Y856871D01*
X1223674Y858899D01*
X1224280Y861160D01*
Y863500D01*
X1223674Y865761D01*
X1222504Y867789D01*
X1220849Y869444D01*
X1219275Y870352D01*
Y984250D01*
X1309100D01*
X1272571Y1161969D01*
X1273372Y1162955D01*
X1571124Y1164304D01*
X1613485Y1164304D01*
D02*
G37*
%LPC*%
G36*
X1694736Y1142490D02*
X1694180D01*
Y1125220D01*
X1711450D01*
Y1125776D01*
X1710737Y1129358D01*
X1709340Y1132732D01*
X1707311Y1135769D01*
X1704729Y1138351D01*
X1701692Y1140380D01*
X1698318Y1141777D01*
X1694736Y1142490D01*
D02*
G37*
G36*
X1691640D02*
X1691084D01*
X1687502Y1141777D01*
X1684128Y1140380D01*
X1681091Y1138351D01*
X1678509Y1135769D01*
X1676480Y1132732D01*
X1675083Y1129358D01*
X1674370Y1125776D01*
Y1125220D01*
X1691640D01*
Y1142490D01*
D02*
G37*
G36*
X1313736D02*
X1313180D01*
Y1125220D01*
X1330450D01*
Y1125776D01*
X1329738Y1129358D01*
X1328340Y1132732D01*
X1326311Y1135769D01*
X1323729Y1138351D01*
X1320692Y1140380D01*
X1317318Y1141777D01*
X1313736Y1142490D01*
D02*
G37*
G36*
X1310640D02*
X1310084D01*
X1306502Y1141777D01*
X1303128Y1140380D01*
X1300091Y1138351D01*
X1297509Y1135769D01*
X1295480Y1132732D01*
X1294082Y1129358D01*
X1293370Y1125776D01*
Y1125220D01*
X1310640D01*
Y1142490D01*
D02*
G37*
G36*
X1711450Y1122680D02*
X1694180D01*
Y1105410D01*
X1694736D01*
X1698318Y1106123D01*
X1701692Y1107520D01*
X1704729Y1109549D01*
X1707311Y1112131D01*
X1709340Y1115168D01*
X1710737Y1118542D01*
X1711450Y1122124D01*
Y1122680D01*
D02*
G37*
G36*
X1691640D02*
X1674370D01*
Y1122124D01*
X1675083Y1118542D01*
X1676480Y1115168D01*
X1678509Y1112131D01*
X1681091Y1109549D01*
X1684128Y1107520D01*
X1687502Y1106123D01*
X1691084Y1105410D01*
X1691640D01*
Y1122680D01*
D02*
G37*
G36*
X1330450D02*
X1313180D01*
Y1105410D01*
X1313736D01*
X1317318Y1106123D01*
X1320692Y1107520D01*
X1323729Y1109549D01*
X1326311Y1112131D01*
X1328340Y1115168D01*
X1329738Y1118542D01*
X1330450Y1122124D01*
Y1122680D01*
D02*
G37*
G36*
X1310640D02*
X1293370D01*
Y1122124D01*
X1294082Y1118542D01*
X1295480Y1115168D01*
X1297509Y1112131D01*
X1300091Y1109549D01*
X1303128Y1107520D01*
X1306502Y1106123D01*
X1310084Y1105410D01*
X1310640D01*
Y1122680D01*
D02*
G37*
G36*
X1694180Y1057839D02*
Y1051560D01*
X1700459D01*
X1700011Y1053231D01*
X1699008Y1054969D01*
X1697589Y1056387D01*
X1695851Y1057391D01*
X1694180Y1057839D01*
D02*
G37*
G36*
X1691640D02*
X1689969Y1057391D01*
X1688231Y1056387D01*
X1686812Y1054969D01*
X1685809Y1053231D01*
X1685361Y1051560D01*
X1691640D01*
Y1057839D01*
D02*
G37*
G36*
X1700459Y1049020D02*
X1694180D01*
Y1042741D01*
X1695851Y1043189D01*
X1697589Y1044193D01*
X1699008Y1045611D01*
X1700011Y1047349D01*
X1700459Y1049020D01*
D02*
G37*
G36*
X1691640D02*
X1685361D01*
X1685809Y1047349D01*
X1686812Y1045611D01*
X1688231Y1044193D01*
X1689969Y1043189D01*
X1691640Y1042741D01*
Y1049020D01*
D02*
G37*
G36*
X987952Y979467D02*
Y971874D01*
X995545D01*
X994966Y974035D01*
X993795Y976062D01*
X992140Y977718D01*
X990113Y978888D01*
X987952Y979467D01*
D02*
G37*
G36*
X985412D02*
X983250Y978888D01*
X981223Y977718D01*
X979568Y976062D01*
X978398Y974035D01*
X977818Y971874D01*
X985412D01*
Y979467D01*
D02*
G37*
G36*
X995545Y969334D02*
X987952D01*
Y961740D01*
X990113Y962320D01*
X992140Y963490D01*
X993795Y965145D01*
X994966Y967172D01*
X995545Y969334D01*
D02*
G37*
G36*
X985412D02*
X977818D01*
X978398Y967172D01*
X979568Y965145D01*
X981223Y963490D01*
X983250Y962320D01*
X985412Y961740D01*
Y969334D01*
D02*
G37*
G36*
X1078341Y957910D02*
X1075579D01*
X1072911Y957195D01*
X1070519Y955814D01*
X1068566Y953861D01*
X1067185Y951469D01*
X1066470Y948801D01*
Y946039D01*
X1067185Y943371D01*
X1068566Y940979D01*
X1070519Y939026D01*
X1072911Y937645D01*
X1075579Y936930D01*
X1078341D01*
X1081009Y937645D01*
X1083401Y939026D01*
X1085354Y940979D01*
X1086735Y943371D01*
X1087450Y946039D01*
Y948801D01*
X1086735Y951469D01*
X1085354Y953861D01*
X1083401Y955814D01*
X1081009Y957195D01*
X1078341Y957910D01*
D02*
G37*
G36*
X849741D02*
X846979D01*
X844311Y957195D01*
X841919Y955814D01*
X839966Y953861D01*
X838585Y951469D01*
X837870Y948801D01*
Y946039D01*
X838585Y943371D01*
X839966Y940979D01*
X841919Y939026D01*
X844311Y937645D01*
X846979Y936930D01*
X849741D01*
X852409Y937645D01*
X854801Y939026D01*
X856754Y940979D01*
X858135Y943371D01*
X858850Y946039D01*
Y948801D01*
X858135Y951469D01*
X856754Y953861D01*
X854801Y955814D01*
X852409Y957195D01*
X849741Y957910D01*
D02*
G37*
G36*
X1078341Y932510D02*
X1075579D01*
X1072911Y931795D01*
X1070519Y930414D01*
X1068566Y928461D01*
X1067185Y926069D01*
X1066470Y923401D01*
Y920639D01*
X1067185Y917971D01*
X1068566Y915579D01*
X1070519Y913626D01*
X1072911Y912245D01*
X1075579Y911530D01*
X1078341D01*
X1081009Y912245D01*
X1083401Y913626D01*
X1085354Y915579D01*
X1086735Y917971D01*
X1087450Y920639D01*
Y923401D01*
X1086735Y926069D01*
X1085354Y928461D01*
X1083401Y930414D01*
X1081009Y931795D01*
X1078341Y932510D01*
D02*
G37*
G36*
X849741D02*
X846979D01*
X844311Y931795D01*
X841919Y930414D01*
X839966Y928461D01*
X838585Y926069D01*
X837870Y923401D01*
Y920639D01*
X838585Y917971D01*
X839966Y915579D01*
X841919Y913626D01*
X844311Y912245D01*
X846979Y911530D01*
X849741D01*
X852409Y912245D01*
X854801Y913626D01*
X856754Y915579D01*
X858135Y917971D01*
X858850Y920639D01*
Y923401D01*
X858135Y926069D01*
X856754Y928461D01*
X854801Y930414D01*
X852409Y931795D01*
X849741Y932510D01*
D02*
G37*
G36*
X1078341Y907110D02*
X1075579D01*
X1072911Y906395D01*
X1070519Y905014D01*
X1068566Y903061D01*
X1067185Y900669D01*
X1066470Y898001D01*
Y895239D01*
X1067185Y892571D01*
X1068566Y890179D01*
X1070519Y888226D01*
X1072911Y886845D01*
X1075579Y886130D01*
X1078341D01*
X1081009Y886845D01*
X1083401Y888226D01*
X1085354Y890179D01*
X1086735Y892571D01*
X1087450Y895239D01*
Y898001D01*
X1086735Y900669D01*
X1085354Y903061D01*
X1083401Y905014D01*
X1081009Y906395D01*
X1078341Y907110D01*
D02*
G37*
G36*
X849741D02*
X846979D01*
X844311Y906395D01*
X841919Y905014D01*
X839966Y903061D01*
X838585Y900669D01*
X837870Y898001D01*
Y895239D01*
X838585Y892571D01*
X839966Y890179D01*
X841919Y888226D01*
X844311Y886845D01*
X846979Y886130D01*
X849741D01*
X852409Y886845D01*
X854801Y888226D01*
X856754Y890179D01*
X858135Y892571D01*
X858850Y895239D01*
Y898001D01*
X858135Y900669D01*
X856754Y903061D01*
X854801Y905014D01*
X852409Y906395D01*
X849741Y907110D01*
D02*
G37*
G36*
X1122580Y932180D02*
X1120240D01*
X1117979Y931574D01*
X1115951Y930404D01*
X1114296Y928749D01*
X1113126Y926721D01*
X1112520Y924460D01*
Y922120D01*
X1113126Y919859D01*
X1114296Y917831D01*
X1115951Y916176D01*
X1117979Y915006D01*
X1120240Y914400D01*
X1122580D01*
X1124336Y914870D01*
X1131820Y907386D01*
Y892225D01*
X1130246Y891316D01*
X1128591Y889661D01*
X1127421Y887634D01*
X1126815Y885373D01*
Y883032D01*
X1127421Y880771D01*
X1128591Y878744D01*
X1130246Y877088D01*
X1132273Y875918D01*
X1134535Y875312D01*
X1136875D01*
X1139136Y875918D01*
X1141163Y877088D01*
X1142819Y878744D01*
X1143989Y880771D01*
X1144595Y883032D01*
Y885373D01*
X1143989Y887634D01*
X1142819Y889661D01*
X1141163Y891316D01*
X1139590Y892225D01*
Y908995D01*
X1139294Y910482D01*
X1138452Y911742D01*
X1129830Y920364D01*
X1130300Y922120D01*
Y924460D01*
X1129694Y926721D01*
X1128524Y928749D01*
X1126869Y930404D01*
X1124841Y931574D01*
X1122580Y932180D01*
D02*
G37*
G36*
X1078341Y881710D02*
X1075579D01*
X1072911Y880995D01*
X1070519Y879614D01*
X1068566Y877661D01*
X1067185Y875269D01*
X1066470Y872601D01*
Y869839D01*
X1067185Y867171D01*
X1068566Y864779D01*
X1070519Y862826D01*
X1072911Y861445D01*
X1075579Y860730D01*
X1078341D01*
X1081009Y861445D01*
X1083401Y862826D01*
X1085354Y864779D01*
X1086735Y867171D01*
X1087450Y869839D01*
Y872601D01*
X1086735Y875269D01*
X1085354Y877661D01*
X1083401Y879614D01*
X1081009Y880995D01*
X1078341Y881710D01*
D02*
G37*
G36*
X849741D02*
X846979D01*
X844311Y880995D01*
X841919Y879614D01*
X839966Y877661D01*
X838585Y875269D01*
X837870Y872601D01*
Y869839D01*
X838585Y867171D01*
X839966Y864779D01*
X841919Y862826D01*
X844311Y861445D01*
X846979Y860730D01*
X849741D01*
X852409Y861445D01*
X854801Y862826D01*
X856754Y864779D01*
X858135Y867171D01*
X858850Y869839D01*
Y872601D01*
X858135Y875269D01*
X856754Y877661D01*
X854801Y879614D01*
X852409Y880995D01*
X849741Y881710D01*
D02*
G37*
G36*
X1078341Y856310D02*
X1075579D01*
X1072911Y855595D01*
X1070519Y854214D01*
X1068566Y852261D01*
X1067185Y849869D01*
X1066470Y847201D01*
Y844439D01*
X1067185Y841771D01*
X1068566Y839379D01*
X1070519Y837426D01*
X1072911Y836045D01*
X1075579Y835330D01*
X1078341D01*
X1081009Y836045D01*
X1083401Y837426D01*
X1085354Y839379D01*
X1086735Y841771D01*
X1087450Y844439D01*
Y847201D01*
X1086735Y849869D01*
X1085354Y852261D01*
X1083401Y854214D01*
X1081009Y855595D01*
X1078341Y856310D01*
D02*
G37*
G36*
X849741D02*
X846979D01*
X844311Y855595D01*
X841919Y854214D01*
X839966Y852261D01*
X838585Y849869D01*
X837870Y847201D01*
Y844439D01*
X838585Y841771D01*
X839966Y839379D01*
X841919Y837426D01*
X844311Y836045D01*
X846979Y835330D01*
X849741D01*
X852409Y836045D01*
X854801Y837426D01*
X856754Y839379D01*
X858135Y841771D01*
X858850Y844439D01*
Y847201D01*
X858135Y849869D01*
X856754Y852261D01*
X854801Y854214D01*
X852409Y855595D01*
X849741Y856310D01*
D02*
G37*
G36*
X1460792Y839800D02*
X1439812D01*
Y818820D01*
X1460792D01*
Y839800D01*
D02*
G37*
G36*
X1078341Y830910D02*
X1075579D01*
X1072911Y830195D01*
X1070519Y828814D01*
X1068566Y826861D01*
X1067185Y824469D01*
X1066470Y821801D01*
Y819039D01*
X1067185Y816371D01*
X1068566Y813979D01*
X1070519Y812026D01*
X1072911Y810645D01*
X1075579Y809930D01*
X1078341D01*
X1081009Y810645D01*
X1083401Y812026D01*
X1085354Y813979D01*
X1086735Y816371D01*
X1087450Y819039D01*
Y821801D01*
X1086735Y824469D01*
X1085354Y826861D01*
X1083401Y828814D01*
X1081009Y830195D01*
X1078341Y830910D01*
D02*
G37*
G36*
X849741D02*
X846979D01*
X844311Y830195D01*
X841919Y828814D01*
X839966Y826861D01*
X838585Y824469D01*
X837870Y821801D01*
Y819039D01*
X838585Y816371D01*
X839966Y813979D01*
X841919Y812026D01*
X844311Y810645D01*
X846979Y809930D01*
X849741D01*
X852409Y810645D01*
X854801Y812026D01*
X856754Y813979D01*
X858135Y816371D01*
X858850Y819039D01*
Y821801D01*
X858135Y824469D01*
X856754Y826861D01*
X854801Y828814D01*
X852409Y830195D01*
X849741Y830910D01*
D02*
G37*
G36*
X1451683Y814400D02*
X1451572D01*
Y805180D01*
X1460792D01*
Y805291D01*
X1460077Y807959D01*
X1458696Y810351D01*
X1456743Y812304D01*
X1454351Y813685D01*
X1451683Y814400D01*
D02*
G37*
G36*
X1449032D02*
X1448921D01*
X1446253Y813685D01*
X1443861Y812304D01*
X1441908Y810351D01*
X1440527Y807959D01*
X1439812Y805291D01*
Y805180D01*
X1449032D01*
Y814400D01*
D02*
G37*
G36*
X1460792Y802640D02*
X1451572D01*
Y793420D01*
X1451683D01*
X1454351Y794135D01*
X1456743Y795516D01*
X1458696Y797469D01*
X1460077Y799861D01*
X1460792Y802529D01*
Y802640D01*
D02*
G37*
G36*
X1449032D02*
X1439812D01*
Y802529D01*
X1440527Y799861D01*
X1441908Y797469D01*
X1443861Y795516D01*
X1446253Y794135D01*
X1448921Y793420D01*
X1449032D01*
Y802640D01*
D02*
G37*
G36*
X1078341Y805510D02*
X1075579D01*
X1072911Y804795D01*
X1070519Y803414D01*
X1068566Y801461D01*
X1067185Y799069D01*
X1066470Y796401D01*
Y793639D01*
X1067185Y790971D01*
X1068566Y788579D01*
X1070519Y786626D01*
X1072911Y785245D01*
X1075579Y784530D01*
X1078341D01*
X1081009Y785245D01*
X1083401Y786626D01*
X1085354Y788579D01*
X1086735Y790971D01*
X1087450Y793639D01*
Y796401D01*
X1086735Y799069D01*
X1085354Y801461D01*
X1083401Y803414D01*
X1081009Y804795D01*
X1078341Y805510D01*
D02*
G37*
G36*
X849741D02*
X846979D01*
X844311Y804795D01*
X841919Y803414D01*
X839966Y801461D01*
X838585Y799069D01*
X837870Y796401D01*
Y793639D01*
X838585Y790971D01*
X839966Y788579D01*
X841919Y786626D01*
X844311Y785245D01*
X846979Y784530D01*
X849741D01*
X852409Y785245D01*
X854801Y786626D01*
X856754Y788579D01*
X858135Y790971D01*
X858850Y793639D01*
Y796401D01*
X858135Y799069D01*
X856754Y801461D01*
X854801Y803414D01*
X852409Y804795D01*
X849741Y805510D01*
D02*
G37*
G36*
X1200952Y800890D02*
X1198308D01*
X1195755Y800206D01*
X1193465Y798884D01*
X1191596Y797015D01*
X1190274Y794725D01*
X1189590Y792172D01*
Y789528D01*
X1190274Y786975D01*
X1191596Y784685D01*
X1193465Y782816D01*
X1195755Y781494D01*
X1198308Y780810D01*
X1200952D01*
X1203505Y781494D01*
X1205795Y782816D01*
X1207664Y784685D01*
X1208986Y786975D01*
X1209670Y789528D01*
Y792172D01*
X1208986Y794725D01*
X1207664Y797015D01*
X1205795Y798884D01*
X1203505Y800206D01*
X1200952Y800890D01*
D02*
G37*
G36*
X1135952D02*
X1133308D01*
X1130755Y800206D01*
X1128465Y798884D01*
X1126596Y797015D01*
X1125274Y794725D01*
X1124590Y792172D01*
Y789528D01*
X1125274Y786975D01*
X1126596Y784685D01*
X1128465Y782816D01*
X1130755Y781494D01*
X1133308Y780810D01*
X1135952D01*
X1138505Y781494D01*
X1140795Y782816D01*
X1142664Y784685D01*
X1143986Y786975D01*
X1144670Y789528D01*
Y792172D01*
X1143986Y794725D01*
X1142664Y797015D01*
X1140795Y798884D01*
X1138505Y800206D01*
X1135952Y800890D01*
D02*
G37*
G36*
X1451683Y789000D02*
X1448921D01*
X1446253Y788285D01*
X1443861Y786904D01*
X1441908Y784951D01*
X1440527Y782559D01*
X1439812Y779891D01*
Y777129D01*
X1440527Y774461D01*
X1441908Y772069D01*
X1443861Y770116D01*
X1446253Y768735D01*
X1448921Y768020D01*
X1451683D01*
X1454351Y768735D01*
X1456743Y770116D01*
X1458696Y772069D01*
X1460077Y774461D01*
X1460792Y777129D01*
Y779891D01*
X1460077Y782559D01*
X1458696Y784951D01*
X1456743Y786904D01*
X1454351Y788285D01*
X1451683Y789000D01*
D02*
G37*
G36*
X1078341Y780110D02*
X1075579D01*
X1072911Y779395D01*
X1070519Y778014D01*
X1068566Y776061D01*
X1067185Y773669D01*
X1066470Y771001D01*
Y768239D01*
X1067185Y765571D01*
X1068566Y763179D01*
X1070519Y761226D01*
X1072911Y759845D01*
X1075579Y759130D01*
X1078341D01*
X1081009Y759845D01*
X1083401Y761226D01*
X1085354Y763179D01*
X1086735Y765571D01*
X1087450Y768239D01*
Y771001D01*
X1086735Y773669D01*
X1085354Y776061D01*
X1083401Y778014D01*
X1081009Y779395D01*
X1078341Y780110D01*
D02*
G37*
G36*
X849741D02*
X846979D01*
X844311Y779395D01*
X841919Y778014D01*
X839966Y776061D01*
X838585Y773669D01*
X837870Y771001D01*
Y768239D01*
X838585Y765571D01*
X839966Y763179D01*
X841919Y761226D01*
X844311Y759845D01*
X846979Y759130D01*
X849741D01*
X852409Y759845D01*
X854801Y761226D01*
X856754Y763179D01*
X858135Y765571D01*
X858850Y768239D01*
Y771001D01*
X858135Y773669D01*
X856754Y776061D01*
X854801Y778014D01*
X852409Y779395D01*
X849741Y780110D01*
D02*
G37*
G36*
X1209670Y755890D02*
X1200900D01*
Y747120D01*
X1209670D01*
Y755890D01*
D02*
G37*
G36*
X1198360D02*
X1189590D01*
Y747120D01*
X1198360D01*
Y755890D01*
D02*
G37*
G36*
X1451683Y763600D02*
X1448921D01*
X1446253Y762885D01*
X1443861Y761504D01*
X1441908Y759551D01*
X1440527Y757159D01*
X1439812Y754491D01*
Y751729D01*
X1440527Y749061D01*
X1441908Y746669D01*
X1443861Y744716D01*
X1446253Y743335D01*
X1448921Y742620D01*
X1451683D01*
X1454351Y743335D01*
X1456743Y744716D01*
X1458696Y746669D01*
X1460077Y749061D01*
X1460792Y751729D01*
Y754491D01*
X1460077Y757159D01*
X1458696Y759551D01*
X1456743Y761504D01*
X1454351Y762885D01*
X1451683Y763600D01*
D02*
G37*
G36*
X1209670Y744580D02*
X1200900D01*
Y735810D01*
X1209670D01*
Y744580D01*
D02*
G37*
G36*
X1198360D02*
X1189590D01*
Y735810D01*
X1198360D01*
Y744580D01*
D02*
G37*
G36*
X1135952Y755890D02*
X1133308D01*
X1130755Y755206D01*
X1128465Y753884D01*
X1126596Y752015D01*
X1125274Y749725D01*
X1124590Y747172D01*
Y744528D01*
X1125274Y741975D01*
X1126596Y739685D01*
X1128465Y737816D01*
X1130755Y736494D01*
X1133308Y735810D01*
X1135952D01*
X1138505Y736494D01*
X1140795Y737816D01*
X1142664Y739685D01*
X1143986Y741975D01*
X1144670Y744528D01*
Y747172D01*
X1143986Y749725D01*
X1142664Y752015D01*
X1140795Y753884D01*
X1138505Y755206D01*
X1135952Y755890D01*
D02*
G37*
G36*
X1078341Y754710D02*
X1075579D01*
X1072911Y753995D01*
X1070519Y752614D01*
X1068566Y750661D01*
X1067185Y748269D01*
X1066470Y745601D01*
Y742839D01*
X1067185Y740171D01*
X1068566Y737779D01*
X1070519Y735826D01*
X1072911Y734445D01*
X1075579Y733730D01*
X1078341D01*
X1081009Y734445D01*
X1083401Y735826D01*
X1085354Y737779D01*
X1086735Y740171D01*
X1087450Y742839D01*
Y745601D01*
X1086735Y748269D01*
X1085354Y750661D01*
X1083401Y752614D01*
X1081009Y753995D01*
X1078341Y754710D01*
D02*
G37*
G36*
X849741D02*
X846979D01*
X844311Y753995D01*
X841919Y752614D01*
X839966Y750661D01*
X838585Y748269D01*
X837870Y745601D01*
Y742839D01*
X838585Y740171D01*
X839966Y737779D01*
X841919Y735826D01*
X844311Y734445D01*
X846979Y733730D01*
X849741D01*
X852409Y734445D01*
X854801Y735826D01*
X856754Y737779D01*
X858135Y740171D01*
X858850Y742839D01*
Y745601D01*
X858135Y748269D01*
X856754Y750661D01*
X854801Y752614D01*
X852409Y753995D01*
X849741Y754710D01*
D02*
G37*
G36*
X1188504Y733605D02*
Y726011D01*
X1196097D01*
X1195518Y728173D01*
X1194348Y730200D01*
X1192692Y731855D01*
X1190665Y733026D01*
X1188504Y733605D01*
D02*
G37*
G36*
X1185964D02*
X1183802Y733026D01*
X1181775Y731855D01*
X1180120Y730200D01*
X1178950Y728173D01*
X1178371Y726011D01*
X1185964D01*
Y733605D01*
D02*
G37*
G36*
X1451683Y738200D02*
X1448921D01*
X1446253Y737485D01*
X1443861Y736104D01*
X1441908Y734151D01*
X1440527Y731759D01*
X1439812Y729091D01*
Y726329D01*
X1440527Y723661D01*
X1441908Y721269D01*
X1443861Y719316D01*
X1446253Y717935D01*
X1448921Y717220D01*
X1451683D01*
X1454351Y717935D01*
X1456743Y719316D01*
X1458696Y721269D01*
X1460077Y723661D01*
X1460792Y726329D01*
Y729091D01*
X1460077Y731759D01*
X1458696Y734151D01*
X1456743Y736104D01*
X1454351Y737485D01*
X1451683Y738200D01*
D02*
G37*
G36*
X1196097Y723471D02*
X1188504D01*
Y715878D01*
X1190665Y716457D01*
X1192692Y717627D01*
X1194348Y719283D01*
X1195518Y721310D01*
X1196097Y723471D01*
D02*
G37*
G36*
X1185964D02*
X1178371D01*
X1178950Y721310D01*
X1180120Y719283D01*
X1181775Y717627D01*
X1183802Y716457D01*
X1185964Y715878D01*
Y723471D01*
D02*
G37*
G36*
X1078341Y729310D02*
X1075579D01*
X1072911Y728595D01*
X1070519Y727214D01*
X1068566Y725261D01*
X1067185Y722869D01*
X1066470Y720201D01*
Y717439D01*
X1067185Y714771D01*
X1068566Y712379D01*
X1070519Y710426D01*
X1072911Y709045D01*
X1075579Y708330D01*
X1078341D01*
X1081009Y709045D01*
X1083401Y710426D01*
X1085354Y712379D01*
X1086735Y714771D01*
X1087450Y717439D01*
Y720201D01*
X1086735Y722869D01*
X1085354Y725261D01*
X1083401Y727214D01*
X1081009Y728595D01*
X1078341Y729310D01*
D02*
G37*
G36*
X849741D02*
X846979D01*
X844311Y728595D01*
X841919Y727214D01*
X839966Y725261D01*
X838585Y722869D01*
X837870Y720201D01*
Y717439D01*
X838585Y714771D01*
X839966Y712379D01*
X841919Y710426D01*
X844311Y709045D01*
X846979Y708330D01*
X849741D01*
X852409Y709045D01*
X854801Y710426D01*
X856754Y712379D01*
X858135Y714771D01*
X858850Y717439D01*
Y720201D01*
X858135Y722869D01*
X856754Y725261D01*
X854801Y727214D01*
X852409Y728595D01*
X849741Y729310D01*
D02*
G37*
G36*
X1196490Y705000D02*
X1188720D01*
Y697230D01*
X1196490D01*
Y705000D01*
D02*
G37*
G36*
X1186180D02*
X1178410D01*
Y697230D01*
X1186180D01*
Y705000D01*
D02*
G37*
G36*
X1451683Y712800D02*
X1448921D01*
X1446253Y712085D01*
X1443861Y710704D01*
X1441908Y708751D01*
X1440527Y706359D01*
X1439812Y703691D01*
Y700929D01*
X1440527Y698261D01*
X1441908Y695869D01*
X1443861Y693916D01*
X1446253Y692535D01*
X1448921Y691820D01*
X1451683D01*
X1454351Y692535D01*
X1456743Y693916D01*
X1458696Y695869D01*
X1460077Y698261D01*
X1460792Y700929D01*
Y703691D01*
X1460077Y706359D01*
X1458696Y708751D01*
X1456743Y710704D01*
X1454351Y712085D01*
X1451683Y712800D01*
D02*
G37*
G36*
X1156391Y704250D02*
X1154209D01*
X1152100Y703685D01*
X1150210Y702594D01*
X1148666Y701050D01*
X1147575Y699160D01*
X1147010Y697051D01*
Y694869D01*
X1147575Y692760D01*
X1148666Y690870D01*
X1150210Y689326D01*
X1152100Y688235D01*
X1154209Y687670D01*
X1156391D01*
X1158500Y688235D01*
X1160390Y689326D01*
X1161934Y690870D01*
X1163025Y692760D01*
X1163590Y694869D01*
Y697051D01*
X1163025Y699160D01*
X1161934Y701050D01*
X1160390Y702594D01*
X1158500Y703685D01*
X1156391Y704250D01*
D02*
G37*
G36*
X1113590D02*
X1097010D01*
Y687670D01*
X1113590D01*
Y704250D01*
D02*
G37*
G36*
X1214040Y705000D02*
X1211660D01*
X1209361Y704384D01*
X1207299Y703194D01*
X1205616Y701511D01*
X1204426Y699449D01*
X1203810Y697150D01*
Y694770D01*
X1204426Y692471D01*
X1205616Y690409D01*
X1207299Y688726D01*
X1209361Y687536D01*
X1211660Y686920D01*
X1214040D01*
X1216339Y687536D01*
X1218401Y688726D01*
X1220084Y690409D01*
X1221274Y692471D01*
X1221890Y694770D01*
Y697150D01*
X1221274Y699449D01*
X1220084Y701511D01*
X1218401Y703194D01*
X1216339Y704384D01*
X1214040Y705000D01*
D02*
G37*
G36*
X1196490Y694690D02*
X1188720D01*
Y686920D01*
X1196490D01*
Y694690D01*
D02*
G37*
G36*
X1186180D02*
X1178410D01*
Y686920D01*
X1186180D01*
Y694690D01*
D02*
G37*
G36*
X1078341Y703910D02*
X1075579D01*
X1072911Y703195D01*
X1070519Y701814D01*
X1068566Y699861D01*
X1067185Y697469D01*
X1066470Y694801D01*
Y692039D01*
X1067185Y689371D01*
X1068566Y686979D01*
X1070519Y685026D01*
X1072911Y683645D01*
X1075579Y682930D01*
X1078341D01*
X1081009Y683645D01*
X1083401Y685026D01*
X1085354Y686979D01*
X1086735Y689371D01*
X1087450Y692039D01*
Y694801D01*
X1086735Y697469D01*
X1085354Y699861D01*
X1083401Y701814D01*
X1081009Y703195D01*
X1078341Y703910D01*
D02*
G37*
G36*
X849741D02*
X846979D01*
X844311Y703195D01*
X841919Y701814D01*
X839966Y699861D01*
X838585Y697469D01*
X837870Y694801D01*
Y692039D01*
X838585Y689371D01*
X839966Y686979D01*
X841919Y685026D01*
X844311Y683645D01*
X846979Y682930D01*
X849741D01*
X852409Y683645D01*
X854801Y685026D01*
X856754Y686979D01*
X858135Y689371D01*
X858850Y692039D01*
Y694801D01*
X858135Y697469D01*
X856754Y699861D01*
X854801Y701814D01*
X852409Y703195D01*
X849741Y703910D01*
D02*
G37*
G36*
X1451683Y687400D02*
X1448921D01*
X1446253Y686685D01*
X1443861Y685304D01*
X1441908Y683351D01*
X1440527Y680959D01*
X1439812Y678291D01*
Y675529D01*
X1440527Y672861D01*
X1441908Y670469D01*
X1443861Y668516D01*
X1446253Y667135D01*
X1448921Y666420D01*
X1451683D01*
X1454351Y667135D01*
X1456743Y668516D01*
X1458696Y670469D01*
X1460077Y672861D01*
X1460792Y675529D01*
Y678291D01*
X1460077Y680959D01*
X1458696Y683351D01*
X1456743Y685304D01*
X1454351Y686685D01*
X1451683Y687400D01*
D02*
G37*
G36*
X1078341Y678510D02*
X1075579D01*
X1072911Y677795D01*
X1070519Y676414D01*
X1068566Y674461D01*
X1067185Y672069D01*
X1066470Y669401D01*
Y666639D01*
X1067185Y663971D01*
X1068566Y661579D01*
X1070519Y659626D01*
X1072911Y658245D01*
X1075579Y657530D01*
X1078341D01*
X1081009Y658245D01*
X1083401Y659626D01*
X1085354Y661579D01*
X1086735Y663971D01*
X1087450Y666639D01*
Y669401D01*
X1086735Y672069D01*
X1085354Y674461D01*
X1083401Y676414D01*
X1081009Y677795D01*
X1078341Y678510D01*
D02*
G37*
G36*
X849741D02*
X846979D01*
X844311Y677795D01*
X841919Y676414D01*
X839966Y674461D01*
X838585Y672069D01*
X837870Y669401D01*
Y666639D01*
X838585Y663971D01*
X839966Y661579D01*
X841919Y659626D01*
X844311Y658245D01*
X846979Y657530D01*
X849741D01*
X852409Y658245D01*
X854801Y659626D01*
X856754Y661579D01*
X858135Y663971D01*
X858850Y666639D01*
Y669401D01*
X858135Y672069D01*
X856754Y674461D01*
X854801Y676414D01*
X852409Y677795D01*
X849741Y678510D01*
D02*
G37*
G36*
X1451683Y662000D02*
X1448921D01*
X1446253Y661285D01*
X1443861Y659904D01*
X1441908Y657951D01*
X1440527Y655559D01*
X1439812Y652891D01*
Y650129D01*
X1440527Y647461D01*
X1441908Y645069D01*
X1443861Y643116D01*
X1446253Y641735D01*
X1448921Y641020D01*
X1451683D01*
X1454351Y641735D01*
X1456743Y643116D01*
X1458696Y645069D01*
X1460077Y647461D01*
X1460792Y650129D01*
Y652891D01*
X1460077Y655559D01*
X1458696Y657951D01*
X1456743Y659904D01*
X1454351Y661285D01*
X1451683Y662000D01*
D02*
G37*
G36*
X1078341Y653110D02*
X1075579D01*
X1072911Y652395D01*
X1070519Y651014D01*
X1068566Y649061D01*
X1067185Y646669D01*
X1066470Y644001D01*
Y641239D01*
X1067185Y638571D01*
X1068566Y636179D01*
X1070519Y634226D01*
X1072911Y632845D01*
X1075579Y632130D01*
X1078341D01*
X1081009Y632845D01*
X1083401Y634226D01*
X1085354Y636179D01*
X1086735Y638571D01*
X1087450Y641239D01*
Y644001D01*
X1086735Y646669D01*
X1085354Y649061D01*
X1083401Y651014D01*
X1081009Y652395D01*
X1078341Y653110D01*
D02*
G37*
G36*
X849741D02*
X846979D01*
X844311Y652395D01*
X841919Y651014D01*
X839966Y649061D01*
X838585Y646669D01*
X837870Y644001D01*
Y641239D01*
X838585Y638571D01*
X839966Y636179D01*
X841919Y634226D01*
X844311Y632845D01*
X846979Y632130D01*
X849741D01*
X852409Y632845D01*
X854801Y634226D01*
X856754Y636179D01*
X858135Y638571D01*
X858850Y641239D01*
Y644001D01*
X858135Y646669D01*
X856754Y649061D01*
X854801Y651014D01*
X852409Y652395D01*
X849741Y653110D01*
D02*
G37*
G36*
X1451683Y636600D02*
X1448921D01*
X1446253Y635885D01*
X1443861Y634504D01*
X1441908Y632551D01*
X1440527Y630159D01*
X1439812Y627491D01*
Y624729D01*
X1440527Y622061D01*
X1441908Y619669D01*
X1443861Y617716D01*
X1446253Y616335D01*
X1448921Y615620D01*
X1451683D01*
X1454351Y616335D01*
X1456743Y617716D01*
X1458696Y619669D01*
X1460077Y622061D01*
X1460792Y624729D01*
Y627491D01*
X1460077Y630159D01*
X1458696Y632551D01*
X1456743Y634504D01*
X1454351Y635885D01*
X1451683Y636600D01*
D02*
G37*
G36*
X1078341Y627710D02*
X1075579D01*
X1072911Y626995D01*
X1070519Y625614D01*
X1068566Y623661D01*
X1067185Y621269D01*
X1066470Y618601D01*
Y615839D01*
X1067185Y613171D01*
X1068566Y610779D01*
X1070519Y608826D01*
X1072911Y607445D01*
X1075579Y606730D01*
X1078341D01*
X1081009Y607445D01*
X1083401Y608826D01*
X1085354Y610779D01*
X1086735Y613171D01*
X1087450Y615839D01*
Y618601D01*
X1086735Y621269D01*
X1085354Y623661D01*
X1083401Y625614D01*
X1081009Y626995D01*
X1078341Y627710D01*
D02*
G37*
G36*
X849741D02*
X846979D01*
X844311Y626995D01*
X841919Y625614D01*
X839966Y623661D01*
X838585Y621269D01*
X837870Y618601D01*
Y615839D01*
X838585Y613171D01*
X839966Y610779D01*
X841919Y608826D01*
X844311Y607445D01*
X846979Y606730D01*
X849741D01*
X852409Y607445D01*
X854801Y608826D01*
X856754Y610779D01*
X858135Y613171D01*
X858850Y615839D01*
Y618601D01*
X858135Y621269D01*
X856754Y623661D01*
X854801Y625614D01*
X852409Y626995D01*
X849741Y627710D01*
D02*
G37*
G36*
X1451683Y611200D02*
X1448921D01*
X1446253Y610485D01*
X1443861Y609104D01*
X1441908Y607151D01*
X1440527Y604759D01*
X1439812Y602091D01*
Y599329D01*
X1440527Y596661D01*
X1441908Y594269D01*
X1443861Y592316D01*
X1446253Y590935D01*
X1448921Y590220D01*
X1451683D01*
X1454351Y590935D01*
X1456743Y592316D01*
X1458696Y594269D01*
X1460077Y596661D01*
X1460792Y599329D01*
Y602091D01*
X1460077Y604759D01*
X1458696Y607151D01*
X1456743Y609104D01*
X1454351Y610485D01*
X1451683Y611200D01*
D02*
G37*
%LPD*%
D14*
X1121410Y923290D02*
X1135705Y908995D01*
Y884202D02*
Y908995D01*
X1215390Y862330D02*
Y1038860D01*
X1181100Y1073150D02*
X1215390Y1038860D01*
D17*
X1704340Y829310D02*
D03*
X1076960Y1099820D02*
D03*
X1450302Y829310D02*
D03*
X848360Y1099820D02*
D03*
D18*
X1704340Y778510D02*
D03*
Y753110D02*
D03*
Y727710D02*
D03*
Y803910D02*
D03*
X1076960Y617220D02*
D03*
Y642620D02*
D03*
Y668020D02*
D03*
Y693420D02*
D03*
Y718820D02*
D03*
Y744220D02*
D03*
Y769620D02*
D03*
Y795020D02*
D03*
Y845820D02*
D03*
Y871220D02*
D03*
Y947420D02*
D03*
Y972820D02*
D03*
Y998220D02*
D03*
Y1023620D02*
D03*
Y1049020D02*
D03*
Y820420D02*
D03*
Y896620D02*
D03*
Y922020D02*
D03*
Y1074420D02*
D03*
X1450302Y651510D02*
D03*
Y803910D02*
D03*
Y778510D02*
D03*
Y753110D02*
D03*
Y727710D02*
D03*
Y702310D02*
D03*
Y676910D02*
D03*
Y626110D02*
D03*
Y600710D02*
D03*
X848360Y871220D02*
D03*
Y845820D02*
D03*
Y617220D02*
D03*
Y642620D02*
D03*
Y668020D02*
D03*
Y693420D02*
D03*
Y718820D02*
D03*
Y744220D02*
D03*
Y769620D02*
D03*
Y795020D02*
D03*
Y820420D02*
D03*
Y896620D02*
D03*
Y922020D02*
D03*
Y947420D02*
D03*
Y972820D02*
D03*
Y998220D02*
D03*
Y1023620D02*
D03*
Y1049020D02*
D03*
Y1074420D02*
D03*
D21*
X1187450Y695960D02*
D03*
D22*
X1155300D02*
D03*
D23*
X1105300D02*
D03*
D24*
X1212850D02*
D03*
D27*
X1692910Y609600D02*
D03*
X1311910Y1123950D02*
D03*
X1692910D02*
D03*
D28*
Y1050290D02*
D03*
D29*
X1199630Y790850D02*
D03*
X1134630D02*
D03*
Y745850D02*
D03*
D30*
X1199630D02*
D03*
D31*
X1215390Y862330D02*
D03*
X1121410Y923290D02*
D03*
X1135705Y884202D02*
D03*
X1181100Y1073150D02*
D03*
X1187234Y724741D02*
D03*
X986682Y970604D02*
D03*
M02*
