G04*
G04 #@! TF.GenerationSoftware,Altium Limited,Altium Designer,23.7.1 (13)*
G04*
G04 Layer_Color=32768*
%FSLAX44Y44*%
%MOMM*%
G71*
G04*
G04 #@! TF.SameCoordinates,CE8F035A-CAA1-46AD-B9C8-9F5C44ABE2B8*
G04*
G04*
G04 #@! TF.FilePolarity,Positive*
G04*
G01*
G75*
%ADD12C,0.2000*%
%ADD32C,0.1000*%
%ADD33C,0.0500*%
D12*
X1221650Y695960D02*
G03*
X1178650Y695960I-21500J0D01*
G01*
D02*
G03*
X1221650Y695960I21500J0D01*
G01*
X1718040Y710210D02*
Y846810D01*
X1690640Y710210D02*
X1718040D01*
X1690640D02*
Y846810D01*
X1718040D01*
X1063260Y1117320D02*
X1090660D01*
X1063260Y599720D02*
Y1117320D01*
Y599720D02*
X1090660D01*
Y1117320D01*
X1464002Y583210D02*
Y846810D01*
X1436602Y583210D02*
X1464002D01*
X1436602D02*
Y846810D01*
X1464002D01*
X1098550Y686960D02*
Y704960D01*
Y686960D02*
X1162050D01*
Y704960D01*
X1098550D02*
X1162050D01*
X834660Y1117320D02*
X862060D01*
X834660Y599720D02*
Y1117320D01*
Y599720D02*
X862060D01*
Y1117320D01*
D32*
X1162130Y768350D02*
X1172130D01*
X1167130Y763350D02*
Y773350D01*
D33*
X1208630Y736350D02*
Y800350D01*
X1125630D02*
X1208630D01*
X1125630Y736350D02*
Y800350D01*
Y736350D02*
X1208630D01*
M02*
