G04*
G04 #@! TF.GenerationSoftware,Altium Limited,Altium Designer,23.7.1 (13)*
G04*
G04 Layer_Color=255*
%FSLAX44Y44*%
%MOMM*%
G71*
G04*
G04 #@! TF.SameCoordinates,CE8F035A-CAA1-46AD-B9C8-9F5C44ABE2B8*
G04*
G04*
G04 #@! TF.FilePolarity,Positive*
G04*
G01*
G75*
%ADD17R,1.5900X1.5900*%
%ADD18C,1.5900*%
%ADD21R,1.3000X1.3000*%
%ADD22C,1.1500*%
%ADD23R,1.1500X1.1500*%
%ADD24C,1.3000*%
%ADD27C,3.2000*%
%ADD28C,1.0000*%
%ADD29C,1.5000*%
%ADD30R,1.5000X1.5000*%
D17*
X1704340Y829310D02*
D03*
X1076960Y1099820D02*
D03*
X1450302Y829310D02*
D03*
X848360Y1099820D02*
D03*
D18*
X1704340Y778510D02*
D03*
Y753110D02*
D03*
Y727710D02*
D03*
Y803910D02*
D03*
X1076960Y617220D02*
D03*
Y642620D02*
D03*
Y668020D02*
D03*
Y693420D02*
D03*
Y718820D02*
D03*
Y744220D02*
D03*
Y769620D02*
D03*
Y795020D02*
D03*
Y845820D02*
D03*
Y871220D02*
D03*
Y947420D02*
D03*
Y972820D02*
D03*
Y998220D02*
D03*
Y1023620D02*
D03*
Y1049020D02*
D03*
Y820420D02*
D03*
Y896620D02*
D03*
Y922020D02*
D03*
Y1074420D02*
D03*
X1450302Y651510D02*
D03*
Y803910D02*
D03*
Y778510D02*
D03*
Y753110D02*
D03*
Y727710D02*
D03*
Y702310D02*
D03*
Y676910D02*
D03*
Y626110D02*
D03*
Y600710D02*
D03*
X848360Y871220D02*
D03*
Y845820D02*
D03*
Y617220D02*
D03*
Y642620D02*
D03*
Y668020D02*
D03*
Y693420D02*
D03*
Y718820D02*
D03*
Y744220D02*
D03*
Y769620D02*
D03*
Y795020D02*
D03*
Y820420D02*
D03*
Y896620D02*
D03*
Y922020D02*
D03*
Y947420D02*
D03*
Y972820D02*
D03*
Y998220D02*
D03*
Y1023620D02*
D03*
Y1049020D02*
D03*
Y1074420D02*
D03*
D21*
X1187450Y695960D02*
D03*
D22*
X1155300D02*
D03*
D23*
X1105300D02*
D03*
D24*
X1212850D02*
D03*
D27*
X1692910Y609600D02*
D03*
X1311910Y1123950D02*
D03*
X1692910D02*
D03*
D28*
Y1050290D02*
D03*
D29*
X1199630Y790850D02*
D03*
X1134630D02*
D03*
Y745850D02*
D03*
D30*
X1199630D02*
D03*
M02*
