G04*
G04 #@! TF.GenerationSoftware,Altium Limited,Altium Designer,23.7.1 (13)*
G04*
G04 Layer_Color=16711935*
%FSLAX44Y44*%
%MOMM*%
G71*
G04*
G04 #@! TF.SameCoordinates,CE8F035A-CAA1-46AD-B9C8-9F5C44ABE2B8*
G04*
G04*
G04 #@! TF.FilePolarity,Positive*
G04*
G01*
G75*
%ADD11C,0.1500*%
%ADD12C,0.2000*%
%ADD32C,0.1000*%
D11*
X1220650Y695960D02*
G03*
X1220650Y695960I-20500J0D01*
G01*
D12*
X1717040Y711210D02*
Y845810D01*
X1691640Y711210D02*
X1717040D01*
X1691640D02*
Y845810D01*
X1717040D01*
X1064260Y1116320D02*
X1089660D01*
X1064260Y600720D02*
Y1116320D01*
Y600720D02*
X1089660D01*
Y1116320D01*
X1463002Y584210D02*
Y845810D01*
X1437602Y584210D02*
X1463002D01*
X1437602D02*
Y845810D01*
X1463002D01*
X1112300Y687960D02*
Y703960D01*
Y687960D02*
X1148300D01*
Y703960D01*
X1112300D02*
X1148300D01*
X835660Y1116320D02*
X861060D01*
X835660Y600720D02*
Y1116320D01*
Y600720D02*
X861060D01*
Y1116320D01*
D32*
X1197130Y738350D02*
Y798350D01*
X1137130Y738350D02*
Y798350D01*
Y738350D02*
X1197130D01*
X1137130Y798350D02*
X1197130D01*
M02*
